<?xml version="1.0" encoding="utf-8" ?>
<svg baseProfile="full" height="297.0mm" version="1.1" viewBox="0 0 420.0 297.0" width="420.0mm" xmlns="http://www.w3.org/2000/svg" xmlns:ev="http://www.w3.org/2001/xml-events" xmlns:xlink="http://www.w3.org/1999/xlink"><defs /><rect fill="white" height="297.0" width="420.0" x="0" y="0" /><path d="M 253.713,141.500 L 245.073,141.500 L 244.680,141.500 L 244.680,136.420 L 244.680,114.094 L 244.680,105.454 L 244.680,103.834 L 244.680,93.280 L 244.680,88.500 L 245.280,88.500 L 249.655,88.500 L 264.330,88.500 L 264.330,106.750 L 254.186,106.750 L 254.186,141.500 L 253.713,141.500 Z" fill="#eef3fb" fill-rule="evenodd" stroke="#9fb3d9" stroke-width="0.15" /><path d="M 203.320,141.500 L 194.680,141.500 L 184.670,141.500 L 184.670,123.250 L 194.814,123.250 L 194.814,88.500 L 195.333,88.500 L 200.511,88.500 L 203.973,88.500 L 204.320,88.500 L 204.320,93.580 L 204.320,116.061 L 204.320,124.701 L 204.320,126.321 L 204.320,136.720 L 204.320,141.500 L 203.320,141.500 Z" fill="#eef3fb" fill-rule="evenodd" stroke="#9fb3d9" stroke-width="0.15" /><path d="M 243.440,103.214 L 228.200,103.214 L 228.200,93.900 L 243.440,93.900 L 243.440,103.214 Z" fill="#eef3fb" fill-rule="evenodd" stroke="#9fb3d9" stroke-width="0.15" /><path d="M 205.560,126.941 L 220.800,126.941 L 220.800,136.100 L 205.560,136.100 L 205.560,126.941 Z" fill="#eef3fb" fill-rule="evenodd" stroke="#9fb3d9" stroke-width="0.15" /><path d="M 205.560,94.500 L 220.800,94.500 L 220.800,125.701 L 205.560,125.701 L 205.560,94.500 Z" fill="#eef3fb" fill-rule="evenodd" stroke="#9fb3d9" stroke-width="0.15" /><path d="M 243.440,135.500 L 228.200,135.500 L 228.200,104.454 L 243.440,104.454 L 243.440,135.500 Z" fill="#eef3fb" fill-rule="evenodd" stroke="#9fb3d9" stroke-width="0.15" /><path d="M 195.333,87.260 L 194.814,87.260 L 184.670,87.260 L 184.670,30.170 L 221.750,30.170 L 221.750,92.660 L 221.560,92.660 L 205.560,92.660 L 205.560,87.260 L 203.973,87.260 L 195.333,87.260 Z" fill="#eef3fb" fill-rule="evenodd" stroke="#9fb3d9" stroke-width="0.15" /><path d="M 227.250,30.170 L 264.330,30.170 L 264.330,87.260 L 253.920,87.260 L 245.280,87.260 L 243.440,87.260 L 243.440,92.660 L 227.440,92.660 L 227.250,92.660 L 227.250,30.170 Z" fill="#eef3fb" fill-rule="evenodd" stroke="#9fb3d9" stroke-width="0.15" /><path d="M 184.670,199.830 L 184.670,142.740 L 194.680,142.740 L 203.320,142.740 L 205.560,142.740 L 205.560,137.340 L 221.560,137.340 L 221.750,137.340 L 221.750,199.830 L 184.670,199.830 Z" fill="#eef3fb" fill-rule="evenodd" stroke="#9fb3d9" stroke-width="0.15" /><path d="M 227.250,137.340 L 227.440,137.340 L 243.440,137.340 L 243.440,142.740 L 245.073,142.740 L 253.713,142.740 L 254.186,142.740 L 264.330,142.740 L 264.330,199.830 L 227.250,199.830 L 227.250,137.340 Z" fill="#eef3fb" fill-rule="evenodd" stroke="#9fb3d9" stroke-width="0.15" /><path d="M 221.750,94.500 L 221.750,92.660 L 221.750,92.660 L 221.750,30.170 L 227.250,30.170 L 227.250,92.660 L 227.250,92.660 L 227.250,93.900 L 227.250,93.900 L 227.250,135.500 L 227.250,135.500 L 227.250,137.340 L 227.250,199.830 L 221.750,199.830 L 221.750,137.340 L 221.750,136.100 L 221.750,94.500 Z" fill="#2b2b2b" fill-rule="evenodd" stroke="none" /><path d="M 221.750,92.660 L 221.750,94.500 L 205.560,94.500 L 205.560,92.660 L 221.750,92.660 Z" fill="#2b2b2b" fill-rule="evenodd" stroke="none" /><path d="M 205.560,137.340 L 205.560,136.100 L 221.750,136.100 L 221.750,137.340 L 205.560,137.340 Z" fill="#2b2b2b" fill-rule="evenodd" stroke="none" /><path d="M 243.440,92.660 L 243.440,93.900 L 227.250,93.900 L 227.250,92.660 L 243.440,92.660 Z" fill="#2b2b2b" fill-rule="evenodd" stroke="none" /><path d="M 227.250,137.340 L 227.250,135.500 L 243.440,135.500 L 243.440,137.340 L 227.250,137.340 Z" fill="#2b2b2b" fill-rule="evenodd" stroke="none" /><path d="M 184.670,30.170 L 184.670,30.170 L 180.500,26.000 L 193.750,26.000 L 193.750,26.000 L 221.750,26.000 L 221.750,26.000 L 268.500,26.000 L 264.330,30.170 L 192.860,30.170 L 192.860,30.170 L 184.670,30.170 L 184.670,30.170 L 184.670,30.170 L 184.670,30.170 L 184.670,30.170 Z" fill="#2b2b2b" fill-rule="evenodd" stroke="none" /><path d="M 180.500,204.000 L 184.670,199.830 L 256.140,199.830 L 256.140,199.830 L 264.330,199.830 L 264.330,199.830 L 264.330,199.830 L 264.330,199.830 L 268.500,204.000 L 264.330,204.000 L 264.330,204.000 L 256.140,204.000 L 256.140,204.000 L 255.250,204.000 L 255.250,204.000 L 227.250,204.000 L 227.250,204.000 L 180.500,204.000 Z" fill="#2b2b2b" fill-rule="evenodd" stroke="none" /><path d="M 184.670,141.500 L 194.680,141.500 L 203.320,141.500 L 204.320,141.500 L 204.320,142.740 L 203.320,142.740 L 194.680,142.740 L 184.670,142.740 L 184.670,141.500 Z" fill="#2b2b2b" fill-rule="evenodd" stroke="none" /><path d="M 245.280,87.260 L 253.920,87.260 L 264.330,87.260 L 264.330,88.500 L 253.920,88.500 L 245.280,88.500 L 244.680,88.500 L 244.680,87.260 L 245.280,87.260 Z" fill="#2b2b2b" fill-rule="evenodd" stroke="none" /><path d="M 204.320,142.740 L 204.320,124.701 L 204.320,116.061 L 204.320,88.500 L 205.560,88.500 L 205.560,116.061 L 205.560,124.701 L 205.560,142.740 L 204.320,142.740 Z" fill="#2b2b2b" fill-rule="evenodd" stroke="none" /><path d="M 243.440,114.094 L 243.440,105.454 L 243.440,87.260 L 244.680,87.260 L 244.680,105.454 L 244.680,114.094 L 244.680,141.500 L 243.440,141.500 L 243.440,114.094 Z" fill="#2b2b2b" fill-rule="evenodd" stroke="none" /><path d="M 264.330,143.740 L 264.330,67.360 L 264.330,67.360 L 264.330,59.170 L 264.330,59.170 L 264.330,59.170 L 264.330,59.170 L 264.330,30.170 L 268.500,26.000 L 268.500,30.170 L 268.500,30.170 L 268.500,58.170 L 268.500,58.170 L 268.500,204.000 L 264.330,199.830 L 264.330,151.240 L 264.330,151.240 L 264.330,143.740 L 264.330,143.740 Z" fill="#2b2b2b" fill-rule="evenodd" stroke="none" /><path d="M 180.500,171.830 L 180.500,170.830 L 180.500,170.830 L 180.500,162.640 L 180.500,162.640 L 180.500,86.260 L 180.500,78.760 L 180.500,26.000 L 184.670,30.170 L 184.670,162.640 L 184.670,170.830 L 184.670,199.830 L 180.500,204.000 L 180.500,199.830 L 180.500,199.830 L 180.500,171.830 L 180.500,171.830 Z" fill="#2b2b2b" fill-rule="evenodd" stroke="none" /><path d="M 228.200,135.500 L 226.680,135.500 L 226.680,93.900 L 228.200,93.900 L 228.200,135.500 Z" fill="#2b2b2b" fill-rule="evenodd" stroke="none" /><path d="M 220.800,94.500 L 222.320,94.500 L 222.320,136.100 L 220.800,136.100 L 220.800,94.500 Z" fill="#2b2b2b" fill-rule="evenodd" stroke="none" /><path d="M 205.560,125.701 L 205.760,125.701 L 213.380,125.701 L 220.800,125.701 L 220.800,126.941 L 213.380,126.941 L 205.760,126.941 L 205.560,126.941 L 205.560,125.701 Z" fill="#2b2b2b" fill-rule="evenodd" stroke="none" /><path d="M 235.814,103.214 L 243.434,103.214 L 243.440,103.214 L 243.440,104.454 L 243.434,104.454 L 235.814,104.454 L 228.200,104.454 L 228.200,103.214 L 235.814,103.214 Z" fill="#2b2b2b" fill-rule="evenodd" stroke="none" /><path d="M 259.736,91.405 L 259.736,91.945 L 248.905,91.945 L 248.905,91.405 L 259.736,91.405 Z" fill="#2b2b2b" fill-rule="evenodd" stroke="none" /><path d="M 248.905,91.945 L 249.445,91.945 L 249.445,103.296 L 248.905,103.296 L 248.905,91.945 Z" fill="#2b2b2b" fill-rule="evenodd" stroke="none" /><path d="M 249.445,103.296 L 249.445,102.756 L 260.276,102.756 L 260.276,103.296 L 249.445,103.296 Z" fill="#2b2b2b" fill-rule="evenodd" stroke="none" /><path d="M 260.276,102.756 L 259.736,102.756 L 259.736,91.405 L 260.276,91.405 L 260.276,102.756 Z" fill="#2b2b2b" fill-rule="evenodd" stroke="none" /><path d="M 199.406,126.705 L 199.406,127.245 L 188.575,127.245 L 188.575,126.705 L 199.406,126.705 Z" fill="#2b2b2b" fill-rule="evenodd" stroke="none" /><path d="M 188.575,127.245 L 189.115,127.245 L 189.115,138.596 L 188.575,138.596 L 188.575,127.245 Z" fill="#2b2b2b" fill-rule="evenodd" stroke="none" /><path d="M 189.115,138.596 L 189.115,138.055 L 199.946,138.055 L 199.946,138.596 L 189.115,138.596 Z" fill="#2b2b2b" fill-rule="evenodd" stroke="none" /><path d="M 199.946,138.055 L 199.406,138.055 L 199.406,126.705 L 199.946,126.705 L 199.946,138.055 Z" fill="#2b2b2b" fill-rule="evenodd" stroke="none" /><path d="M 195.333,87.260 L 194.573,87.260 L 194.573,87.010 L 195.333,87.010 L 203.973,87.010 L 204.733,87.010 L 204.733,87.260 L 203.973,87.260 L 203.973,87.260 L 203.973,87.770 L 195.333,87.770 L 195.333,87.260 Z" fill="white" fill-rule="evenodd" stroke="none" /><path d="M 195.333,88.500 L 203.973,88.500 L 204.733,88.500 L 204.733,88.750 L 203.973,88.750 L 195.333,88.750 L 194.573,88.750 L 194.573,88.500 L 195.333,88.500 Z" fill="white" fill-rule="evenodd" stroke="none" /><path d="M 245.073,141.500 L 244.313,141.500 L 244.313,141.250 L 245.073,141.250 L 253.713,141.250 L 254.473,141.250 L 254.473,141.500 L 253.713,141.500 L 245.073,141.500 Z" fill="white" fill-rule="evenodd" stroke="none" /><path d="M 253.713,142.230 L 253.713,142.740 L 254.473,142.740 L 254.473,142.990 L 253.713,142.990 L 245.073,142.990 L 244.313,142.990 L 244.313,142.740 L 245.073,142.740 L 245.073,142.230 L 253.713,142.230 Z" fill="white" fill-rule="evenodd" stroke="none" /><path d="M 194.680,142.740 L 194.680,142.230 L 203.320,142.230 L 203.320,142.740 L 204.080,142.740 L 204.080,142.990 L 203.320,142.990 L 194.680,142.990 L 193.920,142.990 L 193.920,142.740 L 194.680,142.740 Z" fill="white" fill-rule="evenodd" stroke="none" /><path d="M 203.320,141.250 L 204.080,141.250 L 204.080,141.500 L 203.320,141.500 L 194.680,141.500 L 193.920,141.500 L 193.920,141.250 L 194.680,141.250 L 203.320,141.250 Z" fill="white" fill-rule="evenodd" stroke="none" /><path d="M 245.280,88.750 L 244.520,88.750 L 244.520,88.500 L 245.280,88.500 L 253.920,88.500 L 254.680,88.500 L 254.680,88.750 L 253.920,88.750 L 245.280,88.750 Z" fill="white" fill-rule="evenodd" stroke="none" /><path d="M 254.680,87.260 L 253.920,87.260 L 245.280,87.260 L 244.520,87.260 L 244.520,87.010 L 245.280,87.010 L 253.920,87.010 L 254.680,87.010 L 254.680,87.260 Z" fill="white" fill-rule="evenodd" stroke="none" /><path d="M 253.920,87.260 L 253.920,87.770 L 245.280,87.770 L 245.280,87.260 L 253.920,87.260 Z" fill="white" fill-rule="evenodd" stroke="none" /><path d="M 205.050,124.701 L 205.050,116.061 L 205.560,116.061 L 205.560,115.301 L 205.810,115.301 L 205.810,116.061 L 205.810,124.701 L 205.810,125.461 L 205.560,125.461 L 205.560,124.701 L 205.050,124.701 Z" fill="white" fill-rule="evenodd" stroke="none" /><path d="M 204.070,115.301 L 204.320,115.301 L 204.320,116.061 L 204.320,124.701 L 204.320,125.461 L 204.070,125.461 L 204.070,124.701 L 204.070,116.061 L 204.070,115.301 Z" fill="white" fill-rule="evenodd" stroke="none" /><path d="M 244.680,114.094 L 244.680,105.454 L 244.680,104.694 L 244.930,104.694 L 244.930,105.454 L 244.930,114.094 L 244.930,114.854 L 244.680,114.854 L 244.680,114.094 Z" fill="white" fill-rule="evenodd" stroke="none" /><path d="M 243.190,114.094 L 243.190,105.454 L 243.190,104.694 L 243.440,104.694 L 243.440,105.454 L 243.950,105.454 L 243.950,114.094 L 243.440,114.094 L 243.440,114.854 L 243.190,114.854 L 243.190,114.094 Z" fill="white" fill-rule="evenodd" stroke="none" /><path d="M 205.760,125.451 L 213.380,125.451 L 214.140,125.451 L 214.140,125.701 L 213.380,125.701 L 205.760,125.701 L 205.000,125.701 L 205.000,125.451 L 205.760,125.451 Z" fill="white" fill-rule="evenodd" stroke="none" /><path d="M 214.140,126.941 L 214.140,127.191 L 213.380,127.191 L 205.760,127.191 L 205.000,127.191 L 205.000,126.941 L 205.760,126.941 L 205.760,126.941 L 205.760,126.431 L 213.380,126.431 L 213.380,126.941 L 214.140,126.941 Z" fill="white" fill-rule="evenodd" stroke="none" /><path d="M 235.814,103.214 L 235.054,103.214 L 235.054,102.964 L 235.814,102.964 L 243.434,102.964 L 244.194,102.964 L 244.194,103.214 L 243.434,103.214 L 243.434,103.724 L 235.814,103.724 L 235.814,103.214 Z" fill="white" fill-rule="evenodd" stroke="none" /><path d="M 235.814,104.454 L 243.434,104.454 L 244.194,104.454 L 244.194,104.704 L 243.434,104.704 L 235.814,104.704 L 235.054,104.704 L 235.054,104.454 L 235.814,104.454 Z" fill="white" fill-rule="evenodd" stroke="none" /><path d="M 221.560,26.000 L 221.750,26.000 L 221.750,26.630 L 221.750,26.630 L 221.750,30.170 L 221.430,30.170 L 221.430,30.170 L 194.070,30.170 L 193.750,30.170 L 193.750,26.630 L 193.750,26.630 L 193.750,26.000 L 193.940,26.000 L 221.560,26.000 Z" fill="white" fill-rule="evenodd" stroke="none" /><path d="M 192.670,26.000 L 192.860,26.000 L 192.860,26.630 L 192.860,26.630 L 192.860,30.170 L 192.540,30.170 L 184.990,30.170 L 184.670,30.170 L 184.670,26.630 L 184.670,26.630 L 184.670,26.000 L 184.860,26.000 L 184.860,26.000 L 192.670,26.000 Z" fill="white" fill-rule="evenodd" stroke="none" /><path d="M 192.670,26.000 L 192.860,26.000 L 192.860,26.634 L 192.860,30.170 L 192.543,30.170 L 184.988,30.170 L 184.670,30.170 L 184.670,26.634 L 184.670,26.634 L 184.670,26.000 L 184.861,26.000 L 192.670,26.000 Z" fill="white" fill-rule="evenodd" stroke="none" /><path d="M 192.670,26.000 L 192.860,26.000 L 192.860,26.630 L 192.860,26.630 L 192.860,30.170 L 192.540,30.170 L 184.990,30.170 L 184.670,30.170 L 184.670,26.630 L 184.670,26.630 L 184.670,26.000 L 184.860,26.000 L 184.860,26.000 L 192.670,26.000 Z" fill="white" fill-rule="evenodd" stroke="none" /><path d="M 255.250,204.000 L 255.060,204.000 L 227.440,204.000 L 227.250,204.000 L 227.250,203.370 L 227.250,203.370 L 227.250,199.830 L 227.570,199.830 L 227.570,199.830 L 254.930,199.830 L 255.250,199.830 L 255.250,203.370 L 255.250,203.370 L 255.250,204.000 Z" fill="white" fill-rule="evenodd" stroke="none" /><path d="M 264.330,204.000 L 264.140,204.000 L 256.330,204.000 L 256.140,204.000 L 256.140,203.370 L 256.140,203.370 L 256.140,199.830 L 256.460,199.830 L 264.010,199.830 L 264.330,199.830 L 264.330,203.370 L 264.330,203.370 L 264.330,204.000 Z" fill="white" fill-rule="evenodd" stroke="none" /><path d="M 264.139,204.000 L 256.330,204.000 L 256.140,204.000 L 256.140,203.365 L 256.140,199.830 L 256.457,199.830 L 264.012,199.830 L 264.330,199.830 L 264.330,203.365 L 264.330,204.000 L 264.139,204.000 Z" fill="white" fill-rule="evenodd" stroke="none" /><path d="M 264.330,204.000 L 264.140,204.000 L 256.330,204.000 L 256.140,204.000 L 256.140,203.370 L 256.140,203.370 L 256.140,199.830 L 256.460,199.830 L 264.010,199.830 L 264.330,199.830 L 264.330,203.370 L 264.330,203.370 L 264.330,204.000 Z" fill="white" fill-rule="evenodd" stroke="none" /><path d="M 180.500,171.830 L 181.130,171.830 L 181.130,171.830 L 184.670,171.830 L 184.670,172.150 L 184.670,172.150 L 184.670,199.510 L 184.670,199.830 L 181.130,199.830 L 181.130,199.830 L 180.500,199.830 L 180.500,199.640 L 180.500,172.020 L 180.500,171.830 Z" fill="white" fill-rule="evenodd" stroke="none" /><path d="M 180.500,162.640 L 181.130,162.640 L 181.130,162.640 L 184.670,162.640 L 184.670,162.960 L 184.670,170.510 L 184.670,170.830 L 181.130,170.830 L 181.130,170.830 L 180.500,170.830 L 180.500,170.640 L 180.500,162.830 L 180.500,162.640 Z" fill="white" fill-rule="evenodd" stroke="none" /><path d="M 180.500,162.640 L 181.130,162.640 L 181.130,162.640 L 184.670,162.640 L 184.670,162.960 L 184.670,170.510 L 184.670,170.830 L 181.130,170.830 L 181.130,170.830 L 180.500,170.830 L 180.500,170.640 L 180.500,162.830 L 180.500,162.640 Z" fill="white" fill-rule="evenodd" stroke="none" /><path d="M 180.500,170.830 L 180.500,170.639 L 180.500,162.830 L 180.500,162.640 L 181.135,162.640 L 184.670,162.640 L 184.670,162.957 L 184.670,170.512 L 184.670,170.830 L 181.135,170.830 L 180.500,170.830 Z" fill="white" fill-rule="evenodd" stroke="none" /><path d="M 264.330,58.170 L 264.330,57.850 L 264.330,57.850 L 264.330,30.490 L 264.330,30.170 L 267.870,30.170 L 267.870,30.170 L 268.500,30.170 L 268.500,30.360 L 268.500,57.980 L 268.500,58.170 L 267.870,58.170 L 267.870,58.170 L 264.330,58.170 Z" fill="white" fill-rule="evenodd" stroke="none" /><path d="M 264.330,67.040 L 264.330,59.490 L 264.330,59.170 L 267.870,59.170 L 267.870,59.170 L 268.500,59.170 L 268.500,59.360 L 268.500,67.170 L 268.500,67.360 L 267.870,67.360 L 267.870,67.360 L 264.330,67.360 L 264.330,67.040 Z" fill="white" fill-rule="evenodd" stroke="none" /><path d="M 264.330,59.488 L 264.330,59.170 L 267.865,59.170 L 267.865,59.170 L 268.500,59.170 L 268.500,59.361 L 268.500,67.170 L 268.500,67.360 L 267.865,67.360 L 264.330,67.360 L 264.330,67.043 L 264.330,59.488 Z" fill="white" fill-rule="evenodd" stroke="none" /><path d="M 264.330,67.040 L 264.330,59.490 L 264.330,59.170 L 267.870,59.170 L 267.870,59.170 L 268.500,59.170 L 268.500,59.360 L 268.500,67.170 L 268.500,67.360 L 267.870,67.360 L 267.870,67.360 L 264.330,67.360 L 264.330,67.040 Z" fill="white" fill-rule="evenodd" stroke="none" /><path d="M 264.330,150.920 L 264.330,144.060 L 264.330,143.740 L 267.870,143.740 L 267.870,143.740 L 268.500,143.740 L 268.500,143.930 L 268.500,151.050 L 268.500,151.240 L 267.870,151.240 L 267.870,151.240 L 264.330,151.240 L 264.330,150.920 Z" fill="white" fill-rule="evenodd" stroke="none" /><path d="M 180.500,78.950 L 180.500,78.950 L 180.500,78.760 L 181.130,78.760 L 181.130,78.760 L 184.670,78.760 L 184.670,79.080 L 184.670,85.940 L 184.670,86.260 L 181.130,86.260 L 181.130,86.260 L 180.500,86.260 L 180.500,86.070 L 180.500,86.070 L 180.500,78.950 Z" fill="white" fill-rule="evenodd" stroke="none" /><line stroke="#2a7fff" stroke-width="0.35" x1="193.75000000000009" x2="221.7500000000001" y1="28.68500000000001" y2="28.68500000000001" /><line stroke="#2a7fff" stroke-width="0.35" x1="193.75000000000009" x2="221.7500000000001" y1="27.48500000000001" y2="27.48500000000001" /><text fill="#2a7fff" font-family="Helvetica, Arial, sans-serif" font-size="1.8" text-anchor="middle" x="207.75000000000009" y="26.485000000000007">W-22</text><line stroke="#2a7fff" stroke-width="0.35" x1="192.8600000000001" x2="184.6700000000001" y1="27.484999999999992" y2="27.484999999999992" /><line stroke="#2a7fff" stroke-width="0.35" x1="192.8600000000001" x2="184.6700000000001" y1="28.684999999999995" y2="28.684999999999995" /><text fill="#2a7fff" font-family="Helvetica, Arial, sans-serif" font-size="1.8" text-anchor="middle" x="188.7650000000001" y="26.484999999999992">W-19</text><line stroke="#2a7fff" stroke-width="0.35" x1="184.67000000000016" x2="192.86000000000016" y1="28.685" y2="28.685" /><line stroke="#2a7fff" stroke-width="0.35" x1="184.67000000000016" x2="192.86000000000016" y1="27.485" y2="27.485" /><text fill="#2a7fff" font-family="Helvetica, Arial, sans-serif" font-size="1.8" text-anchor="middle" x="188.76500000000016" y="26.485">W-20</text><line stroke="#2a7fff" stroke-width="0.35" x1="192.8600000000001" x2="184.6700000000001" y1="27.484999999999992" y2="27.484999999999992" /><line stroke="#2a7fff" stroke-width="0.35" x1="192.8600000000001" x2="184.6700000000001" y1="28.684999999999995" y2="28.684999999999995" /><text fill="#2a7fff" font-family="Helvetica, Arial, sans-serif" font-size="1.8" text-anchor="middle" x="188.7650000000001" y="26.484999999999992">W-21</text><line stroke="#2a7fff" stroke-width="0.35" x1="227.24999999999963" x2="255.24999999999966" y1="202.515" y2="202.515" /><line stroke="#2a7fff" stroke-width="0.35" x1="227.24999999999963" x2="255.24999999999966" y1="201.315" y2="201.315" /><text fill="#2a7fff" font-family="Helvetica, Arial, sans-serif" font-size="1.8" text-anchor="middle" x="241.2499999999996" y="204.51499999999996">W-05</text><line stroke="#2a7fff" stroke-width="0.35" x1="256.13999999999965" x2="264.32999999999964" y1="202.51499999999993" y2="202.51499999999993" /><line stroke="#2a7fff" stroke-width="0.35" x1="256.13999999999965" x2="264.32999999999964" y1="201.31499999999994" y2="201.31499999999994" /><text fill="#2a7fff" font-family="Helvetica, Arial, sans-serif" font-size="1.8" text-anchor="middle" x="260.2349999999997" y="204.51499999999996">W-06</text><line stroke="#2a7fff" stroke-width="0.35" x1="256.13999999999953" x2="264.32999999999953" y1="202.51499999999993" y2="202.51499999999993" /><line stroke="#2a7fff" stroke-width="0.35" x1="256.13999999999953" x2="264.32999999999953" y1="201.31499999999994" y2="201.31499999999994" /><text fill="#2a7fff" font-family="Helvetica, Arial, sans-serif" font-size="1.8" text-anchor="middle" x="260.23499999999956" y="204.51499999999996">W-07</text><line stroke="#2a7fff" stroke-width="0.35" x1="256.13999999999965" x2="264.32999999999964" y1="202.51499999999993" y2="202.51499999999993" /><line stroke="#2a7fff" stroke-width="0.35" x1="256.13999999999965" x2="264.32999999999964" y1="201.31499999999994" y2="201.31499999999994" /><text fill="#2a7fff" font-family="Helvetica, Arial, sans-serif" font-size="1.8" text-anchor="middle" x="260.2349999999997" y="204.51499999999996">W-08</text><line stroke="#2a7fff" stroke-width="0.35" x1="183.18499999999997" x2="183.18499999999997" y1="199.8299999999996" y2="171.82999999999964" /><line stroke="#2a7fff" stroke-width="0.35" x1="181.98499999999996" x2="181.98499999999996" y1="199.8299999999996" y2="171.82999999999964" /><text fill="#2a7fff" font-family="Helvetica, Arial, sans-serif" font-size="1.8" text-anchor="middle" x="182.58499999999998" y="188.42999999999958">W-09</text><line stroke="#2a7fff" stroke-width="0.35" x1="183.18499999999997" x2="183.18499999999997" y1="170.8299999999996" y2="162.6399999999996" /><line stroke="#2a7fff" stroke-width="0.35" x1="181.98499999999999" x2="181.98499999999999" y1="170.8299999999996" y2="162.6399999999996" /><text fill="#2a7fff" font-family="Helvetica, Arial, sans-serif" font-size="1.8" text-anchor="middle" x="182.58499999999998" y="169.3349999999996">W-10</text><line stroke="#2a7fff" stroke-width="0.35" x1="183.18499999999997" x2="183.18499999999997" y1="170.8299999999996" y2="162.6399999999996" /><line stroke="#2a7fff" stroke-width="0.35" x1="181.98499999999999" x2="181.98499999999999" y1="170.8299999999996" y2="162.6399999999996" /><text fill="#2a7fff" font-family="Helvetica, Arial, sans-serif" font-size="1.8" text-anchor="middle" x="182.58499999999998" y="169.3349999999996">W-11</text><line stroke="#2a7fff" stroke-width="0.35" x1="181.98499999999999" x2="181.98499999999999" y1="162.63999999999953" y2="170.82999999999953" /><line stroke="#2a7fff" stroke-width="0.35" x1="183.185" x2="183.185" y1="162.63999999999953" y2="170.82999999999953" /><text fill="#2a7fff" font-family="Helvetica, Arial, sans-serif" font-size="1.8" text-anchor="middle" x="182.58499999999998" y="169.3349999999995">W-12</text><line stroke="#2a7fff" stroke-width="0.35" x1="265.81500000000005" x2="265.81500000000005" y1="30.170000000000343" y2="58.17000000000034" /><line stroke="#2a7fff" stroke-width="0.35" x1="267.01500000000004" x2="267.01500000000004" y1="30.170000000000343" y2="58.17000000000034" /><text fill="#2a7fff" font-family="Helvetica, Arial, sans-serif" font-size="1.8" text-anchor="middle" x="266.415" y="42.57000000000034">W-18</text><line stroke="#2a7fff" stroke-width="0.35" x1="265.81499999999994" x2="265.81499999999994" y1="59.17000000000034" y2="67.36000000000035" /><line stroke="#2a7fff" stroke-width="0.35" x1="267.015" x2="267.015" y1="59.17000000000034" y2="67.36000000000035" /><text fill="#2a7fff" font-family="Helvetica, Arial, sans-serif" font-size="1.8" text-anchor="middle" x="266.4149999999999" y="61.66500000000034">W-15</text><line stroke="#2a7fff" stroke-width="0.35" x1="265.81499999999994" x2="265.81499999999994" y1="59.170000000000414" y2="67.36000000000041" /><line stroke="#2a7fff" stroke-width="0.35" x1="267.01499999999993" x2="267.01499999999993" y1="59.170000000000414" y2="67.36000000000041" /><text fill="#2a7fff" font-family="Helvetica, Arial, sans-serif" font-size="1.8" text-anchor="middle" x="266.41499999999996" y="61.66500000000041">W-16</text><line stroke="#2a7fff" stroke-width="0.35" x1="265.81499999999994" x2="265.81499999999994" y1="59.17000000000034" y2="67.36000000000035" /><line stroke="#2a7fff" stroke-width="0.35" x1="267.015" x2="267.015" y1="59.17000000000034" y2="67.36000000000035" /><text fill="#2a7fff" font-family="Helvetica, Arial, sans-serif" font-size="1.8" text-anchor="middle" x="266.4149999999999" y="61.66500000000034">W-17</text><line stroke="#2a7fff" stroke-width="0.35" x1="267.0149999999998" x2="267.0149999999998" y1="151.24000000000007" y2="143.74000000000007" /><line stroke="#2a7fff" stroke-width="0.35" x1="265.8149999999998" x2="265.8149999999998" y1="151.24000000000007" y2="143.74000000000007" /><text fill="#2a7fff" font-family="Helvetica, Arial, sans-serif" font-size="1.8" text-anchor="start" x="268.4149999999998" y="148.19000000000005">W-13</text><line stroke="#2a7fff" stroke-width="0.35" x1="183.185" x2="183.185" y1="86.25999999999988" y2="78.75999999999988" /><line stroke="#2a7fff" stroke-width="0.35" x1="181.98499999999999" x2="181.98499999999999" y1="86.25999999999988" y2="78.75999999999988" /><text fill="#2a7fff" font-family="Helvetica, Arial, sans-serif" font-size="1.8" text-anchor="end" x="180.58499999999998" y="83.20999999999988">W-14</text><line stroke="#b5651d" stroke-width="0.4" x1="194.57299999999995" x2="194.57299999999995" y1="87.88000000000011" y2="79.24000000000011" /><polyline fill="none" points="203.21299999999994,87.88000000000011 203.13908360226966,86.75225369921887 202.91859913913748,85.64380345031432 202.55531916089745,84.57361514436573 202.0554594886975,83.56000000000012 201.42757286011621,82.62030125336477 200.68240258945173,81.77059741054833 199.8326987466353,81.02542713988383 198.89299999999994,80.39754051130257 197.87938485563433,79.89768083910259 196.80919654968574,79.53440086086256 195.7007463007812,79.31391639773038 194.57299999999995,79.24000000000011" stroke="#b5651d" stroke-dasharray="0.8,0.5" stroke-width="0.2" /><text fill="#b5651d" font-family="Helvetica, Arial, sans-serif" font-size="1.8" text-anchor="middle" x="194.57299999999995" y="78.44000000000011">D-13</text><line stroke="#b5651d" stroke-width="0.4" x1="244.31299999999985" x2="244.31299999999985" y1="142.1199999999999" y2="133.4799999999999" /><polyline fill="none" points="252.95299999999986,142.1199999999999 252.87908360226956,140.99225369921865 252.65859913913738,139.88380345031413 252.29531916089735,138.81361514436554 251.7954594886974,137.7999999999999 251.1675728601161,136.86030125336455 250.42240258945162,136.01059741054814 249.57269874663518,135.26542713988363 248.63299999999984,134.63754051130235 247.61938485563422,134.1376808391024 246.54919654968563,133.77440086086236 245.4407463007811,133.55391639773018 244.31299999999985,133.4799999999999" stroke="#b5651d" stroke-dasharray="0.8,0.5" stroke-width="0.2" /><text fill="#b5651d" font-family="Helvetica, Arial, sans-serif" font-size="1.8" text-anchor="middle" x="244.31299999999985" y="132.6799999999999">D-08</text><line stroke="#b5651d" stroke-width="0.4" x1="193.9199999999999" x2="193.9199999999999" y1="142.11999999999986" y2="133.47999999999988" /><polyline fill="none" points="202.55999999999992,142.11999999999986 202.48608360226962,140.99225369921862 202.26559913913746,139.88380345031408 201.90231916089743,138.81361514436549 201.40245948869745,137.79999999999984 200.77457286011617,136.86030125336453 200.02940258945168,136.0105974105481 199.17969874663527,135.2654271398836 198.23999999999992,134.6375405113023 197.22638485563428,134.13768083910236 196.1561965496857,133.77440086086233 195.04774630078117,133.55391639773015 193.9199999999999,133.47999999999988" stroke="#b5651d" stroke-dasharray="0.8,0.5" stroke-width="0.2" /><text fill="#b5651d" font-family="Helvetica, Arial, sans-serif" font-size="1.8" text-anchor="middle" x="193.9199999999999" y="132.67999999999986">D-07</text><line stroke="#b5651d" stroke-width="0.4" x1="244.5200000000001" x2="244.5200000000001" y1="87.88000000000011" y2="79.24000000000012" /><polyline fill="none" points="253.16000000000008,87.88000000000011 253.0860836022698,86.75225369921887 252.86559913913766,85.64380345031435 252.5023191608976,84.57361514436575 252.00245948869764,83.56000000000012 251.37457286011636,82.62030125336477 250.62940258945184,81.77059741054835 249.77969874663543,81.02542713988385 248.8400000000001,80.39754051130257 247.82638485563447,79.8976808391026 246.75619654968585,79.53440086086258 245.64774630078134,79.3139163977304 244.5200000000001,79.24000000000012" stroke="#b5651d" stroke-dasharray="0.8,0.5" stroke-width="0.2" /><text fill="#b5651d" font-family="Helvetica, Arial, sans-serif" font-size="1.8" text-anchor="middle" x="244.5200000000001" y="78.44000000000013">D-14</text><line stroke="#b5651d" stroke-width="0.4" x1="204.93999999999988" x2="196.2999999999999" y1="125.46051178510588" y2="125.46051178510588" /><polyline fill="none" points="204.93999999999988,116.8205117851059 203.81225369921864,116.89442818283617 202.7038034503141,117.11491264596835 201.6336151443655,117.47819262420838 200.6199999999999,117.97805229640835 199.68030125336455,118.60593892498962 198.8305974105481,119.35110919565413 198.08542713988362,120.20081303847054 197.45754051130234,121.1405117851059 196.95768083910238,122.15412692947152 196.59440086086235,123.22431523542011 196.37391639773017,124.33276548432464 196.2999999999999,125.46051178510588" stroke="#b5651d" stroke-dasharray="0.8,0.5" stroke-width="0.2" /><text fill="#b5651d" font-family="Helvetica, Arial, sans-serif" font-size="1.8" text-anchor="middle" x="196.2999999999999" y="124.66051178510588">D-10</text><line stroke="#b5651d" stroke-width="0.4" x1="244.06000000000012" x2="252.7000000000001" y1="104.69384235071527" y2="104.69384235071527" /><polyline fill="none" points="244.06000000000012,113.33384235071526 245.18774630078138,113.25992595298499 246.2961965496859,113.03944148985282 247.3663848556345,112.67616151161279 248.3800000000001,112.17630183941283 249.31969874663548,111.54841521083154 250.1694025894519,110.80324494016705 250.91457286011638,109.95354109735062 251.54245948869766,109.01384235071528 252.04231916089765,108.00022720634963 252.40559913913768,106.93003890040106 252.62608360226983,105.82158865149653 252.7000000000001,104.69384235071527" stroke="#b5651d" stroke-dasharray="0.8,0.5" stroke-width="0.2" /><text fill="#b5651d" font-family="Helvetica, Arial, sans-serif" font-size="1.8" text-anchor="middle" x="252.7000000000001" y="103.89384235071527">D-11</text><line stroke="#b5651d" stroke-width="0.4" x1="204.99999999999997" x2="204.99999999999997" y1="126.32051178510584" y2="118.70051178510583" /><polyline fill="none" points="212.61999999999998,126.32051178510584 212.5548098436684,125.32590220038904 212.36035479632267,124.34831066142462 212.03996203773596,123.40446403048385 211.5991135768374,122.51051178510583 211.04535245301918,121.68174969605938 210.38815367264147,120.93235811246434 209.63876208904642,120.27515933208663 208.80999999999997,119.72139820826843 207.91604775462196,119.28054974736983 206.97220112368117,118.96015698878313 205.99460958471676,118.7657019414374 204.99999999999997,118.70051178510583" stroke="#b5651d" stroke-dasharray="0.8,0.5" stroke-width="0.2" /><text fill="#b5651d" font-family="Helvetica, Arial, sans-serif" font-size="1.8" text-anchor="middle" x="204.99999999999997" y="117.90051178510583">D-09</text><line stroke="#b5651d" stroke-width="0.4" x1="235.05375000000004" x2="235.05375000000004" y1="103.8338423507153" y2="96.2138423507153" /><polyline fill="none" points="242.67375000000004,103.8338423507153 242.60855984366847,102.83923276599852 242.41410479632276,101.8616412270341 242.09371203773605,100.91779459609332 241.65286357683746,100.0238423507153 241.09910245301927,99.19508026166885 240.44190367264153,98.44568867807381 239.6925120890465,97.7884898976961 238.86375000000004,97.23472877387788 237.96979775462205,96.7938803129793 237.02595112368124,96.4734875543926 236.04835958471685,96.27903250704686 235.05375000000004,96.2138423507153" stroke="#b5651d" stroke-dasharray="0.8,0.5" stroke-width="0.2" /><text fill="#b5651d" font-family="Helvetica, Arial, sans-serif" font-size="1.8" text-anchor="middle" x="235.05375000000004" y="95.4138423507153">D-12</text><text fill="#111111" font-family="Helvetica, Arial, sans-serif" font-size="2.6" font-weight="bold" text-anchor="middle" x="252.07309457925578" y="109.33113045144312">R-17  Hallway</text><text fill="#111111" font-family="Helvetica, Arial, sans-serif" font-size="2.2" text-anchor="middle" x="252.07309457925578" y="112.53113045144312">6.9 m²</text><text fill="#111111" font-family="Helvetica, Arial, sans-serif" font-size="2.6" font-weight="bold" text-anchor="middle" x="196.9269054207441" y="118.66886954855683">R-14  Hallway</text><text fill="#111111" font-family="Helvetica, Arial, sans-serif" font-size="2.2" text-anchor="middle" x="196.9269054207441" y="121.86886954855683">6.9 m²</text><text fill="#111111" font-family="Helvetica, Arial, sans-serif" font-size="2.6" font-weight="bold" text-anchor="middle" x="235.82" y="97.55692117535766">R-18  Utility</text><text fill="#111111" font-family="Helvetica, Arial, sans-serif" font-size="2.2" text-anchor="middle" x="235.82" y="100.75692117535766">1.4 m²</text><text fill="#111111" font-family="Helvetica, Arial, sans-serif" font-size="2.6" font-weight="bold" text-anchor="middle" x="213.17999999999986" y="130.52025589255288">R-13  Utility</text><text fill="#111111" font-family="Helvetica, Arial, sans-serif" font-size="2.2" text-anchor="middle" x="213.17999999999986" y="133.72025589255287">1.4 m²</text><text fill="#111111" font-family="Helvetica, Arial, sans-serif" font-size="2.6" font-weight="bold" text-anchor="middle" x="213.1799999999999" y="109.10025589255295">R-16  Bathroom 2</text><text fill="#111111" font-family="Helvetica, Arial, sans-serif" font-size="2.2" text-anchor="middle" x="213.1799999999999" y="112.30025589255295">4.8 m²</text><text fill="#111111" font-family="Helvetica, Arial, sans-serif" font-size="2.6" font-weight="bold" text-anchor="middle" x="235.81999999999994" y="118.97692117535765">R-15  Bathroom 2</text><text fill="#111111" font-family="Helvetica, Arial, sans-serif" font-size="2.2" text-anchor="middle" x="235.81999999999994" y="122.17692117535765">4.7 m²</text><text fill="#111111" font-family="Helvetica, Arial, sans-serif" font-size="2.6" font-weight="bold" text-anchor="middle" x="203.6242607445223" y="58.95421272978486">R-19  Bedroom 2</text><text fill="#111111" font-family="Helvetica, Arial, sans-serif" font-size="2.2" text-anchor="middle" x="203.6242607445223" y="62.15421272978486">22.0 m²</text><text fill="#111111" font-family="Helvetica, Arial, sans-serif" font-size="2.6" font-weight="bold" text-anchor="middle" x="245.37573925547753" y="58.954212729784956">R-20  Bedroom 1</text><text fill="#111111" font-family="Helvetica, Arial, sans-serif" font-size="2.2" text-anchor="middle" x="245.37573925547753" y="62.15421272978496">22.0 m²</text><text fill="#111111" font-family="Helvetica, Arial, sans-serif" font-size="2.6" font-weight="bold" text-anchor="middle" x="203.62426074452227" y="169.04578727021504">R-11  Bedroom 1</text><text fill="#111111" font-family="Helvetica, Arial, sans-serif" font-size="2.2" text-anchor="middle" x="203.62426074452227" y="172.24578727021503">22.0 m²</text><text fill="#111111" font-family="Helvetica, Arial, sans-serif" font-size="2.6" font-weight="bold" text-anchor="middle" x="245.37573925547747" y="169.04578727021516">R-12  Bedroom 2</text><text fill="#111111" font-family="Helvetica, Arial, sans-serif" font-size="2.2" text-anchor="middle" x="245.37573925547747" y="172.24578727021515">22.0 m²</text><line stroke="#555555" stroke-width="0.18" x1="180.5" x2="268.5" y1="216.0" y2="216.0" /><line stroke="#555555" stroke-width="0.25" x1="180.0" x2="181.0" y1="216.5" y2="215.5" /><line stroke="#555555" stroke-width="0.25" x1="184.2" x2="185.2" y1="216.5" y2="215.5" /><line stroke="#555555" stroke-width="0.25" x1="192.4" x2="193.4" y1="216.5" y2="215.5" /><line stroke="#555555" stroke-width="0.25" x1="193.3" x2="194.3" y1="216.5" y2="215.5" /><line stroke="#555555" stroke-width="0.25" x1="221.3" x2="222.3" y1="216.5" y2="215.5" /><line stroke="#555555" stroke-width="0.25" x1="226.7" x2="227.7" y1="216.5" y2="215.5" /><line stroke="#555555" stroke-width="0.25" x1="254.7" x2="255.7" y1="216.5" y2="215.5" /><line stroke="#555555" stroke-width="0.25" x1="255.60000000000002" x2="256.6" y1="216.5" y2="215.5" /><line stroke="#555555" stroke-width="0.25" x1="263.8" x2="264.8" y1="216.5" y2="215.5" /><line stroke="#555555" stroke-width="0.25" x1="268.0" x2="269.0" y1="216.5" y2="215.5" /><text fill="#555555" font-family="Helvetica, Arial, sans-serif" font-size="1.9" text-anchor="middle" x="182.6" y="215.2">420</text><text fill="#555555" font-family="Helvetica, Arial, sans-serif" font-size="1.9" text-anchor="middle" x="188.8" y="215.2">820</text><text fill="#555555" font-family="Helvetica, Arial, sans-serif" font-size="1.9" text-anchor="middle" x="193.35" y="215.2">90</text><text fill="#555555" font-family="Helvetica, Arial, sans-serif" font-size="1.9" text-anchor="middle" x="207.8" y="215.2">2 800</text><text fill="#555555" font-family="Helvetica, Arial, sans-serif" font-size="1.9" text-anchor="middle" x="224.5" y="215.2">540</text><text fill="#555555" font-family="Helvetica, Arial, sans-serif" font-size="1.9" text-anchor="middle" x="241.2" y="215.2">2 800</text><text fill="#555555" font-family="Helvetica, Arial, sans-serif" font-size="1.9" text-anchor="middle" x="255.64999999999998" y="215.2">90</text><text fill="#555555" font-family="Helvetica, Arial, sans-serif" font-size="1.9" text-anchor="middle" x="260.2" y="215.2">820</text><text fill="#555555" font-family="Helvetica, Arial, sans-serif" font-size="1.9" text-anchor="middle" x="266.4" y="215.2">420</text><line stroke="#555555" stroke-width="0.18" x1="180.5" x2="268.5" y1="228.0" y2="228.0" /><line stroke="#555555" stroke-width="0.25" x1="180.0" x2="181.0" y1="228.5" y2="227.5" /><line stroke="#555555" stroke-width="0.25" x1="268.0" x2="269.0" y1="228.5" y2="227.5" /><text fill="#555555" font-family="Helvetica, Arial, sans-serif" font-size="1.9" text-anchor="middle" x="224.5" y="227.2">8 800</text><line stroke="#555555" stroke-width="0.18" x1="168.49999999999994" x2="168.49999999999994" y1="204.0" y2="25.999999999999986" /><line stroke="#555555" stroke-width="0.25" x1="167.99999999999994" x2="168.99999999999994" y1="204.5" y2="203.5" /><line stroke="#555555" stroke-width="0.25" x1="167.99999999999994" x2="168.99999999999994" y1="200.29999999999995" y2="199.29999999999995" /><line stroke="#555555" stroke-width="0.25" x1="167.99999999999994" x2="168.99999999999994" y1="172.3" y2="171.3" /><line stroke="#555555" stroke-width="0.25" x1="167.99999999999994" x2="168.99999999999994" y1="171.3" y2="170.3" /><line stroke="#555555" stroke-width="0.25" x1="167.99999999999994" x2="168.99999999999994" y1="163.09999999999997" y2="162.09999999999997" /><line stroke="#555555" stroke-width="0.25" x1="167.99999999999994" x2="168.99999999999994" y1="151.7" y2="150.7" /><line stroke="#555555" stroke-width="0.25" x1="167.99999999999994" x2="168.99999999999994" y1="144.2" y2="143.2" /><line stroke="#555555" stroke-width="0.25" x1="167.99999999999994" x2="168.99999999999994" y1="86.79999999999998" y2="85.79999999999998" /><line stroke="#555555" stroke-width="0.25" x1="167.99999999999994" x2="168.99999999999994" y1="79.29999999999998" y2="78.29999999999998" /><line stroke="#555555" stroke-width="0.25" x1="167.99999999999994" x2="168.99999999999994" y1="67.89999999999998" y2="66.89999999999998" /><line stroke="#555555" stroke-width="0.25" x1="167.99999999999994" x2="168.99999999999994" y1="59.69999999999998" y2="58.69999999999998" /><line stroke="#555555" stroke-width="0.25" x1="167.99999999999994" x2="168.99999999999994" y1="58.69999999999999" y2="57.69999999999999" /><line stroke="#555555" stroke-width="0.25" x1="167.99999999999994" x2="168.99999999999994" y1="30.699999999999985" y2="29.699999999999985" /><line stroke="#555555" stroke-width="0.25" x1="167.99999999999994" x2="168.99999999999994" y1="26.499999999999986" y2="25.499999999999986" /><text fill="#555555" font-family="Helvetica, Arial, sans-serif" font-size="1.9" text-anchor="middle" transform="rotate(-90,167.69999999999993,201.89999999999998)" x="167.69999999999993" y="201.89999999999998">420</text><text fill="#555555" font-family="Helvetica, Arial, sans-serif" font-size="1.9" text-anchor="middle" transform="rotate(-90,167.69999999999993,185.8)" x="167.69999999999993" y="185.8">2 800</text><text fill="#555555" font-family="Helvetica, Arial, sans-serif" font-size="1.9" text-anchor="middle" transform="rotate(-90,167.69999999999993,171.3)" x="167.69999999999993" y="171.3">100</text><text fill="#555555" font-family="Helvetica, Arial, sans-serif" font-size="1.9" text-anchor="middle" transform="rotate(-90,167.69999999999993,166.7)" x="167.69999999999993" y="166.7">820</text><text fill="#555555" font-family="Helvetica, Arial, sans-serif" font-size="1.9" text-anchor="middle" transform="rotate(-90,167.69999999999993,156.89999999999998)" x="167.69999999999993" y="156.89999999999998">1 140</text><text fill="#555555" font-family="Helvetica, Arial, sans-serif" font-size="1.9" text-anchor="middle" transform="rotate(-90,167.69999999999993,147.45)" x="167.69999999999993" y="147.45">750</text><text fill="#555555" font-family="Helvetica, Arial, sans-serif" font-size="1.9" text-anchor="middle" transform="rotate(-90,167.69999999999993,114.99999999999999)" x="167.69999999999993" y="114.99999999999999">5 740</text><text fill="#555555" font-family="Helvetica, Arial, sans-serif" font-size="1.9" text-anchor="middle" transform="rotate(-90,167.69999999999993,82.54999999999998)" x="167.69999999999993" y="82.54999999999998">750</text><text fill="#555555" font-family="Helvetica, Arial, sans-serif" font-size="1.9" text-anchor="middle" transform="rotate(-90,167.69999999999993,73.1)" x="167.69999999999993" y="73.1">1 140</text><text fill="#555555" font-family="Helvetica, Arial, sans-serif" font-size="1.9" text-anchor="middle" transform="rotate(-90,167.69999999999993,63.29999999999998)" x="167.69999999999993" y="63.29999999999998">820</text><text fill="#555555" font-family="Helvetica, Arial, sans-serif" font-size="1.9" text-anchor="middle" transform="rotate(-90,167.69999999999993,58.69999999999999)" x="167.69999999999993" y="58.69999999999999">100</text><text fill="#555555" font-family="Helvetica, Arial, sans-serif" font-size="1.9" text-anchor="middle" transform="rotate(-90,167.69999999999993,44.19999999999999)" x="167.69999999999993" y="44.19999999999999">2 800</text><text fill="#555555" font-family="Helvetica, Arial, sans-serif" font-size="1.9" text-anchor="middle" transform="rotate(-90,167.69999999999993,28.099999999999987)" x="167.69999999999993" y="28.099999999999987">420</text><line stroke="#555555" stroke-width="0.18" x1="156.49999999999994" x2="156.49999999999994" y1="204.0" y2="25.999999999999986" /><line stroke="#555555" stroke-width="0.25" x1="155.99999999999994" x2="156.99999999999994" y1="204.5" y2="203.5" /><line stroke="#555555" stroke-width="0.25" x1="155.99999999999994" x2="156.99999999999994" y1="26.499999999999986" y2="25.499999999999986" /><text fill="#555555" font-family="Helvetica, Arial, sans-serif" font-size="1.9" text-anchor="middle" transform="rotate(-90,155.69999999999993,114.99999999999999)" x="155.69999999999993" y="114.99999999999999">17 800</text><polygon fill="#000" points="398.0,16.0 395.0,26.0 398.0,24.0 401.0,26.0" /><text font-family="Helvetica, Arial, sans-serif" font-size="3" font-weight="bold" text-anchor="middle" x="398.0" y="14.5">N</text><rect fill="#000" height="1.2" stroke="#000" stroke-width="0.2" width="10.0" x="15.0" y="243.0" /><text font-family="Helvetica, Arial, sans-serif" font-size="1.8" text-anchor="middle" x="15.0" y="242.2">0</text><rect fill="#fff" height="1.2" stroke="#000" stroke-width="0.2" width="10.0" x="25.0" y="243.0" /><text font-family="Helvetica, Arial, sans-serif" font-size="1.8" text-anchor="middle" x="25.0" y="242.2">1</text><rect fill="#000" height="1.2" stroke="#000" stroke-width="0.2" width="10.0" x="35.0" y="243.0" /><text font-family="Helvetica, Arial, sans-serif" font-size="1.8" text-anchor="middle" x="35.0" y="242.2">2</text><rect fill="#fff" height="1.2" stroke="#000" stroke-width="0.2" width="10.0" x="45.0" y="243.0" /><text font-family="Helvetica, Arial, sans-serif" font-size="1.8" text-anchor="middle" x="45.0" y="242.2">3</text><rect fill="#000" height="1.2" stroke="#000" stroke-width="0.2" width="10.0" x="55.0" y="243.0" /><text font-family="Helvetica, Arial, sans-serif" font-size="1.8" text-anchor="middle" x="55.0" y="242.2">4</text><text font-family="Helvetica, Arial, sans-serif" font-size="1.8" text-anchor="middle" x="65.0" y="242.2">5 m</text><rect fill="white" height="38.0" stroke="#000" stroke-width="0.5" width="150" x="260.0" y="249.0" /><line stroke="#000" stroke-width="0.3" x1="260.0" x2="410.0" y1="261.0" y2="261.0" /><line stroke="#000" stroke-width="0.3" x1="355.0" x2="355.0" y1="261.0" y2="287.0" /><text font-family="Helvetica, Arial, sans-serif" font-size="5" font-weight="bold" x="263.0" y="257.0">Duplex</text><text font-family="Helvetica, Arial, sans-serif" font-size="4" x="263.0" y="269.0">FLOOR PLAN — LEVEL 2</text><text fill="#444" font-family="Helvetica, Arial, sans-serif" font-size="2.4" x="263.0" y="276.0">Model: Duplex.ifc</text><text fill="#666" font-family="Helvetica, Arial, sans-serif" font-size="2.2" x="263.0" y="282.0">Generated by Recognition — do not edit by hand; change the generator.</text><text fill="#666" font-family="Helvetica, Arial, sans-serif" font-size="2.2" x="358.0" y="265.0">SHEET</text><text font-family="Helvetica, Arial, sans-serif" font-size="6" font-weight="bold" x="358.0" y="273.0">A-103</text><text font-family="Helvetica, Arial, sans-serif" font-size="2.4" x="358.0" y="279.0">SCALE 1:100  ·  A3</text><text font-family="Helvetica, Arial, sans-serif" font-size="2.4" x="358.0" y="284.0">2026-08-22  ·  REV 9750f5c</text><rect fill="none" height="277.0" stroke="#000" stroke-width="0.5" width="400.0" x="10.0" y="10.0" /></svg>