<?xml version="1.0" encoding="utf-8" ?>
<svg baseProfile="full" height="297.0mm" version="1.1" viewBox="0 0 420.0 297.0" width="420.0mm" xmlns="http://www.w3.org/2000/svg" xmlns:ev="http://www.w3.org/2001/xml-events" xmlns:xlink="http://www.w3.org/1999/xlink"><defs /><rect fill="white" height="297.0" width="420.0" x="0" y="0" /><path d="M 165.000,70.500 L 232.000,70.500 L 232.000,159.500 L 165.000,159.500 L 165.000,70.500 Z" fill="#eef3fb" fill-rule="evenodd" stroke="#9fb3d9" stroke-width="0.15" /><path d="M 234.000,118.500 L 284.000,118.500 L 284.000,159.500 L 234.000,159.500 L 234.000,118.500 Z" fill="#eef3fb" fill-rule="evenodd" stroke="#9fb3d9" stroke-width="0.15" /><path d="M 234.000,70.500 L 253.000,70.500 L 253.000,116.500 L 234.000,116.500 L 234.000,70.500 Z" fill="#eef3fb" fill-rule="evenodd" stroke="#9fb3d9" stroke-width="0.15" /><path d="M 254.500,70.500 L 284.000,70.500 L 284.000,116.500 L 254.500,116.500 L 254.500,70.500 Z" fill="#eef3fb" fill-rule="evenodd" stroke="#9fb3d9" stroke-width="0.15" /><path d="M 162.000,159.500 L 219.450,159.500 L 229.550,159.500 L 287.000,159.500 L 287.000,162.500 L 229.550,162.500 L 219.450,162.500 L 162.000,162.500 L 162.000,159.500 Z" fill="#2b2b2b" fill-rule="evenodd" stroke="none" /><path d="M 284.000,162.500 L 284.000,100.250 L 284.000,86.750 L 284.000,67.500 L 287.000,67.500 L 287.000,86.750 L 287.000,100.250 L 287.000,162.500 L 284.000,162.500 Z" fill="#2b2b2b" fill-rule="evenodd" stroke="none" /><path d="M 162.000,67.500 L 287.000,67.500 L 287.000,70.500 L 162.000,70.500 L 162.000,67.500 Z" fill="#2b2b2b" fill-rule="evenodd" stroke="none" /><path d="M 162.000,162.500 L 162.000,143.500 L 162.000,86.500 L 162.000,67.500 L 165.000,67.500 L 165.000,86.500 L 165.000,86.500 L 165.000,143.500 L 165.000,162.500 L 162.000,162.500 Z" fill="#2b2b2b" fill-rule="evenodd" stroke="none" /><path d="M 232.250,135.075 L 232.250,116.750 L 233.750,116.750 L 233.750,135.075 L 233.750,143.925 L 233.750,161.750 L 232.250,161.750 L 232.250,143.925 L 232.250,135.075 Z" fill="#2b2b2b" fill-rule="evenodd" stroke="none" /><path d="M 232.250,89.075 L 232.250,68.250 L 233.750,68.250 L 233.750,89.075 L 233.750,97.925 L 233.750,118.250 L 232.250,118.250 L 232.250,97.925 L 232.250,89.075 Z" fill="#2b2b2b" fill-rule="evenodd" stroke="none" /><path d="M 254.750,118.250 L 232.250,118.250 L 232.250,116.750 L 254.750,116.750 L 254.750,118.250 Z" fill="#2b2b2b" fill-rule="evenodd" stroke="none" /><path d="M 286.250,118.250 L 253.250,118.250 L 253.250,116.750 L 286.250,116.750 L 286.250,118.250 Z" fill="#2b2b2b" fill-rule="evenodd" stroke="none" /><path d="M 253.250,89.075 L 253.250,68.250 L 254.750,68.250 L 254.750,89.075 L 254.750,97.925 L 254.750,118.250 L 253.250,118.250 L 253.250,97.925 L 253.250,89.075 Z" fill="#2b2b2b" fill-rule="evenodd" stroke="none" /><path d="M 229.550,161.750 L 219.450,161.750 L 219.450,160.250 L 229.550,160.250 L 229.550,161.750 Z" fill="white" fill-rule="evenodd" stroke="none" /><path d="M 233.375,143.925 L 232.625,143.925 L 232.625,135.075 L 233.375,135.075 L 233.375,143.925 Z" fill="white" fill-rule="evenodd" stroke="none" /><path d="M 233.375,97.925 L 232.625,97.925 L 232.625,89.075 L 233.375,89.075 L 233.375,97.925 Z" fill="white" fill-rule="evenodd" stroke="none" /><path d="M 254.375,97.925 L 253.625,97.925 L 253.625,89.075 L 254.375,89.075 L 254.375,97.925 Z" fill="white" fill-rule="evenodd" stroke="none" /><path d="M 164.250,143.500 L 162.750,143.500 L 162.750,86.500 L 164.250,86.500 L 164.250,143.500 Z" fill="white" fill-rule="evenodd" stroke="none" /><path d="M 286.250,100.250 L 284.750,100.250 L 284.750,86.750 L 286.250,86.750 L 286.250,100.250 Z" fill="white" fill-rule="evenodd" stroke="none" /><line stroke="#2a7fff" stroke-width="0.35" x1="163.875" x2="163.875" y1="143.5" y2="86.5" /><line stroke="#2a7fff" stroke-width="0.35" x1="163.125" x2="163.125" y1="143.5" y2="86.5" /><text fill="#2a7fff" font-family="Helvetica, Arial, sans-serif" font-size="1.8" text-anchor="end" x="161.5" y="115.7">W-01</text><line stroke="#2a7fff" stroke-width="0.35" x1="285.875" x2="285.875" y1="100.25" y2="86.75" /><line stroke="#2a7fff" stroke-width="0.35" x1="285.125" x2="285.125" y1="100.25" y2="86.75" /><text fill="#2a7fff" font-family="Helvetica, Arial, sans-serif" font-size="1.8" text-anchor="start" x="287.5" y="94.19999999999999">W-02</text><line stroke="#b5651d" stroke-width="0.4" x1="219.45" x2="219.45" y1="161.0" y2="150.9" /><polyline fill="none" points="229.55,161.0 229.46359309987548,159.68168545857748 229.2058508455196,158.38592764446454 228.78118327836398,157.1348973331126 228.19685657822282,155.95 227.46286873694146,154.85150956701193 226.59177848998414,153.85822151001588 225.5984904329881,152.98713126305853 224.5,152.25314342177717 223.3151026668874,151.668816721636 222.06407235553547,151.2441491544804 220.7683145414225,150.9864069001245 219.45,150.9" stroke="#b5651d" stroke-dasharray="0.8,0.5" stroke-width="0.2" /><text fill="#b5651d" font-family="Helvetica, Arial, sans-serif" font-size="1.8" text-anchor="middle" x="219.45" y="150.1">D-01</text><line stroke="#b5651d" stroke-width="0.4" x1="233.0" x2="224.15" y1="143.925" y2="143.925" /><polyline fill="none" points="233.0,135.075 231.84484319885254,135.1507129768418 230.7094514508427,135.37655643734175 229.61325162356894,135.7486661372751 228.575,136.26067517650773 227.6124613532728,136.90382293842256 226.74210498649904,137.66710498649906 225.97882293842258,138.53746135327282 225.33567517650772,139.5 224.8236661372751,140.53825162356895 224.45155643734174,141.63445145084268 224.22571297684178,142.76984319885256 224.15,143.925" stroke="#b5651d" stroke-dasharray="0.8,0.5" stroke-width="0.2" /><text fill="#b5651d" font-family="Helvetica, Arial, sans-serif" font-size="1.8" text-anchor="middle" x="224.15" y="143.125">D-02</text><line stroke="#b5651d" stroke-width="0.4" x1="233.0" x2="224.15" y1="97.925" y2="97.925" /><polyline fill="none" points="233.0,89.075 231.84484319885254,89.15071297684177 230.7094514508427,89.37655643734173 229.61325162356894,89.74866613727511 228.575,90.26067517650772 227.6124613532728,90.90382293842256 226.74210498649904,91.66710498649904 225.97882293842258,92.53746135327282 225.33567517650772,93.5 224.8236661372751,94.53825162356895 224.45155643734174,95.63445145084269 224.22571297684178,96.76984319885254 224.15,97.925" stroke="#b5651d" stroke-dasharray="0.8,0.5" stroke-width="0.2" /><text fill="#b5651d" font-family="Helvetica, Arial, sans-serif" font-size="1.8" text-anchor="middle" x="224.15" y="97.125">D-03</text><line stroke="#b5651d" stroke-width="0.4" x1="254.0" x2="245.14999999999998" y1="97.925" y2="97.925" /><polyline fill="none" points="254.0,89.075 252.84484319885254,89.15071297684177 251.7094514508427,89.37655643734173 250.61325162356894,89.74866613727511 249.575,90.26067517650772 248.6124613532728,90.90382293842256 247.74210498649904,91.66710498649904 246.97882293842255,92.53746135327282 246.33567517650772,93.5 245.8236661372751,94.53825162356895 245.45155643734174,95.63445145084269 245.22571297684178,96.76984319885254 245.14999999999998,97.925" stroke="#b5651d" stroke-dasharray="0.8,0.5" stroke-width="0.2" /><text fill="#b5651d" font-family="Helvetica, Arial, sans-serif" font-size="1.8" text-anchor="middle" x="245.14999999999998" y="97.125">D-04</text><text fill="#111111" font-family="Helvetica, Arial, sans-serif" font-size="2.6" font-weight="bold" text-anchor="middle" x="198.5" y="114.0">R-02  Studio</text><text fill="#111111" font-family="Helvetica, Arial, sans-serif" font-size="2.2" text-anchor="middle" x="198.5" y="117.2">59.6 m²</text><text fill="#111111" font-family="Helvetica, Arial, sans-serif" font-size="2.6" font-weight="bold" text-anchor="middle" x="259.0" y="138.0">R-01  Conference</text><text fill="#111111" font-family="Helvetica, Arial, sans-serif" font-size="2.2" text-anchor="middle" x="259.0" y="141.2">20.5 m²</text><text fill="#111111" font-family="Helvetica, Arial, sans-serif" font-size="2.6" font-weight="bold" text-anchor="middle" x="243.5" y="92.49999999999997">R-03  Washroom</text><text fill="#111111" font-family="Helvetica, Arial, sans-serif" font-size="2.2" text-anchor="middle" x="243.5" y="95.69999999999997">8.7 m²</text><text fill="#111111" font-family="Helvetica, Arial, sans-serif" font-size="2.6" font-weight="bold" text-anchor="middle" x="269.25" y="92.5">R-04  Kitchenette</text><text fill="#111111" font-family="Helvetica, Arial, sans-serif" font-size="2.2" text-anchor="middle" x="269.25" y="95.7">13.6 m²</text><line stroke="#555555" stroke-width="0.18" x1="162.0" x2="287.0" y1="174.5" y2="174.5" /><line stroke="#555555" stroke-width="0.25" x1="161.5" x2="162.5" y1="175.0" y2="174.0" /><line stroke="#555555" stroke-width="0.25" x1="218.9" x2="219.9" y1="175.0" y2="174.0" /><line stroke="#555555" stroke-width="0.25" x1="229.1" x2="230.1" y1="175.0" y2="174.0" /><line stroke="#555555" stroke-width="0.25" x1="286.5" x2="287.5" y1="175.0" y2="174.0" /><text fill="#555555" font-family="Helvetica, Arial, sans-serif" font-size="1.9" text-anchor="middle" x="190.7" y="173.7">5 740</text><text fill="#555555" font-family="Helvetica, Arial, sans-serif" font-size="1.9" text-anchor="middle" x="224.5" y="173.7">1 020</text><text fill="#555555" font-family="Helvetica, Arial, sans-serif" font-size="1.9" text-anchor="middle" x="258.29999999999995" y="173.7">5 740</text><line stroke="#555555" stroke-width="0.18" x1="162.0" x2="287.0" y1="186.5" y2="186.5" /><line stroke="#555555" stroke-width="0.25" x1="161.5" x2="162.5" y1="187.0" y2="186.0" /><line stroke="#555555" stroke-width="0.25" x1="286.5" x2="287.5" y1="187.0" y2="186.0" /><text fill="#555555" font-family="Helvetica, Arial, sans-serif" font-size="1.9" text-anchor="middle" x="224.5" y="185.7">12 500</text><line stroke="#555555" stroke-width="0.18" x1="150.0" x2="150.0" y1="162.5" y2="67.5" /><line stroke="#555555" stroke-width="0.25" x1="149.5" x2="150.5" y1="163.0" y2="162.0" /><line stroke="#555555" stroke-width="0.25" x1="149.5" x2="150.5" y1="144.0" y2="143.0" /><line stroke="#555555" stroke-width="0.25" x1="149.5" x2="150.5" y1="100.80000000000001" y2="99.80000000000001" /><line stroke="#555555" stroke-width="0.25" x1="149.5" x2="150.5" y1="87.2" y2="86.2" /><line stroke="#555555" stroke-width="0.25" x1="149.5" x2="150.5" y1="68.0" y2="67.0" /><text fill="#555555" font-family="Helvetica, Arial, sans-serif" font-size="1.9" text-anchor="middle" transform="rotate(-90,149.2,153.0)" x="149.2" y="153.0">1 900</text><text fill="#555555" font-family="Helvetica, Arial, sans-serif" font-size="1.9" text-anchor="middle" transform="rotate(-90,149.2,121.9)" x="149.2" y="121.9">4 320</text><text fill="#555555" font-family="Helvetica, Arial, sans-serif" font-size="1.9" text-anchor="middle" transform="rotate(-90,149.2,93.5)" x="149.2" y="93.5">1 360</text><text fill="#555555" font-family="Helvetica, Arial, sans-serif" font-size="1.9" text-anchor="middle" transform="rotate(-90,149.2,77.10000000000001)" x="149.2" y="77.10000000000001">1 920</text><line stroke="#555555" stroke-width="0.18" x1="138.0" x2="138.0" y1="162.5" y2="67.5" /><line stroke="#555555" stroke-width="0.25" x1="137.5" x2="138.5" y1="163.0" y2="162.0" /><line stroke="#555555" stroke-width="0.25" x1="137.5" x2="138.5" y1="68.0" y2="67.0" /><text fill="#555555" font-family="Helvetica, Arial, sans-serif" font-size="1.9" text-anchor="middle" transform="rotate(-90,137.2,115.0)" x="137.2" y="115.0">9 500</text><polygon fill="#000" points="398.0,16.0 395.0,26.0 398.0,24.0 401.0,26.0" /><text font-family="Helvetica, Arial, sans-serif" font-size="3" font-weight="bold" text-anchor="middle" x="398.0" y="14.5">N</text><rect fill="#000" height="1.2" stroke="#000" stroke-width="0.2" width="10.0" x="15.0" y="243.0" /><text font-family="Helvetica, Arial, sans-serif" font-size="1.8" text-anchor="middle" x="15.0" y="242.2">0</text><rect fill="#fff" height="1.2" stroke="#000" stroke-width="0.2" width="10.0" x="25.0" y="243.0" /><text font-family="Helvetica, Arial, sans-serif" font-size="1.8" text-anchor="middle" x="25.0" y="242.2">1</text><rect fill="#000" height="1.2" stroke="#000" stroke-width="0.2" width="10.0" x="35.0" y="243.0" /><text font-family="Helvetica, Arial, sans-serif" font-size="1.8" text-anchor="middle" x="35.0" y="242.2">2</text><rect fill="#fff" height="1.2" stroke="#000" stroke-width="0.2" width="10.0" x="45.0" y="243.0" /><text font-family="Helvetica, Arial, sans-serif" font-size="1.8" text-anchor="middle" x="45.0" y="242.2">3</text><rect fill="#000" height="1.2" stroke="#000" stroke-width="0.2" width="10.0" x="55.0" y="243.0" /><text font-family="Helvetica, Arial, sans-serif" font-size="1.8" text-anchor="middle" x="55.0" y="242.2">4</text><text font-family="Helvetica, Arial, sans-serif" font-size="1.8" text-anchor="middle" x="65.0" y="242.2">5 m</text><rect fill="white" height="38.0" stroke="#000" stroke-width="0.5" width="150" x="260.0" y="249.0" /><line stroke="#000" stroke-width="0.3" x1="260.0" x2="410.0" y1="261.0" y2="261.0" /><line stroke="#000" stroke-width="0.3" x1="355.0" x2="355.0" y1="261.0" y2="287.0" /><text font-family="Helvetica, Arial, sans-serif" font-size="5" font-weight="bold" x="263.0" y="257.0">Coworking Studio</text><text font-family="Helvetica, Arial, sans-serif" font-size="4" x="263.0" y="269.0">FLOOR PLAN — ERDGESCHOSS</text><text fill="#444" font-family="Helvetica, Arial, sans-serif" font-size="2.4" x="263.0" y="276.0">Model: model.ifc</text><text fill="#666" font-family="Helvetica, Arial, sans-serif" font-size="2.2" x="263.0" y="282.0">Generated by Recognition — do not edit by hand; change the generator.</text><text fill="#666" font-family="Helvetica, Arial, sans-serif" font-size="2.2" x="358.0" y="265.0">SHEET</text><text font-family="Helvetica, Arial, sans-serif" font-size="6" font-weight="bold" x="358.0" y="273.0">A-101</text><text font-family="Helvetica, Arial, sans-serif" font-size="2.4" x="358.0" y="279.0">SCALE 1:100  ·  A3</text><text font-family="Helvetica, Arial, sans-serif" font-size="2.4" x="358.0" y="284.0">2026-08-23  ·  REV dbe5e16</text><rect fill="none" height="277.0" stroke="#000" stroke-width="0.5" width="400.0" x="10.0" y="10.0" /></svg>