ISO-10303-21;
HEADER;
FILE_DESCRIPTION(('ViewDefinition[DesignTransferView]'),'2;1');
FILE_NAME('/dev/null','2026-08-23T06:41:11+00:00',(''),(''),'IfcOpenShell 0.8.5','IfcOpenShell 0.8.5','Nobody');
FILE_SCHEMA(('IFC4'));
ENDSEC;
DATA;
#1=IFCPROJECT('3nABC9Ra5B6QOQTkVHRFep',$,'Neubau',$,$,$,$,(#10),#5);
#2=IFCSIUNIT(*,.LENGTHUNIT.,.MILLI.,.METRE.);
#3=IFCSIUNIT(*,.AREAUNIT.,$,.SQUARE_METRE.);
#4=IFCSIUNIT(*,.VOLUMEUNIT.,$,.CUBIC_METRE.);
#5=IFCUNITASSIGNMENT((#4,#2,#3));
#6=IFCCARTESIANPOINT((0.,0.,0.));
#7=IFCDIRECTION((0.,0.,1.));
#8=IFCDIRECTION((1.,0.,0.));
#9=IFCAXIS2PLACEMENT3D(#6,#7,#8);
#10=IFCGEOMETRICREPRESENTATIONCONTEXT($,'Model',3,1.0000000000000001E-05,#9,$);
#11=IFCGEOMETRICREPRESENTATIONSUBCONTEXT('Body','Model',*,*,*,*,#10,$,.MODEL_VIEW.,$);
#12=IFCSITE('0cN_MTl1X3KetxTZ2Fok4l',$,'Site',$,$,$,$,$,$,$,$,$,$,$);
#13=IFCBUILDING('31KlOOPPD2reY4_rPPFHFJ',$,'Neubau',$,$,$,$,$,$,$,$,$);
#14=IFCRELAGGREGATES('2w8Auf_hDDbQkjjkBmgoES',$,$,$,#1,(#12));
#15=IFCRELAGGREGATES('1j1fCP0294dxYXjt5iXjJB',$,$,$,#12,(#13));
#16=IFCBUILDINGSTOREY('11MsFYAiDB2vcV8_ON_ft8',$,'Erdgeschoss',$,$,$,$,$,$,0.);
#17=IFCRELAGGREGATES('2KIvsjgNf1yQgQMHbxQywx',$,$,$,#13,(#16));
#18=IFCWALL('0VF5ZgQtT8FhSBSfrNBOn$',$,'EXT-S',$,$,#40,#34,$,$);
#19=IFCCARTESIANPOINTLIST2D(((0.,300.),(15000.,300.),(15000.,0.),(0.,0.),(0.,300.)));
#20=IFCINDEXEDPOLYCURVE(#19,$,$);
#21=IFCARBITRARYCLOSEDPROFILEDEF(.AREA.,'EXT-S',#20);
#22=IFCCARTESIANPOINT((0.,0.,0.));
#23=IFCDIRECTION((0.,0.,1.));
#24=IFCDIRECTION((1.,0.,0.));
#25=IFCAXIS2PLACEMENT3D(#22,#23,#24);
#26=IFCDIRECTION((0.,0.,1.));
#27=IFCEXTRUDEDAREASOLID(#21,#25,#26,2500.);
#28=IFCSHAPEREPRESENTATION(#11,'Body','SweptSolid',(#27));
#34=IFCPRODUCTDEFINITIONSHAPE($,$,(#28));
#35=IFCRELCONTAINEDINSPATIALSTRUCTURE('2X8z6LGDz4T8PAyayvcCtA',$,$,$,(#253,#834,#45,#331,#638,#123,#201,#279,#149,#383,#587,#785,#71,#883,#357,#18,#227,#687,#932,#981,#97,#305,#175,#736),#16);
#36=IFCCARTESIANPOINT((0.,0.,0.));
#37=IFCDIRECTION((0.,0.,1.));
#38=IFCDIRECTION((1.,0.,0.));
#39=IFCAXIS2PLACEMENT3D(#36,#37,#38);
#40=IFCLOCALPLACEMENT($,#39);
#41=IFCPROPERTYSET('1h9DKOOD92UQFQXLFDHXn4',$,'Pset_WallCommon',$,(#43,#44));
#42=IFCRELDEFINESBYPROPERTIES('06FqmBRzL0X8pcmVanMSdE',$,$,$,(#18),#41);
#43=IFCPROPERTYSINGLEVALUE('IsExternal',$,IFCBOOLEAN(.T.),$);
#44=IFCPROPERTYSINGLEVALUE('LoadBearing',$,IFCBOOLEAN(.T.),$);
#45=IFCWALL('1rDTH_xVrCZwG29pY2w6jk',$,'EXT-E',$,$,#66,#61,$,$);
#46=IFCCARTESIANPOINTLIST2D(((14699.999999999998,0.),(14699.999999999998,11500.),(15000.,11500.),(15000.,0.),(14699.999999999998,0.)));
#47=IFCINDEXEDPOLYCURVE(#46,$,$);
#48=IFCARBITRARYCLOSEDPROFILEDEF(.AREA.,'EXT-E',#47);
#49=IFCCARTESIANPOINT((0.,0.,0.));
#50=IFCDIRECTION((0.,0.,1.));
#51=IFCDIRECTION((1.,0.,0.));
#52=IFCAXIS2PLACEMENT3D(#49,#50,#51);
#53=IFCDIRECTION((0.,0.,1.));
#54=IFCEXTRUDEDAREASOLID(#48,#52,#53,2500.);
#55=IFCSHAPEREPRESENTATION(#11,'Body','SweptSolid',(#54));
#61=IFCPRODUCTDEFINITIONSHAPE($,$,(#55));
#62=IFCCARTESIANPOINT((0.,0.,0.));
#63=IFCDIRECTION((0.,0.,1.));
#64=IFCDIRECTION((1.,0.,0.));
#65=IFCAXIS2PLACEMENT3D(#62,#63,#64);
#66=IFCLOCALPLACEMENT($,#65);
#67=IFCPROPERTYSET('1AEncQkQDFIhue55700rIf',$,'Pset_WallCommon',$,(#69,#70));
#68=IFCRELDEFINESBYPROPERTIES('2kaOc5l_bFR9WTucKOvvNY',$,$,$,(#45),#67);
#69=IFCPROPERTYSINGLEVALUE('IsExternal',$,IFCBOOLEAN(.T.),$);
#70=IFCPROPERTYSINGLEVALUE('LoadBearing',$,IFCBOOLEAN(.T.),$);
#71=IFCWALL('32lC3gBl1EtggXoWrmbcsI',$,'EXT-N',$,$,#92,#87,$,$);
#72=IFCCARTESIANPOINTLIST2D(((15000.,11199.999999999998),(0.,11199.999999999998),(0.,11500.),(15000.,11500.),(15000.,11199.999999999998)));
#73=IFCINDEXEDPOLYCURVE(#72,$,$);
#74=IFCARBITRARYCLOSEDPROFILEDEF(.AREA.,'EXT-N',#73);
#75=IFCCARTESIANPOINT((0.,0.,0.));
#76=IFCDIRECTION((0.,0.,1.));
#77=IFCDIRECTION((1.,0.,0.));
#78=IFCAXIS2PLACEMENT3D(#75,#76,#77);
#79=IFCDIRECTION((0.,0.,1.));
#80=IFCEXTRUDEDAREASOLID(#74,#78,#79,2500.);
#81=IFCSHAPEREPRESENTATION(#11,'Body','SweptSolid',(#80));
#87=IFCPRODUCTDEFINITIONSHAPE($,$,(#81));
#88=IFCCARTESIANPOINT((0.,0.,0.));
#89=IFCDIRECTION((0.,0.,1.));
#90=IFCDIRECTION((1.,0.,0.));
#91=IFCAXIS2PLACEMENT3D(#88,#89,#90);
#92=IFCLOCALPLACEMENT($,#91);
#93=IFCPROPERTYSET('2CDRlG5KXCfPVi27a3CydZ',$,'Pset_WallCommon',$,(#95,#96));
#94=IFCRELDEFINESBYPROPERTIES('24LJKdiQL2wRh_LFplJ_71',$,$,$,(#71),#93);
#95=IFCPROPERTYSINGLEVALUE('IsExternal',$,IFCBOOLEAN(.T.),$);
#96=IFCPROPERTYSINGLEVALUE('LoadBearing',$,IFCBOOLEAN(.T.),$);
#97=IFCWALL('0Uo7BxoVj2yP1dW5VB2VtL',$,'EXT-W',$,$,#118,#113,$,$);
#98=IFCCARTESIANPOINTLIST2D(((300.,11500.),(300.,0.),(0.,0.),(0.,11500.),(300.,11500.)));
#99=IFCINDEXEDPOLYCURVE(#98,$,$);
#100=IFCARBITRARYCLOSEDPROFILEDEF(.AREA.,'EXT-W',#99);
#101=IFCCARTESIANPOINT((0.,0.,0.));
#102=IFCDIRECTION((0.,0.,1.));
#103=IFCDIRECTION((1.,0.,0.));
#104=IFCAXIS2PLACEMENT3D(#101,#102,#103);
#105=IFCDIRECTION((0.,0.,1.));
#106=IFCEXTRUDEDAREASOLID(#100,#104,#105,2500.);
#107=IFCSHAPEREPRESENTATION(#11,'Body','SweptSolid',(#106));
#113=IFCPRODUCTDEFINITIONSHAPE($,$,(#107));
#114=IFCCARTESIANPOINT((0.,0.,0.));
#115=IFCDIRECTION((0.,0.,1.));
#116=IFCDIRECTION((1.,0.,0.));
#117=IFCAXIS2PLACEMENT3D(#114,#115,#116);
#118=IFCLOCALPLACEMENT($,#117);
#119=IFCPROPERTYSET('3mjc$BuLfAJhnG7QAOynrP',$,'Pset_WallCommon',$,(#121,#122));
#120=IFCRELDEFINESBYPROPERTIES('2eoTfRwRv38fEBeEfxbliR',$,$,$,(#97),#119);
#121=IFCPROPERTYSINGLEVALUE('IsExternal',$,IFCBOOLEAN(.T.),$);
#122=IFCPROPERTYSINGLEVALUE('LoadBearing',$,IFCBOOLEAN(.T.),$);
#123=IFCWALL('3OFDC55VL7TwNjCozl7RLy',$,'INT-1',$,$,#144,#139,$,$);
#124=IFCCARTESIANPOINTLIST2D(((75.,2575.),(4675.,2575.),(4675.,2424.9999999999995),(75.,2424.9999999999995),(75.,2575.)));
#125=IFCINDEXEDPOLYCURVE(#124,$,$);
#126=IFCARBITRARYCLOSEDPROFILEDEF(.AREA.,'INT-1',#125);
#127=IFCCARTESIANPOINT((0.,0.,0.));
#128=IFCDIRECTION((0.,0.,1.));
#129=IFCDIRECTION((1.,0.,0.));
#130=IFCAXIS2PLACEMENT3D(#127,#128,#129);
#131=IFCDIRECTION((0.,0.,1.));
#132=IFCEXTRUDEDAREASOLID(#126,#130,#131,2500.);
#133=IFCSHAPEREPRESENTATION(#11,'Body','SweptSolid',(#132));
#139=IFCPRODUCTDEFINITIONSHAPE($,$,(#133));
#140=IFCCARTESIANPOINT((0.,0.,0.));
#141=IFCDIRECTION((0.,0.,1.));
#142=IFCDIRECTION((1.,0.,0.));
#143=IFCAXIS2PLACEMENT3D(#140,#141,#142);
#144=IFCLOCALPLACEMENT($,#143);
#145=IFCPROPERTYSET('3mOIjIxbL3XgPsgEjuJCpX',$,'Pset_WallCommon',$,(#147,#148));
#146=IFCRELDEFINESBYPROPERTIES('3jpDVo175D7P3BSZU1g2K8',$,$,$,(#123),#145);
#147=IFCPROPERTYSINGLEVALUE('IsExternal',$,IFCBOOLEAN(.F.),$);
#148=IFCPROPERTYSINGLEVALUE('LoadBearing',$,IFCBOOLEAN(.F.),$);
#149=IFCWALL('0_ZQdjjxL9Bff_oGOVIiC4',$,'INT-2',$,$,#170,#165,$,$);
#150=IFCCARTESIANPOINTLIST2D(((4524.9999999999991,75.),(4524.9999999999991,2575.),(4675.,2575.),(4675.,75.),(4524.9999999999991,75.)));
#151=IFCINDEXEDPOLYCURVE(#150,$,$);
#152=IFCARBITRARYCLOSEDPROFILEDEF(.AREA.,'INT-2',#151);
#153=IFCCARTESIANPOINT((0.,0.,0.));
#154=IFCDIRECTION((0.,0.,1.));
#155=IFCDIRECTION((1.,0.,0.));
#156=IFCAXIS2PLACEMENT3D(#153,#154,#155);
#157=IFCDIRECTION((0.,0.,1.));
#158=IFCEXTRUDEDAREASOLID(#152,#156,#157,2500.);
#159=IFCSHAPEREPRESENTATION(#11,'Body','SweptSolid',(#158));
#165=IFCPRODUCTDEFINITIONSHAPE($,$,(#159));
#166=IFCCARTESIANPOINT((0.,0.,0.));
#167=IFCDIRECTION((0.,0.,1.));
#168=IFCDIRECTION((1.,0.,0.));
#169=IFCAXIS2PLACEMENT3D(#166,#167,#168);
#170=IFCLOCALPLACEMENT($,#169);
#171=IFCPROPERTYSET('3LX2RCQ9P7URodEiBP0qzZ',$,'Pset_WallCommon',$,(#173,#174));
#172=IFCRELDEFINESBYPROPERTIES('2PhlVgw4f3WBqK6j5MCTRm',$,$,$,(#149),#171);
#173=IFCPROPERTYSINGLEVALUE('IsExternal',$,IFCBOOLEAN(.F.),$);
#174=IFCPROPERTYSINGLEVALUE('LoadBearing',$,IFCBOOLEAN(.F.),$);
#175=IFCWALL('26BL_dpx92VfEDVb1Gbt4Y',$,'INT-3',$,$,#196,#191,$,$);
#176=IFCCARTESIANPOINTLIST2D(((75.,6125.),(4675.,6125.),(4675.,5974.9999999999991),(75.,5974.9999999999991),(75.,6125.)));
#177=IFCINDEXEDPOLYCURVE(#176,$,$);
#178=IFCARBITRARYCLOSEDPROFILEDEF(.AREA.,'INT-3',#177);
#179=IFCCARTESIANPOINT((0.,0.,0.));
#180=IFCDIRECTION((0.,0.,1.));
#181=IFCDIRECTION((1.,0.,0.));
#182=IFCAXIS2PLACEMENT3D(#179,#180,#181);
#183=IFCDIRECTION((0.,0.,1.));
#184=IFCEXTRUDEDAREASOLID(#178,#182,#183,2500.);
#185=IFCSHAPEREPRESENTATION(#11,'Body','SweptSolid',(#184));
#191=IFCPRODUCTDEFINITIONSHAPE($,$,(#185));
#192=IFCCARTESIANPOINT((0.,0.,0.));
#193=IFCDIRECTION((0.,0.,1.));
#194=IFCDIRECTION((1.,0.,0.));
#195=IFCAXIS2PLACEMENT3D(#192,#193,#194);
#196=IFCLOCALPLACEMENT($,#195);
#197=IFCPROPERTYSET('3WrijDaLfDThLmGAa_6VP9',$,'Pset_WallCommon',$,(#199,#200));
#198=IFCRELDEFINESBYPROPERTIES('0vumJZmpTEnRp9dqKzIgrA',$,$,$,(#175),#197);
#199=IFCPROPERTYSINGLEVALUE('IsExternal',$,IFCBOOLEAN(.F.),$);
#200=IFCPROPERTYSINGLEVALUE('LoadBearing',$,IFCBOOLEAN(.F.),$);
#201=IFCWALL('3ObDxM9Uj1$fHFBndb7HoY',$,'INT-4',$,$,#222,#217,$,$);
#202=IFCCARTESIANPOINTLIST2D(((4524.9999999999991,2424.9999999999995),(4524.9999999999991,6125.),(4675.,6125.),(4675.,2424.9999999999995),(4524.9999999999991,2424.9999999999995)));
#203=IFCINDEXEDPOLYCURVE(#202,$,$);
#204=IFCARBITRARYCLOSEDPROFILEDEF(.AREA.,'INT-4',#203);
#205=IFCCARTESIANPOINT((0.,0.,0.));
#206=IFCDIRECTION((0.,0.,1.));
#207=IFCDIRECTION((1.,0.,0.));
#208=IFCAXIS2PLACEMENT3D(#205,#206,#207);
#209=IFCDIRECTION((0.,0.,1.));
#210=IFCEXTRUDEDAREASOLID(#204,#208,#209,2500.);
#211=IFCSHAPEREPRESENTATION(#11,'Body','SweptSolid',(#210));
#217=IFCPRODUCTDEFINITIONSHAPE($,$,(#211));
#218=IFCCARTESIANPOINT((0.,0.,0.));
#219=IFCDIRECTION((0.,0.,1.));
#220=IFCDIRECTION((1.,0.,0.));
#221=IFCAXIS2PLACEMENT3D(#218,#219,#220);
#222=IFCLOCALPLACEMENT($,#221);
#223=IFCPROPERTYSET('2mLIhq4nH8Hvm_ACH_t04u',$,'Pset_WallCommon',$,(#225,#226));
#224=IFCRELDEFINESBYPROPERTIES('1Ht1qdrijF8vfm30ApCW$Q',$,$,$,(#201),#223);
#225=IFCPROPERTYSINGLEVALUE('IsExternal',$,IFCBOOLEAN(.F.),$);
#226=IFCPROPERTYSINGLEVALUE('LoadBearing',$,IFCBOOLEAN(.F.),$);
#227=IFCWALL('29uhP_Eyf9KQuVJIYds0_O',$,'INT-5',$,$,#248,#243,$,$);
#228=IFCCARTESIANPOINTLIST2D(((4524.9999999999991,5974.9999999999991),(4524.9999999999991,7875.),(4675.,7875.),(4675.,5974.9999999999991),(4524.9999999999991,5974.9999999999991)));
#229=IFCINDEXEDPOLYCURVE(#228,$,$);
#230=IFCARBITRARYCLOSEDPROFILEDEF(.AREA.,'INT-5',#229);
#231=IFCCARTESIANPOINT((0.,0.,0.));
#232=IFCDIRECTION((0.,0.,1.));
#233=IFCDIRECTION((1.,0.,0.));
#234=IFCAXIS2PLACEMENT3D(#231,#232,#233);
#235=IFCDIRECTION((0.,0.,1.));
#236=IFCEXTRUDEDAREASOLID(#230,#234,#235,2500.);
#237=IFCSHAPEREPRESENTATION(#11,'Body','SweptSolid',(#236));
#243=IFCPRODUCTDEFINITIONSHAPE($,$,(#237));
#244=IFCCARTESIANPOINT((0.,0.,0.));
#245=IFCDIRECTION((0.,0.,1.));
#246=IFCDIRECTION((1.,0.,0.));
#247=IFCAXIS2PLACEMENT3D(#244,#245,#246);
#248=IFCLOCALPLACEMENT($,#247);
#249=IFCPROPERTYSET('26vNXSrzn8L9nLNxunOV1g',$,'Pset_WallCommon',$,(#251,#252));
#250=IFCRELDEFINESBYPROPERTIES('03IJr3SrnFKuOIAsITGBfH',$,$,$,(#227),#249);
#251=IFCPROPERTYSINGLEVALUE('IsExternal',$,IFCBOOLEAN(.F.),$);
#252=IFCPROPERTYSINGLEVALUE('LoadBearing',$,IFCBOOLEAN(.F.),$);
#253=IFCWALL('0qbop_GS9BduV$1HOk7Vw0',$,'INT-6',$,$,#274,#269,$,$);
#254=IFCCARTESIANPOINTLIST2D(((4524.9999999999991,7724.9999999999991),(4524.9999999999991,11424.999999999998),(4675.,11424.999999999998),(4675.,7724.9999999999991),(4524.9999999999991,7724.9999999999991)));
#255=IFCINDEXEDPOLYCURVE(#254,$,$);
#256=IFCARBITRARYCLOSEDPROFILEDEF(.AREA.,'INT-6',#255);
#257=IFCCARTESIANPOINT((0.,0.,0.));
#258=IFCDIRECTION((0.,0.,1.));
#259=IFCDIRECTION((1.,0.,0.));
#260=IFCAXIS2PLACEMENT3D(#257,#258,#259);
#261=IFCDIRECTION((0.,0.,1.));
#262=IFCEXTRUDEDAREASOLID(#256,#260,#261,2500.);
#263=IFCSHAPEREPRESENTATION(#11,'Body','SweptSolid',(#262));
#269=IFCPRODUCTDEFINITIONSHAPE($,$,(#263));
#270=IFCCARTESIANPOINT((0.,0.,0.));
#271=IFCDIRECTION((0.,0.,1.));
#272=IFCDIRECTION((1.,0.,0.));
#273=IFCAXIS2PLACEMENT3D(#270,#271,#272);
#274=IFCLOCALPLACEMENT($,#273);
#275=IFCPROPERTYSET('3saA204g128eRpCO_5EyKL',$,'Pset_WallCommon',$,(#277,#278));
#276=IFCRELDEFINESBYPROPERTIES('2vR40NsHH7UxebOrHlrFL0',$,$,$,(#253),#275);
#277=IFCPROPERTYSINGLEVALUE('IsExternal',$,IFCBOOLEAN(.F.),$);
#278=IFCPROPERTYSINGLEVALUE('LoadBearing',$,IFCBOOLEAN(.F.),$);
#279=IFCWALL('3yXRl9$Eb8kBM9wYlUIiix',$,'INT-7',$,$,#300,#295,$,$);
#280=IFCCARTESIANPOINTLIST2D(((4524.9999999999991,7875.),(8325.,7875.),(8325.,7724.9999999999991),(4524.9999999999991,7724.9999999999991),(4524.9999999999991,7875.)));
#281=IFCINDEXEDPOLYCURVE(#280,$,$);
#282=IFCARBITRARYCLOSEDPROFILEDEF(.AREA.,'INT-7',#281);
#283=IFCCARTESIANPOINT((0.,0.,0.));
#284=IFCDIRECTION((0.,0.,1.));
#285=IFCDIRECTION((1.,0.,0.));
#286=IFCAXIS2PLACEMENT3D(#283,#284,#285);
#287=IFCDIRECTION((0.,0.,1.));
#288=IFCEXTRUDEDAREASOLID(#282,#286,#287,2500.);
#289=IFCSHAPEREPRESENTATION(#11,'Body','SweptSolid',(#288));
#295=IFCPRODUCTDEFINITIONSHAPE($,$,(#289));
#296=IFCCARTESIANPOINT((0.,0.,0.));
#297=IFCDIRECTION((0.,0.,1.));
#298=IFCDIRECTION((1.,0.,0.));
#299=IFCAXIS2PLACEMENT3D(#296,#297,#298);
#300=IFCLOCALPLACEMENT($,#299);
#301=IFCPROPERTYSET('1Vo6wbYLv51hBEL4ie6Knw',$,'Pset_WallCommon',$,(#303,#304));
#302=IFCRELDEFINESBYPROPERTIES('1PkQFAlvD3jfcFcgZZU0S5',$,$,$,(#279),#301);
#303=IFCPROPERTYSINGLEVALUE('IsExternal',$,IFCBOOLEAN(.F.),$);
#304=IFCPROPERTYSINGLEVALUE('LoadBearing',$,IFCBOOLEAN(.F.),$);
#305=IFCWALL('369wBtUAjBogr2S5gXNz8a',$,'INT-8',$,$,#326,#321,$,$);
#306=IFCCARTESIANPOINTLIST2D(((8175.0000000000009,7875.),(10524.999999999998,7875.),(10524.999999999998,7724.9999999999991),(8175.0000000000009,7724.9999999999991),(8175.0000000000009,7875.)));
#307=IFCINDEXEDPOLYCURVE(#306,$,$);
#308=IFCARBITRARYCLOSEDPROFILEDEF(.AREA.,'INT-8',#307);
#309=IFCCARTESIANPOINT((0.,0.,0.));
#310=IFCDIRECTION((0.,0.,1.));
#311=IFCDIRECTION((1.,0.,0.));
#312=IFCAXIS2PLACEMENT3D(#309,#310,#311);
#313=IFCDIRECTION((0.,0.,1.));
#314=IFCEXTRUDEDAREASOLID(#308,#312,#313,2500.);
#315=IFCSHAPEREPRESENTATION(#11,'Body','SweptSolid',(#314));
#321=IFCPRODUCTDEFINITIONSHAPE($,$,(#315));
#322=IFCCARTESIANPOINT((0.,0.,0.));
#323=IFCDIRECTION((0.,0.,1.));
#324=IFCDIRECTION((1.,0.,0.));
#325=IFCAXIS2PLACEMENT3D(#322,#323,#324);
#326=IFCLOCALPLACEMENT($,#325);
#327=IFCPROPERTYSET('2XHDQv4Gb50AS1S$ssiJtM',$,'Pset_WallCommon',$,(#329,#330));
#328=IFCRELDEFINESBYPROPERTIES('0E4rA9ewHBmvnRrnGw3Dte',$,$,$,(#305),#327);
#329=IFCPROPERTYSINGLEVALUE('IsExternal',$,IFCBOOLEAN(.F.),$);
#330=IFCPROPERTYSINGLEVALUE('LoadBearing',$,IFCBOOLEAN(.F.),$);
#331=IFCWALL('0slT4Y$hj7xBYUI23eJrP0',$,'INT-9',$,$,#352,#347,$,$);
#332=IFCCARTESIANPOINTLIST2D(((10375.,7875.),(14924.999999999998,7875.),(14924.999999999998,7724.9999999999991),(10375.,7724.9999999999991),(10375.,7875.)));
#333=IFCINDEXEDPOLYCURVE(#332,$,$);
#334=IFCARBITRARYCLOSEDPROFILEDEF(.AREA.,'INT-9',#333);
#335=IFCCARTESIANPOINT((0.,0.,0.));
#336=IFCDIRECTION((0.,0.,1.));
#337=IFCDIRECTION((1.,0.,0.));
#338=IFCAXIS2PLACEMENT3D(#335,#336,#337);
#339=IFCDIRECTION((0.,0.,1.));
#340=IFCEXTRUDEDAREASOLID(#334,#338,#339,2500.);
#341=IFCSHAPEREPRESENTATION(#11,'Body','SweptSolid',(#340));
#347=IFCPRODUCTDEFINITIONSHAPE($,$,(#341));
#348=IFCCARTESIANPOINT((0.,0.,0.));
#349=IFCDIRECTION((0.,0.,1.));
#350=IFCDIRECTION((1.,0.,0.));
#351=IFCAXIS2PLACEMENT3D(#348,#349,#350);
#352=IFCLOCALPLACEMENT($,#351);
#353=IFCPROPERTYSET('38LyIEgu5FNQjPyZMP7jYp',$,'Pset_WallCommon',$,(#355,#356));
#354=IFCRELDEFINESBYPROPERTIES('2gLEmEX1PDuOkwH5XpD6ID',$,$,$,(#331),#353);
#355=IFCPROPERTYSINGLEVALUE('IsExternal',$,IFCBOOLEAN(.F.),$);
#356=IFCPROPERTYSINGLEVALUE('LoadBearing',$,IFCBOOLEAN(.F.),$);
#357=IFCWALL('0EzPg6YH916PASNcCYJgE8',$,'INT-10',$,$,#378,#373,$,$);
#358=IFCCARTESIANPOINTLIST2D(((8175.0000000000009,7724.9999999999991),(8175.0000000000009,11424.999999999998),(8325.,11424.999999999998),(8325.,7724.9999999999991),(8175.0000000000009,7724.9999999999991)));
#359=IFCINDEXEDPOLYCURVE(#358,$,$);
#360=IFCARBITRARYCLOSEDPROFILEDEF(.AREA.,'INT-10',#359);
#361=IFCCARTESIANPOINT((0.,0.,0.));
#362=IFCDIRECTION((0.,0.,1.));
#363=IFCDIRECTION((1.,0.,0.));
#364=IFCAXIS2PLACEMENT3D(#361,#362,#363);
#365=IFCDIRECTION((0.,0.,1.));
#366=IFCEXTRUDEDAREASOLID(#360,#364,#365,2500.);
#367=IFCSHAPEREPRESENTATION(#11,'Body','SweptSolid',(#366));
#373=IFCPRODUCTDEFINITIONSHAPE($,$,(#367));
#374=IFCCARTESIANPOINT((0.,0.,0.));
#375=IFCDIRECTION((0.,0.,1.));
#376=IFCDIRECTION((1.,0.,0.));
#377=IFCAXIS2PLACEMENT3D(#374,#375,#376);
#378=IFCLOCALPLACEMENT($,#377);
#379=IFCPROPERTYSET('1W3q5D4qP8O81qeUoW_7og',$,'Pset_WallCommon',$,(#381,#382));
#380=IFCRELDEFINESBYPROPERTIES('0hUZkhg$HBv8u6Y3ohZHcX',$,$,$,(#357),#379);
#381=IFCPROPERTYSINGLEVALUE('IsExternal',$,IFCBOOLEAN(.F.),$);
#382=IFCPROPERTYSINGLEVALUE('LoadBearing',$,IFCBOOLEAN(.F.),$);
#383=IFCWALL('1k1m4UwU1B9ADhNh8UxWIr',$,'INT-11',$,$,#404,#399,$,$);
#384=IFCCARTESIANPOINTLIST2D(((10375.,7724.9999999999991),(10375.,11424.999999999998),(10524.999999999998,11424.999999999998),(10524.999999999998,7724.9999999999991),(10375.,7724.9999999999991)));
#385=IFCINDEXEDPOLYCURVE(#384,$,$);
#386=IFCARBITRARYCLOSEDPROFILEDEF(.AREA.,'INT-11',#385);
#387=IFCCARTESIANPOINT((0.,0.,0.));
#388=IFCDIRECTION((0.,0.,1.));
#389=IFCDIRECTION((1.,0.,0.));
#390=IFCAXIS2PLACEMENT3D(#387,#388,#389);
#391=IFCDIRECTION((0.,0.,1.));
#392=IFCEXTRUDEDAREASOLID(#386,#390,#391,2500.);
#393=IFCSHAPEREPRESENTATION(#11,'Body','SweptSolid',(#392));
#399=IFCPRODUCTDEFINITIONSHAPE($,$,(#393));
#400=IFCCARTESIANPOINT((0.,0.,0.));
#401=IFCDIRECTION((0.,0.,1.));
#402=IFCDIRECTION((1.,0.,0.));
#403=IFCAXIS2PLACEMENT3D(#400,#401,#402);
#404=IFCLOCALPLACEMENT($,#403);
#405=IFCPROPERTYSET('1$8dTlReXA0BdcPoXVi$Uh',$,'Pset_WallCommon',$,(#407,#408));
#406=IFCRELDEFINESBYPROPERTIES('37GdiXUuj0FAwCCP1_KQLp',$,$,$,(#383),#405);
#407=IFCPROPERTYSINGLEVALUE('IsExternal',$,IFCBOOLEAN(.F.),$);
#408=IFCPROPERTYSINGLEVALUE('LoadBearing',$,IFCBOOLEAN(.F.),$);
#409=IFCSPACE('2lARR629f2pxopHAHFE2yz',$,'Bad',$,$,#431,#425,'Bad',$,.INTERNAL.,$);
#410=IFCCARTESIANPOINTLIST2D(((300.,300.),(4500.,300.),(4500.,2400.),(300.,2400.),(300.,300.)));
#411=IFCINDEXEDPOLYCURVE(#410,$,$);
#412=IFCARBITRARYCLOSEDPROFILEDEF(.AREA.,'Bad',#411);
#413=IFCCARTESIANPOINT((0.,0.,0.));
#414=IFCDIRECTION((0.,0.,1.));
#415=IFCDIRECTION((1.,0.,0.));
#416=IFCAXIS2PLACEMENT3D(#413,#414,#415);
#417=IFCDIRECTION((0.,0.,1.));
#418=IFCEXTRUDEDAREASOLID(#412,#416,#417,2500.);
#419=IFCSHAPEREPRESENTATION(#11,'Body','SweptSolid',(#418));
#425=IFCPRODUCTDEFINITIONSHAPE($,$,(#419));
#426=IFCRELAGGREGATES('1bw2X0QYz2F8yz6I4op4PV',$,$,$,#16,(#542,#454,#432,#498,#476,#520,#409));
#427=IFCCARTESIANPOINT((0.,0.,0.));
#428=IFCDIRECTION((0.,0.,1.));
#429=IFCDIRECTION((1.,0.,0.));
#430=IFCAXIS2PLACEMENT3D(#427,#428,#429);
#431=IFCLOCALPLACEMENT($,#430);
#432=IFCSPACE('0TF9u6C8j05ONFsdQ4H0U8',$,'K\X2\00FC\X0\che',$,$,#453,#448,'K\X2\00FC\X0\che',$,.INTERNAL.,$);
#433=IFCCARTESIANPOINTLIST2D(((300.,2600.),(4500.,2600.),(4500.,5950.),(300.,5950.),(300.,2600.)));
#434=IFCINDEXEDPOLYCURVE(#433,$,$);
#435=IFCARBITRARYCLOSEDPROFILEDEF(.AREA.,'K\X2\00FC\X0\che',#434);
#436=IFCCARTESIANPOINT((0.,0.,0.));
#437=IFCDIRECTION((0.,0.,1.));
#438=IFCDIRECTION((1.,0.,0.));
#439=IFCAXIS2PLACEMENT3D(#436,#437,#438);
#440=IFCDIRECTION((0.,0.,1.));
#441=IFCEXTRUDEDAREASOLID(#435,#439,#440,2500.);
#442=IFCSHAPEREPRESENTATION(#11,'Body','SweptSolid',(#441));
#448=IFCPRODUCTDEFINITIONSHAPE($,$,(#442));
#449=IFCCARTESIANPOINT((0.,0.,0.));
#450=IFCDIRECTION((0.,0.,1.));
#451=IFCDIRECTION((1.,0.,0.));
#452=IFCAXIS2PLACEMENT3D(#449,#450,#451);
#453=IFCLOCALPLACEMENT($,#452);
#454=IFCSPACE('1t3Xioq_f57Qa$lB_qrXfb',$,'Besprechung',$,$,#475,#470,'Besprechung',$,.INTERNAL.,$);
#455=IFCCARTESIANPOINTLIST2D(((300.,6099.9999999999991),(4500.,6099.9999999999991),(4500.,11199.999999999998),(300.,11199.999999999998),(300.,6099.9999999999991)));
#456=IFCINDEXEDPOLYCURVE(#455,$,$);
#457=IFCARBITRARYCLOSEDPROFILEDEF(.AREA.,'Besprechung',#456);
#458=IFCCARTESIANPOINT((0.,0.,0.));
#459=IFCDIRECTION((0.,0.,1.));
#460=IFCDIRECTION((1.,0.,0.));
#461=IFCAXIS2PLACEMENT3D(#458,#459,#460);
#462=IFCDIRECTION((0.,0.,1.));
#463=IFCEXTRUDEDAREASOLID(#457,#461,#462,2500.);
#464=IFCSHAPEREPRESENTATION(#11,'Body','SweptSolid',(#463));
#470=IFCPRODUCTDEFINITIONSHAPE($,$,(#464));
#471=IFCCARTESIANPOINT((0.,0.,0.));
#472=IFCDIRECTION((0.,0.,1.));
#473=IFCDIRECTION((1.,0.,0.));
#474=IFCAXIS2PLACEMENT3D(#471,#472,#473);
#475=IFCLOCALPLACEMENT($,#474);
#476=IFCSPACE('0QTThYQ4X6qvfAJBq3UR_1',$,'B\X2\00FC\X0\ro',$,$,#497,#492,'B\X2\00FC\X0\ro',$,.INTERNAL.,$);
#477=IFCCARTESIANPOINTLIST2D(((4650.,300.),(14699.999999999998,300.),(14699.999999999998,7700.),(4650.,7700.),(4650.,300.)));
#478=IFCINDEXEDPOLYCURVE(#477,$,$);
#479=IFCARBITRARYCLOSEDPROFILEDEF(.AREA.,'B\X2\00FC\X0\ro',#478);
#480=IFCCARTESIANPOINT((0.,0.,0.));
#481=IFCDIRECTION((0.,0.,1.));
#482=IFCDIRECTION((1.,0.,0.));
#483=IFCAXIS2PLACEMENT3D(#480,#481,#482);
#484=IFCDIRECTION((0.,0.,1.));
#485=IFCEXTRUDEDAREASOLID(#479,#483,#484,2500.);
#486=IFCSHAPEREPRESENTATION(#11,'Body','SweptSolid',(#485));
#492=IFCPRODUCTDEFINITIONSHAPE($,$,(#486));
#493=IFCCARTESIANPOINT((0.,0.,0.));
#494=IFCDIRECTION((0.,0.,1.));
#495=IFCDIRECTION((1.,0.,0.));
#496=IFCAXIS2PLACEMENT3D(#493,#494,#495);
#497=IFCLOCALPLACEMENT($,#496);
#498=IFCSPACE('0T9D7Rro103gbaNPLDB7JY',$,'Flur',$,$,#519,#514,'Flur',$,.INTERNAL.,$);
#499=IFCCARTESIANPOINTLIST2D(((4650.,7900.),(8200.,7900.),(8200.,11199.999999999998),(4650.,11199.999999999998),(4650.,7900.)));
#500=IFCINDEXEDPOLYCURVE(#499,$,$);
#501=IFCARBITRARYCLOSEDPROFILEDEF(.AREA.,'Flur',#500);
#502=IFCCARTESIANPOINT((0.,0.,0.));
#503=IFCDIRECTION((0.,0.,1.));
#504=IFCDIRECTION((1.,0.,0.));
#505=IFCAXIS2PLACEMENT3D(#502,#503,#504);
#506=IFCDIRECTION((0.,0.,1.));
#507=IFCEXTRUDEDAREASOLID(#501,#505,#506,2500.);
#508=IFCSHAPEREPRESENTATION(#11,'Body','SweptSolid',(#507));
#514=IFCPRODUCTDEFINITIONSHAPE($,$,(#508));
#515=IFCCARTESIANPOINT((0.,0.,0.));
#516=IFCDIRECTION((0.,0.,1.));
#517=IFCDIRECTION((1.,0.,0.));
#518=IFCAXIS2PLACEMENT3D(#515,#516,#517);
#519=IFCLOCALPLACEMENT($,#518);
#520=IFCSPACE('1pQ0PoDwjFD9Vb1OKFT0s2',$,'HWR',$,$,#541,#536,'HWR',$,.INTERNAL.,$);
#521=IFCCARTESIANPOINTLIST2D(((8300.,7900.),(10350.,7900.),(10350.,11199.999999999998),(8300.,11199.999999999998),(8300.,7900.)));
#522=IFCINDEXEDPOLYCURVE(#521,$,$);
#523=IFCARBITRARYCLOSEDPROFILEDEF(.AREA.,'HWR',#522);
#524=IFCCARTESIANPOINT((0.,0.,0.));
#525=IFCDIRECTION((0.,0.,1.));
#526=IFCDIRECTION((1.,0.,0.));
#527=IFCAXIS2PLACEMENT3D(#524,#525,#526);
#528=IFCDIRECTION((0.,0.,1.));
#529=IFCEXTRUDEDAREASOLID(#523,#527,#528,2500.);
#530=IFCSHAPEREPRESENTATION(#11,'Body','SweptSolid',(#529));
#536=IFCPRODUCTDEFINITIONSHAPE($,$,(#530));
#537=IFCCARTESIANPOINT((0.,0.,0.));
#538=IFCDIRECTION((0.,0.,1.));
#539=IFCDIRECTION((1.,0.,0.));
#540=IFCAXIS2PLACEMENT3D(#537,#538,#539);
#541=IFCLOCALPLACEMENT($,#540);
#542=IFCSPACE('2lLOiOdMH7OeJerv27UK6s',$,'Stair',$,$,#563,#558,'Stair',$,.INTERNAL.,$);
#543=IFCCARTESIANPOINTLIST2D(((10500.,7900.),(14699.999999999998,7900.),(14699.999999999998,11199.999999999998),(10500.,11199.999999999998),(10500.,7900.)));
#544=IFCINDEXEDPOLYCURVE(#543,$,$);
#545=IFCARBITRARYCLOSEDPROFILEDEF(.AREA.,'Stair',#544);
#546=IFCCARTESIANPOINT((0.,0.,0.));
#547=IFCDIRECTION((0.,0.,1.));
#548=IFCDIRECTION((1.,0.,0.));
#549=IFCAXIS2PLACEMENT3D(#546,#547,#548);
#550=IFCDIRECTION((0.,0.,1.));
#551=IFCEXTRUDEDAREASOLID(#545,#549,#550,2500.);
#552=IFCSHAPEREPRESENTATION(#11,'Body','SweptSolid',(#551));
#558=IFCPRODUCTDEFINITIONSHAPE($,$,(#552));
#559=IFCCARTESIANPOINT((0.,0.,0.));
#560=IFCDIRECTION((0.,0.,1.));
#561=IFCDIRECTION((1.,0.,0.));
#562=IFCAXIS2PLACEMENT3D(#559,#560,#561);
#563=IFCLOCALPLACEMENT($,#562);
#564=IFCOPENINGELEMENT('1q4$10Kib1NxP$EM0HSDYU',$,'D-00 opening',$,$,#586,#580,$,$);
#565=IFCCARTESIANPOINTLIST2D(((7050.,319.99999999999994),(7950.,319.99999999999994),(7950.,-19.999999999999989),(7050.,-19.999999999999989),(7050.,319.99999999999994)));
#566=IFCINDEXEDPOLYCURVE(#565,$,$);
#567=IFCARBITRARYCLOSEDPROFILEDEF(.AREA.,'D-00 opening',#566);
#568=IFCCARTESIANPOINT((0.,0.,0.));
#569=IFCDIRECTION((0.,0.,1.));
#570=IFCDIRECTION((1.,0.,0.));
#571=IFCAXIS2PLACEMENT3D(#568,#569,#570);
#572=IFCDIRECTION((0.,0.,1.));
#573=IFCEXTRUDEDAREASOLID(#567,#571,#572,2100.);
#574=IFCSHAPEREPRESENTATION(#11,'Body','SweptSolid',(#573));
#580=IFCPRODUCTDEFINITIONSHAPE($,$,(#574));
#581=IFCRELVOIDSELEMENT('1$rE3ocJ5DgQ_ekYDPfJOJ',$,$,$,#18,#564);
#582=IFCCARTESIANPOINT((0.,0.,0.));
#583=IFCDIRECTION((0.,0.,1.));
#584=IFCDIRECTION((1.,0.,0.));
#585=IFCAXIS2PLACEMENT3D(#582,#583,#584);
#586=IFCLOCALPLACEMENT(#40,#585);
#587=IFCDOOR('2F7FGoyL5CUurTTsLb8eAZ',$,'D-00',$,$,#609,#603,$,2.1000000000000001,0.90000000000000002,.DOOR.,$,$);
#588=IFCCARTESIANPOINTLIST2D(((7050.,224.99999999999997),(7950.,224.99999999999997),(7950.,75.),(7050.,75.),(7050.,224.99999999999997)));
#589=IFCINDEXEDPOLYCURVE(#588,$,$);
#590=IFCARBITRARYCLOSEDPROFILEDEF(.AREA.,'D-00',#589);
#591=IFCCARTESIANPOINT((0.,0.,0.));
#592=IFCDIRECTION((0.,0.,1.));
#593=IFCDIRECTION((1.,0.,0.));
#594=IFCAXIS2PLACEMENT3D(#591,#592,#593);
#595=IFCDIRECTION((0.,0.,1.));
#596=IFCEXTRUDEDAREASOLID(#590,#594,#595,2100.);
#597=IFCSHAPEREPRESENTATION(#11,'Body','SweptSolid',(#596));
#603=IFCPRODUCTDEFINITIONSHAPE($,$,(#597));
#604=IFCRELFILLSELEMENT('0gPCVeBnD1gv38xby$doFI',$,$,$,#564,#587);
#605=IFCCARTESIANPOINT((0.,0.,0.));
#606=IFCDIRECTION((0.,0.,1.));
#607=IFCDIRECTION((1.,0.,0.));
#608=IFCAXIS2PLACEMENT3D(#605,#606,#607);
#609=IFCLOCALPLACEMENT(#586,#608);
#610=IFCDOORTYPE('1lsXw3ZM53m8LnkN_VKRgC',$,'Eingangstuer',$,$,$,$,$,$,.NOTDEFINED.,.NOTDEFINED.,$,$);
#611=IFCRELDEFINESBYTYPE('3STkWByZHFI9dtNLc$dWK6',$,$,$,(#587),#610);
#612=IFCPROPERTYSET('2kyf1cFbnCDBK4x_fg29vY',$,'Pset_DoorCommon',$,(#614));
#613=IFCRELDEFINESBYPROPERTIES('2ZyGn118z7RPMTC4maHeCB',$,$,$,(#587),#612);
#614=IFCPROPERTYSINGLEVALUE('IsExternal',$,IFCBOOLEAN(.T.),$);
#615=IFCOPENINGELEMENT('0XlUjAWJf7YvH6iJg2cS0q',$,'D-01 opening',$,$,#637,#631,$,$);
#616=IFCCARTESIANPOINTLIST2D(((1950.0000000000002,2595.),(2750.,2595.),(2750.,2404.9999999999995),(1950.0000000000002,2404.9999999999995),(1950.0000000000002,2595.)));
#617=IFCINDEXEDPOLYCURVE(#616,$,$);
#618=IFCARBITRARYCLOSEDPROFILEDEF(.AREA.,'D-01 opening',#617);
#619=IFCCARTESIANPOINT((0.,0.,0.));
#620=IFCDIRECTION((0.,0.,1.));
#621=IFCDIRECTION((1.,0.,0.));
#622=IFCAXIS2PLACEMENT3D(#619,#620,#621);
#623=IFCDIRECTION((0.,0.,1.));
#624=IFCEXTRUDEDAREASOLID(#618,#622,#623,2050.);
#625=IFCSHAPEREPRESENTATION(#11,'Body','SweptSolid',(#624));
#631=IFCPRODUCTDEFINITIONSHAPE($,$,(#625));
#632=IFCRELVOIDSELEMENT('2hYhG_qu18EhuXdgpoHrjk',$,$,$,#123,#615);
#633=IFCCARTESIANPOINT((0.,0.,0.));
#634=IFCDIRECTION((0.,0.,1.));
#635=IFCDIRECTION((1.,0.,0.));
#636=IFCAXIS2PLACEMENT3D(#633,#634,#635);
#637=IFCLOCALPLACEMENT(#144,#636);
#638=IFCDOOR('3G1o$oWpT1FRMM7ajQTtPe',$,'D-01',$,$,#660,#654,$,2.0499999999999998,0.80000000000000004,.DOOR.,$,$);
#639=IFCCARTESIANPOINTLIST2D(((1950.0000000000002,2537.5),(2750.,2537.5),(2750.,2462.5),(1950.0000000000002,2462.5),(1950.0000000000002,2537.5)));
#640=IFCINDEXEDPOLYCURVE(#639,$,$);
#641=IFCARBITRARYCLOSEDPROFILEDEF(.AREA.,'D-01',#640);
#642=IFCCARTESIANPOINT((0.,0.,0.));
#643=IFCDIRECTION((0.,0.,1.));
#644=IFCDIRECTION((1.,0.,0.));
#645=IFCAXIS2PLACEMENT3D(#642,#643,#644);
#646=IFCDIRECTION((0.,0.,1.));
#647=IFCEXTRUDEDAREASOLID(#641,#645,#646,2050.);
#648=IFCSHAPEREPRESENTATION(#11,'Body','SweptSolid',(#647));
#654=IFCPRODUCTDEFINITIONSHAPE($,$,(#648));
#655=IFCRELFILLSELEMENT('2s2TBPDLj1TRHjV1hI6N$G',$,$,$,#615,#638);
#656=IFCCARTESIANPOINT((0.,0.,0.));
#657=IFCDIRECTION((0.,0.,1.));
#658=IFCDIRECTION((1.,0.,0.));
#659=IFCAXIS2PLACEMENT3D(#656,#657,#658);
#660=IFCLOCALPLACEMENT(#637,#659);
#661=IFCPROPERTYSET('24LF50o8LE09U_agrki_Aj',$,'Pset_DoorCommon',$,(#663));
#662=IFCRELDEFINESBYPROPERTIES('26OyKLitjDPAayy1ahz0sm',$,$,$,(#638),#661);
#663=IFCPROPERTYSINGLEVALUE('IsExternal',$,IFCBOOLEAN(.F.),$);
#664=IFCOPENINGELEMENT('28uI$DZD9CjP91sPfAzM3N',$,'D-02 opening',$,$,#686,#680,$,$);
#665=IFCCARTESIANPOINTLIST2D(((1950.0000000000002,6144.9999999999991),(2750.,6144.9999999999991),(2750.,5955.),(1950.0000000000002,5955.),(1950.0000000000002,6144.9999999999991)));
#666=IFCINDEXEDPOLYCURVE(#665,$,$);
#667=IFCARBITRARYCLOSEDPROFILEDEF(.AREA.,'D-02 opening',#666);
#668=IFCCARTESIANPOINT((0.,0.,0.));
#669=IFCDIRECTION((0.,0.,1.));
#670=IFCDIRECTION((1.,0.,0.));
#671=IFCAXIS2PLACEMENT3D(#668,#669,#670);
#672=IFCDIRECTION((0.,0.,1.));
#673=IFCEXTRUDEDAREASOLID(#667,#671,#672,2050.);
#674=IFCSHAPEREPRESENTATION(#11,'Body','SweptSolid',(#673));
#680=IFCPRODUCTDEFINITIONSHAPE($,$,(#674));
#681=IFCRELVOIDSELEMENT('1OfG1ClSHF3R7hs9LAjJ3H',$,$,$,#175,#664);
#682=IFCCARTESIANPOINT((0.,0.,0.));
#683=IFCDIRECTION((0.,0.,1.));
#684=IFCDIRECTION((1.,0.,0.));
#685=IFCAXIS2PLACEMENT3D(#682,#683,#684);
#686=IFCLOCALPLACEMENT(#196,#685);
#687=IFCDOOR('3$19gGoHnBDgVHZBqZAyib',$,'D-02',$,$,#709,#703,$,2.0499999999999998,0.80000000000000004,.DOOR.,$,$);
#688=IFCCARTESIANPOINTLIST2D(((1950.0000000000002,6087.4999999999991),(2750.,6087.4999999999991),(2750.,6012.5),(1950.0000000000002,6012.5),(1950.0000000000002,6087.4999999999991)));
#689=IFCINDEXEDPOLYCURVE(#688,$,$);
#690=IFCARBITRARYCLOSEDPROFILEDEF(.AREA.,'D-02',#689);
#691=IFCCARTESIANPOINT((0.,0.,0.));
#692=IFCDIRECTION((0.,0.,1.));
#693=IFCDIRECTION((1.,0.,0.));
#694=IFCAXIS2PLACEMENT3D(#691,#692,#693);
#695=IFCDIRECTION((0.,0.,1.));
#696=IFCEXTRUDEDAREASOLID(#690,#694,#695,2050.);
#697=IFCSHAPEREPRESENTATION(#11,'Body','SweptSolid',(#696));
#703=IFCPRODUCTDEFINITIONSHAPE($,$,(#697));
#704=IFCRELFILLSELEMENT('36ApzKe310ARaPtp5nsPQd',$,$,$,#664,#687);
#705=IFCCARTESIANPOINT((0.,0.,0.));
#706=IFCDIRECTION((0.,0.,1.));
#707=IFCDIRECTION((1.,0.,0.));
#708=IFCAXIS2PLACEMENT3D(#705,#706,#707);
#709=IFCLOCALPLACEMENT(#686,#708);
#710=IFCPROPERTYSET('1QPogTk7v1xBKLVgUbNEkq',$,'Pset_DoorCommon',$,(#712));
#711=IFCRELDEFINESBYPROPERTIES('1dppZuVaXDvRD95o9nmpk9',$,$,$,(#687),#710);
#712=IFCPROPERTYSINGLEVALUE('IsExternal',$,IFCBOOLEAN(.F.),$);
#713=IFCOPENINGELEMENT('31EGq1xl576weCe7WDNV15',$,'D-03 opening',$,$,#735,#729,$,$);
#714=IFCCARTESIANPOINTLIST2D(((4505.,949.99999999999977),(4505.,1750.),(4694.9999999999991,1750.),(4694.9999999999991,949.99999999999977),(4505.,949.99999999999977)));
#715=IFCINDEXEDPOLYCURVE(#714,$,$);
#716=IFCARBITRARYCLOSEDPROFILEDEF(.AREA.,'D-03 opening',#715);
#717=IFCCARTESIANPOINT((0.,0.,0.));
#718=IFCDIRECTION((0.,0.,1.));
#719=IFCDIRECTION((1.,0.,0.));
#720=IFCAXIS2PLACEMENT3D(#717,#718,#719);
#721=IFCDIRECTION((0.,0.,1.));
#722=IFCEXTRUDEDAREASOLID(#716,#720,#721,2050.);
#723=IFCSHAPEREPRESENTATION(#11,'Body','SweptSolid',(#722));
#729=IFCPRODUCTDEFINITIONSHAPE($,$,(#723));
#730=IFCRELVOIDSELEMENT('2MaYxCmebFIwyv3y3im4LC',$,$,$,#149,#713);
#731=IFCCARTESIANPOINT((0.,0.,0.));
#732=IFCDIRECTION((0.,0.,1.));
#733=IFCDIRECTION((1.,0.,0.));
#734=IFCAXIS2PLACEMENT3D(#731,#732,#733);
#735=IFCLOCALPLACEMENT(#170,#734);
#736=IFCDOOR('1vYDycQdfFDOd8gt7BB9Nd',$,'D-03',$,$,#758,#752,$,2.0499999999999998,0.80000000000000004,.DOOR.,$,$);
#737=IFCCARTESIANPOINTLIST2D(((4562.5,949.99999999999977),(4562.5,1750.),(4637.4999999999991,1750.),(4637.4999999999991,949.99999999999977),(4562.5,949.99999999999977)));
#738=IFCINDEXEDPOLYCURVE(#737,$,$);
#739=IFCARBITRARYCLOSEDPROFILEDEF(.AREA.,'D-03',#738);
#740=IFCCARTESIANPOINT((0.,0.,0.));
#741=IFCDIRECTION((0.,0.,1.));
#742=IFCDIRECTION((1.,0.,0.));
#743=IFCAXIS2PLACEMENT3D(#740,#741,#742);
#744=IFCDIRECTION((0.,0.,1.));
#745=IFCEXTRUDEDAREASOLID(#739,#743,#744,2050.);
#746=IFCSHAPEREPRESENTATION(#11,'Body','SweptSolid',(#745));
#752=IFCPRODUCTDEFINITIONSHAPE($,$,(#746));
#753=IFCRELFILLSELEMENT('2AL_fV2Yf90QrYQ2vlTqXf',$,$,$,#713,#736);
#754=IFCCARTESIANPOINT((0.,0.,0.));
#755=IFCDIRECTION((0.,0.,1.));
#756=IFCDIRECTION((1.,0.,0.));
#757=IFCAXIS2PLACEMENT3D(#754,#755,#756);
#758=IFCLOCALPLACEMENT(#735,#757);
#759=IFCPROPERTYSET('0DByy0SUz26f8UD_erZ9jC',$,'Pset_DoorCommon',$,(#761));
#760=IFCRELDEFINESBYPROPERTIES('1hcc3E8GD6S9sZNT_nJvTb',$,$,$,(#736),#759);
#761=IFCPROPERTYSINGLEVALUE('IsExternal',$,IFCBOOLEAN(.F.),$);
#762=IFCOPENINGELEMENT('0USvhJ76D1FhiE0Xm4Lh1u',$,'D-04 opening',$,$,#784,#778,$,$);
#763=IFCCARTESIANPOINTLIST2D(((5999.9999999999991,7894.9999999999991),(6800.,7894.9999999999991),(6800.,7705.),(5999.9999999999991,7705.),(5999.9999999999991,7894.9999999999991)));
#764=IFCINDEXEDPOLYCURVE(#763,$,$);
#765=IFCARBITRARYCLOSEDPROFILEDEF(.AREA.,'D-04 opening',#764);
#766=IFCCARTESIANPOINT((0.,0.,0.));
#767=IFCDIRECTION((0.,0.,1.));
#768=IFCDIRECTION((1.,0.,0.));
#769=IFCAXIS2PLACEMENT3D(#766,#767,#768);
#770=IFCDIRECTION((0.,0.,1.));
#771=IFCEXTRUDEDAREASOLID(#765,#769,#770,2050.);
#772=IFCSHAPEREPRESENTATION(#11,'Body','SweptSolid',(#771));
#778=IFCPRODUCTDEFINITIONSHAPE($,$,(#772));
#779=IFCRELVOIDSELEMENT('1_mczwvnPF1PykLJEjeGLe',$,$,$,#279,#762);
#780=IFCCARTESIANPOINT((0.,0.,0.));
#781=IFCDIRECTION((0.,0.,1.));
#782=IFCDIRECTION((1.,0.,0.));
#783=IFCAXIS2PLACEMENT3D(#780,#781,#782);
#784=IFCLOCALPLACEMENT(#300,#783);
#785=IFCDOOR('1qewqX2qXFuvxXT7SodkgM',$,'D-04',$,$,#807,#801,$,2.0499999999999998,0.80000000000000004,.DOOR.,$,$);
#786=IFCCARTESIANPOINTLIST2D(((5999.9999999999991,7837.4999999999991),(6800.,7837.4999999999991),(6800.,7762.5),(5999.9999999999991,7762.5),(5999.9999999999991,7837.4999999999991)));
#787=IFCINDEXEDPOLYCURVE(#786,$,$);
#788=IFCARBITRARYCLOSEDPROFILEDEF(.AREA.,'D-04',#787);
#789=IFCCARTESIANPOINT((0.,0.,0.));
#790=IFCDIRECTION((0.,0.,1.));
#791=IFCDIRECTION((1.,0.,0.));
#792=IFCAXIS2PLACEMENT3D(#789,#790,#791);
#793=IFCDIRECTION((0.,0.,1.));
#794=IFCEXTRUDEDAREASOLID(#788,#792,#793,2050.);
#795=IFCSHAPEREPRESENTATION(#11,'Body','SweptSolid',(#794));
#801=IFCPRODUCTDEFINITIONSHAPE($,$,(#795));
#802=IFCRELFILLSELEMENT('2zLRANu$H9jRqqf2D9wDax',$,$,$,#762,#785);
#803=IFCCARTESIANPOINT((0.,0.,0.));
#804=IFCDIRECTION((0.,0.,1.));
#805=IFCDIRECTION((1.,0.,0.));
#806=IFCAXIS2PLACEMENT3D(#803,#804,#805);
#807=IFCLOCALPLACEMENT(#784,#806);
#808=IFCPROPERTYSET('3TepeUttv9QQJ6zw0i4vOs',$,'Pset_DoorCommon',$,(#810));
#809=IFCRELDEFINESBYPROPERTIES('0cO94KiM51KhmAoo8$$2h_',$,$,$,(#785),#808);
#810=IFCPROPERTYSINGLEVALUE('IsExternal',$,IFCBOOLEAN(.F.),$);
#811=IFCOPENINGELEMENT('2jclrExh5EUAXIo4Vt2lPZ',$,'D-05 opening',$,$,#833,#827,$,$);
#812=IFCCARTESIANPOINTLIST2D(((8154.9999999999991,9150.),(8154.9999999999991,9950.),(8345.,9950.),(8345.,9150.),(8154.9999999999991,9150.)));
#813=IFCINDEXEDPOLYCURVE(#812,$,$);
#814=IFCARBITRARYCLOSEDPROFILEDEF(.AREA.,'D-05 opening',#813);
#815=IFCCARTESIANPOINT((0.,0.,0.));
#816=IFCDIRECTION((0.,0.,1.));
#817=IFCDIRECTION((1.,0.,0.));
#818=IFCAXIS2PLACEMENT3D(#815,#816,#817);
#819=IFCDIRECTION((0.,0.,1.));
#820=IFCEXTRUDEDAREASOLID(#814,#818,#819,2050.);
#821=IFCSHAPEREPRESENTATION(#11,'Body','SweptSolid',(#820));
#827=IFCPRODUCTDEFINITIONSHAPE($,$,(#821));
#828=IFCRELVOIDSELEMENT('2Acj2Q2ar9H8frJ1pmX3kM',$,$,$,#357,#811);
#829=IFCCARTESIANPOINT((0.,0.,0.));
#830=IFCDIRECTION((0.,0.,1.));
#831=IFCDIRECTION((1.,0.,0.));
#832=IFCAXIS2PLACEMENT3D(#829,#830,#831);
#833=IFCLOCALPLACEMENT(#378,#832);
#834=IFCDOOR('0hikLdNeb9$PcMlGAnq63h',$,'D-05',$,$,#856,#850,$,2.0499999999999998,0.80000000000000004,.DOOR.,$,$);
#835=IFCCARTESIANPOINTLIST2D(((8212.5,9150.),(8212.5,9950.),(8287.5,9950.),(8287.5,9150.),(8212.5,9150.)));
#836=IFCINDEXEDPOLYCURVE(#835,$,$);
#837=IFCARBITRARYCLOSEDPROFILEDEF(.AREA.,'D-05',#836);
#838=IFCCARTESIANPOINT((0.,0.,0.));
#839=IFCDIRECTION((0.,0.,1.));
#840=IFCDIRECTION((1.,0.,0.));
#841=IFCAXIS2PLACEMENT3D(#838,#839,#840);
#842=IFCDIRECTION((0.,0.,1.));
#843=IFCEXTRUDEDAREASOLID(#837,#841,#842,2050.);
#844=IFCSHAPEREPRESENTATION(#11,'Body','SweptSolid',(#843));
#850=IFCPRODUCTDEFINITIONSHAPE($,$,(#844));
#851=IFCRELFILLSELEMENT('21D8t8wnz81hrclnm5VeXH',$,$,$,#811,#834);
#852=IFCCARTESIANPOINT((0.,0.,0.));
#853=IFCDIRECTION((0.,0.,1.));
#854=IFCDIRECTION((1.,0.,0.));
#855=IFCAXIS2PLACEMENT3D(#852,#853,#854);
#856=IFCLOCALPLACEMENT(#833,#855);
#857=IFCPROPERTYSET('1j9eqt7t10ruVfeS1SCGqN',$,'Pset_DoorCommon',$,(#859));
#858=IFCRELDEFINESBYPROPERTIES('2bAMTXP4z4S8gtCyyX9OSO',$,$,$,(#834),#857);
#859=IFCPROPERTYSINGLEVALUE('IsExternal',$,IFCBOOLEAN(.F.),$);
#860=IFCOPENINGELEMENT('2cXEGUgir6qBF0Qp_JqnFS',$,'D-06 opening',$,$,#882,#876,$,$);
#861=IFCCARTESIANPOINTLIST2D(((12249.999999999998,7894.9999999999991),(13049.999999999998,7894.9999999999991),(13049.999999999998,7705.),(12249.999999999998,7705.),(12249.999999999998,7894.9999999999991)));
#862=IFCINDEXEDPOLYCURVE(#861,$,$);
#863=IFCARBITRARYCLOSEDPROFILEDEF(.AREA.,'D-06 opening',#862);
#864=IFCCARTESIANPOINT((0.,0.,0.));
#865=IFCDIRECTION((0.,0.,1.));
#866=IFCDIRECTION((1.,0.,0.));
#867=IFCAXIS2PLACEMENT3D(#864,#865,#866);
#868=IFCDIRECTION((0.,0.,1.));
#869=IFCEXTRUDEDAREASOLID(#863,#867,#868,2050.);
#870=IFCSHAPEREPRESENTATION(#11,'Body','SweptSolid',(#869));
#876=IFCPRODUCTDEFINITIONSHAPE($,$,(#870));
#877=IFCRELVOIDSELEMENT('05ccnYN3zEjgSTkfVcpjzi',$,$,$,#331,#860);
#878=IFCCARTESIANPOINT((0.,0.,0.));
#879=IFCDIRECTION((0.,0.,1.));
#880=IFCDIRECTION((1.,0.,0.));
#881=IFCAXIS2PLACEMENT3D(#878,#879,#880);
#882=IFCLOCALPLACEMENT(#352,#881);
#883=IFCDOOR('0rMSaS6Wv4yujDzzQ4Zp_s',$,'D-06',$,$,#905,#899,$,2.0499999999999998,0.80000000000000004,.DOOR.,$,$);
#884=IFCCARTESIANPOINTLIST2D(((12249.999999999998,7837.4999999999991),(13049.999999999998,7837.4999999999991),(13049.999999999998,7762.5),(12249.999999999998,7762.5),(12249.999999999998,7837.4999999999991)));
#885=IFCINDEXEDPOLYCURVE(#884,$,$);
#886=IFCARBITRARYCLOSEDPROFILEDEF(.AREA.,'D-06',#885);
#887=IFCCARTESIANPOINT((0.,0.,0.));
#888=IFCDIRECTION((0.,0.,1.));
#889=IFCDIRECTION((1.,0.,0.));
#890=IFCAXIS2PLACEMENT3D(#887,#888,#889);
#891=IFCDIRECTION((0.,0.,1.));
#892=IFCEXTRUDEDAREASOLID(#886,#890,#891,2050.);
#893=IFCSHAPEREPRESENTATION(#11,'Body','SweptSolid',(#892));
#899=IFCPRODUCTDEFINITIONSHAPE($,$,(#893));
#900=IFCRELFILLSELEMENT('2GgyDvewz4UQJ4B8wylx66',$,$,$,#860,#883);
#901=IFCCARTESIANPOINT((0.,0.,0.));
#902=IFCDIRECTION((0.,0.,1.));
#903=IFCDIRECTION((1.,0.,0.));
#904=IFCAXIS2PLACEMENT3D(#901,#902,#903);
#905=IFCLOCALPLACEMENT(#882,#904);
#906=IFCPROPERTYSET('2DPeclu1fE3v9tSer1ld3P',$,'Pset_DoorCommon',$,(#908));
#907=IFCRELDEFINESBYPROPERTIES('1hl74s0kj9oB622cjWdWm4',$,$,$,(#883),#906);
#908=IFCPROPERTYSINGLEVALUE('IsExternal',$,IFCBOOLEAN(.F.),$);
#909=IFCOPENINGELEMENT('0Ps9yqJ4b7$fhxVWQTFajG',$,'F-01 opening',$,$,#931,#925,$,$);
#910=IFCCARTESIANPOINTLIST2D(((319.99999999999994,5000.),(319.99999999999994,3599.9999999999995),(-19.999999999999989,3599.9999999999995),(-19.999999999999989,5000.),(319.99999999999994,5000.)));
#911=IFCINDEXEDPOLYCURVE(#910,$,$);
#912=IFCARBITRARYCLOSEDPROFILEDEF(.AREA.,'F-01 opening',#911);
#913=IFCCARTESIANPOINT((0.,0.,0.));
#914=IFCDIRECTION((0.,0.,1.));
#915=IFCDIRECTION((1.,0.,0.));
#916=IFCAXIS2PLACEMENT3D(#913,#914,#915);
#917=IFCDIRECTION((0.,0.,1.));
#918=IFCEXTRUDEDAREASOLID(#912,#916,#917,1399.9999999999998);
#919=IFCSHAPEREPRESENTATION(#11,'Body','SweptSolid',(#918));
#925=IFCPRODUCTDEFINITIONSHAPE($,$,(#919));
#926=IFCRELVOIDSELEMENT('1AY37Yxkf7FeHULS3zgUx$',$,$,$,#97,#909);
#927=IFCCARTESIANPOINT((0.,0.,900.));
#928=IFCDIRECTION((0.,0.,1.));
#929=IFCDIRECTION((1.,0.,0.));
#930=IFCAXIS2PLACEMENT3D(#927,#928,#929);
#931=IFCLOCALPLACEMENT(#118,#930);
#932=IFCWINDOW('2BBzlMvMnFigJCNAO_Q5_b',$,'F-01',$,$,#954,#948,$,1.3999999999999999,1.3999999999999999,$,$,$);
#933=IFCCARTESIANPOINTLIST2D(((224.99999999999997,5000.),(224.99999999999997,3599.9999999999995),(75.,3599.9999999999995),(75.,5000.),(224.99999999999997,5000.)));
#934=IFCINDEXEDPOLYCURVE(#933,$,$);
#935=IFCARBITRARYCLOSEDPROFILEDEF(.AREA.,'F-01',#934);
#936=IFCCARTESIANPOINT((0.,0.,0.));
#937=IFCDIRECTION((0.,0.,1.));
#938=IFCDIRECTION((1.,0.,0.));
#939=IFCAXIS2PLACEMENT3D(#936,#937,#938);
#940=IFCDIRECTION((0.,0.,1.));
#941=IFCEXTRUDEDAREASOLID(#935,#939,#940,1399.9999999999998);
#942=IFCSHAPEREPRESENTATION(#11,'Body','SweptSolid',(#941));
#948=IFCPRODUCTDEFINITIONSHAPE($,$,(#942));
#949=IFCRELFILLSELEMENT('05pWg7l0TAteYB5cu1tlqU',$,$,$,#909,#932);
#950=IFCCARTESIANPOINT((0.,0.,0.));
#951=IFCDIRECTION((0.,0.,1.));
#952=IFCDIRECTION((1.,0.,0.));
#953=IFCAXIS2PLACEMENT3D(#950,#951,#952);
#954=IFCLOCALPLACEMENT(#931,#953);
#955=IFCPROPERTYSET('0$Z3wZr7jD6AN9XaU5SLym',$,'Pset_WindowCommon',$,(#957));
#956=IFCRELDEFINESBYPROPERTIES('1F8JiLDcr8meFol2Z6oOkX',$,$,$,(#932),#955);
#957=IFCPROPERTYSINGLEVALUE('IsExternal',$,IFCBOOLEAN(.T.),$);
#958=IFCOPENINGELEMENT('17ZRsiIK10xfRISg3U95$j',$,'F-02 opening',$,$,#980,#974,$,$);
#959=IFCCARTESIANPOINTLIST2D(((8050.0000000000009,319.99999999999994),(14550.,319.99999999999994),(14550.,-19.999999999999989),(8050.0000000000009,-19.999999999999989),(8050.0000000000009,319.99999999999994)));
#960=IFCINDEXEDPOLYCURVE(#959,$,$);
#961=IFCARBITRARYCLOSEDPROFILEDEF(.AREA.,'F-02 opening',#960);
#962=IFCCARTESIANPOINT((0.,0.,0.));
#963=IFCDIRECTION((0.,0.,1.));
#964=IFCDIRECTION((1.,0.,0.));
#965=IFCAXIS2PLACEMENT3D(#962,#963,#964);
#966=IFCDIRECTION((0.,0.,1.));
#967=IFCEXTRUDEDAREASOLID(#961,#965,#966,1510.);
#968=IFCSHAPEREPRESENTATION(#11,'Body','SweptSolid',(#967));
#974=IFCPRODUCTDEFINITIONSHAPE($,$,(#968));
#975=IFCRELVOIDSELEMENT('1i0iZ16TX4e8m2MyszO9Z4',$,$,$,#18,#958);
#976=IFCCARTESIANPOINT((0.,0.,900.));
#977=IFCDIRECTION((0.,0.,1.));
#978=IFCDIRECTION((1.,0.,0.));
#979=IFCAXIS2PLACEMENT3D(#976,#977,#978);
#980=IFCLOCALPLACEMENT(#40,#979);
#981=IFCWINDOW('2c$T3uKoL7VB18TsnCd8hI',$,'F-02',$,$,#1003,#997,$,1.51,6.5,$,$,$);
#982=IFCCARTESIANPOINTLIST2D(((8050.0000000000009,224.99999999999997),(14550.,224.99999999999997),(14550.,75.),(8050.0000000000009,75.),(8050.0000000000009,224.99999999999997)));
#983=IFCINDEXEDPOLYCURVE(#982,$,$);
#984=IFCARBITRARYCLOSEDPROFILEDEF(.AREA.,'F-02',#983);
#985=IFCCARTESIANPOINT((0.,0.,0.));
#986=IFCDIRECTION((0.,0.,1.));
#987=IFCDIRECTION((1.,0.,0.));
#988=IFCAXIS2PLACEMENT3D(#985,#986,#987);
#989=IFCDIRECTION((0.,0.,1.));
#990=IFCEXTRUDEDAREASOLID(#984,#988,#989,1510.);
#991=IFCSHAPEREPRESENTATION(#11,'Body','SweptSolid',(#990));
#997=IFCPRODUCTDEFINITIONSHAPE($,$,(#991));
#998=IFCRELFILLSELEMENT('1u0XE3Jhr7nwOR2NY146J0',$,$,$,#958,#981);
#999=IFCCARTESIANPOINT((0.,0.,0.));
#1000=IFCDIRECTION((0.,0.,1.));
#1001=IFCDIRECTION((1.,0.,0.));
#1002=IFCAXIS2PLACEMENT3D(#999,#1000,#1001);
#1003=IFCLOCALPLACEMENT(#980,#1002);
#1004=IFCPROPERTYSET('04XpD0O1P4CQscKnlbVxzo',$,'Pset_WindowCommon',$,(#1006));
#1005=IFCRELDEFINESBYPROPERTIES('2LjtgIUx1B7Bu_1cdbuJix',$,$,$,(#981),#1004);
#1006=IFCPROPERTYSINGLEVALUE('IsExternal',$,IFCBOOLEAN(.T.),$);
#1007=IFCPROPERTYSET('0q7l3k6QnCHhtra886pPyI',$,'Recognition_Detailing',$,(#1009,#1010,#1011,#1012));
#1008=IFCRELDEFINESBYPROPERTIES('17$iDnjmH2RfZYW1qrBV6b',$,$,$,(#409),#1007);
#1009=IFCPROPERTYSINGLEVALUE('Tag',$,IFCLABEL('R-01'),$);
#1010=IFCPROPERTYSINGLEVALUE('ComplianceStatus',$,IFCLABEL('PASS'),$);
#1011=IFCPROPERTYSINGLEVALUE('Findings',$,IFCLABEL('-'),$);
#1012=IFCPROPERTYSINGLEVALUE('GeneratedBy',$,IFCLABEL('Recognition 0.1.0'),$);
#1013=IFCPROPERTYSET('2YcAcEEg98eQqjK0Wjeffs',$,'Recognition_Detailing',$,(#1015,#1016,#1017,#1018));
#1014=IFCRELDEFINESBYPROPERTIES('28WCooxHP3IguVkt7xwo9$',$,$,$,(#432),#1013);
#1015=IFCPROPERTYSINGLEVALUE('Tag',$,IFCLABEL('R-03'),$);
#1016=IFCPROPERTYSINGLEVALUE('ComplianceStatus',$,IFCLABEL('PASS'),$);
#1017=IFCPROPERTYSINGLEVALUE('Findings',$,IFCLABEL('-'),$);
#1018=IFCPROPERTYSINGLEVALUE('GeneratedBy',$,IFCLABEL('Recognition 0.1.0'),$);
#1019=IFCPROPERTYSET('0Zd_B65ZH11v4D3tzbcLWn',$,'Recognition_Detailing',$,(#1021,#1022,#1023,#1024));
#1020=IFCRELDEFINESBYPROPERTIES('34HaP2szLAwxozmru305iV',$,$,$,(#454),#1019);
#1021=IFCPROPERTYSINGLEVALUE('Tag',$,IFCLABEL('R-04'),$);
#1022=IFCPROPERTYSINGLEVALUE('ComplianceStatus',$,IFCLABEL('PASS'),$);
#1023=IFCPROPERTYSINGLEVALUE('Findings',$,IFCLABEL('-'),$);
#1024=IFCPROPERTYSINGLEVALUE('GeneratedBy',$,IFCLABEL('Recognition 0.1.0'),$);
#1025=IFCPROPERTYSET('1Rs0dIICL839RjdS_e29ED',$,'Recognition_Detailing',$,(#1027,#1028,#1029,#1030));
#1026=IFCRELDEFINESBYPROPERTIES('3WH5YQrPr2IBCeXCqw6p3y',$,$,$,(#476),#1025);
#1027=IFCPROPERTYSINGLEVALUE('Tag',$,IFCLABEL('R-02'),$);
#1028=IFCPROPERTYSINGLEVALUE('ComplianceStatus',$,IFCLABEL('PASS'),$);
#1029=IFCPROPERTYSINGLEVALUE('Findings',$,IFCLABEL('-'),$);
#1030=IFCPROPERTYSINGLEVALUE('GeneratedBy',$,IFCLABEL('Recognition 0.1.0'),$);
#1031=IFCPROPERTYSET('18Gn$eFa1AkBuy$JccV8bY',$,'Recognition_Detailing',$,(#1033,#1034,#1035,#1036));
#1032=IFCRELDEFINESBYPROPERTIES('35am0kxUrCqAenBalMunPT',$,$,$,(#498),#1031);
#1033=IFCPROPERTYSINGLEVALUE('Tag',$,IFCLABEL('R-05'),$);
#1034=IFCPROPERTYSINGLEVALUE('ComplianceStatus',$,IFCLABEL('PASS'),$);
#1035=IFCPROPERTYSINGLEVALUE('Findings',$,IFCLABEL('-'),$);
#1036=IFCPROPERTYSINGLEVALUE('GeneratedBy',$,IFCLABEL('Recognition 0.1.0'),$);
#1037=IFCPROPERTYSET('0Y3kobEpb50gk5vHj2S6bQ',$,'Recognition_Detailing',$,(#1039,#1040,#1041,#1042));
#1038=IFCRELDEFINESBYPROPERTIES('2gYSfon7fFLgrPnSIGMv6T',$,$,$,(#520),#1037);
#1039=IFCPROPERTYSINGLEVALUE('Tag',$,IFCLABEL('R-06'),$);
#1040=IFCPROPERTYSINGLEVALUE('ComplianceStatus',$,IFCLABEL('PASS'),$);
#1041=IFCPROPERTYSINGLEVALUE('Findings',$,IFCLABEL('-'),$);
#1042=IFCPROPERTYSINGLEVALUE('GeneratedBy',$,IFCLABEL('Recognition 0.1.0'),$);
#1043=IFCPROPERTYSET('1IY7esFV59d8WNTkMqfVNi',$,'Recognition_Detailing',$,(#1045,#1046,#1047,#1048));
#1044=IFCRELDEFINESBYPROPERTIES('03uSG4E4n6E8YlppZYRoOj',$,$,$,(#542),#1043);
#1045=IFCPROPERTYSINGLEVALUE('Tag',$,IFCLABEL('R-07'),$);
#1046=IFCPROPERTYSINGLEVALUE('ComplianceStatus',$,IFCLABEL('PASS'),$);
#1047=IFCPROPERTYSINGLEVALUE('Findings',$,IFCLABEL('-'),$);
#1048=IFCPROPERTYSINGLEVALUE('GeneratedBy',$,IFCLABEL('Recognition 0.1.0'),$);
#1049=IFCPROPERTYSET('2GkwyCJGH4BQL48SCbpHjN',$,'Recognition_Detailing',$,(#1051,#1052,#1053,#1054));
#1050=IFCRELDEFINESBYPROPERTIES('3kbaWxHZT4C9IgHUdwKogS',$,$,$,(#587),#1049);
#1051=IFCPROPERTYSINGLEVALUE('Tag',$,IFCLABEL('D-01'),$);
#1052=IFCPROPERTYSINGLEVALUE('ComplianceStatus',$,IFCLABEL('PASS'),$);
#1053=IFCPROPERTYSINGLEVALUE('Findings',$,IFCLABEL('-'),$);
#1054=IFCPROPERTYSINGLEVALUE('GeneratedBy',$,IFCLABEL('Recognition 0.1.0'),$);
#1055=IFCPROPERTYSET('09htQWnuH2jB6aZ$rVbprN',$,'Recognition_Detailing',$,(#1057,#1058,#1059,#1060));
#1056=IFCRELDEFINESBYPROPERTIES('3HFD03QYb4kgVdLi9ok8Im',$,$,$,(#638),#1055);
#1057=IFCPROPERTYSINGLEVALUE('Tag',$,IFCLABEL('D-03'),$);
#1058=IFCPROPERTYSINGLEVALUE('ComplianceStatus',$,IFCLABEL('PASS'),$);
#1059=IFCPROPERTYSINGLEVALUE('Findings',$,IFCLABEL('-'),$);
#1060=IFCPROPERTYSINGLEVALUE('GeneratedBy',$,IFCLABEL('Recognition 0.1.0'),$);
#1061=IFCPROPERTYSET('2zIht26Bn9BA3MF8AOtXf3',$,'Recognition_Detailing',$,(#1063,#1064,#1065,#1066));
#1062=IFCRELDEFINESBYPROPERTIES('06PVC3XA51cgd_SMSOb$Je',$,$,$,(#687),#1061);
#1063=IFCPROPERTYSINGLEVALUE('Tag',$,IFCLABEL('D-04'),$);
#1064=IFCPROPERTYSINGLEVALUE('ComplianceStatus',$,IFCLABEL('PASS'),$);
#1065=IFCPROPERTYSINGLEVALUE('Findings',$,IFCLABEL('-'),$);
#1066=IFCPROPERTYSINGLEVALUE('GeneratedBy',$,IFCLABEL('Recognition 0.1.0'),$);
#1067=IFCPROPERTYSET('2B4hwtnlX1uAlz8KvTPIav',$,'Recognition_Detailing',$,(#1069,#1070,#1071,#1072));
#1068=IFCRELDEFINESBYPROPERTIES('0$$fCJ9q16uPD92ZKPLhUA',$,$,$,(#736),#1067);
#1069=IFCPROPERTYSINGLEVALUE('Tag',$,IFCLABEL('D-02'),$);
#1070=IFCPROPERTYSINGLEVALUE('ComplianceStatus',$,IFCLABEL('PASS'),$);
#1071=IFCPROPERTYSINGLEVALUE('Findings',$,IFCLABEL('-'),$);
#1072=IFCPROPERTYSINGLEVALUE('GeneratedBy',$,IFCLABEL('Recognition 0.1.0'),$);
#1073=IFCPROPERTYSET('3FhTmnogD2sAiJm8vJgPty',$,'Recognition_Detailing',$,(#1075,#1076,#1077,#1078));
#1074=IFCRELDEFINESBYPROPERTIES('0Uc0dm$qD4BOP_d2ln77ft',$,$,$,(#785),#1073);
#1075=IFCPROPERTYSINGLEVALUE('Tag',$,IFCLABEL('D-05'),$);
#1076=IFCPROPERTYSINGLEVALUE('ComplianceStatus',$,IFCLABEL('PASS'),$);
#1077=IFCPROPERTYSINGLEVALUE('Findings',$,IFCLABEL('-'),$);
#1078=IFCPROPERTYSINGLEVALUE('GeneratedBy',$,IFCLABEL('Recognition 0.1.0'),$);
#1079=IFCPROPERTYSET('3L5xcLaLj4TOU3m$H_Mb2G',$,'Recognition_Detailing',$,(#1081,#1082,#1083,#1084));
#1080=IFCRELDEFINESBYPROPERTIES('2Zaf1iwDL42w2$K0kZz5vT',$,$,$,(#834),#1079);
#1081=IFCPROPERTYSINGLEVALUE('Tag',$,IFCLABEL('D-07'),$);
#1082=IFCPROPERTYSINGLEVALUE('ComplianceStatus',$,IFCLABEL('PASS'),$);
#1083=IFCPROPERTYSINGLEVALUE('Findings',$,IFCLABEL('-'),$);
#1084=IFCPROPERTYSINGLEVALUE('GeneratedBy',$,IFCLABEL('Recognition 0.1.0'),$);
#1085=IFCPROPERTYSET('3CqqWS2411lwwqzlpOOLA5',$,'Recognition_Detailing',$,(#1087,#1088,#1089,#1090));
#1086=IFCRELDEFINESBYPROPERTIES('0CYqBYefrBJRK_yiQxpOM3',$,$,$,(#883),#1085);
#1087=IFCPROPERTYSINGLEVALUE('Tag',$,IFCLABEL('D-06'),$);
#1088=IFCPROPERTYSINGLEVALUE('ComplianceStatus',$,IFCLABEL('PASS'),$);
#1089=IFCPROPERTYSINGLEVALUE('Findings',$,IFCLABEL('-'),$);
#1090=IFCPROPERTYSINGLEVALUE('GeneratedBy',$,IFCLABEL('Recognition 0.1.0'),$);
#1091=IFCPROPERTYSET('3lcIkq0ZD509BZA0jjC4TG',$,'Recognition_Detailing',$,(#1093,#1094,#1095,#1096));
#1092=IFCRELDEFINESBYPROPERTIES('12bp5fiRj9lAH2AtFKGqpj',$,$,$,(#932),#1091);
#1093=IFCPROPERTYSINGLEVALUE('Tag',$,IFCLABEL('W-02'),$);
#1094=IFCPROPERTYSINGLEVALUE('ComplianceStatus',$,IFCLABEL('PASS'),$);
#1095=IFCPROPERTYSINGLEVALUE('Findings',$,IFCLABEL('-'),$);
#1096=IFCPROPERTYSINGLEVALUE('GeneratedBy',$,IFCLABEL('Recognition 0.1.0'),$);
#1097=IFCPROPERTYSET('0key8fRynAJBtt9Ap7Dju_',$,'Recognition_Detailing',$,(#1099,#1100,#1101,#1102));
#1098=IFCRELDEFINESBYPROPERTIES('2Y32ZNRjzEmOnIvr4sjdOr',$,$,$,(#981),#1097);
#1099=IFCPROPERTYSINGLEVALUE('Tag',$,IFCLABEL('W-01'),$);
#1100=IFCPROPERTYSINGLEVALUE('ComplianceStatus',$,IFCLABEL('PASS'),$);
#1101=IFCPROPERTYSINGLEVALUE('Findings',$,IFCLABEL('-'),$);
#1102=IFCPROPERTYSINGLEVALUE('GeneratedBy',$,IFCLABEL('Recognition 0.1.0'),$);
ENDSEC;
END-ISO-10303-21;
