ISO-10303-21;
HEADER;
FILE_DESCRIPTION(('ViewDefinition[DesignTransferView]'),'2;1');
FILE_NAME('/dev/null','2026-08-22T21:43:36+00:00',(''),(''),'IfcOpenShell 0.8.5','IfcOpenShell 0.8.5','Nobody');
FILE_SCHEMA(('IFC4'));
ENDSEC;
DATA;
#1=IFCPROJECT('2MNz5dMEX2TPvrt73gsRcJ',$,'Familienhaus',$,$,$,$,(#10),#5);
#2=IFCSIUNIT(*,.LENGTHUNIT.,.MILLI.,.METRE.);
#3=IFCSIUNIT(*,.AREAUNIT.,$,.SQUARE_METRE.);
#4=IFCSIUNIT(*,.VOLUMEUNIT.,$,.CUBIC_METRE.);
#5=IFCUNITASSIGNMENT((#3,#4,#2));
#6=IFCCARTESIANPOINT((0.,0.,0.));
#7=IFCDIRECTION((0.,0.,1.));
#8=IFCDIRECTION((1.,0.,0.));
#9=IFCAXIS2PLACEMENT3D(#6,#7,#8);
#10=IFCGEOMETRICREPRESENTATIONCONTEXT($,'Model',3,1.0000000000000001E-05,#9,$);
#11=IFCGEOMETRICREPRESENTATIONSUBCONTEXT('Body','Model',*,*,*,*,#10,$,.MODEL_VIEW.,$);
#12=IFCSITE('0t_vfpMx16F8HPBbVCDUHX',$,'Site',$,$,$,$,$,$,$,$,$,$,$);
#13=IFCBUILDING('05txBImNz0fOjX5WadSOfn',$,'Familienhaus',$,$,$,$,$,$,$,$,$);
#14=IFCRELAGGREGATES('3hShOzXw12cAPFK23ThTV1',$,$,$,#1,(#12));
#15=IFCRELAGGREGATES('3BepekwtDF_wZ7YlNIj3MC',$,$,$,#12,(#13));
#16=IFCBUILDINGSTOREY('0V7_nX_qv3HgC$GQh$9JU1',$,'Erdgeschoss',$,$,$,$,$,$,0.);
#17=IFCRELAGGREGATES('2hgU4ZP152xuCHbPRZZVfa',$,$,$,#13,(#16));
#18=IFCWALL('3ynlevG2XBDfMGYbD8FIn9',$,'EXT-S',$,$,#40,#34,$,$);
#19=IFCCARTESIANPOINTLIST2D(((0.,300.),(16000.,300.),(16000.,0.),(0.,0.),(0.,300.)));
#20=IFCINDEXEDPOLYCURVE(#19,$,$);
#21=IFCARBITRARYCLOSEDPROFILEDEF(.AREA.,'EXT-S',#20);
#22=IFCCARTESIANPOINT((0.,0.,0.));
#23=IFCDIRECTION((0.,0.,1.));
#24=IFCDIRECTION((1.,0.,0.));
#25=IFCAXIS2PLACEMENT3D(#22,#23,#24);
#26=IFCDIRECTION((0.,0.,1.));
#27=IFCEXTRUDEDAREASOLID(#21,#25,#26,2500.);
#28=IFCSHAPEREPRESENTATION(#11,'Body','SweptSolid',(#27));
#34=IFCPRODUCTDEFINITIONSHAPE($,$,(#28));
#35=IFCRELCONTAINEDINSPATIALSTRUCTURE('34CVSPOdD1GeoHuYKoiaBA',$,$,$,(#1274,#409,#279,#980,#1078,#201,#71,#357,#686,#18,#149,#784,#1225,#227,#97,#1029,#305,#833,#635,#931,#383,#1127,#175,#45,#735,#331,#1176,#123,#253,#882),#16);
#36=IFCCARTESIANPOINT((0.,0.,0.));
#37=IFCDIRECTION((0.,0.,1.));
#38=IFCDIRECTION((1.,0.,0.));
#39=IFCAXIS2PLACEMENT3D(#36,#37,#38);
#40=IFCLOCALPLACEMENT($,#39);
#41=IFCPROPERTYSET('1P57jalST7$e9tTz_4jH6x',$,'Pset_WallCommon',$,(#43,#44));
#42=IFCRELDEFINESBYPROPERTIES('0C9qQnLAPDWu45tDitdFaM',$,$,$,(#18),#41);
#43=IFCPROPERTYSINGLEVALUE('IsExternal',$,IFCBOOLEAN(.T.),$);
#44=IFCPROPERTYSINGLEVALUE('LoadBearing',$,IFCBOOLEAN(.T.),$);
#45=IFCWALL('1wderc$rj8re7_sBXrXJDb',$,'EXT-E',$,$,#66,#61,$,$);
#46=IFCCARTESIANPOINTLIST2D(((15699.999999999998,0.),(15699.999999999998,8500.),(16000.,8500.),(16000.,0.),(15699.999999999998,0.)));
#47=IFCINDEXEDPOLYCURVE(#46,$,$);
#48=IFCARBITRARYCLOSEDPROFILEDEF(.AREA.,'EXT-E',#47);
#49=IFCCARTESIANPOINT((0.,0.,0.));
#50=IFCDIRECTION((0.,0.,1.));
#51=IFCDIRECTION((1.,0.,0.));
#52=IFCAXIS2PLACEMENT3D(#49,#50,#51);
#53=IFCDIRECTION((0.,0.,1.));
#54=IFCEXTRUDEDAREASOLID(#48,#52,#53,2500.);
#55=IFCSHAPEREPRESENTATION(#11,'Body','SweptSolid',(#54));
#61=IFCPRODUCTDEFINITIONSHAPE($,$,(#55));
#62=IFCCARTESIANPOINT((0.,0.,0.));
#63=IFCDIRECTION((0.,0.,1.));
#64=IFCDIRECTION((1.,0.,0.));
#65=IFCAXIS2PLACEMENT3D(#62,#63,#64);
#66=IFCLOCALPLACEMENT($,#65);
#67=IFCPROPERTYSET('20xtU9WLz0pPyJPFYkqPnJ',$,'Pset_WallCommon',$,(#69,#70));
#68=IFCRELDEFINESBYPROPERTIES('3fwyaXYI9Fsh5GmDbk7NzA',$,$,$,(#45),#67);
#69=IFCPROPERTYSINGLEVALUE('IsExternal',$,IFCBOOLEAN(.T.),$);
#70=IFCPROPERTYSINGLEVALUE('LoadBearing',$,IFCBOOLEAN(.T.),$);
#71=IFCWALL('2E2Q9uo$H1zO9vMLXRjIpr',$,'EXT-N',$,$,#92,#87,$,$);
#72=IFCCARTESIANPOINTLIST2D(((16000.,8200.),(0.,8200.),(0.,8500.),(16000.,8500.),(16000.,8200.)));
#73=IFCINDEXEDPOLYCURVE(#72,$,$);
#74=IFCARBITRARYCLOSEDPROFILEDEF(.AREA.,'EXT-N',#73);
#75=IFCCARTESIANPOINT((0.,0.,0.));
#76=IFCDIRECTION((0.,0.,1.));
#77=IFCDIRECTION((1.,0.,0.));
#78=IFCAXIS2PLACEMENT3D(#75,#76,#77);
#79=IFCDIRECTION((0.,0.,1.));
#80=IFCEXTRUDEDAREASOLID(#74,#78,#79,2500.);
#81=IFCSHAPEREPRESENTATION(#11,'Body','SweptSolid',(#80));
#87=IFCPRODUCTDEFINITIONSHAPE($,$,(#81));
#88=IFCCARTESIANPOINT((0.,0.,0.));
#89=IFCDIRECTION((0.,0.,1.));
#90=IFCDIRECTION((1.,0.,0.));
#91=IFCAXIS2PLACEMENT3D(#88,#89,#90);
#92=IFCLOCALPLACEMENT($,#91);
#93=IFCPROPERTYSET('0OSVCZy2f9ihfEQdYb7zSa',$,'Pset_WallCommon',$,(#95,#96));
#94=IFCRELDEFINESBYPROPERTIES('2KRRsV50LBRgkYC58KmMym',$,$,$,(#71),#93);
#95=IFCPROPERTYSINGLEVALUE('IsExternal',$,IFCBOOLEAN(.T.),$);
#96=IFCPROPERTYSINGLEVALUE('LoadBearing',$,IFCBOOLEAN(.T.),$);
#97=IFCWALL('2HzVkLaKX209XZ9nr4PEY$',$,'EXT-W',$,$,#118,#113,$,$);
#98=IFCCARTESIANPOINTLIST2D(((300.,8500.),(300.,0.),(0.,0.),(0.,8500.),(300.,8500.)));
#99=IFCINDEXEDPOLYCURVE(#98,$,$);
#100=IFCARBITRARYCLOSEDPROFILEDEF(.AREA.,'EXT-W',#99);
#101=IFCCARTESIANPOINT((0.,0.,0.));
#102=IFCDIRECTION((0.,0.,1.));
#103=IFCDIRECTION((1.,0.,0.));
#104=IFCAXIS2PLACEMENT3D(#101,#102,#103);
#105=IFCDIRECTION((0.,0.,1.));
#106=IFCEXTRUDEDAREASOLID(#100,#104,#105,2500.);
#107=IFCSHAPEREPRESENTATION(#11,'Body','SweptSolid',(#106));
#113=IFCPRODUCTDEFINITIONSHAPE($,$,(#107));
#114=IFCCARTESIANPOINT((0.,0.,0.));
#115=IFCDIRECTION((0.,0.,1.));
#116=IFCDIRECTION((1.,0.,0.));
#117=IFCAXIS2PLACEMENT3D(#114,#115,#116);
#118=IFCLOCALPLACEMENT($,#117);
#119=IFCPROPERTYSET('1sJI7DwTD3GwV2sH7ZQeE7',$,'Pset_WallCommon',$,(#121,#122));
#120=IFCRELDEFINESBYPROPERTIES('1ZkJg8fBz1PRzqDoYAcZYr',$,$,$,(#97),#119);
#121=IFCPROPERTYSINGLEVALUE('IsExternal',$,IFCBOOLEAN(.T.),$);
#122=IFCPROPERTYSINGLEVALUE('LoadBearing',$,IFCBOOLEAN(.T.),$);
#123=IFCWALL('312JbRhcX4GeUBhYyDeBT8',$,'INT-1',$,$,#144,#139,$,$);
#124=IFCCARTESIANPOINTLIST2D(((9175.,75.),(9175.,3625.),(9325.,3625.),(9325.,75.),(9175.,75.)));
#125=IFCINDEXEDPOLYCURVE(#124,$,$);
#126=IFCARBITRARYCLOSEDPROFILEDEF(.AREA.,'INT-1',#125);
#127=IFCCARTESIANPOINT((0.,0.,0.));
#128=IFCDIRECTION((0.,0.,1.));
#129=IFCDIRECTION((1.,0.,0.));
#130=IFCAXIS2PLACEMENT3D(#127,#128,#129);
#131=IFCDIRECTION((0.,0.,1.));
#132=IFCEXTRUDEDAREASOLID(#126,#130,#131,2500.);
#133=IFCSHAPEREPRESENTATION(#11,'Body','SweptSolid',(#132));
#139=IFCPRODUCTDEFINITIONSHAPE($,$,(#133));
#140=IFCCARTESIANPOINT((0.,0.,0.));
#141=IFCDIRECTION((0.,0.,1.));
#142=IFCDIRECTION((1.,0.,0.));
#143=IFCAXIS2PLACEMENT3D(#140,#141,#142);
#144=IFCLOCALPLACEMENT($,#143);
#145=IFCPROPERTYSET('1Bl0m$VGbAe8mzHGncIcPQ',$,'Pset_WallCommon',$,(#147,#148));
#146=IFCRELDEFINESBYPROPERTIES('1QZWayEQbEPvmWWRjw22_z',$,$,$,(#123),#145);
#147=IFCPROPERTYSINGLEVALUE('IsExternal',$,IFCBOOLEAN(.F.),$);
#148=IFCPROPERTYSINGLEVALUE('LoadBearing',$,IFCBOOLEAN(.F.),$);
#149=IFCWALL('3vzezJfVr5cOpUcmlbKxCY',$,'INT-2',$,$,#170,#165,$,$);
#150=IFCCARTESIANPOINTLIST2D(((75.,3625.),(9325.,3625.),(9325.,3474.9999999999995),(75.,3474.9999999999995),(75.,3625.)));
#151=IFCINDEXEDPOLYCURVE(#150,$,$);
#152=IFCARBITRARYCLOSEDPROFILEDEF(.AREA.,'INT-2',#151);
#153=IFCCARTESIANPOINT((0.,0.,0.));
#154=IFCDIRECTION((0.,0.,1.));
#155=IFCDIRECTION((1.,0.,0.));
#156=IFCAXIS2PLACEMENT3D(#153,#154,#155);
#157=IFCDIRECTION((0.,0.,1.));
#158=IFCEXTRUDEDAREASOLID(#152,#156,#157,2500.);
#159=IFCSHAPEREPRESENTATION(#11,'Body','SweptSolid',(#158));
#165=IFCPRODUCTDEFINITIONSHAPE($,$,(#159));
#166=IFCCARTESIANPOINT((0.,0.,0.));
#167=IFCDIRECTION((0.,0.,1.));
#168=IFCDIRECTION((1.,0.,0.));
#169=IFCAXIS2PLACEMENT3D(#166,#167,#168);
#170=IFCLOCALPLACEMENT($,#169);
#171=IFCPROPERTYSET('3K8ybbI5r5LPTOxQJJrES5',$,'Pset_WallCommon',$,(#173,#174));
#172=IFCRELDEFINESBYPROPERTIES('1WKDO5NuTD18_kZKPRUjct',$,$,$,(#149),#171);
#173=IFCPROPERTYSINGLEVALUE('IsExternal',$,IFCBOOLEAN(.F.),$);
#174=IFCPROPERTYSINGLEVALUE('LoadBearing',$,IFCBOOLEAN(.F.),$);
#175=IFCWALL('2YrxQf8OP4WRQqEMuPJoVO',$,'INT-3',$,$,#196,#191,$,$);
#176=IFCCARTESIANPOINTLIST2D(((4725.,4825.),(4725.,8424.9999999999982),(4875.,8424.9999999999982),(4875.,4825.),(4725.,4825.)));
#177=IFCINDEXEDPOLYCURVE(#176,$,$);
#178=IFCARBITRARYCLOSEDPROFILEDEF(.AREA.,'INT-3',#177);
#179=IFCCARTESIANPOINT((0.,0.,0.));
#180=IFCDIRECTION((0.,0.,1.));
#181=IFCDIRECTION((1.,0.,0.));
#182=IFCAXIS2PLACEMENT3D(#179,#180,#181);
#183=IFCDIRECTION((0.,0.,1.));
#184=IFCEXTRUDEDAREASOLID(#178,#182,#183,2500.);
#185=IFCSHAPEREPRESENTATION(#11,'Body','SweptSolid',(#184));
#191=IFCPRODUCTDEFINITIONSHAPE($,$,(#185));
#192=IFCCARTESIANPOINT((0.,0.,0.));
#193=IFCDIRECTION((0.,0.,1.));
#194=IFCDIRECTION((1.,0.,0.));
#195=IFCAXIS2PLACEMENT3D(#192,#193,#194);
#196=IFCLOCALPLACEMENT($,#195);
#197=IFCPROPERTYSET('0NNp2cFBz7KBpLoq7kG16s',$,'Pset_WallCommon',$,(#199,#200));
#198=IFCRELDEFINESBYPROPERTIES('1y$60Ph5f8qfM7nU8D2J3C',$,$,$,(#175),#197);
#199=IFCPROPERTYSINGLEVALUE('IsExternal',$,IFCBOOLEAN(.F.),$);
#200=IFCPROPERTYSINGLEVALUE('LoadBearing',$,IFCBOOLEAN(.F.),$);
#201=IFCWALL('2OBEq3yhL9tB151Wj5eRar',$,'INT-4',$,$,#222,#217,$,$);
#202=IFCCARTESIANPOINTLIST2D(((8675.,4825.),(8675.,8424.9999999999982),(8825.,8424.9999999999982),(8825.,4825.),(8675.,4825.)));
#203=IFCINDEXEDPOLYCURVE(#202,$,$);
#204=IFCARBITRARYCLOSEDPROFILEDEF(.AREA.,'INT-4',#203);
#205=IFCCARTESIANPOINT((0.,0.,0.));
#206=IFCDIRECTION((0.,0.,1.));
#207=IFCDIRECTION((1.,0.,0.));
#208=IFCAXIS2PLACEMENT3D(#205,#206,#207);
#209=IFCDIRECTION((0.,0.,1.));
#210=IFCEXTRUDEDAREASOLID(#204,#208,#209,2500.);
#211=IFCSHAPEREPRESENTATION(#11,'Body','SweptSolid',(#210));
#217=IFCPRODUCTDEFINITIONSHAPE($,$,(#211));
#218=IFCCARTESIANPOINT((0.,0.,0.));
#219=IFCDIRECTION((0.,0.,1.));
#220=IFCDIRECTION((1.,0.,0.));
#221=IFCAXIS2PLACEMENT3D(#218,#219,#220);
#222=IFCLOCALPLACEMENT($,#221);
#223=IFCPROPERTYSET('0ugAiUaTP3sxL19zkbDM5C',$,'Pset_WallCommon',$,(#225,#226));
#224=IFCRELDEFINESBYPROPERTIES('2h70KJB$978OZCF5ihywi7',$,$,$,(#201),#223);
#225=IFCPROPERTYSINGLEVALUE('IsExternal',$,IFCBOOLEAN(.F.),$);
#226=IFCPROPERTYSINGLEVALUE('LoadBearing',$,IFCBOOLEAN(.F.),$);
#227=IFCWALL('3qIki4a59Bnhbgfip$KfRV',$,'INT-5',$,$,#248,#243,$,$);
#228=IFCCARTESIANPOINTLIST2D(((4725.,4975.),(8825.,4975.),(8825.,4825.),(4725.,4825.),(4725.,4975.)));
#229=IFCINDEXEDPOLYCURVE(#228,$,$);
#230=IFCARBITRARYCLOSEDPROFILEDEF(.AREA.,'INT-5',#229);
#231=IFCCARTESIANPOINT((0.,0.,0.));
#232=IFCDIRECTION((0.,0.,1.));
#233=IFCDIRECTION((1.,0.,0.));
#234=IFCAXIS2PLACEMENT3D(#231,#232,#233);
#235=IFCDIRECTION((0.,0.,1.));
#236=IFCEXTRUDEDAREASOLID(#230,#234,#235,2500.);
#237=IFCSHAPEREPRESENTATION(#11,'Body','SweptSolid',(#236));
#243=IFCPRODUCTDEFINITIONSHAPE($,$,(#237));
#244=IFCCARTESIANPOINT((0.,0.,0.));
#245=IFCDIRECTION((0.,0.,1.));
#246=IFCDIRECTION((1.,0.,0.));
#247=IFCAXIS2PLACEMENT3D(#244,#245,#246);
#248=IFCLOCALPLACEMENT($,#247);
#249=IFCPROPERTYSET('2fNOrs4JD66evWkdzIlLUN',$,'Pset_WallCommon',$,(#251,#252));
#250=IFCRELDEFINESBYPROPERTIES('2KtJzDmo1DAhs7x80vf6DC',$,$,$,(#227),#249);
#251=IFCPROPERTYSINGLEVALUE('IsExternal',$,IFCBOOLEAN(.F.),$);
#252=IFCPROPERTYSINGLEVALUE('LoadBearing',$,IFCBOOLEAN(.F.),$);
#253=IFCWALL('2n4eMoyh1C0RzyauMJgls6',$,'INT-6',$,$,#274,#269,$,$);
#254=IFCCARTESIANPOINTLIST2D(((75.,4975.),(4875.,4975.),(4875.,4825.),(75.,4825.),(75.,4975.)));
#255=IFCINDEXEDPOLYCURVE(#254,$,$);
#256=IFCARBITRARYCLOSEDPROFILEDEF(.AREA.,'INT-6',#255);
#257=IFCCARTESIANPOINT((0.,0.,0.));
#258=IFCDIRECTION((0.,0.,1.));
#259=IFCDIRECTION((1.,0.,0.));
#260=IFCAXIS2PLACEMENT3D(#257,#258,#259);
#261=IFCDIRECTION((0.,0.,1.));
#262=IFCEXTRUDEDAREASOLID(#256,#260,#261,2500.);
#263=IFCSHAPEREPRESENTATION(#11,'Body','SweptSolid',(#262));
#269=IFCPRODUCTDEFINITIONSHAPE($,$,(#263));
#270=IFCCARTESIANPOINT((0.,0.,0.));
#271=IFCDIRECTION((0.,0.,1.));
#272=IFCDIRECTION((1.,0.,0.));
#273=IFCAXIS2PLACEMENT3D(#270,#271,#272);
#274=IFCLOCALPLACEMENT($,#273);
#275=IFCPROPERTYSET('0WAMKZV8r97vjZIYOtZexs',$,'Pset_WallCommon',$,(#277,#278));
#276=IFCRELDEFINESBYPROPERTIES('0A9JSwpxb2lun5kpgDAcG6',$,$,$,(#253),#275);
#277=IFCPROPERTYSINGLEVALUE('IsExternal',$,IFCBOOLEAN(.F.),$);
#278=IFCPROPERTYSINGLEVALUE('LoadBearing',$,IFCBOOLEAN(.F.),$);
#279=IFCWALL('1okrZZyBHDdBS7jul5930t',$,'INT-7',$,$,#300,#295,$,$);
#280=IFCCARTESIANPOINTLIST2D(((12475.000000000002,4825.),(12475.000000000002,8424.9999999999982),(12625.,8424.9999999999982),(12625.,4825.),(12475.000000000002,4825.)));
#281=IFCINDEXEDPOLYCURVE(#280,$,$);
#282=IFCARBITRARYCLOSEDPROFILEDEF(.AREA.,'INT-7',#281);
#283=IFCCARTESIANPOINT((0.,0.,0.));
#284=IFCDIRECTION((0.,0.,1.));
#285=IFCDIRECTION((1.,0.,0.));
#286=IFCAXIS2PLACEMENT3D(#283,#284,#285);
#287=IFCDIRECTION((0.,0.,1.));
#288=IFCEXTRUDEDAREASOLID(#282,#286,#287,2500.);
#289=IFCSHAPEREPRESENTATION(#11,'Body','SweptSolid',(#288));
#295=IFCPRODUCTDEFINITIONSHAPE($,$,(#289));
#296=IFCCARTESIANPOINT((0.,0.,0.));
#297=IFCDIRECTION((0.,0.,1.));
#298=IFCDIRECTION((1.,0.,0.));
#299=IFCAXIS2PLACEMENT3D(#296,#297,#298);
#300=IFCLOCALPLACEMENT($,#299);
#301=IFCPROPERTYSET('2t0$dlnB191uWScVScPDDo',$,'Pset_WallCommon',$,(#303,#304));
#302=IFCRELDEFINESBYPROPERTIES('3A5q$JrV96wONDuZo5JqBk',$,$,$,(#279),#301);
#303=IFCPROPERTYSINGLEVALUE('IsExternal',$,IFCBOOLEAN(.F.),$);
#304=IFCPROPERTYSINGLEVALUE('LoadBearing',$,IFCBOOLEAN(.F.),$);
#305=IFCWALL('1kVAelLcr4K8pX1qWFBfOm',$,'INT-8',$,$,#326,#321,$,$);
#306=IFCCARTESIANPOINTLIST2D(((8675.,4975.),(12625.,4975.),(12625.,4825.),(8675.,4825.),(8675.,4975.)));
#307=IFCINDEXEDPOLYCURVE(#306,$,$);
#308=IFCARBITRARYCLOSEDPROFILEDEF(.AREA.,'INT-8',#307);
#309=IFCCARTESIANPOINT((0.,0.,0.));
#310=IFCDIRECTION((0.,0.,1.));
#311=IFCDIRECTION((1.,0.,0.));
#312=IFCAXIS2PLACEMENT3D(#309,#310,#311);
#313=IFCDIRECTION((0.,0.,1.));
#314=IFCEXTRUDEDAREASOLID(#308,#312,#313,2500.);
#315=IFCSHAPEREPRESENTATION(#11,'Body','SweptSolid',(#314));
#321=IFCPRODUCTDEFINITIONSHAPE($,$,(#315));
#322=IFCCARTESIANPOINT((0.,0.,0.));
#323=IFCDIRECTION((0.,0.,1.));
#324=IFCDIRECTION((1.,0.,0.));
#325=IFCAXIS2PLACEMENT3D(#322,#323,#324);
#326=IFCLOCALPLACEMENT($,#325);
#327=IFCPROPERTYSET('1$_pGP1nv4kOGnoO8DrZ8m',$,'Pset_WallCommon',$,(#329,#330));
#328=IFCRELDEFINESBYPROPERTIES('0zcn4e69z0Fwd46uWci4HB',$,$,$,(#305),#327);
#329=IFCPROPERTYSINGLEVALUE('IsExternal',$,IFCBOOLEAN(.F.),$);
#330=IFCPROPERTYSINGLEVALUE('LoadBearing',$,IFCBOOLEAN(.F.),$);
#331=IFCWALL('0BOUnqa$r4LR5vSxuhwyAO',$,'INT-9',$,$,#352,#347,$,$);
#332=IFCCARTESIANPOINTLIST2D(((13075.,75.),(13075.,3625.),(13225.,3625.),(13225.,75.),(13075.,75.)));
#333=IFCINDEXEDPOLYCURVE(#332,$,$);
#334=IFCARBITRARYCLOSEDPROFILEDEF(.AREA.,'INT-9',#333);
#335=IFCCARTESIANPOINT((0.,0.,0.));
#336=IFCDIRECTION((0.,0.,1.));
#337=IFCDIRECTION((1.,0.,0.));
#338=IFCAXIS2PLACEMENT3D(#335,#336,#337);
#339=IFCDIRECTION((0.,0.,1.));
#340=IFCEXTRUDEDAREASOLID(#334,#338,#339,2500.);
#341=IFCSHAPEREPRESENTATION(#11,'Body','SweptSolid',(#340));
#347=IFCPRODUCTDEFINITIONSHAPE($,$,(#341));
#348=IFCCARTESIANPOINT((0.,0.,0.));
#349=IFCDIRECTION((0.,0.,1.));
#350=IFCDIRECTION((1.,0.,0.));
#351=IFCAXIS2PLACEMENT3D(#348,#349,#350);
#352=IFCLOCALPLACEMENT($,#351);
#353=IFCPROPERTYSET('02se$JEJn45vOWmVaXHTsM',$,'Pset_WallCommon',$,(#355,#356));
#354=IFCRELDEFINESBYPROPERTIES('2lrAOLkanCbOiuXzwUxASb',$,$,$,(#331),#353);
#355=IFCPROPERTYSINGLEVALUE('IsExternal',$,IFCBOOLEAN(.F.),$);
#356=IFCPROPERTYSINGLEVALUE('LoadBearing',$,IFCBOOLEAN(.F.),$);
#357=IFCWALL('3cCcn6Akv3Xeyvkev$Rn6k',$,'INT-10',$,$,#378,#373,$,$);
#358=IFCCARTESIANPOINTLIST2D(((9175.,3625.),(13225.,3625.),(13225.,3474.9999999999995),(9175.,3474.9999999999995),(9175.,3625.)));
#359=IFCINDEXEDPOLYCURVE(#358,$,$);
#360=IFCARBITRARYCLOSEDPROFILEDEF(.AREA.,'INT-10',#359);
#361=IFCCARTESIANPOINT((0.,0.,0.));
#362=IFCDIRECTION((0.,0.,1.));
#363=IFCDIRECTION((1.,0.,0.));
#364=IFCAXIS2PLACEMENT3D(#361,#362,#363);
#365=IFCDIRECTION((0.,0.,1.));
#366=IFCEXTRUDEDAREASOLID(#360,#364,#365,2500.);
#367=IFCSHAPEREPRESENTATION(#11,'Body','SweptSolid',(#366));
#373=IFCPRODUCTDEFINITIONSHAPE($,$,(#367));
#374=IFCCARTESIANPOINT((0.,0.,0.));
#375=IFCDIRECTION((0.,0.,1.));
#376=IFCDIRECTION((1.,0.,0.));
#377=IFCAXIS2PLACEMENT3D(#374,#375,#376);
#378=IFCLOCALPLACEMENT($,#377);
#379=IFCPROPERTYSET('1KqiKhGeP4FPaHmqvl_Mjc',$,'Pset_WallCommon',$,(#381,#382));
#380=IFCRELDEFINESBYPROPERTIES('22yTeqXev5tggJ1eLjRPXb',$,$,$,(#357),#379);
#381=IFCPROPERTYSINGLEVALUE('IsExternal',$,IFCBOOLEAN(.F.),$);
#382=IFCPROPERTYSINGLEVALUE('LoadBearing',$,IFCBOOLEAN(.F.),$);
#383=IFCWALL('3V7DdrsqXAag8KKrA4c3tK',$,'INT-11',$,$,#404,#399,$,$);
#384=IFCCARTESIANPOINTLIST2D(((12475.000000000002,4975.),(15924.999999999998,4975.),(15924.999999999998,4825.),(12475.000000000002,4825.),(12475.000000000002,4975.)));
#385=IFCINDEXEDPOLYCURVE(#384,$,$);
#386=IFCARBITRARYCLOSEDPROFILEDEF(.AREA.,'INT-11',#385);
#387=IFCCARTESIANPOINT((0.,0.,0.));
#388=IFCDIRECTION((0.,0.,1.));
#389=IFCDIRECTION((1.,0.,0.));
#390=IFCAXIS2PLACEMENT3D(#387,#388,#389);
#391=IFCDIRECTION((0.,0.,1.));
#392=IFCEXTRUDEDAREASOLID(#386,#390,#391,2500.);
#393=IFCSHAPEREPRESENTATION(#11,'Body','SweptSolid',(#392));
#399=IFCPRODUCTDEFINITIONSHAPE($,$,(#393));
#400=IFCCARTESIANPOINT((0.,0.,0.));
#401=IFCDIRECTION((0.,0.,1.));
#402=IFCDIRECTION((1.,0.,0.));
#403=IFCAXIS2PLACEMENT3D(#400,#401,#402);
#404=IFCLOCALPLACEMENT($,#403);
#405=IFCPROPERTYSET('1cLD1IStzBVfK$XsELQWyN',$,'Pset_WallCommon',$,(#407,#408));
#406=IFCRELDEFINESBYPROPERTIES('0rfPZ_aCT6DPzUtO0c7qHU',$,$,$,(#383),#405);
#407=IFCPROPERTYSINGLEVALUE('IsExternal',$,IFCBOOLEAN(.F.),$);
#408=IFCPROPERTYSINGLEVALUE('LoadBearing',$,IFCBOOLEAN(.F.),$);
#409=IFCWALL('125VWj7cvD$xfjcPSL2ngX',$,'INT-12',$,$,#430,#425,$,$);
#410=IFCCARTESIANPOINTLIST2D(((13075.,3625.),(15924.999999999998,3625.),(15924.999999999998,3474.9999999999995),(13075.,3474.9999999999995),(13075.,3625.)));
#411=IFCINDEXEDPOLYCURVE(#410,$,$);
#412=IFCARBITRARYCLOSEDPROFILEDEF(.AREA.,'INT-12',#411);
#413=IFCCARTESIANPOINT((0.,0.,0.));
#414=IFCDIRECTION((0.,0.,1.));
#415=IFCDIRECTION((1.,0.,0.));
#416=IFCAXIS2PLACEMENT3D(#413,#414,#415);
#417=IFCDIRECTION((0.,0.,1.));
#418=IFCEXTRUDEDAREASOLID(#412,#416,#417,2500.);
#419=IFCSHAPEREPRESENTATION(#11,'Body','SweptSolid',(#418));
#425=IFCPRODUCTDEFINITIONSHAPE($,$,(#419));
#426=IFCCARTESIANPOINT((0.,0.,0.));
#427=IFCDIRECTION((0.,0.,1.));
#428=IFCDIRECTION((1.,0.,0.));
#429=IFCAXIS2PLACEMENT3D(#426,#427,#428);
#430=IFCLOCALPLACEMENT($,#429);
#431=IFCPROPERTYSET('29JTQXmiPEDw7m0b35ybmG',$,'Pset_WallCommon',$,(#433,#434));
#432=IFCRELDEFINESBYPROPERTIES('2CYKvLn4rE2QYarecMpU9Y',$,$,$,(#409),#431);
#433=IFCPROPERTYSINGLEVALUE('IsExternal',$,IFCBOOLEAN(.F.),$);
#434=IFCPROPERTYSINGLEVALUE('LoadBearing',$,IFCBOOLEAN(.F.),$);
#435=IFCSPACE('1mSF96Qcz3vRna9O2jWY0i',$,'Wohnen',$,$,#457,#451,'Wohnen',$,.INTERNAL.,$);
#436=IFCCARTESIANPOINTLIST2D(((300.,300.),(9200.,300.),(9200.,3450.),(300.,3450.),(300.,300.)));
#437=IFCINDEXEDPOLYCURVE(#436,$,$);
#438=IFCARBITRARYCLOSEDPROFILEDEF(.AREA.,'Wohnen',#437);
#439=IFCCARTESIANPOINT((0.,0.,0.));
#440=IFCDIRECTION((0.,0.,1.));
#441=IFCDIRECTION((1.,0.,0.));
#442=IFCAXIS2PLACEMENT3D(#439,#440,#441);
#443=IFCDIRECTION((0.,0.,1.));
#444=IFCEXTRUDEDAREASOLID(#438,#442,#443,2500.);
#445=IFCSHAPEREPRESENTATION(#11,'Body','SweptSolid',(#444));
#451=IFCPRODUCTDEFINITIONSHAPE($,$,(#445));
#452=IFCRELAGGREGATES('2HSKjXBOjBeA27amY6J7HR',$,$,$,#16,(#480,#546,#568,#524,#435,#590,#458,#502));
#453=IFCCARTESIANPOINT((0.,0.,0.));
#454=IFCDIRECTION((0.,0.,1.));
#455=IFCDIRECTION((1.,0.,0.));
#456=IFCAXIS2PLACEMENT3D(#453,#454,#455);
#457=IFCLOCALPLACEMENT($,#456);
#458=IFCSPACE('0HIf1UntL16OlUDeAM7aXA',$,'K\X2\00FC\X0\che',$,$,#479,#474,'K\X2\00FC\X0\che',$,.INTERNAL.,$);
#459=IFCCARTESIANPOINTLIST2D(((4900.,5000.),(8700.,5000.),(8700.,8200.),(4900.,8200.),(4900.,5000.)));
#460=IFCINDEXEDPOLYCURVE(#459,$,$);
#461=IFCARBITRARYCLOSEDPROFILEDEF(.AREA.,'K\X2\00FC\X0\che',#460);
#462=IFCCARTESIANPOINT((0.,0.,0.));
#463=IFCDIRECTION((0.,0.,1.));
#464=IFCDIRECTION((1.,0.,0.));
#465=IFCAXIS2PLACEMENT3D(#462,#463,#464);
#466=IFCDIRECTION((0.,0.,1.));
#467=IFCEXTRUDEDAREASOLID(#461,#465,#466,2500.);
#468=IFCSHAPEREPRESENTATION(#11,'Body','SweptSolid',(#467));
#474=IFCPRODUCTDEFINITIONSHAPE($,$,(#468));
#475=IFCCARTESIANPOINT((0.,0.,0.));
#476=IFCDIRECTION((0.,0.,1.));
#477=IFCDIRECTION((1.,0.,0.));
#478=IFCAXIS2PLACEMENT3D(#475,#476,#477);
#479=IFCLOCALPLACEMENT($,#478);
#480=IFCSPACE('3beZawiiX1UAuG0qBP$DSQ',$,'Elternschlafzimmer',$,$,#501,#496,'Elternschlafzimmer',$,.INTERNAL.,$);
#481=IFCCARTESIANPOINTLIST2D(((300.,5000.),(4700.,5000.),(4700.,8200.),(300.,8200.),(300.,5000.)));
#482=IFCINDEXEDPOLYCURVE(#481,$,$);
#483=IFCARBITRARYCLOSEDPROFILEDEF(.AREA.,'Elternschlafzimmer',#482);
#484=IFCCARTESIANPOINT((0.,0.,0.));
#485=IFCDIRECTION((0.,0.,1.));
#486=IFCDIRECTION((1.,0.,0.));
#487=IFCAXIS2PLACEMENT3D(#484,#485,#486);
#488=IFCDIRECTION((0.,0.,1.));
#489=IFCEXTRUDEDAREASOLID(#483,#487,#488,2500.);
#490=IFCSHAPEREPRESENTATION(#11,'Body','SweptSolid',(#489));
#496=IFCPRODUCTDEFINITIONSHAPE($,$,(#490));
#497=IFCCARTESIANPOINT((0.,0.,0.));
#498=IFCDIRECTION((0.,0.,1.));
#499=IFCDIRECTION((1.,0.,0.));
#500=IFCAXIS2PLACEMENT3D(#497,#498,#499);
#501=IFCLOCALPLACEMENT($,#500);
#502=IFCSPACE('3H5fc4V9H55fEq4etjtZAj',$,'Kinderzimmer 1',$,$,#523,#518,'Kinderzimmer 1',$,.INTERNAL.,$);
#503=IFCCARTESIANPOINTLIST2D(((8800.,5000.),(12449.999999999998,5000.),(12449.999999999998,8200.),(8800.,8200.),(8800.,5000.)));
#504=IFCINDEXEDPOLYCURVE(#503,$,$);
#505=IFCARBITRARYCLOSEDPROFILEDEF(.AREA.,'Kinderzimmer 1',#504);
#506=IFCCARTESIANPOINT((0.,0.,0.));
#507=IFCDIRECTION((0.,0.,1.));
#508=IFCDIRECTION((1.,0.,0.));
#509=IFCAXIS2PLACEMENT3D(#506,#507,#508);
#510=IFCDIRECTION((0.,0.,1.));
#511=IFCEXTRUDEDAREASOLID(#505,#509,#510,2500.);
#512=IFCSHAPEREPRESENTATION(#11,'Body','SweptSolid',(#511));
#518=IFCPRODUCTDEFINITIONSHAPE($,$,(#512));
#519=IFCCARTESIANPOINT((0.,0.,0.));
#520=IFCDIRECTION((0.,0.,1.));
#521=IFCDIRECTION((1.,0.,0.));
#522=IFCAXIS2PLACEMENT3D(#519,#520,#521);
#523=IFCLOCALPLACEMENT($,#522);
#524=IFCSPACE('3y2za3Eoz8ce7TPZ$uRst0',$,'Kinderzimmer 2',$,$,#545,#540,'Kinderzimmer 2',$,.INTERNAL.,$);
#525=IFCCARTESIANPOINTLIST2D(((9300.,300.),(13050.,300.),(13050.,3450.),(9300.,3450.),(9300.,300.)));
#526=IFCINDEXEDPOLYCURVE(#525,$,$);
#527=IFCARBITRARYCLOSEDPROFILEDEF(.AREA.,'Kinderzimmer 2',#526);
#528=IFCCARTESIANPOINT((0.,0.,0.));
#529=IFCDIRECTION((0.,0.,1.));
#530=IFCDIRECTION((1.,0.,0.));
#531=IFCAXIS2PLACEMENT3D(#528,#529,#530);
#532=IFCDIRECTION((0.,0.,1.));
#533=IFCEXTRUDEDAREASOLID(#527,#531,#532,2500.);
#534=IFCSHAPEREPRESENTATION(#11,'Body','SweptSolid',(#533));
#540=IFCPRODUCTDEFINITIONSHAPE($,$,(#534));
#541=IFCCARTESIANPOINT((0.,0.,0.));
#542=IFCDIRECTION((0.,0.,1.));
#543=IFCDIRECTION((1.,0.,0.));
#544=IFCAXIS2PLACEMENT3D(#541,#542,#543);
#545=IFCLOCALPLACEMENT($,#544);
#546=IFCSPACE('2eyIf4$ozDFfkCmpkURsIt',$,'B\X2\00FC\X0\ro',$,$,#567,#562,'B\X2\00FC\X0\ro',$,.INTERNAL.,$);
#547=IFCCARTESIANPOINTLIST2D(((12600.,5000.),(15699.999999999998,5000.),(15699.999999999998,8200.),(12600.,8200.),(12600.,5000.)));
#548=IFCINDEXEDPOLYCURVE(#547,$,$);
#549=IFCARBITRARYCLOSEDPROFILEDEF(.AREA.,'B\X2\00FC\X0\ro',#548);
#550=IFCCARTESIANPOINT((0.,0.,0.));
#551=IFCDIRECTION((0.,0.,1.));
#552=IFCDIRECTION((1.,0.,0.));
#553=IFCAXIS2PLACEMENT3D(#550,#551,#552);
#554=IFCDIRECTION((0.,0.,1.));
#555=IFCEXTRUDEDAREASOLID(#549,#553,#554,2500.);
#556=IFCSHAPEREPRESENTATION(#11,'Body','SweptSolid',(#555));
#562=IFCPRODUCTDEFINITIONSHAPE($,$,(#556));
#563=IFCCARTESIANPOINT((0.,0.,0.));
#564=IFCDIRECTION((0.,0.,1.));
#565=IFCDIRECTION((1.,0.,0.));
#566=IFCAXIS2PLACEMENT3D(#563,#564,#565);
#567=IFCLOCALPLACEMENT($,#566);
#568=IFCSPACE('1V1K3JcBbE1feGRtFs6OXZ',$,'Bad',$,$,#589,#584,'Bad',$,.INTERNAL.,$);
#569=IFCCARTESIANPOINTLIST2D(((13199.999999999998,300.),(15699.999999999998,300.),(15699.999999999998,3450.),(13199.999999999998,3450.),(13199.999999999998,300.)));
#570=IFCINDEXEDPOLYCURVE(#569,$,$);
#571=IFCARBITRARYCLOSEDPROFILEDEF(.AREA.,'Bad',#570);
#572=IFCCARTESIANPOINT((0.,0.,0.));
#573=IFCDIRECTION((0.,0.,1.));
#574=IFCDIRECTION((1.,0.,0.));
#575=IFCAXIS2PLACEMENT3D(#572,#573,#574);
#576=IFCDIRECTION((0.,0.,1.));
#577=IFCEXTRUDEDAREASOLID(#571,#575,#576,2500.);
#578=IFCSHAPEREPRESENTATION(#11,'Body','SweptSolid',(#577));
#584=IFCPRODUCTDEFINITIONSHAPE($,$,(#578));
#585=IFCCARTESIANPOINT((0.,0.,0.));
#586=IFCDIRECTION((0.,0.,1.));
#587=IFCDIRECTION((1.,0.,0.));
#588=IFCAXIS2PLACEMENT3D(#585,#586,#587);
#589=IFCLOCALPLACEMENT($,#588);
#590=IFCSPACE('3QRUNeLODDaRaimliaZpun',$,'Flur',$,$,#611,#606,'Flur',$,.INTERNAL.,$);
#591=IFCCARTESIANPOINTLIST2D(((300.,3600.),(15699.999999999998,3600.),(15699.999999999998,4849.9999999999991),(300.,4849.9999999999991),(300.,3600.)));
#592=IFCINDEXEDPOLYCURVE(#591,$,$);
#593=IFCARBITRARYCLOSEDPROFILEDEF(.AREA.,'Flur',#592);
#594=IFCCARTESIANPOINT((0.,0.,0.));
#595=IFCDIRECTION((0.,0.,1.));
#596=IFCDIRECTION((1.,0.,0.));
#597=IFCAXIS2PLACEMENT3D(#594,#595,#596);
#598=IFCDIRECTION((0.,0.,1.));
#599=IFCEXTRUDEDAREASOLID(#593,#597,#598,2500.);
#600=IFCSHAPEREPRESENTATION(#11,'Body','SweptSolid',(#599));
#606=IFCPRODUCTDEFINITIONSHAPE($,$,(#600));
#607=IFCCARTESIANPOINT((0.,0.,0.));
#608=IFCDIRECTION((0.,0.,1.));
#609=IFCDIRECTION((1.,0.,0.));
#610=IFCAXIS2PLACEMENT3D(#607,#608,#609);
#611=IFCLOCALPLACEMENT($,#610);
#612=IFCOPENINGELEMENT('3YyxoVUWrBoxsC7bRoFjRT',$,'D-00 opening',$,$,#634,#628,$,$);
#613=IFCCARTESIANPOINTLIST2D(((7495.,319.99999999999994),(8505.,319.99999999999994),(8505.,-19.999999999999989),(7495.,-19.999999999999989),(7495.,319.99999999999994)));
#614=IFCINDEXEDPOLYCURVE(#613,$,$);
#615=IFCARBITRARYCLOSEDPROFILEDEF(.AREA.,'D-00 opening',#614);
#616=IFCCARTESIANPOINT((0.,0.,0.));
#617=IFCDIRECTION((0.,0.,1.));
#618=IFCDIRECTION((1.,0.,0.));
#619=IFCAXIS2PLACEMENT3D(#616,#617,#618);
#620=IFCDIRECTION((0.,0.,1.));
#621=IFCEXTRUDEDAREASOLID(#615,#619,#620,2100.);
#622=IFCSHAPEREPRESENTATION(#11,'Body','SweptSolid',(#621));
#628=IFCPRODUCTDEFINITIONSHAPE($,$,(#622));
#629=IFCRELVOIDSELEMENT('3wTSY$SuH5uQulr9kNhAOd',$,$,$,#18,#612);
#630=IFCCARTESIANPOINT((0.,0.,0.));
#631=IFCDIRECTION((0.,0.,1.));
#632=IFCDIRECTION((1.,0.,0.));
#633=IFCAXIS2PLACEMENT3D(#630,#631,#632);
#634=IFCLOCALPLACEMENT(#40,#633);
#635=IFCDOOR('2gIJPVPTX0XQUlaYCcU8nL',$,'D-00',$,$,#657,#651,$,2.1000000000000001,1.01,.DOOR.,$,$);
#636=IFCCARTESIANPOINTLIST2D(((7495.,224.99999999999997),(8505.,224.99999999999997),(8505.,75.),(7495.,75.),(7495.,224.99999999999997)));
#637=IFCINDEXEDPOLYCURVE(#636,$,$);
#638=IFCARBITRARYCLOSEDPROFILEDEF(.AREA.,'D-00',#637);
#639=IFCCARTESIANPOINT((0.,0.,0.));
#640=IFCDIRECTION((0.,0.,1.));
#641=IFCDIRECTION((1.,0.,0.));
#642=IFCAXIS2PLACEMENT3D(#639,#640,#641);
#643=IFCDIRECTION((0.,0.,1.));
#644=IFCEXTRUDEDAREASOLID(#638,#642,#643,2100.);
#645=IFCSHAPEREPRESENTATION(#11,'Body','SweptSolid',(#644));
#651=IFCPRODUCTDEFINITIONSHAPE($,$,(#645));
#652=IFCRELFILLSELEMENT('00bl$qcKLATRAN6rOXRem2',$,$,$,#612,#635);
#653=IFCCARTESIANPOINT((0.,0.,0.));
#654=IFCDIRECTION((0.,0.,1.));
#655=IFCDIRECTION((1.,0.,0.));
#656=IFCAXIS2PLACEMENT3D(#653,#654,#655);
#657=IFCLOCALPLACEMENT(#634,#656);
#658=IFCDOORTYPE('1Iqxl9X4v0nhPLHGRd6z8q',$,'Eingangstuer',$,$,$,$,$,$,.NOTDEFINED.,.NOTDEFINED.,$,$);
#659=IFCRELDEFINESBYTYPE('05wcxO6Ej9bu4mMYD2F4uQ',$,$,$,(#635),#658);
#660=IFCPROPERTYSET('36pADnxCv5SwOnStk_Wew2',$,'Pset_DoorCommon',$,(#662));
#661=IFCRELDEFINESBYPROPERTIES('0jNndyO6P1Ox93GKATdlTg',$,$,$,(#635),#660);
#662=IFCPROPERTYSINGLEVALUE('IsExternal',$,IFCBOOLEAN(.T.),$);
#663=IFCOPENINGELEMENT('2bRau_5gH2AgkIvlsSfLkz',$,'D-01 opening',$,$,#685,#679,$,$);
#664=IFCCARTESIANPOINTLIST2D(((4257.5,3645.),(5142.5,3645.),(5142.5,3454.9999999999995),(4257.5,3454.9999999999995),(4257.5,3645.)));
#665=IFCINDEXEDPOLYCURVE(#664,$,$);
#666=IFCARBITRARYCLOSEDPROFILEDEF(.AREA.,'D-01 opening',#665);
#667=IFCCARTESIANPOINT((0.,0.,0.));
#668=IFCDIRECTION((0.,0.,1.));
#669=IFCDIRECTION((1.,0.,0.));
#670=IFCAXIS2PLACEMENT3D(#667,#668,#669);
#671=IFCDIRECTION((0.,0.,1.));
#672=IFCEXTRUDEDAREASOLID(#666,#670,#671,2050.);
#673=IFCSHAPEREPRESENTATION(#11,'Body','SweptSolid',(#672));
#679=IFCPRODUCTDEFINITIONSHAPE($,$,(#673));
#680=IFCRELVOIDSELEMENT('10l63lXh5E$e45dYWSmNiE',$,$,$,#149,#663);
#681=IFCCARTESIANPOINT((0.,0.,0.));
#682=IFCDIRECTION((0.,0.,1.));
#683=IFCDIRECTION((1.,0.,0.));
#684=IFCAXIS2PLACEMENT3D(#681,#682,#683);
#685=IFCLOCALPLACEMENT(#170,#684);
#686=IFCDOOR('0kKjJuL1jDRv0$KKOFlQMI',$,'D-01',$,$,#708,#702,$,2.0499999999999998,0.88500000000000001,.DOOR.,$,$);
#687=IFCCARTESIANPOINTLIST2D(((4257.5,3587.5),(5142.5,3587.5),(5142.5,3512.4999999999995),(4257.5,3512.4999999999995),(4257.5,3587.5)));
#688=IFCINDEXEDPOLYCURVE(#687,$,$);
#689=IFCARBITRARYCLOSEDPROFILEDEF(.AREA.,'D-01',#688);
#690=IFCCARTESIANPOINT((0.,0.,0.));
#691=IFCDIRECTION((0.,0.,1.));
#692=IFCDIRECTION((1.,0.,0.));
#693=IFCAXIS2PLACEMENT3D(#690,#691,#692);
#694=IFCDIRECTION((0.,0.,1.));
#695=IFCEXTRUDEDAREASOLID(#689,#693,#694,2050.);
#696=IFCSHAPEREPRESENTATION(#11,'Body','SweptSolid',(#695));
#702=IFCPRODUCTDEFINITIONSHAPE($,$,(#696));
#703=IFCRELFILLSELEMENT('2MtI5gFovEJP85i6t2srCE',$,$,$,#663,#686);
#704=IFCCARTESIANPOINT((0.,0.,0.));
#705=IFCDIRECTION((0.,0.,1.));
#706=IFCDIRECTION((1.,0.,0.));
#707=IFCAXIS2PLACEMENT3D(#704,#705,#706);
#708=IFCLOCALPLACEMENT(#685,#707);
#709=IFCPROPERTYSET('2q3N2D0VL5wOAhq_VTwy0N',$,'Pset_DoorCommon',$,(#711));
#710=IFCRELDEFINESBYPROPERTIES('1UvNMZdMzAxgDYCTxaHtwi',$,$,$,(#686),#709);
#711=IFCPROPERTYSINGLEVALUE('IsExternal',$,IFCBOOLEAN(.F.),$);
#712=IFCOPENINGELEMENT('3$7c7RO859G81x6t20Ympf',$,'D-02 opening',$,$,#734,#728,$,$);
#713=IFCCARTESIANPOINTLIST2D(((6357.5,4995.),(7242.5,4995.),(7242.5,4805.0000000000009),(6357.5,4805.0000000000009),(6357.5,4995.)));
#714=IFCINDEXEDPOLYCURVE(#713,$,$);
#715=IFCARBITRARYCLOSEDPROFILEDEF(.AREA.,'D-02 opening',#714);
#716=IFCCARTESIANPOINT((0.,0.,0.));
#717=IFCDIRECTION((0.,0.,1.));
#718=IFCDIRECTION((1.,0.,0.));
#719=IFCAXIS2PLACEMENT3D(#716,#717,#718);
#720=IFCDIRECTION((0.,0.,1.));
#721=IFCEXTRUDEDAREASOLID(#715,#719,#720,2050.);
#722=IFCSHAPEREPRESENTATION(#11,'Body','SweptSolid',(#721));
#728=IFCPRODUCTDEFINITIONSHAPE($,$,(#722));
#729=IFCRELVOIDSELEMENT('2Hbz2vlKf6Ow_Hvqx5XsUC',$,$,$,#227,#712);
#730=IFCCARTESIANPOINT((0.,0.,0.));
#731=IFCDIRECTION((0.,0.,1.));
#732=IFCDIRECTION((1.,0.,0.));
#733=IFCAXIS2PLACEMENT3D(#730,#731,#732);
#734=IFCLOCALPLACEMENT(#248,#733);
#735=IFCDOOR('2Q7BE5T1HBxxuQ7f3Rreqp',$,'D-02',$,$,#757,#751,$,2.0499999999999998,0.88500000000000001,.DOOR.,$,$);
#736=IFCCARTESIANPOINTLIST2D(((6357.5,4937.5),(7242.5,4937.5),(7242.5,4862.5000000000009),(6357.5,4862.5000000000009),(6357.5,4937.5)));
#737=IFCINDEXEDPOLYCURVE(#736,$,$);
#738=IFCARBITRARYCLOSEDPROFILEDEF(.AREA.,'D-02',#737);
#739=IFCCARTESIANPOINT((0.,0.,0.));
#740=IFCDIRECTION((0.,0.,1.));
#741=IFCDIRECTION((1.,0.,0.));
#742=IFCAXIS2PLACEMENT3D(#739,#740,#741);
#743=IFCDIRECTION((0.,0.,1.));
#744=IFCEXTRUDEDAREASOLID(#738,#742,#743,2050.);
#745=IFCSHAPEREPRESENTATION(#11,'Body','SweptSolid',(#744));
#751=IFCPRODUCTDEFINITIONSHAPE($,$,(#745));
#752=IFCRELFILLSELEMENT('1z$H95yan6bACTjqjHGTqf',$,$,$,#712,#735);
#753=IFCCARTESIANPOINT((0.,0.,0.));
#754=IFCDIRECTION((0.,0.,1.));
#755=IFCDIRECTION((1.,0.,0.));
#756=IFCAXIS2PLACEMENT3D(#753,#754,#755);
#757=IFCLOCALPLACEMENT(#734,#756);
#758=IFCPROPERTYSET('29dW4mOp52Q9B2ZdCHQo39',$,'Pset_DoorCommon',$,(#760));
#759=IFCRELDEFINESBYPROPERTIES('2qks6y61HAvAiO_Fk$UJiY',$,$,$,(#735),#758);
#760=IFCPROPERTYSINGLEVALUE('IsExternal',$,IFCBOOLEAN(.F.),$);
#761=IFCOPENINGELEMENT('2LsjCNhvr9bf83CoBD1nG6',$,'D-03 opening',$,$,#783,#777,$,$);
#762=IFCCARTESIANPOINTLIST2D(((2007.4999999999998,4995.),(2892.4999999999995,4995.),(2892.4999999999995,4805.0000000000009),(2007.4999999999998,4805.0000000000009),(2007.4999999999998,4995.)));
#763=IFCINDEXEDPOLYCURVE(#762,$,$);
#764=IFCARBITRARYCLOSEDPROFILEDEF(.AREA.,'D-03 opening',#763);
#765=IFCCARTESIANPOINT((0.,0.,0.));
#766=IFCDIRECTION((0.,0.,1.));
#767=IFCDIRECTION((1.,0.,0.));
#768=IFCAXIS2PLACEMENT3D(#765,#766,#767);
#769=IFCDIRECTION((0.,0.,1.));
#770=IFCEXTRUDEDAREASOLID(#764,#768,#769,2050.);
#771=IFCSHAPEREPRESENTATION(#11,'Body','SweptSolid',(#770));
#777=IFCPRODUCTDEFINITIONSHAPE($,$,(#771));
#778=IFCRELVOIDSELEMENT('1mmx8ppgLDdRVKWHXI6yCq',$,$,$,#253,#761);
#779=IFCCARTESIANPOINT((0.,0.,0.));
#780=IFCDIRECTION((0.,0.,1.));
#781=IFCDIRECTION((1.,0.,0.));
#782=IFCAXIS2PLACEMENT3D(#779,#780,#781);
#783=IFCLOCALPLACEMENT(#274,#782);
#784=IFCDOOR('3EfnxWAQr0wOyubfHsXZgv',$,'D-03',$,$,#806,#800,$,2.0499999999999998,0.88500000000000001,.DOOR.,$,$);
#785=IFCCARTESIANPOINTLIST2D(((2007.4999999999998,4937.5),(2892.4999999999995,4937.5),(2892.4999999999995,4862.5000000000009),(2007.4999999999998,4862.5000000000009),(2007.4999999999998,4937.5)));
#786=IFCINDEXEDPOLYCURVE(#785,$,$);
#787=IFCARBITRARYCLOSEDPROFILEDEF(.AREA.,'D-03',#786);
#788=IFCCARTESIANPOINT((0.,0.,0.));
#789=IFCDIRECTION((0.,0.,1.));
#790=IFCDIRECTION((1.,0.,0.));
#791=IFCAXIS2PLACEMENT3D(#788,#789,#790);
#792=IFCDIRECTION((0.,0.,1.));
#793=IFCEXTRUDEDAREASOLID(#787,#791,#792,2050.);
#794=IFCSHAPEREPRESENTATION(#11,'Body','SweptSolid',(#793));
#800=IFCPRODUCTDEFINITIONSHAPE($,$,(#794));
#801=IFCRELFILLSELEMENT('1bCi7aAHr9sfhJ$SyKcJxK',$,$,$,#761,#784);
#802=IFCCARTESIANPOINT((0.,0.,0.));
#803=IFCDIRECTION((0.,0.,1.));
#804=IFCDIRECTION((1.,0.,0.));
#805=IFCAXIS2PLACEMENT3D(#802,#803,#804);
#806=IFCLOCALPLACEMENT(#783,#805);
#807=IFCPROPERTYSET('34sWDfzlz9DAHUzKkkH6db',$,'Pset_DoorCommon',$,(#809));
#808=IFCRELDEFINESBYPROPERTIES('2a7BUsk3P6Iu_m103PTgvd',$,$,$,(#784),#807);
#809=IFCPROPERTYSINGLEVALUE('IsExternal',$,IFCBOOLEAN(.F.),$);
#810=IFCOPENINGELEMENT('1M8i6KY6zFDPvqBzHZQX9b',$,'D-04 opening',$,$,#832,#826,$,$);
#811=IFCCARTESIANPOINTLIST2D(((10207.5,4995.),(11092.5,4995.),(11092.5,4805.0000000000009),(10207.5,4805.0000000000009),(10207.5,4995.)));
#812=IFCINDEXEDPOLYCURVE(#811,$,$);
#813=IFCARBITRARYCLOSEDPROFILEDEF(.AREA.,'D-04 opening',#812);
#814=IFCCARTESIANPOINT((0.,0.,0.));
#815=IFCDIRECTION((0.,0.,1.));
#816=IFCDIRECTION((1.,0.,0.));
#817=IFCAXIS2PLACEMENT3D(#814,#815,#816);
#818=IFCDIRECTION((0.,0.,1.));
#819=IFCEXTRUDEDAREASOLID(#813,#817,#818,2050.);
#820=IFCSHAPEREPRESENTATION(#11,'Body','SweptSolid',(#819));
#826=IFCPRODUCTDEFINITIONSHAPE($,$,(#820));
#827=IFCRELVOIDSELEMENT('1k8tKVJh91vON0PyojKxwh',$,$,$,#305,#810);
#828=IFCCARTESIANPOINT((0.,0.,0.));
#829=IFCDIRECTION((0.,0.,1.));
#830=IFCDIRECTION((1.,0.,0.));
#831=IFCAXIS2PLACEMENT3D(#828,#829,#830);
#832=IFCLOCALPLACEMENT(#326,#831);
#833=IFCDOOR('2AJF_l9xX2V8Q6UVEGID2J',$,'D-04',$,$,#855,#849,$,2.0499999999999998,0.88500000000000001,.DOOR.,$,$);
#834=IFCCARTESIANPOINTLIST2D(((10207.5,4937.5),(11092.5,4937.5),(11092.5,4862.5000000000009),(10207.5,4862.5000000000009),(10207.5,4937.5)));
#835=IFCINDEXEDPOLYCURVE(#834,$,$);
#836=IFCARBITRARYCLOSEDPROFILEDEF(.AREA.,'D-04',#835);
#837=IFCCARTESIANPOINT((0.,0.,0.));
#838=IFCDIRECTION((0.,0.,1.));
#839=IFCDIRECTION((1.,0.,0.));
#840=IFCAXIS2PLACEMENT3D(#837,#838,#839);
#841=IFCDIRECTION((0.,0.,1.));
#842=IFCEXTRUDEDAREASOLID(#836,#840,#841,2050.);
#843=IFCSHAPEREPRESENTATION(#11,'Body','SweptSolid',(#842));
#849=IFCPRODUCTDEFINITIONSHAPE($,$,(#843));
#850=IFCRELFILLSELEMENT('0exYitKxTC7xaI0oFE7PPj',$,$,$,#810,#833);
#851=IFCCARTESIANPOINT((0.,0.,0.));
#852=IFCDIRECTION((0.,0.,1.));
#853=IFCDIRECTION((1.,0.,0.));
#854=IFCAXIS2PLACEMENT3D(#851,#852,#853);
#855=IFCLOCALPLACEMENT(#832,#854);
#856=IFCPROPERTYSET('1gNuFQWaf1MBB6y5v0BHjO',$,'Pset_DoorCommon',$,(#858));
#857=IFCRELDEFINESBYPROPERTIES('2aIfCPsg130hcI$aYehZfH',$,$,$,(#833),#856);
#858=IFCPROPERTYSINGLEVALUE('IsExternal',$,IFCBOOLEAN(.F.),$);
#859=IFCOPENINGELEMENT('2uEOaHn2r4EB3CnKJzObJc',$,'D-05 opening',$,$,#881,#875,$,$);
#860=IFCCARTESIANPOINTLIST2D(((10757.499999999998,3645.),(11642.5,3645.),(11642.5,3454.9999999999995),(10757.499999999998,3454.9999999999995),(10757.499999999998,3645.)));
#861=IFCINDEXEDPOLYCURVE(#860,$,$);
#862=IFCARBITRARYCLOSEDPROFILEDEF(.AREA.,'D-05 opening',#861);
#863=IFCCARTESIANPOINT((0.,0.,0.));
#864=IFCDIRECTION((0.,0.,1.));
#865=IFCDIRECTION((1.,0.,0.));
#866=IFCAXIS2PLACEMENT3D(#863,#864,#865);
#867=IFCDIRECTION((0.,0.,1.));
#868=IFCEXTRUDEDAREASOLID(#862,#866,#867,2050.);
#869=IFCSHAPEREPRESENTATION(#11,'Body','SweptSolid',(#868));
#875=IFCPRODUCTDEFINITIONSHAPE($,$,(#869));
#876=IFCRELVOIDSELEMENT('1CupQgy2z1WuXDworuXPzU',$,$,$,#357,#859);
#877=IFCCARTESIANPOINT((0.,0.,0.));
#878=IFCDIRECTION((0.,0.,1.));
#879=IFCDIRECTION((1.,0.,0.));
#880=IFCAXIS2PLACEMENT3D(#877,#878,#879);
#881=IFCLOCALPLACEMENT(#378,#880);
#882=IFCDOOR('21KIFuIM91se6WlJtMaNwe',$,'D-05',$,$,#904,#898,$,2.0499999999999998,0.88500000000000001,.DOOR.,$,$);
#883=IFCCARTESIANPOINTLIST2D(((10757.499999999998,3587.5),(11642.5,3587.5),(11642.5,3512.4999999999995),(10757.499999999998,3512.4999999999995),(10757.499999999998,3587.5)));
#884=IFCINDEXEDPOLYCURVE(#883,$,$);
#885=IFCARBITRARYCLOSEDPROFILEDEF(.AREA.,'D-05',#884);
#886=IFCCARTESIANPOINT((0.,0.,0.));
#887=IFCDIRECTION((0.,0.,1.));
#888=IFCDIRECTION((1.,0.,0.));
#889=IFCAXIS2PLACEMENT3D(#886,#887,#888);
#890=IFCDIRECTION((0.,0.,1.));
#891=IFCEXTRUDEDAREASOLID(#885,#889,#890,2050.);
#892=IFCSHAPEREPRESENTATION(#11,'Body','SweptSolid',(#891));
#898=IFCPRODUCTDEFINITIONSHAPE($,$,(#892));
#899=IFCRELFILLSELEMENT('0bqeUDvq5FmvOZPfmvrvDk',$,$,$,#859,#882);
#900=IFCCARTESIANPOINT((0.,0.,0.));
#901=IFCDIRECTION((0.,0.,1.));
#902=IFCDIRECTION((1.,0.,0.));
#903=IFCAXIS2PLACEMENT3D(#900,#901,#902);
#904=IFCLOCALPLACEMENT(#881,#903);
#905=IFCPROPERTYSET('1F436v3oTFTvZ13JySzOTb',$,'Pset_DoorCommon',$,(#907));
#906=IFCRELDEFINESBYPROPERTIES('3SHWetLorFiw4mXGBcBuMv',$,$,$,(#882),#905);
#907=IFCPROPERTYSINGLEVALUE('IsExternal',$,IFCBOOLEAN(.F.),$);
#908=IFCOPENINGELEMENT('02EsixeMj9AQHsIVsNjhF1',$,'D-06 opening',$,$,#930,#924,$,$);
#909=IFCCARTESIANPOINTLIST2D(((13757.5,4995.),(14642.500000000002,4995.),(14642.500000000002,4805.0000000000009),(13757.5,4805.0000000000009),(13757.5,4995.)));
#910=IFCINDEXEDPOLYCURVE(#909,$,$);
#911=IFCARBITRARYCLOSEDPROFILEDEF(.AREA.,'D-06 opening',#910);
#912=IFCCARTESIANPOINT((0.,0.,0.));
#913=IFCDIRECTION((0.,0.,1.));
#914=IFCDIRECTION((1.,0.,0.));
#915=IFCAXIS2PLACEMENT3D(#912,#913,#914);
#916=IFCDIRECTION((0.,0.,1.));
#917=IFCEXTRUDEDAREASOLID(#911,#915,#916,2050.);
#918=IFCSHAPEREPRESENTATION(#11,'Body','SweptSolid',(#917));
#924=IFCPRODUCTDEFINITIONSHAPE($,$,(#918));
#925=IFCRELVOIDSELEMENT('0sPwpom5X5cBhZtdsjUU$j',$,$,$,#383,#908);
#926=IFCCARTESIANPOINT((0.,0.,0.));
#927=IFCDIRECTION((0.,0.,1.));
#928=IFCDIRECTION((1.,0.,0.));
#929=IFCAXIS2PLACEMENT3D(#926,#927,#928);
#930=IFCLOCALPLACEMENT(#404,#929);
#931=IFCDOOR('1SaSSsAPj0fAgYGHRd5kzi',$,'D-06',$,$,#953,#947,$,2.0499999999999998,0.88500000000000001,.DOOR.,$,$);
#932=IFCCARTESIANPOINTLIST2D(((13757.5,4937.5),(14642.500000000002,4937.5),(14642.500000000002,4862.5000000000009),(13757.5,4862.5000000000009),(13757.5,4937.5)));
#933=IFCINDEXEDPOLYCURVE(#932,$,$);
#934=IFCARBITRARYCLOSEDPROFILEDEF(.AREA.,'D-06',#933);
#935=IFCCARTESIANPOINT((0.,0.,0.));
#936=IFCDIRECTION((0.,0.,1.));
#937=IFCDIRECTION((1.,0.,0.));
#938=IFCAXIS2PLACEMENT3D(#935,#936,#937);
#939=IFCDIRECTION((0.,0.,1.));
#940=IFCEXTRUDEDAREASOLID(#934,#938,#939,2050.);
#941=IFCSHAPEREPRESENTATION(#11,'Body','SweptSolid',(#940));
#947=IFCPRODUCTDEFINITIONSHAPE($,$,(#941));
#948=IFCRELFILLSELEMENT('1nTWpiDozAkezbrq1b_r53',$,$,$,#908,#931);
#949=IFCCARTESIANPOINT((0.,0.,0.));
#950=IFCDIRECTION((0.,0.,1.));
#951=IFCDIRECTION((1.,0.,0.));
#952=IFCAXIS2PLACEMENT3D(#949,#950,#951);
#953=IFCLOCALPLACEMENT(#930,#952);
#954=IFCPROPERTYSET('2OcGqZ2LXCd9LctYaapZ4d',$,'Pset_DoorCommon',$,(#956));
#955=IFCRELDEFINESBYPROPERTIES('0CL_bazXf0CBYmL8KracUY',$,$,$,(#931),#954);
#956=IFCPROPERTYSINGLEVALUE('IsExternal',$,IFCBOOLEAN(.F.),$);
#957=IFCOPENINGELEMENT('0NzQDHDwPBsONLpQUmP0IT',$,'D-07 opening',$,$,#979,#973,$,$);
#958=IFCCARTESIANPOINTLIST2D(((14057.499999999998,3645.),(14942.5,3645.),(14942.5,3454.9999999999995),(14057.499999999998,3454.9999999999995),(14057.499999999998,3645.)));
#959=IFCINDEXEDPOLYCURVE(#958,$,$);
#960=IFCARBITRARYCLOSEDPROFILEDEF(.AREA.,'D-07 opening',#959);
#961=IFCCARTESIANPOINT((0.,0.,0.));
#962=IFCDIRECTION((0.,0.,1.));
#963=IFCDIRECTION((1.,0.,0.));
#964=IFCAXIS2PLACEMENT3D(#961,#962,#963);
#965=IFCDIRECTION((0.,0.,1.));
#966=IFCEXTRUDEDAREASOLID(#960,#964,#965,2050.);
#967=IFCSHAPEREPRESENTATION(#11,'Body','SweptSolid',(#966));
#973=IFCPRODUCTDEFINITIONSHAPE($,$,(#967));
#974=IFCRELVOIDSELEMENT('0sVNxIfJ11rA4zOKyAclCA',$,$,$,#409,#957);
#975=IFCCARTESIANPOINT((0.,0.,0.));
#976=IFCDIRECTION((0.,0.,1.));
#977=IFCDIRECTION((1.,0.,0.));
#978=IFCAXIS2PLACEMENT3D(#975,#976,#977);
#979=IFCLOCALPLACEMENT(#430,#978);
#980=IFCDOOR('0wCMGxTH58l8QufVOfL$Rx',$,'D-07',$,$,#1002,#996,$,2.0499999999999998,0.88500000000000001,.DOOR.,$,$);
#981=IFCCARTESIANPOINTLIST2D(((14057.499999999998,3587.5),(14942.5,3587.5),(14942.5,3512.4999999999995),(14057.499999999998,3512.4999999999995),(14057.499999999998,3587.5)));
#982=IFCINDEXEDPOLYCURVE(#981,$,$);
#983=IFCARBITRARYCLOSEDPROFILEDEF(.AREA.,'D-07',#982);
#984=IFCCARTESIANPOINT((0.,0.,0.));
#985=IFCDIRECTION((0.,0.,1.));
#986=IFCDIRECTION((1.,0.,0.));
#987=IFCAXIS2PLACEMENT3D(#984,#985,#986);
#988=IFCDIRECTION((0.,0.,1.));
#989=IFCEXTRUDEDAREASOLID(#983,#987,#988,2050.);
#990=IFCSHAPEREPRESENTATION(#11,'Body','SweptSolid',(#989));
#996=IFCPRODUCTDEFINITIONSHAPE($,$,(#990));
#997=IFCRELFILLSELEMENT('0VkDg0H9f2bg3k5jr8eBfj',$,$,$,#957,#980);
#998=IFCCARTESIANPOINT((0.,0.,0.));
#999=IFCDIRECTION((0.,0.,1.));
#1000=IFCDIRECTION((1.,0.,0.));
#1001=IFCAXIS2PLACEMENT3D(#998,#999,#1000);
#1002=IFCLOCALPLACEMENT(#979,#1001);
#1003=IFCPROPERTYSET('2Hyi7EbTT13ulrpo2TvkNb',$,'Pset_DoorCommon',$,(#1005));
#1004=IFCRELDEFINESBYPROPERTIES('1c8HgqyRXEcwio9sEea5Uy',$,$,$,(#980),#1003);
#1005=IFCPROPERTYSINGLEVALUE('IsExternal',$,IFCBOOLEAN(.F.),$);
#1006=IFCOPENINGELEMENT('3lGluAai99EuPUu6wmQ4r8',$,'F-01 opening',$,$,#1028,#1022,$,$);
#1007=IFCCARTESIANPOINTLIST2D(((3325.,319.99999999999994),(6075.,319.99999999999994),(6075.,-19.999999999999989),(3325.,-19.999999999999989),(3325.,319.99999999999994)));
#1008=IFCINDEXEDPOLYCURVE(#1007,$,$);
#1009=IFCARBITRARYCLOSEDPROFILEDEF(.AREA.,'F-01 opening',#1008);
#1010=IFCCARTESIANPOINT((0.,0.,0.));
#1011=IFCDIRECTION((0.,0.,1.));
#1012=IFCDIRECTION((1.,0.,0.));
#1013=IFCAXIS2PLACEMENT3D(#1010,#1011,#1012);
#1014=IFCDIRECTION((0.,0.,1.));
#1015=IFCEXTRUDEDAREASOLID(#1009,#1013,#1014,1399.9999999999998);
#1016=IFCSHAPEREPRESENTATION(#11,'Body','SweptSolid',(#1015));
#1022=IFCPRODUCTDEFINITIONSHAPE($,$,(#1016));
#1023=IFCRELVOIDSELEMENT('1ciq$2rZ57qPaKzfd6j_J$',$,$,$,#18,#1006);
#1024=IFCCARTESIANPOINT((0.,0.,900.));
#1025=IFCDIRECTION((0.,0.,1.));
#1026=IFCDIRECTION((1.,0.,0.));
#1027=IFCAXIS2PLACEMENT3D(#1024,#1025,#1026);
#1028=IFCLOCALPLACEMENT(#40,#1027);
#1029=IFCWINDOW('33EY_CDBrDGu$36rH572hX',$,'F-01',$,$,#1051,#1045,$,1.3999999999999999,2.75,$,$,$);
#1030=IFCCARTESIANPOINTLIST2D(((3325.,224.99999999999997),(6075.,224.99999999999997),(6075.,75.),(3325.,75.),(3325.,224.99999999999997)));
#1031=IFCINDEXEDPOLYCURVE(#1030,$,$);
#1032=IFCARBITRARYCLOSEDPROFILEDEF(.AREA.,'F-01',#1031);
#1033=IFCCARTESIANPOINT((0.,0.,0.));
#1034=IFCDIRECTION((0.,0.,1.));
#1035=IFCDIRECTION((1.,0.,0.));
#1036=IFCAXIS2PLACEMENT3D(#1033,#1034,#1035);
#1037=IFCDIRECTION((0.,0.,1.));
#1038=IFCEXTRUDEDAREASOLID(#1032,#1036,#1037,1399.9999999999998);
#1039=IFCSHAPEREPRESENTATION(#11,'Body','SweptSolid',(#1038));
#1045=IFCPRODUCTDEFINITIONSHAPE($,$,(#1039));
#1046=IFCRELFILLSELEMENT('0UYO8RyXXFGe$$1BIuCkip',$,$,$,#1006,#1029);
#1047=IFCCARTESIANPOINT((0.,0.,0.));
#1048=IFCDIRECTION((0.,0.,1.));
#1049=IFCDIRECTION((1.,0.,0.));
#1050=IFCAXIS2PLACEMENT3D(#1047,#1048,#1049);
#1051=IFCLOCALPLACEMENT(#1028,#1050);
#1052=IFCPROPERTYSET('3iekjWea9AXwLnC_A$IR_t',$,'Pset_WindowCommon',$,(#1054));
#1053=IFCRELDEFINESBYPROPERTIES('1diLoxQPT9OQJDFRAGBgjJ',$,$,$,(#1029),#1052);
#1054=IFCPROPERTYSINGLEVALUE('IsExternal',$,IFCBOOLEAN(.T.),$);
#1055=IFCOPENINGELEMENT('2ukzjrDtn1lxFuOrvq4aq8',$,'F-02 opening',$,$,#1077,#1071,$,$);
#1056=IFCCARTESIANPOINTLIST2D(((7399.9999999999982,8180.),(6199.9999999999991,8180.),(6199.9999999999991,8520.),(7399.9999999999982,8520.),(7399.9999999999982,8180.)));
#1057=IFCINDEXEDPOLYCURVE(#1056,$,$);
#1058=IFCARBITRARYCLOSEDPROFILEDEF(.AREA.,'F-02 opening',#1057);
#1059=IFCCARTESIANPOINT((0.,0.,0.));
#1060=IFCDIRECTION((0.,0.,1.));
#1061=IFCDIRECTION((1.,0.,0.));
#1062=IFCAXIS2PLACEMENT3D(#1059,#1060,#1061);
#1063=IFCDIRECTION((0.,0.,1.));
#1064=IFCEXTRUDEDAREASOLID(#1058,#1062,#1063,1399.9999999999998);
#1065=IFCSHAPEREPRESENTATION(#11,'Body','SweptSolid',(#1064));
#1071=IFCPRODUCTDEFINITIONSHAPE($,$,(#1065));
#1072=IFCRELVOIDSELEMENT('2yXyPiuULDegyqIkgoL3xQ',$,$,$,#71,#1055);
#1073=IFCCARTESIANPOINT((0.,0.,900.));
#1074=IFCDIRECTION((0.,0.,1.));
#1075=IFCDIRECTION((1.,0.,0.));
#1076=IFCAXIS2PLACEMENT3D(#1073,#1074,#1075);
#1077=IFCLOCALPLACEMENT(#92,#1076);
#1078=IFCWINDOW('094m8eX3f8phvJmw2tKunG',$,'F-02',$,$,#1100,#1094,$,1.3999999999999999,1.2,$,$,$);
#1079=IFCCARTESIANPOINTLIST2D(((7399.9999999999982,8275.),(6199.9999999999991,8275.),(6199.9999999999991,8424.9999999999982),(7399.9999999999982,8424.9999999999982),(7399.9999999999982,8275.)));
#1080=IFCINDEXEDPOLYCURVE(#1079,$,$);
#1081=IFCARBITRARYCLOSEDPROFILEDEF(.AREA.,'F-02',#1080);
#1082=IFCCARTESIANPOINT((0.,0.,0.));
#1083=IFCDIRECTION((0.,0.,1.));
#1084=IFCDIRECTION((1.,0.,0.));
#1085=IFCAXIS2PLACEMENT3D(#1082,#1083,#1084);
#1086=IFCDIRECTION((0.,0.,1.));
#1087=IFCEXTRUDEDAREASOLID(#1081,#1085,#1086,1399.9999999999998);
#1088=IFCSHAPEREPRESENTATION(#11,'Body','SweptSolid',(#1087));
#1094=IFCPRODUCTDEFINITIONSHAPE($,$,(#1088));
#1095=IFCRELFILLSELEMENT('3uMb1kUbj64BHHpZcjh_Hy',$,$,$,#1055,#1078);
#1096=IFCCARTESIANPOINT((0.,0.,0.));
#1097=IFCDIRECTION((0.,0.,1.));
#1098=IFCDIRECTION((1.,0.,0.));
#1099=IFCAXIS2PLACEMENT3D(#1096,#1097,#1098);
#1100=IFCLOCALPLACEMENT(#1077,#1099);
#1101=IFCPROPERTYSET('2HAkLpKETDEBGmfQa_yp5Q',$,'Pset_WindowCommon',$,(#1103));
#1102=IFCRELDEFINESBYPROPERTIES('181K6QkPf21fXWm4aJaq9j',$,$,$,(#1078),#1101);
#1103=IFCPROPERTYSINGLEVALUE('IsExternal',$,IFCBOOLEAN(.T.),$);
#1104=IFCOPENINGELEMENT('3DTGKiGDf2uhBceeUdXzNo',$,'F-03 opening',$,$,#1126,#1120,$,$);
#1105=IFCCARTESIANPOINTLIST2D(((3174.9999999999991,8180.),(1724.9999999999991,8180.),(1724.9999999999991,8520.),(3174.9999999999991,8520.),(3174.9999999999991,8180.)));
#1106=IFCINDEXEDPOLYCURVE(#1105,$,$);
#1107=IFCARBITRARYCLOSEDPROFILEDEF(.AREA.,'F-03 opening',#1106);
#1108=IFCCARTESIANPOINT((0.,0.,0.));
#1109=IFCDIRECTION((0.,0.,1.));
#1110=IFCDIRECTION((1.,0.,0.));
#1111=IFCAXIS2PLACEMENT3D(#1108,#1109,#1110);
#1112=IFCDIRECTION((0.,0.,1.));
#1113=IFCEXTRUDEDAREASOLID(#1107,#1111,#1112,1399.9999999999998);
#1114=IFCSHAPEREPRESENTATION(#11,'Body','SweptSolid',(#1113));
#1120=IFCPRODUCTDEFINITIONSHAPE($,$,(#1114));
#1121=IFCRELVOIDSELEMENT('1kD6poxLnF_eTOSKRqrWyR',$,$,$,#71,#1104);
#1122=IFCCARTESIANPOINT((0.,0.,900.));
#1123=IFCDIRECTION((0.,0.,1.));
#1124=IFCDIRECTION((1.,0.,0.));
#1125=IFCAXIS2PLACEMENT3D(#1122,#1123,#1124);
#1126=IFCLOCALPLACEMENT(#92,#1125);
#1127=IFCWINDOW('3fvoI1ywbFvvmzxHoSpY1q',$,'F-03',$,$,#1149,#1143,$,1.3999999999999999,1.45,$,$,$);
#1128=IFCCARTESIANPOINTLIST2D(((3174.9999999999991,8275.),(1724.9999999999991,8275.),(1724.9999999999991,8424.9999999999982),(3174.9999999999991,8424.9999999999982),(3174.9999999999991,8275.)));
#1129=IFCINDEXEDPOLYCURVE(#1128,$,$);
#1130=IFCARBITRARYCLOSEDPROFILEDEF(.AREA.,'F-03',#1129);
#1131=IFCCARTESIANPOINT((0.,0.,0.));
#1132=IFCDIRECTION((0.,0.,1.));
#1133=IFCDIRECTION((1.,0.,0.));
#1134=IFCAXIS2PLACEMENT3D(#1131,#1132,#1133);
#1135=IFCDIRECTION((0.,0.,1.));
#1136=IFCEXTRUDEDAREASOLID(#1130,#1134,#1135,1399.9999999999998);
#1137=IFCSHAPEREPRESENTATION(#11,'Body','SweptSolid',(#1136));
#1143=IFCPRODUCTDEFINITIONSHAPE($,$,(#1137));
#1144=IFCRELFILLSELEMENT('3RZ7QXJJH318UYIh2qsHgj',$,$,$,#1104,#1127);
#1145=IFCCARTESIANPOINT((0.,0.,0.));
#1146=IFCDIRECTION((0.,0.,1.));
#1147=IFCDIRECTION((1.,0.,0.));
#1148=IFCAXIS2PLACEMENT3D(#1145,#1146,#1147);
#1149=IFCLOCALPLACEMENT(#1126,#1148);
#1150=IFCPROPERTYSET('0INENcdr95KgdASQPvH0$0',$,'Pset_WindowCommon',$,(#1152));
#1151=IFCRELDEFINESBYPROPERTIES('1kIVLX1vXELhZ_NB8QW4ey',$,$,$,(#1127),#1150);
#1152=IFCPROPERTYSINGLEVALUE('IsExternal',$,IFCBOOLEAN(.T.),$);
#1153=IFCOPENINGELEMENT('1aRDp_kEbDxAMWk9QUXtzY',$,'F-04 opening',$,$,#1175,#1169,$,$);
#1154=IFCCARTESIANPOINTLIST2D(((11224.999999999998,8180.),(10074.999999999998,8180.),(10074.999999999998,8520.),(11224.999999999998,8520.),(11224.999999999998,8180.)));
#1155=IFCINDEXEDPOLYCURVE(#1154,$,$);
#1156=IFCARBITRARYCLOSEDPROFILEDEF(.AREA.,'F-04 opening',#1155);
#1157=IFCCARTESIANPOINT((0.,0.,0.));
#1158=IFCDIRECTION((0.,0.,1.));
#1159=IFCDIRECTION((1.,0.,0.));
#1160=IFCAXIS2PLACEMENT3D(#1157,#1158,#1159);
#1161=IFCDIRECTION((0.,0.,1.));
#1162=IFCEXTRUDEDAREASOLID(#1156,#1160,#1161,1399.9999999999998);
#1163=IFCSHAPEREPRESENTATION(#11,'Body','SweptSolid',(#1162));
#1169=IFCPRODUCTDEFINITIONSHAPE($,$,(#1163));
#1170=IFCRELVOIDSELEMENT('0CTye8A1X2vx4ZCvDy5qL5',$,$,$,#71,#1153);
#1171=IFCCARTESIANPOINT((0.,0.,900.));
#1172=IFCDIRECTION((0.,0.,1.));
#1173=IFCDIRECTION((1.,0.,0.));
#1174=IFCAXIS2PLACEMENT3D(#1171,#1172,#1173);
#1175=IFCLOCALPLACEMENT(#92,#1174);
#1176=IFCWINDOW('1Qz2dcD71BERVEdjUpBUJs',$,'F-04',$,$,#1198,#1192,$,1.3999999999999999,1.1499999999999999,$,$,$);
#1177=IFCCARTESIANPOINTLIST2D(((11224.999999999998,8275.),(10074.999999999998,8275.),(10074.999999999998,8424.9999999999982),(11224.999999999998,8424.9999999999982),(11224.999999999998,8275.)));
#1178=IFCINDEXEDPOLYCURVE(#1177,$,$);
#1179=IFCARBITRARYCLOSEDPROFILEDEF(.AREA.,'F-04',#1178);
#1180=IFCCARTESIANPOINT((0.,0.,0.));
#1181=IFCDIRECTION((0.,0.,1.));
#1182=IFCDIRECTION((1.,0.,0.));
#1183=IFCAXIS2PLACEMENT3D(#1180,#1181,#1182);
#1184=IFCDIRECTION((0.,0.,1.));
#1185=IFCEXTRUDEDAREASOLID(#1179,#1183,#1184,1399.9999999999998);
#1186=IFCSHAPEREPRESENTATION(#11,'Body','SweptSolid',(#1185));
#1192=IFCPRODUCTDEFINITIONSHAPE($,$,(#1186));
#1193=IFCRELFILLSELEMENT('10jYYV1ub2WfMGTiPSBrga',$,$,$,#1153,#1176);
#1194=IFCCARTESIANPOINT((0.,0.,0.));
#1195=IFCDIRECTION((0.,0.,1.));
#1196=IFCDIRECTION((1.,0.,0.));
#1197=IFCAXIS2PLACEMENT3D(#1194,#1195,#1196);
#1198=IFCLOCALPLACEMENT(#1175,#1197);
#1199=IFCPROPERTYSET('2qc1sY79DE_9VLR3_K0YSY',$,'Pset_WindowCommon',$,(#1201));
#1200=IFCRELDEFINESBYPROPERTIES('15jkBlFkfDo8NrfRJcREwV',$,$,$,(#1176),#1199);
#1201=IFCPROPERTYSINGLEVALUE('IsExternal',$,IFCBOOLEAN(.T.),$);
#1202=IFCOPENINGELEMENT('3Sy5897nz7BvlHtBzYG_si',$,'F-05 opening',$,$,#1224,#1218,$,$);
#1203=IFCCARTESIANPOINTLIST2D(((10600.000000000002,319.99999999999994),(11800.,319.99999999999994),(11800.,-19.999999999999989),(10600.000000000002,-19.999999999999989),(10600.000000000002,319.99999999999994)));
#1204=IFCINDEXEDPOLYCURVE(#1203,$,$);
#1205=IFCARBITRARYCLOSEDPROFILEDEF(.AREA.,'F-05 opening',#1204);
#1206=IFCCARTESIANPOINT((0.,0.,0.));
#1207=IFCDIRECTION((0.,0.,1.));
#1208=IFCDIRECTION((1.,0.,0.));
#1209=IFCAXIS2PLACEMENT3D(#1206,#1207,#1208);
#1210=IFCDIRECTION((0.,0.,1.));
#1211=IFCEXTRUDEDAREASOLID(#1205,#1209,#1210,1399.9999999999998);
#1212=IFCSHAPEREPRESENTATION(#11,'Body','SweptSolid',(#1211));
#1218=IFCPRODUCTDEFINITIONSHAPE($,$,(#1212));
#1219=IFCRELVOIDSELEMENT('2t12vUogn46etBYr4H3kHy',$,$,$,#18,#1202);
#1220=IFCCARTESIANPOINT((0.,0.,900.));
#1221=IFCDIRECTION((0.,0.,1.));
#1222=IFCDIRECTION((1.,0.,0.));
#1223=IFCAXIS2PLACEMENT3D(#1220,#1221,#1222);
#1224=IFCLOCALPLACEMENT(#40,#1223);
#1225=IFCWINDOW('0VLnlpfs9CLv2QJIDV0kSp',$,'F-05',$,$,#1247,#1241,$,1.3999999999999999,1.2,$,$,$);
#1226=IFCCARTESIANPOINTLIST2D(((10600.000000000002,224.99999999999997),(11800.,224.99999999999997),(11800.,75.),(10600.000000000002,75.),(10600.000000000002,224.99999999999997)));
#1227=IFCINDEXEDPOLYCURVE(#1226,$,$);
#1228=IFCARBITRARYCLOSEDPROFILEDEF(.AREA.,'F-05',#1227);
#1229=IFCCARTESIANPOINT((0.,0.,0.));
#1230=IFCDIRECTION((0.,0.,1.));
#1231=IFCDIRECTION((1.,0.,0.));
#1232=IFCAXIS2PLACEMENT3D(#1229,#1230,#1231);
#1233=IFCDIRECTION((0.,0.,1.));
#1234=IFCEXTRUDEDAREASOLID(#1228,#1232,#1233,1399.9999999999998);
#1235=IFCSHAPEREPRESENTATION(#11,'Body','SweptSolid',(#1234));
#1241=IFCPRODUCTDEFINITIONSHAPE($,$,(#1235));
#1242=IFCRELFILLSELEMENT('1fHR0vk6r3PgPZeWwh1v_L',$,$,$,#1202,#1225);
#1243=IFCCARTESIANPOINT((0.,0.,0.));
#1244=IFCDIRECTION((0.,0.,1.));
#1245=IFCDIRECTION((1.,0.,0.));
#1246=IFCAXIS2PLACEMENT3D(#1243,#1244,#1245);
#1247=IFCLOCALPLACEMENT(#1224,#1246);
#1248=IFCPROPERTYSET('2FQGVcxw52YwNG6$8eFx0y',$,'Pset_WindowCommon',$,(#1250));
#1249=IFCRELDEFINESBYPROPERTIES('174AEOmL57vBVMmvL$j3To',$,$,$,(#1225),#1248);
#1250=IFCPROPERTYSINGLEVALUE('IsExternal',$,IFCBOOLEAN(.T.),$);
#1251=IFCOPENINGELEMENT('2NA$ZfVz5BCvy_Xn$YSm68',$,'F-06 opening',$,$,#1273,#1267,$,$);
#1252=IFCCARTESIANPOINTLIST2D(((15680.,6100.),(15680.,7100.),(16020.,7100.),(16020.,6100.),(15680.,6100.)));
#1253=IFCINDEXEDPOLYCURVE(#1252,$,$);
#1254=IFCARBITRARYCLOSEDPROFILEDEF(.AREA.,'F-06 opening',#1253);
#1255=IFCCARTESIANPOINT((0.,0.,0.));
#1256=IFCDIRECTION((0.,0.,1.));
#1257=IFCDIRECTION((1.,0.,0.));
#1258=IFCAXIS2PLACEMENT3D(#1255,#1256,#1257);
#1259=IFCDIRECTION((0.,0.,1.));
#1260=IFCEXTRUDEDAREASOLID(#1254,#1258,#1259,1399.9999999999998);
#1261=IFCSHAPEREPRESENTATION(#11,'Body','SweptSolid',(#1260));
#1267=IFCPRODUCTDEFINITIONSHAPE($,$,(#1261));
#1268=IFCRELVOIDSELEMENT('1SYWgiY5HCPReMJBTNjQeu',$,$,$,#45,#1251);
#1269=IFCCARTESIANPOINT((0.,0.,900.));
#1270=IFCDIRECTION((0.,0.,1.));
#1271=IFCDIRECTION((1.,0.,0.));
#1272=IFCAXIS2PLACEMENT3D(#1269,#1270,#1271);
#1273=IFCLOCALPLACEMENT(#66,#1272);
#1274=IFCWINDOW('1m7_czPfHAKwhtK4_RLoAg',$,'F-06',$,$,#1296,#1290,$,1.3999999999999999,1.,$,$,$);
#1275=IFCCARTESIANPOINTLIST2D(((15775.,6100.),(15775.,7100.),(15924.999999999998,7100.),(15924.999999999998,6100.),(15775.,6100.)));
#1276=IFCINDEXEDPOLYCURVE(#1275,$,$);
#1277=IFCARBITRARYCLOSEDPROFILEDEF(.AREA.,'F-06',#1276);
#1278=IFCCARTESIANPOINT((0.,0.,0.));
#1279=IFCDIRECTION((0.,0.,1.));
#1280=IFCDIRECTION((1.,0.,0.));
#1281=IFCAXIS2PLACEMENT3D(#1278,#1279,#1280);
#1282=IFCDIRECTION((0.,0.,1.));
#1283=IFCEXTRUDEDAREASOLID(#1277,#1281,#1282,1399.9999999999998);
#1284=IFCSHAPEREPRESENTATION(#11,'Body','SweptSolid',(#1283));
#1290=IFCPRODUCTDEFINITIONSHAPE($,$,(#1284));
#1291=IFCRELFILLSELEMENT('0V7ZUwqUzECQ_71M2BpOgB',$,$,$,#1251,#1274);
#1292=IFCCARTESIANPOINT((0.,0.,0.));
#1293=IFCDIRECTION((0.,0.,1.));
#1294=IFCDIRECTION((1.,0.,0.));
#1295=IFCAXIS2PLACEMENT3D(#1292,#1293,#1294);
#1296=IFCLOCALPLACEMENT(#1273,#1295);
#1297=IFCPROPERTYSET('3_beVcesfC0Q1bv_L$YrXF',$,'Pset_WindowCommon',$,(#1299));
#1298=IFCRELDEFINESBYPROPERTIES('1eSWztVjj15wUH4GK200Od',$,$,$,(#1274),#1297);
#1299=IFCPROPERTYSINGLEVALUE('IsExternal',$,IFCBOOLEAN(.T.),$);
#1300=IFCPROPERTYSET('1caWJxdw10lurvkuGmX2J0',$,'Recognition_Detailing',$,(#1302,#1303,#1304,#1305));
#1301=IFCRELDEFINESBYPROPERTIES('0s9lTD32nEdfLoz95AiN_v',$,$,$,(#435),#1300);
#1302=IFCPROPERTYSINGLEVALUE('Tag',$,IFCLABEL('R-01'),$);
#1303=IFCPROPERTYSINGLEVALUE('ComplianceStatus',$,IFCLABEL('PASS'),$);
#1304=IFCPROPERTYSINGLEVALUE('Findings',$,IFCLABEL('-'),$);
#1305=IFCPROPERTYSINGLEVALUE('GeneratedBy',$,IFCLABEL('Recognition 0.1.0'),$);
#1306=IFCPROPERTYSET('0p5UakcgL5GwaLK6q1u5Ml',$,'Recognition_Detailing',$,(#1308,#1309,#1310,#1311));
#1307=IFCRELDEFINESBYPROPERTIES('3IzH8$MH5DxvxZjNr_thXP',$,$,$,(#458),#1306);
#1308=IFCPROPERTYSINGLEVALUE('Tag',$,IFCLABEL('R-06'),$);
#1309=IFCPROPERTYSINGLEVALUE('ComplianceStatus',$,IFCLABEL('PASS'),$);
#1310=IFCPROPERTYSINGLEVALUE('Findings',$,IFCLABEL('-'),$);
#1311=IFCPROPERTYSINGLEVALUE('GeneratedBy',$,IFCLABEL('Recognition 0.1.0'),$);
#1312=IFCPROPERTYSET('1hBRzbM2j4s8RPFGPPVWug',$,'Recognition_Detailing',$,(#1314,#1315,#1316,#1317));
#1313=IFCRELDEFINESBYPROPERTIES('3aqN8H5ozC1wojjCoCWlRE',$,$,$,(#480),#1312);
#1314=IFCPROPERTYSINGLEVALUE('Tag',$,IFCLABEL('R-05'),$);
#1315=IFCPROPERTYSINGLEVALUE('ComplianceStatus',$,IFCLABEL('PASS'),$);
#1316=IFCPROPERTYSINGLEVALUE('Findings',$,IFCLABEL('-'),$);
#1317=IFCPROPERTYSINGLEVALUE('GeneratedBy',$,IFCLABEL('Recognition 0.1.0'),$);
#1318=IFCPROPERTYSET('3ZeFDv7qf9XOWIV3cDF87Q',$,'Recognition_Detailing',$,(#1320,#1321,#1322,#1323));
#1319=IFCRELDEFINESBYPROPERTIES('3KM4I$xGnCh90in7kse5mu',$,$,$,(#502),#1318);
#1320=IFCPROPERTYSINGLEVALUE('Tag',$,IFCLABEL('R-07'),$);
#1321=IFCPROPERTYSINGLEVALUE('ComplianceStatus',$,IFCLABEL('PASS'),$);
#1322=IFCPROPERTYSINGLEVALUE('Findings',$,IFCLABEL('-'),$);
#1323=IFCPROPERTYSINGLEVALUE('GeneratedBy',$,IFCLABEL('Recognition 0.1.0'),$);
#1324=IFCPROPERTYSET('33U7ciT654$BLFe5x4dG$g',$,'Recognition_Detailing',$,(#1326,#1327,#1328,#1329));
#1325=IFCRELDEFINESBYPROPERTIES('1XzeANjmDAyh9r5IFxzOvE',$,$,$,(#524),#1324);
#1326=IFCPROPERTYSINGLEVALUE('Tag',$,IFCLABEL('R-02'),$);
#1327=IFCPROPERTYSINGLEVALUE('ComplianceStatus',$,IFCLABEL('PASS'),$);
#1328=IFCPROPERTYSINGLEVALUE('Findings',$,IFCLABEL('-'),$);
#1329=IFCPROPERTYSINGLEVALUE('GeneratedBy',$,IFCLABEL('Recognition 0.1.0'),$);
#1330=IFCPROPERTYSET('1Teuv9H0j7DxF3Qf$044J4',$,'Recognition_Detailing',$,(#1332,#1333,#1334,#1335));
#1331=IFCRELDEFINESBYPROPERTIES('1XyLzIEdXBOhFSP9NYbj0h',$,$,$,(#546),#1330);
#1332=IFCPROPERTYSINGLEVALUE('Tag',$,IFCLABEL('R-08'),$);
#1333=IFCPROPERTYSINGLEVALUE('ComplianceStatus',$,IFCLABEL('PASS'),$);
#1334=IFCPROPERTYSINGLEVALUE('Findings',$,IFCLABEL('-'),$);
#1335=IFCPROPERTYSINGLEVALUE('GeneratedBy',$,IFCLABEL('Recognition 0.1.0'),$);
#1336=IFCPROPERTYSET('0fEFcOP05EYxlNLlW70zcF',$,'Recognition_Detailing',$,(#1338,#1339,#1340,#1341));
#1337=IFCRELDEFINESBYPROPERTIES('3A_lZpyZb6XunxV4Cw7OX$',$,$,$,(#568),#1336);
#1338=IFCPROPERTYSINGLEVALUE('Tag',$,IFCLABEL('R-03'),$);
#1339=IFCPROPERTYSINGLEVALUE('ComplianceStatus',$,IFCLABEL('PASS'),$);
#1340=IFCPROPERTYSINGLEVALUE('Findings',$,IFCLABEL('-'),$);
#1341=IFCPROPERTYSINGLEVALUE('GeneratedBy',$,IFCLABEL('Recognition 0.1.0'),$);
#1342=IFCPROPERTYSET('0HViWyDhjA5BZL7BSS_bcH',$,'Recognition_Detailing',$,(#1344,#1345,#1346,#1347));
#1343=IFCRELDEFINESBYPROPERTIES('2EWWLX591ARRtWB_dqCG9$',$,$,$,(#590),#1342);
#1344=IFCPROPERTYSINGLEVALUE('Tag',$,IFCLABEL('R-04'),$);
#1345=IFCPROPERTYSINGLEVALUE('ComplianceStatus',$,IFCLABEL('PASS'),$);
#1346=IFCPROPERTYSINGLEVALUE('Findings',$,IFCLABEL('-'),$);
#1347=IFCPROPERTYSINGLEVALUE('GeneratedBy',$,IFCLABEL('Recognition 0.1.0'),$);
#1348=IFCPROPERTYSET('0KYn9OAaDE286tVItsm9tU',$,'Recognition_Detailing',$,(#1350,#1351,#1352,#1353));
#1349=IFCRELDEFINESBYPROPERTIES('3c8WCvc6T7uxtSU11mr3kl',$,$,$,(#635),#1348);
#1350=IFCPROPERTYSINGLEVALUE('Tag',$,IFCLABEL('D-01'),$);
#1351=IFCPROPERTYSINGLEVALUE('ComplianceStatus',$,IFCLABEL('PASS'),$);
#1352=IFCPROPERTYSINGLEVALUE('Findings',$,IFCLABEL('-'),$);
#1353=IFCPROPERTYSINGLEVALUE('GeneratedBy',$,IFCLABEL('Recognition 0.1.0'),$);
#1354=IFCPROPERTYSET('2Q4Q28lEL79uaRhepdWNMY',$,'Recognition_Detailing',$,(#1356,#1357,#1358,#1359));
#1355=IFCRELDEFINESBYPROPERTIES('3ylFg6SXb8ixhsmxEc6Zud',$,$,$,(#686),#1354);
#1356=IFCPROPERTYSINGLEVALUE('Tag',$,IFCLABEL('D-02'),$);
#1357=IFCPROPERTYSINGLEVALUE('ComplianceStatus',$,IFCLABEL('PASS'),$);
#1358=IFCPROPERTYSINGLEVALUE('Findings',$,IFCLABEL('-'),$);
#1359=IFCPROPERTYSINGLEVALUE('GeneratedBy',$,IFCLABEL('Recognition 0.1.0'),$);
#1360=IFCPROPERTYSET('2i9bhCCxb7i8j3PzdRTpBX',$,'Recognition_Detailing',$,(#1362,#1363,#1364,#1365));
#1361=IFCRELDEFINESBYPROPERTIES('1b6RVwuWz7Wg0paZyYS6_S',$,$,$,(#735),#1360);
#1362=IFCPROPERTYSINGLEVALUE('Tag',$,IFCLABEL('D-06'),$);
#1363=IFCPROPERTYSINGLEVALUE('ComplianceStatus',$,IFCLABEL('PASS'),$);
#1364=IFCPROPERTYSINGLEVALUE('Findings',$,IFCLABEL('-'),$);
#1365=IFCPROPERTYSINGLEVALUE('GeneratedBy',$,IFCLABEL('Recognition 0.1.0'),$);
#1366=IFCPROPERTYSET('2IY4uvtIr1IvN8ndEkKkfd',$,'Recognition_Detailing',$,(#1368,#1369,#1370,#1371));
#1367=IFCRELDEFINESBYPROPERTIES('3WlOgojVnCpAAltrrgiq5D',$,$,$,(#784),#1366);
#1368=IFCPROPERTYSINGLEVALUE('Tag',$,IFCLABEL('D-05'),$);
#1369=IFCPROPERTYSINGLEVALUE('ComplianceStatus',$,IFCLABEL('PASS'),$);
#1370=IFCPROPERTYSINGLEVALUE('Findings',$,IFCLABEL('-'),$);
#1371=IFCPROPERTYSINGLEVALUE('GeneratedBy',$,IFCLABEL('Recognition 0.1.0'),$);
#1372=IFCPROPERTYSET('3PVmpUCcHDK9r57jZ3f5ic',$,'Recognition_Detailing',$,(#1374,#1375,#1376,#1377));
#1373=IFCRELDEFINESBYPROPERTIES('1z85uj0SnFwur9DVjOw69r',$,$,$,(#833),#1372);
#1374=IFCPROPERTYSINGLEVALUE('Tag',$,IFCLABEL('D-07'),$);
#1375=IFCPROPERTYSINGLEVALUE('ComplianceStatus',$,IFCLABEL('PASS'),$);
#1376=IFCPROPERTYSINGLEVALUE('Findings',$,IFCLABEL('-'),$);
#1377=IFCPROPERTYSINGLEVALUE('GeneratedBy',$,IFCLABEL('Recognition 0.1.0'),$);
#1378=IFCPROPERTYSET('1S7skYXrT8DhAuijGRI8_y',$,'Recognition_Detailing',$,(#1380,#1381,#1382,#1383));
#1379=IFCRELDEFINESBYPROPERTIES('3vtpDJ0Oj3vRr63QFDo4uQ',$,$,$,(#882),#1378);
#1380=IFCPROPERTYSINGLEVALUE('Tag',$,IFCLABEL('D-03'),$);
#1381=IFCPROPERTYSINGLEVALUE('ComplianceStatus',$,IFCLABEL('PASS'),$);
#1382=IFCPROPERTYSINGLEVALUE('Findings',$,IFCLABEL('-'),$);
#1383=IFCPROPERTYSINGLEVALUE('GeneratedBy',$,IFCLABEL('Recognition 0.1.0'),$);
#1384=IFCPROPERTYSET('27Clj9TqP55Qq_bj5Jgp7L',$,'Recognition_Detailing',$,(#1386,#1387,#1388,#1389));
#1385=IFCRELDEFINESBYPROPERTIES('3esWHFzrXEHQUY2LdKpq7h',$,$,$,(#931),#1384);
#1386=IFCPROPERTYSINGLEVALUE('Tag',$,IFCLABEL('D-08'),$);
#1387=IFCPROPERTYSINGLEVALUE('ComplianceStatus',$,IFCLABEL('PASS'),$);
#1388=IFCPROPERTYSINGLEVALUE('Findings',$,IFCLABEL('-'),$);
#1389=IFCPROPERTYSINGLEVALUE('GeneratedBy',$,IFCLABEL('Recognition 0.1.0'),$);
#1390=IFCPROPERTYSET('2Umnd26uL9zeuOv5w$IWha',$,'Recognition_Detailing',$,(#1392,#1393,#1394,#1395));
#1391=IFCRELDEFINESBYPROPERTIES('1myHO7LkzFwRVF7x$yzLzx',$,$,$,(#980),#1390);
#1392=IFCPROPERTYSINGLEVALUE('Tag',$,IFCLABEL('D-04'),$);
#1393=IFCPROPERTYSINGLEVALUE('ComplianceStatus',$,IFCLABEL('PASS'),$);
#1394=IFCPROPERTYSINGLEVALUE('Findings',$,IFCLABEL('-'),$);
#1395=IFCPROPERTYSINGLEVALUE('GeneratedBy',$,IFCLABEL('Recognition 0.1.0'),$);
#1396=IFCPROPERTYSET('0_3u_6IpzE7g5oXIQvJ3Zh',$,'Recognition_Detailing',$,(#1398,#1399,#1400,#1401));
#1397=IFCRELDEFINESBYPROPERTIES('2Z_Mki3y9A7fCklMfEwE0U',$,$,$,(#1029),#1396);
#1398=IFCPROPERTYSINGLEVALUE('Tag',$,IFCLABEL('W-01'),$);
#1399=IFCPROPERTYSINGLEVALUE('ComplianceStatus',$,IFCLABEL('PASS'),$);
#1400=IFCPROPERTYSINGLEVALUE('Findings',$,IFCLABEL('-'),$);
#1401=IFCPROPERTYSINGLEVALUE('GeneratedBy',$,IFCLABEL('Recognition 0.1.0'),$);
#1402=IFCPROPERTYSET('0rACTXudPDZfEc_RmNN$sw',$,'Recognition_Detailing',$,(#1404,#1405,#1406,#1407));
#1403=IFCRELDEFINESBYPROPERTIES('22mwIl6q9A1QvmwYwp7Cxq',$,$,$,(#1078),#1402);
#1404=IFCPROPERTYSINGLEVALUE('Tag',$,IFCLABEL('W-05'),$);
#1405=IFCPROPERTYSINGLEVALUE('ComplianceStatus',$,IFCLABEL('PASS'),$);
#1406=IFCPROPERTYSINGLEVALUE('Findings',$,IFCLABEL('-'),$);
#1407=IFCPROPERTYSINGLEVALUE('GeneratedBy',$,IFCLABEL('Recognition 0.1.0'),$);
#1408=IFCPROPERTYSET('0Tr9HGgTD6m8HTBwmE5vMJ',$,'Recognition_Detailing',$,(#1410,#1411,#1412,#1413));
#1409=IFCRELDEFINESBYPROPERTIES('1bEOopyfjEauzBkzAyI6Kv',$,$,$,(#1127),#1408);
#1410=IFCPROPERTYSINGLEVALUE('Tag',$,IFCLABEL('W-04'),$);
#1411=IFCPROPERTYSINGLEVALUE('ComplianceStatus',$,IFCLABEL('PASS'),$);
#1412=IFCPROPERTYSINGLEVALUE('Findings',$,IFCLABEL('-'),$);
#1413=IFCPROPERTYSINGLEVALUE('GeneratedBy',$,IFCLABEL('Recognition 0.1.0'),$);
#1414=IFCPROPERTYSET('0q2bbBCjDFkBwjHCEaSyZc',$,'Recognition_Detailing',$,(#1416,#1417,#1418,#1419));
#1415=IFCRELDEFINESBYPROPERTIES('3EJlFdjbXFMu5j_f84wxlY',$,$,$,(#1176),#1414);
#1416=IFCPROPERTYSINGLEVALUE('Tag',$,IFCLABEL('W-06'),$);
#1417=IFCPROPERTYSINGLEVALUE('ComplianceStatus',$,IFCLABEL('PASS'),$);
#1418=IFCPROPERTYSINGLEVALUE('Findings',$,IFCLABEL('-'),$);
#1419=IFCPROPERTYSINGLEVALUE('GeneratedBy',$,IFCLABEL('Recognition 0.1.0'),$);
#1420=IFCPROPERTYSET('1YIbcCYPj8BhIOsbOHsq5d',$,'Recognition_Detailing',$,(#1422,#1423,#1424,#1425));
#1421=IFCRELDEFINESBYPROPERTIES('1HT55VW5v4rwLNRULohnS8',$,$,$,(#1225),#1420);
#1422=IFCPROPERTYSINGLEVALUE('Tag',$,IFCLABEL('W-02'),$);
#1423=IFCPROPERTYSINGLEVALUE('ComplianceStatus',$,IFCLABEL('PASS'),$);
#1424=IFCPROPERTYSINGLEVALUE('Findings',$,IFCLABEL('-'),$);
#1425=IFCPROPERTYSINGLEVALUE('GeneratedBy',$,IFCLABEL('Recognition 0.1.0'),$);
#1426=IFCPROPERTYSET('0Qd_csvUr42AYiaDmjpWBw',$,'Recognition_Detailing',$,(#1428,#1429,#1430,#1431));
#1427=IFCRELDEFINESBYPROPERTIES('1oDXJXS$zF5e3I6o60zx_4',$,$,$,(#1274),#1426);
#1428=IFCPROPERTYSINGLEVALUE('Tag',$,IFCLABEL('W-03'),$);
#1429=IFCPROPERTYSINGLEVALUE('ComplianceStatus',$,IFCLABEL('PASS'),$);
#1430=IFCPROPERTYSINGLEVALUE('Findings',$,IFCLABEL('-'),$);
#1431=IFCPROPERTYSINGLEVALUE('GeneratedBy',$,IFCLABEL('Recognition 0.1.0'),$);
ENDSEC;
END-ISO-10303-21;
