<?xml version="1.0" encoding="utf-8" ?>
<svg baseProfile="full" height="297.0mm" version="1.1" viewBox="0 0 420.0 297.0" width="420.0mm" xmlns="http://www.w3.org/2000/svg" xmlns:ev="http://www.w3.org/2001/xml-events" xmlns:xlink="http://www.w3.org/1999/xlink"><defs /><rect fill="white" height="297.0" width="420.0" x="0" y="0" /><path d="M 162.500,98.000 L 211.500,98.000 L 211.500,162.000 L 162.500,162.000 L 162.500,98.000 Z" fill="#eef3fb" fill-rule="evenodd" stroke="#9fb3d9" stroke-width="0.15" /><path d="M 162.500,68.000 L 211.500,68.000 L 211.500,96.000 L 162.500,96.000 L 162.500,68.000 Z" fill="#eef3fb" fill-rule="evenodd" stroke="#9fb3d9" stroke-width="0.15" /><path d="M 213.500,116.000 L 249.500,116.000 L 249.500,162.000 L 213.500,162.000 L 213.500,116.000 Z" fill="#eef3fb" fill-rule="evenodd" stroke="#9fb3d9" stroke-width="0.15" /><path d="M 250.500,116.000 L 286.500,116.000 L 286.500,162.000 L 250.500,162.000 L 250.500,116.000 Z" fill="#eef3fb" fill-rule="evenodd" stroke="#9fb3d9" stroke-width="0.15" /><path d="M 213.500,68.000 L 233.500,68.000 L 233.500,114.000 L 213.500,114.000 L 213.500,68.000 Z" fill="#eef3fb" fill-rule="evenodd" stroke="#9fb3d9" stroke-width="0.15" /><path d="M 234.500,68.000 L 286.500,68.000 L 286.500,114.000 L 234.500,114.000 L 234.500,68.000 Z" fill="#eef3fb" fill-rule="evenodd" stroke="#9fb3d9" stroke-width="0.15" /><path d="M 159.500,162.000 L 220.000,162.000 L 229.000,162.000 L 230.000,162.000 L 246.000,162.000 L 289.500,162.000 L 289.500,165.000 L 246.000,165.000 L 230.000,165.000 L 229.000,165.000 L 220.000,165.000 L 159.500,165.000 L 159.500,162.000 Z" fill="#2b2b2b" fill-rule="evenodd" stroke="none" /><path d="M 289.500,147.750 L 289.500,165.000 L 286.500,165.000 L 286.500,147.750 L 286.500,131.250 L 286.500,65.000 L 289.500,65.000 L 289.500,131.250 L 289.500,147.750 Z" fill="#2b2b2b" fill-rule="evenodd" stroke="none" /><path d="M 194.000,65.000 L 289.500,65.000 L 289.500,68.000 L 194.000,68.000 L 180.000,68.000 L 159.500,68.000 L 159.500,65.000 L 180.000,65.000 L 194.000,65.000 Z" fill="#2b2b2b" fill-rule="evenodd" stroke="none" /><path d="M 162.500,115.250 L 162.500,145.750 L 162.500,165.000 L 159.500,165.000 L 159.500,145.750 L 159.500,115.250 L 159.500,65.000 L 162.500,65.000 L 162.500,115.250 L 162.500,115.250 Z" fill="#2b2b2b" fill-rule="evenodd" stroke="none" /><path d="M 160.250,96.250 L 182.500,96.250 L 190.500,96.250 L 213.250,96.250 L 213.250,97.750 L 190.500,97.750 L 182.500,97.750 L 160.250,97.750 L 160.250,96.250 Z" fill="#2b2b2b" fill-rule="evenodd" stroke="none" /><path d="M 211.750,135.500 L 211.750,114.250 L 213.250,114.250 L 213.250,135.500 L 213.250,143.500 L 213.250,164.250 L 211.750,164.250 L 211.750,143.500 L 211.750,135.500 Z" fill="#2b2b2b" fill-rule="evenodd" stroke="none" /><path d="M 211.750,102.000 L 211.750,96.250 L 213.250,96.250 L 213.250,102.000 L 213.250,110.000 L 213.250,115.750 L 211.750,115.750 L 211.750,110.000 L 211.750,102.000 Z" fill="#2b2b2b" fill-rule="evenodd" stroke="none" /><path d="M 213.250,97.750 L 211.750,97.750 L 211.750,65.750 L 213.250,65.750 L 213.250,97.750 Z" fill="#2b2b2b" fill-rule="evenodd" stroke="none" /><path d="M 249.250,135.500 L 249.250,114.250 L 250.750,114.250 L 250.750,135.500 L 250.750,143.500 L 250.750,164.250 L 249.250,164.250 L 249.250,143.500 L 249.250,135.500 Z" fill="#2b2b2b" fill-rule="evenodd" stroke="none" /><path d="M 234.750,115.750 L 211.750,115.750 L 211.750,114.250 L 234.750,114.250 L 234.750,115.750 Z" fill="#2b2b2b" fill-rule="evenodd" stroke="none" /><path d="M 250.750,115.750 L 233.250,115.750 L 233.250,114.250 L 250.750,114.250 L 250.750,115.750 Z" fill="#2b2b2b" fill-rule="evenodd" stroke="none" /><path d="M 288.750,115.750 L 249.250,115.750 L 249.250,114.250 L 288.750,114.250 L 288.750,115.750 Z" fill="#2b2b2b" fill-rule="evenodd" stroke="none" /><path d="M 233.250,87.000 L 233.250,65.750 L 234.750,65.750 L 234.750,87.000 L 234.750,95.000 L 234.750,115.750 L 233.250,115.750 L 233.250,95.000 L 233.250,87.000 Z" fill="#2b2b2b" fill-rule="evenodd" stroke="none" /><path d="M 229.000,164.250 L 220.000,164.250 L 220.000,162.750 L 229.000,162.750 L 229.000,164.250 Z" fill="white" fill-rule="evenodd" stroke="none" /><path d="M 190.500,97.375 L 182.500,97.375 L 182.500,96.625 L 190.500,96.625 L 190.500,97.375 Z" fill="white" fill-rule="evenodd" stroke="none" /><path d="M 212.875,143.500 L 212.125,143.500 L 212.125,135.500 L 212.875,135.500 L 212.875,143.500 Z" fill="white" fill-rule="evenodd" stroke="none" /><path d="M 250.375,143.500 L 249.625,143.500 L 249.625,135.500 L 250.375,135.500 L 250.375,143.500 Z" fill="white" fill-rule="evenodd" stroke="none" /><path d="M 212.875,110.000 L 212.125,110.000 L 212.125,102.000 L 212.875,102.000 L 212.875,110.000 Z" fill="white" fill-rule="evenodd" stroke="none" /><path d="M 234.375,95.000 L 233.625,95.000 L 233.625,87.000 L 234.375,87.000 L 234.375,95.000 Z" fill="white" fill-rule="evenodd" stroke="none" /><path d="M 161.750,145.750 L 160.250,145.750 L 160.250,115.250 L 161.750,115.250 L 161.750,145.750 Z" fill="white" fill-rule="evenodd" stroke="none" /><path d="M 180.000,65.750 L 194.000,65.750 L 194.000,67.250 L 180.000,67.250 L 180.000,65.750 Z" fill="white" fill-rule="evenodd" stroke="none" /><path d="M 246.000,164.250 L 230.000,164.250 L 230.000,162.750 L 246.000,162.750 L 246.000,164.250 Z" fill="white" fill-rule="evenodd" stroke="none" /><path d="M 288.750,147.750 L 287.250,147.750 L 287.250,131.250 L 288.750,131.250 L 288.750,147.750 Z" fill="white" fill-rule="evenodd" stroke="none" /><line stroke="#2a7fff" stroke-width="0.35" x1="160.625" x2="160.625" y1="115.25000000000001" y2="145.75" /><line stroke="#2a7fff" stroke-width="0.35" x1="161.375" x2="161.375" y1="115.25000000000001" y2="145.75" /><text fill="#2a7fff" font-family="Helvetica, Arial, sans-serif" font-size="1.8" text-anchor="end" x="159.0" y="131.2">W-03</text><line stroke="#2a7fff" stroke-width="0.35" x1="180.0" x2="194.0" y1="66.875" y2="66.875" /><line stroke="#2a7fff" stroke-width="0.35" x1="180.0" x2="194.0" y1="66.125" y2="66.125" /><text fill="#2a7fff" font-family="Helvetica, Arial, sans-serif" font-size="1.8" text-anchor="middle" x="187.0" y="64.9">W-04</text><line stroke="#2a7fff" stroke-width="0.35" x1="230.0" x2="246.0" y1="163.875" y2="163.875" /><line stroke="#2a7fff" stroke-width="0.35" x1="230.0" x2="246.0" y1="163.125" y2="163.125" /><text fill="#2a7fff" font-family="Helvetica, Arial, sans-serif" font-size="1.8" text-anchor="middle" x="238.0" y="166.1">W-01</text><line stroke="#2a7fff" stroke-width="0.35" x1="288.375" x2="288.375" y1="147.75" y2="131.25" /><line stroke="#2a7fff" stroke-width="0.35" x1="287.625" x2="287.625" y1="147.75" y2="131.25" /><text fill="#2a7fff" font-family="Helvetica, Arial, sans-serif" font-size="1.8" text-anchor="start" x="290.0" y="140.2">W-02</text><line stroke="#b5651d" stroke-width="0.4" x1="220.0" x2="220.0" y1="163.5" y2="154.5" /><polyline fill="none" points="229.0,163.5 228.9230037523643,162.32526427001955 228.69333243660162,161.1706285940773 228.3149157926016,160.0558491087142 227.79422863405995,159.0 227.1401800626211,158.02114713892152 226.36396103067892,157.13603896932108 225.47885286107848,156.3598199373789 224.5,155.70577136594005 223.4441508912858,155.18508420739843 222.3293714059227,154.80666756339838 221.17473572998045,154.57699624763572 220.0,154.5" stroke="#b5651d" stroke-dasharray="0.8,0.5" stroke-width="0.2" /><text fill="#b5651d" font-family="Helvetica, Arial, sans-serif" font-size="1.8" text-anchor="middle" x="220.0" y="153.7">D-01</text><line stroke="#b5651d" stroke-width="0.4" x1="182.5" x2="182.5" y1="97.0" y2="89.0" /><polyline fill="none" points="190.5,97.0 190.4315588909905,95.95579046223959 190.22740661031256,94.92944763917984 189.8910362600903,93.93853254107928 189.42820323027553,93.0 188.8468267223299,92.12990856793024 188.15685424949237,91.34314575050763 187.37009143206976,90.65317327767012 186.5,90.0717967697245 185.56146745892073,89.60896373990971 184.57055236082016,89.27259338968746 183.54420953776042,89.06844110900951 182.5,89.0" stroke="#b5651d" stroke-dasharray="0.8,0.5" stroke-width="0.2" /><text fill="#b5651d" font-family="Helvetica, Arial, sans-serif" font-size="1.8" text-anchor="middle" x="182.5" y="88.2">D-05</text><line stroke="#b5651d" stroke-width="0.4" x1="212.5" x2="204.5" y1="143.5" y2="143.5" /><polyline fill="none" points="212.5,135.5 211.45579046223958,135.5684411090095 210.42944763917984,135.77259338968744 209.43853254107927,136.1089637399097 208.5,136.5717967697245 207.62990856793022,137.15317327767013 206.84314575050763,137.84314575050763 206.15317327767013,138.62990856793022 205.5717967697245,139.5 205.1089637399097,140.43853254107927 204.77259338968747,141.42944763917984 204.5684411090095,142.45579046223958 204.5,143.5" stroke="#b5651d" stroke-dasharray="0.8,0.5" stroke-width="0.2" /><text fill="#b5651d" font-family="Helvetica, Arial, sans-serif" font-size="1.8" text-anchor="middle" x="204.5" y="142.7">D-02</text><line stroke="#b5651d" stroke-width="0.4" x1="250.0" x2="242.0" y1="143.5" y2="143.5" /><polyline fill="none" points="250.0,135.5 248.9557904622396,135.5684411090095 247.92944763917984,135.77259338968744 246.9385325410793,136.1089637399097 246.0,136.5717967697245 245.12990856793024,137.15317327767013 244.34314575050763,137.84314575050763 243.65317327767013,138.62990856793022 243.0717967697245,139.5 242.6089637399097,140.43853254107927 242.27259338968747,141.42944763917984 242.0684411090095,142.45579046223958 242.0,143.5" stroke="#b5651d" stroke-dasharray="0.8,0.5" stroke-width="0.2" /><text fill="#b5651d" font-family="Helvetica, Arial, sans-serif" font-size="1.8" text-anchor="middle" x="242.0" y="142.7">D-03</text><line stroke="#b5651d" stroke-width="0.4" x1="212.5" x2="220.5" y1="102.0" y2="102.0" /><polyline fill="none" points="212.5,110.0 213.54420953776042,109.93155889099047 214.57055236082016,109.72740661031253 215.56146745892073,109.39103626009029 216.5,108.9282032302755 217.37009143206976,108.34682672232987 218.15685424949237,107.65685424949237 218.84682672232987,106.87009143206976 219.4282032302755,106.0 219.8910362600903,105.0614674589207 220.22740661031253,104.07055236082016 220.4315588909905,103.04420953776041 220.5,102.0" stroke="#b5651d" stroke-dasharray="0.8,0.5" stroke-width="0.2" /><text fill="#b5651d" font-family="Helvetica, Arial, sans-serif" font-size="1.8" text-anchor="middle" x="220.5" y="101.2">D-04</text><line stroke="#b5651d" stroke-width="0.4" x1="234.0" x2="242.0" y1="87.0" y2="87.0" /><polyline fill="none" points="234.0,94.99999999999999 235.04420953776042,94.93155889099047 236.07055236082016,94.72740661031254 237.06146745892073,94.39103626009029 238.0,93.9282032302755 238.87009143206978,93.34682672232988 239.65685424949237,92.65685424949237 240.34682672232987,91.87009143206976 240.92820323027553,91.0 241.3910362600903,90.0614674589207 241.72740661031253,89.07055236082016 241.9315588909905,88.04420953776041 242.0,87.0" stroke="#b5651d" stroke-dasharray="0.8,0.5" stroke-width="0.2" /><text fill="#b5651d" font-family="Helvetica, Arial, sans-serif" font-size="1.8" text-anchor="middle" x="242.0" y="86.2">D-06</text><text fill="#111111" font-family="Helvetica, Arial, sans-serif" font-size="2.6" font-weight="bold" text-anchor="middle" x="187.0" y="129.0">R-03  Wohnen</text><text fill="#111111" font-family="Helvetica, Arial, sans-serif" font-size="2.2" text-anchor="middle" x="187.0" y="132.2">31.4 m²</text><text fill="#111111" font-family="Helvetica, Arial, sans-serif" font-size="2.6" font-weight="bold" text-anchor="middle" x="187.0" y="81.00000000000001">R-06  Küche</text><text fill="#111111" font-family="Helvetica, Arial, sans-serif" font-size="2.2" text-anchor="middle" x="187.0" y="84.20000000000002">13.7 m²</text><text fill="#111111" font-family="Helvetica, Arial, sans-serif" font-size="2.6" font-weight="bold" text-anchor="middle" x="231.5" y="138.0">R-01  Schlafzimmer 1</text><text fill="#111111" font-family="Helvetica, Arial, sans-serif" font-size="2.2" text-anchor="middle" x="231.5" y="141.2">16.6 m²</text><text fill="#111111" font-family="Helvetica, Arial, sans-serif" font-size="2.6" font-weight="bold" text-anchor="middle" x="268.5" y="138.0">R-02  Schlafzimmer 2</text><text fill="#111111" font-family="Helvetica, Arial, sans-serif" font-size="2.2" text-anchor="middle" x="268.5" y="141.2">16.6 m²</text><text fill="#111111" font-family="Helvetica, Arial, sans-serif" font-size="2.6" font-weight="bold" text-anchor="middle" x="223.5" y="90.00000000000001">R-04  Bad</text><text fill="#111111" font-family="Helvetica, Arial, sans-serif" font-size="2.2" text-anchor="middle" x="223.5" y="93.20000000000002">9.2 m²</text><text fill="#111111" font-family="Helvetica, Arial, sans-serif" font-size="2.6" font-weight="bold" text-anchor="middle" x="260.5" y="90.00000000000001">R-05  Flur</text><text fill="#111111" font-family="Helvetica, Arial, sans-serif" font-size="2.2" text-anchor="middle" x="260.5" y="93.20000000000002">23.9 m²</text><line stroke="#555555" stroke-width="0.18" x1="159.5" x2="289.5" y1="177.0" y2="177.0" /><line stroke="#555555" stroke-width="0.25" x1="159.0" x2="160.0" y1="177.5" y2="176.5" /><line stroke="#555555" stroke-width="0.25" x1="179.5" x2="180.5" y1="177.5" y2="176.5" /><line stroke="#555555" stroke-width="0.25" x1="193.5" x2="194.5" y1="177.5" y2="176.5" /><line stroke="#555555" stroke-width="0.25" x1="219.5" x2="220.5" y1="177.5" y2="176.5" /><line stroke="#555555" stroke-width="0.25" x1="228.5" x2="229.5" y1="177.5" y2="176.5" /><line stroke="#555555" stroke-width="0.25" x1="229.5" x2="230.5" y1="177.5" y2="176.5" /><line stroke="#555555" stroke-width="0.25" x1="245.5" x2="246.5" y1="177.5" y2="176.5" /><line stroke="#555555" stroke-width="0.25" x1="289.0" x2="290.0" y1="177.5" y2="176.5" /><text fill="#555555" font-family="Helvetica, Arial, sans-serif" font-size="1.9" text-anchor="middle" x="169.75" y="176.2">2 050</text><text fill="#555555" font-family="Helvetica, Arial, sans-serif" font-size="1.9" text-anchor="middle" x="187.0" y="176.2">1 400</text><text fill="#555555" font-family="Helvetica, Arial, sans-serif" font-size="1.9" text-anchor="middle" x="207.0" y="176.2">2 600</text><text fill="#555555" font-family="Helvetica, Arial, sans-serif" font-size="1.9" text-anchor="middle" x="224.5" y="176.2">900</text><text fill="#555555" font-family="Helvetica, Arial, sans-serif" font-size="1.9" text-anchor="middle" x="229.5" y="176.2">100</text><text fill="#555555" font-family="Helvetica, Arial, sans-serif" font-size="1.9" text-anchor="middle" x="238.0" y="176.2">1 600</text><text fill="#555555" font-family="Helvetica, Arial, sans-serif" font-size="1.9" text-anchor="middle" x="267.75" y="176.2">4 350</text><line stroke="#555555" stroke-width="0.18" x1="159.5" x2="289.5" y1="189.0" y2="189.0" /><line stroke="#555555" stroke-width="0.25" x1="159.0" x2="160.0" y1="189.5" y2="188.5" /><line stroke="#555555" stroke-width="0.25" x1="289.0" x2="290.0" y1="189.5" y2="188.5" /><text fill="#555555" font-family="Helvetica, Arial, sans-serif" font-size="1.9" text-anchor="middle" x="224.5" y="188.2">13 000</text><line stroke="#555555" stroke-width="0.18" x1="147.5" x2="147.5" y1="165.0" y2="65.0" /><line stroke="#555555" stroke-width="0.25" x1="147.0" x2="148.0" y1="165.5" y2="164.5" /><line stroke="#555555" stroke-width="0.25" x1="147.0" x2="148.0" y1="148.3" y2="147.3" /><line stroke="#555555" stroke-width="0.25" x1="147.0" x2="148.0" y1="146.3" y2="145.3" /><line stroke="#555555" stroke-width="0.25" x1="147.0" x2="148.0" y1="131.7" y2="130.7" /><line stroke="#555555" stroke-width="0.25" x1="147.0" x2="148.0" y1="115.80000000000001" y2="114.80000000000001" /><line stroke="#555555" stroke-width="0.25" x1="147.0" x2="148.0" y1="65.5" y2="64.5" /><text fill="#555555" font-family="Helvetica, Arial, sans-serif" font-size="1.9" text-anchor="middle" transform="rotate(-90,146.7,156.4)" x="146.7" y="156.4">1 720</text><text fill="#555555" font-family="Helvetica, Arial, sans-serif" font-size="1.9" text-anchor="middle" transform="rotate(-90,146.7,146.8)" x="146.7" y="146.8">200</text><text fill="#555555" font-family="Helvetica, Arial, sans-serif" font-size="1.9" text-anchor="middle" transform="rotate(-90,146.7,138.5)" x="146.7" y="138.5">1 460</text><text fill="#555555" font-family="Helvetica, Arial, sans-serif" font-size="1.9" text-anchor="middle" transform="rotate(-90,146.7,123.25)" x="146.7" y="123.25">1 590</text><text fill="#555555" font-family="Helvetica, Arial, sans-serif" font-size="1.9" text-anchor="middle" transform="rotate(-90,146.7,90.15)" x="146.7" y="90.15">5 030</text><line stroke="#555555" stroke-width="0.18" x1="135.5" x2="135.5" y1="165.0" y2="65.0" /><line stroke="#555555" stroke-width="0.25" x1="135.0" x2="136.0" y1="165.5" y2="164.5" /><line stroke="#555555" stroke-width="0.25" x1="135.0" x2="136.0" y1="65.5" y2="64.5" /><text fill="#555555" font-family="Helvetica, Arial, sans-serif" font-size="1.9" text-anchor="middle" transform="rotate(-90,134.7,115.0)" x="134.7" y="115.0">10 000</text><polygon fill="#000" points="398.0,16.0 395.0,26.0 398.0,24.0 401.0,26.0" /><text font-family="Helvetica, Arial, sans-serif" font-size="3" font-weight="bold" text-anchor="middle" x="398.0" y="14.5">N</text><rect fill="#000" height="1.2" stroke="#000" stroke-width="0.2" width="10.0" x="15.0" y="243.0" /><text font-family="Helvetica, Arial, sans-serif" font-size="1.8" text-anchor="middle" x="15.0" y="242.2">0</text><rect fill="#fff" height="1.2" stroke="#000" stroke-width="0.2" width="10.0" x="25.0" y="243.0" /><text font-family="Helvetica, Arial, sans-serif" font-size="1.8" text-anchor="middle" x="25.0" y="242.2">1</text><rect fill="#000" height="1.2" stroke="#000" stroke-width="0.2" width="10.0" x="35.0" y="243.0" /><text font-family="Helvetica, Arial, sans-serif" font-size="1.8" text-anchor="middle" x="35.0" y="242.2">2</text><rect fill="#fff" height="1.2" stroke="#000" stroke-width="0.2" width="10.0" x="45.0" y="243.0" /><text font-family="Helvetica, Arial, sans-serif" font-size="1.8" text-anchor="middle" x="45.0" y="242.2">3</text><rect fill="#000" height="1.2" stroke="#000" stroke-width="0.2" width="10.0" x="55.0" y="243.0" /><text font-family="Helvetica, Arial, sans-serif" font-size="1.8" text-anchor="middle" x="55.0" y="242.2">4</text><text font-family="Helvetica, Arial, sans-serif" font-size="1.8" text-anchor="middle" x="65.0" y="242.2">5 m</text><rect fill="white" height="38.0" stroke="#000" stroke-width="0.5" width="150" x="260.0" y="249.0" /><line stroke="#000" stroke-width="0.3" x1="260.0" x2="410.0" y1="261.0" y2="261.0" /><line stroke="#000" stroke-width="0.3" x1="355.0" x2="355.0" y1="261.0" y2="287.0" /><text font-family="Helvetica, Arial, sans-serif" font-size="5" font-weight="bold" x="263.0" y="257.0">Dreifamilienhaus rev 2</text><text font-family="Helvetica, Arial, sans-serif" font-size="4" x="263.0" y="269.0">FLOOR PLAN — ERDGESCHOSS</text><text fill="#444" font-family="Helvetica, Arial, sans-serif" font-size="2.4" x="263.0" y="276.0">Model: model.ifc</text><text fill="#666" font-family="Helvetica, Arial, sans-serif" font-size="2.2" x="263.0" y="282.0">Generated by Recognition — do not edit by hand; change the generator.</text><text fill="#666" font-family="Helvetica, Arial, sans-serif" font-size="2.2" x="358.0" y="265.0">SHEET</text><text font-family="Helvetica, Arial, sans-serif" font-size="6" font-weight="bold" x="358.0" y="273.0">A-101</text><text font-family="Helvetica, Arial, sans-serif" font-size="2.4" x="358.0" y="279.0">SCALE 1:100  ·  A3</text><text font-family="Helvetica, Arial, sans-serif" font-size="2.4" x="358.0" y="284.0">2026-08-22  ·  REV 9aaf78c</text><rect fill="none" height="277.0" stroke="#000" stroke-width="0.5" width="400.0" x="10.0" y="10.0" /></svg>