ISO-10303-21;
HEADER;
FILE_DESCRIPTION(('ViewDefinition[DesignTransferView]'),'2;1');
FILE_NAME('/dev/null','2026-08-22T19:18:00+00:00',(''),(''),'IfcOpenShell 0.8.5','IfcOpenShell 0.8.5','Nobody');
FILE_SCHEMA(('IFC4'));
ENDSEC;
DATA;
#1=IFCPROJECT('2ArR$Bd2L7pQD9w60NmEZJ',$,'Familienhaus',$,$,$,$,(#10),#5);
#2=IFCSIUNIT(*,.LENGTHUNIT.,.MILLI.,.METRE.);
#3=IFCSIUNIT(*,.AREAUNIT.,$,.SQUARE_METRE.);
#4=IFCSIUNIT(*,.VOLUMEUNIT.,$,.CUBIC_METRE.);
#5=IFCUNITASSIGNMENT((#4,#2,#3));
#6=IFCCARTESIANPOINT((0.,0.,0.));
#7=IFCDIRECTION((0.,0.,1.));
#8=IFCDIRECTION((1.,0.,0.));
#9=IFCAXIS2PLACEMENT3D(#6,#7,#8);
#10=IFCGEOMETRICREPRESENTATIONCONTEXT($,'Model',3,1.0000000000000001E-05,#9,$);
#11=IFCGEOMETRICREPRESENTATIONSUBCONTEXT('Body','Model',*,*,*,*,#10,$,.MODEL_VIEW.,$);
#12=IFCSITE('10YkBGP4LFXO4HIhu4Xha5',$,'Site',$,$,$,$,$,$,$,$,$,$,$);
#13=IFCBUILDING('1OzJE$13rAGwF2SVf_b7VQ',$,'Familienhaus',$,$,$,$,$,$,$,$,$);
#14=IFCRELAGGREGATES('0qFk8Matz4HfzmZk7cr6yj',$,$,$,#1,(#12));
#15=IFCRELAGGREGATES('1J9ZmGMS9D$8_rbCvcoScA',$,$,$,#12,(#13));
#16=IFCBUILDINGSTOREY('2x2Cqf5Zn79eKhoX40MfPo',$,'Erdgeschoss',$,$,$,$,$,$,0.);
#17=IFCRELAGGREGATES('0OtbIB4cvAkfSQJ8oWPvC4',$,$,$,#13,(#16));
#18=IFCWALL('2RlasftbrAlhdJGXN856pA',$,'EXT-S',$,$,#40,#34,$,$);
#19=IFCCARTESIANPOINTLIST2D(((0.,300.),(13500.,300.),(13500.,0.),(0.,0.),(0.,300.)));
#20=IFCINDEXEDPOLYCURVE(#19,$,$);
#21=IFCARBITRARYCLOSEDPROFILEDEF(.AREA.,'EXT-S',#20);
#22=IFCCARTESIANPOINT((0.,0.,0.));
#23=IFCDIRECTION((0.,0.,1.));
#24=IFCDIRECTION((1.,0.,0.));
#25=IFCAXIS2PLACEMENT3D(#22,#23,#24);
#26=IFCDIRECTION((0.,0.,1.));
#27=IFCEXTRUDEDAREASOLID(#21,#25,#26,2500.);
#28=IFCSHAPEREPRESENTATION(#11,'Body','SweptSolid',(#27));
#34=IFCPRODUCTDEFINITIONSHAPE($,$,(#28));
#35=IFCRELCONTAINEDINSPATIALSTRUCTURE('15XrBQoWHA$eQn7fyBO79W',$,$,$,(#45,#561,#1053,#955,#201,#357,#1151,#1004,#806,#279,#71,#708,#906,#18,#97,#227,#149,#1102,#331,#659,#610,#305,#175,#757,#855,#253,#123),#16);
#36=IFCCARTESIANPOINT((0.,0.,0.));
#37=IFCDIRECTION((0.,0.,1.));
#38=IFCDIRECTION((1.,0.,0.));
#39=IFCAXIS2PLACEMENT3D(#36,#37,#38);
#40=IFCLOCALPLACEMENT($,#39);
#41=IFCPROPERTYSET('2EJ$z7lDLB5vsxXEs6un$k',$,'Pset_WallCommon',$,(#43,#44));
#42=IFCRELDEFINESBYPROPERTIES('2slkdaBP90$gPjKQ8KxLDi',$,$,$,(#18),#41);
#43=IFCPROPERTYSINGLEVALUE('IsExternal',$,IFCBOOLEAN(.T.),$);
#44=IFCPROPERTYSINGLEVALUE('LoadBearing',$,IFCBOOLEAN(.T.),$);
#45=IFCWALL('2_4_$lgYH0VfxO3XnKVc7v',$,'EXT-E',$,$,#66,#61,$,$);
#46=IFCCARTESIANPOINTLIST2D(((13199.999999999998,0.),(13199.999999999998,10000.),(13500.,10000.),(13500.,0.),(13199.999999999998,0.)));
#47=IFCINDEXEDPOLYCURVE(#46,$,$);
#48=IFCARBITRARYCLOSEDPROFILEDEF(.AREA.,'EXT-E',#47);
#49=IFCCARTESIANPOINT((0.,0.,0.));
#50=IFCDIRECTION((0.,0.,1.));
#51=IFCDIRECTION((1.,0.,0.));
#52=IFCAXIS2PLACEMENT3D(#49,#50,#51);
#53=IFCDIRECTION((0.,0.,1.));
#54=IFCEXTRUDEDAREASOLID(#48,#52,#53,2500.);
#55=IFCSHAPEREPRESENTATION(#11,'Body','SweptSolid',(#54));
#61=IFCPRODUCTDEFINITIONSHAPE($,$,(#55));
#62=IFCCARTESIANPOINT((0.,0.,0.));
#63=IFCDIRECTION((0.,0.,1.));
#64=IFCDIRECTION((1.,0.,0.));
#65=IFCAXIS2PLACEMENT3D(#62,#63,#64);
#66=IFCLOCALPLACEMENT($,#65);
#67=IFCPROPERTYSET('3SrhKb1Tv2mxwDf2cClqHr',$,'Pset_WallCommon',$,(#69,#70));
#68=IFCRELDEFINESBYPROPERTIES('3stda2RxLCHe2UZsvR_oJs',$,$,$,(#45),#67);
#69=IFCPROPERTYSINGLEVALUE('IsExternal',$,IFCBOOLEAN(.T.),$);
#70=IFCPROPERTYSINGLEVALUE('LoadBearing',$,IFCBOOLEAN(.T.),$);
#71=IFCWALL('3vDUZTuxv4E8dl2wztzRZT',$,'EXT-N',$,$,#92,#87,$,$);
#72=IFCCARTESIANPOINTLIST2D(((13500.,9699.9999999999982),(0.,9699.9999999999982),(0.,10000.),(13500.,10000.),(13500.,9699.9999999999982)));
#73=IFCINDEXEDPOLYCURVE(#72,$,$);
#74=IFCARBITRARYCLOSEDPROFILEDEF(.AREA.,'EXT-N',#73);
#75=IFCCARTESIANPOINT((0.,0.,0.));
#76=IFCDIRECTION((0.,0.,1.));
#77=IFCDIRECTION((1.,0.,0.));
#78=IFCAXIS2PLACEMENT3D(#75,#76,#77);
#79=IFCDIRECTION((0.,0.,1.));
#80=IFCEXTRUDEDAREASOLID(#74,#78,#79,2500.);
#81=IFCSHAPEREPRESENTATION(#11,'Body','SweptSolid',(#80));
#87=IFCPRODUCTDEFINITIONSHAPE($,$,(#81));
#88=IFCCARTESIANPOINT((0.,0.,0.));
#89=IFCDIRECTION((0.,0.,1.));
#90=IFCDIRECTION((1.,0.,0.));
#91=IFCAXIS2PLACEMENT3D(#88,#89,#90);
#92=IFCLOCALPLACEMENT($,#91);
#93=IFCPROPERTYSET('0u0F6Hva1C2QdlWuICsWwR',$,'Pset_WallCommon',$,(#95,#96));
#94=IFCRELDEFINESBYPROPERTIES('2rQIswWlDAqgnBsuIQ4oUR',$,$,$,(#71),#93);
#95=IFCPROPERTYSINGLEVALUE('IsExternal',$,IFCBOOLEAN(.T.),$);
#96=IFCPROPERTYSINGLEVALUE('LoadBearing',$,IFCBOOLEAN(.T.),$);
#97=IFCWALL('1sjtzuDvLB3wtrGksjDoV4',$,'EXT-W',$,$,#118,#113,$,$);
#98=IFCCARTESIANPOINTLIST2D(((300.,10000.),(300.,0.),(0.,0.),(0.,10000.),(300.,10000.)));
#99=IFCINDEXEDPOLYCURVE(#98,$,$);
#100=IFCARBITRARYCLOSEDPROFILEDEF(.AREA.,'EXT-W',#99);
#101=IFCCARTESIANPOINT((0.,0.,0.));
#102=IFCDIRECTION((0.,0.,1.));
#103=IFCDIRECTION((1.,0.,0.));
#104=IFCAXIS2PLACEMENT3D(#101,#102,#103);
#105=IFCDIRECTION((0.,0.,1.));
#106=IFCEXTRUDEDAREASOLID(#100,#104,#105,2500.);
#107=IFCSHAPEREPRESENTATION(#11,'Body','SweptSolid',(#106));
#113=IFCPRODUCTDEFINITIONSHAPE($,$,(#107));
#114=IFCCARTESIANPOINT((0.,0.,0.));
#115=IFCDIRECTION((0.,0.,1.));
#116=IFCDIRECTION((1.,0.,0.));
#117=IFCAXIS2PLACEMENT3D(#114,#115,#116);
#118=IFCLOCALPLACEMENT($,#117);
#119=IFCPROPERTYSET('3pjotPEoPA4x5N_JD29AaY',$,'Pset_WallCommon',$,(#121,#122));
#120=IFCRELDEFINESBYPROPERTIES('1HOSm17Gz2xvCnU3GiaZ2V',$,$,$,(#97),#119);
#121=IFCPROPERTYSINGLEVALUE('IsExternal',$,IFCBOOLEAN(.T.),$);
#122=IFCPROPERTYSINGLEVALUE('LoadBearing',$,IFCBOOLEAN(.T.),$);
#123=IFCWALL('1vm3h4jhT2XQrp0_0U7Rrk',$,'INT-1',$,$,#144,#139,$,$);
#124=IFCCARTESIANPOINTLIST2D(((75.,6875.),(5225.,6875.),(5225.,6724.9999999999991),(75.,6724.9999999999991),(75.,6875.)));
#125=IFCINDEXEDPOLYCURVE(#124,$,$);
#126=IFCARBITRARYCLOSEDPROFILEDEF(.AREA.,'INT-1',#125);
#127=IFCCARTESIANPOINT((0.,0.,0.));
#128=IFCDIRECTION((0.,0.,1.));
#129=IFCDIRECTION((1.,0.,0.));
#130=IFCAXIS2PLACEMENT3D(#127,#128,#129);
#131=IFCDIRECTION((0.,0.,1.));
#132=IFCEXTRUDEDAREASOLID(#126,#130,#131,2500.);
#133=IFCSHAPEREPRESENTATION(#11,'Body','SweptSolid',(#132));
#139=IFCPRODUCTDEFINITIONSHAPE($,$,(#133));
#140=IFCCARTESIANPOINT((0.,0.,0.));
#141=IFCDIRECTION((0.,0.,1.));
#142=IFCDIRECTION((1.,0.,0.));
#143=IFCAXIS2PLACEMENT3D(#140,#141,#142);
#144=IFCLOCALPLACEMENT($,#143);
#145=IFCPROPERTYSET('2wn6h9sJbCO9Z8L0PlV0aD',$,'Pset_WallCommon',$,(#147,#148));
#146=IFCRELDEFINESBYPROPERTIES('1RTSFWm5D7Zeo1pCV1YKAV',$,$,$,(#123),#145);
#147=IFCPROPERTYSINGLEVALUE('IsExternal',$,IFCBOOLEAN(.F.),$);
#148=IFCPROPERTYSINGLEVALUE('LoadBearing',$,IFCBOOLEAN(.F.),$);
#149=IFCWALL('3cqLvUxFX9MOLtci27peqE',$,'INT-2',$,$,#170,#165,$,$);
#150=IFCCARTESIANPOINTLIST2D(((5075.,75.),(5075.,4625.),(5225.,4625.),(5225.,75.),(5075.,75.)));
#151=IFCINDEXEDPOLYCURVE(#150,$,$);
#152=IFCARBITRARYCLOSEDPROFILEDEF(.AREA.,'INT-2',#151);
#153=IFCCARTESIANPOINT((0.,0.,0.));
#154=IFCDIRECTION((0.,0.,1.));
#155=IFCDIRECTION((1.,0.,0.));
#156=IFCAXIS2PLACEMENT3D(#153,#154,#155);
#157=IFCDIRECTION((0.,0.,1.));
#158=IFCEXTRUDEDAREASOLID(#152,#156,#157,2500.);
#159=IFCSHAPEREPRESENTATION(#11,'Body','SweptSolid',(#158));
#165=IFCPRODUCTDEFINITIONSHAPE($,$,(#159));
#166=IFCCARTESIANPOINT((0.,0.,0.));
#167=IFCDIRECTION((0.,0.,1.));
#168=IFCDIRECTION((1.,0.,0.));
#169=IFCAXIS2PLACEMENT3D(#166,#167,#168);
#170=IFCLOCALPLACEMENT($,#169);
#171=IFCPROPERTYSET('0zBXhbS9167xV$ym5Oxqgi',$,'Pset_WallCommon',$,(#173,#174));
#172=IFCRELDEFINESBYPROPERTIES('1S5ObtLiXDLgjksKsfa0hY',$,$,$,(#149),#171);
#173=IFCPROPERTYSINGLEVALUE('IsExternal',$,IFCBOOLEAN(.F.),$);
#174=IFCPROPERTYSINGLEVALUE('LoadBearing',$,IFCBOOLEAN(.F.),$);
#175=IFCWALL('2Oey_lL_513A8psfRvKrzU',$,'INT-3',$,$,#196,#191,$,$);
#176=IFCCARTESIANPOINTLIST2D(((5075.,4475.),(5075.,6875.),(5225.,6875.),(5225.,4475.),(5075.,4475.)));
#177=IFCINDEXEDPOLYCURVE(#176,$,$);
#178=IFCARBITRARYCLOSEDPROFILEDEF(.AREA.,'INT-3',#177);
#179=IFCCARTESIANPOINT((0.,0.,0.));
#180=IFCDIRECTION((0.,0.,1.));
#181=IFCDIRECTION((1.,0.,0.));
#182=IFCAXIS2PLACEMENT3D(#179,#180,#181);
#183=IFCDIRECTION((0.,0.,1.));
#184=IFCEXTRUDEDAREASOLID(#178,#182,#183,2500.);
#185=IFCSHAPEREPRESENTATION(#11,'Body','SweptSolid',(#184));
#191=IFCPRODUCTDEFINITIONSHAPE($,$,(#185));
#192=IFCCARTESIANPOINT((0.,0.,0.));
#193=IFCDIRECTION((0.,0.,1.));
#194=IFCDIRECTION((1.,0.,0.));
#195=IFCAXIS2PLACEMENT3D(#192,#193,#194);
#196=IFCLOCALPLACEMENT($,#195);
#197=IFCPROPERTYSET('2AjpAOARD36xeY6dlKq2Vs',$,'Pset_WallCommon',$,(#199,#200));
#198=IFCRELDEFINESBYPROPERTIES('0ScBqnRDv4yw$h2_zkl_E9',$,$,$,(#175),#197);
#199=IFCPROPERTYSINGLEVALUE('IsExternal',$,IFCBOOLEAN(.F.),$);
#200=IFCPROPERTYSINGLEVALUE('LoadBearing',$,IFCBOOLEAN(.F.),$);
#201=IFCWALL('39ICbjEWH1fuIMTYKgHv1p',$,'INT-4',$,$,#222,#217,$,$);
#202=IFCCARTESIANPOINTLIST2D(((5075.,6724.9999999999991),(5075.,9924.9999999999982),(5225.,9924.9999999999982),(5225.,6724.9999999999991),(5075.,6724.9999999999991)));
#203=IFCINDEXEDPOLYCURVE(#202,$,$);
#204=IFCARBITRARYCLOSEDPROFILEDEF(.AREA.,'INT-4',#203);
#205=IFCCARTESIANPOINT((0.,0.,0.));
#206=IFCDIRECTION((0.,0.,1.));
#207=IFCDIRECTION((1.,0.,0.));
#208=IFCAXIS2PLACEMENT3D(#205,#206,#207);
#209=IFCDIRECTION((0.,0.,1.));
#210=IFCEXTRUDEDAREASOLID(#204,#208,#209,2500.);
#211=IFCSHAPEREPRESENTATION(#11,'Body','SweptSolid',(#210));
#217=IFCPRODUCTDEFINITIONSHAPE($,$,(#211));
#218=IFCCARTESIANPOINT((0.,0.,0.));
#219=IFCDIRECTION((0.,0.,1.));
#220=IFCDIRECTION((1.,0.,0.));
#221=IFCAXIS2PLACEMENT3D(#218,#219,#220);
#222=IFCLOCALPLACEMENT($,#221);
#223=IFCPROPERTYSET('0omrcOr5z6OhsR5qlcACFD',$,'Pset_WallCommon',$,(#225,#226));
#224=IFCRELDEFINESBYPROPERTIES('00AdquN_XE6uTpAWbmBcre',$,$,$,(#201),#223);
#225=IFCPROPERTYSINGLEVALUE('IsExternal',$,IFCBOOLEAN(.F.),$);
#226=IFCPROPERTYSINGLEVALUE('LoadBearing',$,IFCBOOLEAN(.F.),$);
#227=IFCWALL('3y1em36o9C5frBZiGenj8v',$,'INT-5',$,$,#248,#243,$,$);
#228=IFCCARTESIANPOINTLIST2D(((9175.,75.),(9175.,4625.),(9325.,4625.),(9325.,75.),(9175.,75.)));
#229=IFCINDEXEDPOLYCURVE(#228,$,$);
#230=IFCARBITRARYCLOSEDPROFILEDEF(.AREA.,'INT-5',#229);
#231=IFCCARTESIANPOINT((0.,0.,0.));
#232=IFCDIRECTION((0.,0.,1.));
#233=IFCDIRECTION((1.,0.,0.));
#234=IFCAXIS2PLACEMENT3D(#231,#232,#233);
#235=IFCDIRECTION((0.,0.,1.));
#236=IFCEXTRUDEDAREASOLID(#230,#234,#235,2500.);
#237=IFCSHAPEREPRESENTATION(#11,'Body','SweptSolid',(#236));
#243=IFCPRODUCTDEFINITIONSHAPE($,$,(#237));
#244=IFCCARTESIANPOINT((0.,0.,0.));
#245=IFCDIRECTION((0.,0.,1.));
#246=IFCDIRECTION((1.,0.,0.));
#247=IFCAXIS2PLACEMENT3D(#244,#245,#246);
#248=IFCLOCALPLACEMENT($,#247);
#249=IFCPROPERTYSET('1o6qSV6rL5PPhzNWkIKprU',$,'Pset_WallCommon',$,(#251,#252));
#250=IFCRELDEFINESBYPROPERTIES('0Vj3scXvvCBBOlBkQVD2rR',$,$,$,(#227),#249);
#251=IFCPROPERTYSINGLEVALUE('IsExternal',$,IFCBOOLEAN(.F.),$);
#252=IFCPROPERTYSINGLEVALUE('LoadBearing',$,IFCBOOLEAN(.F.),$);
#253=IFCWALL('0xKLjLvqTBl92vGwDQvQTB',$,'INT-6',$,$,#274,#269,$,$);
#254=IFCCARTESIANPOINTLIST2D(((5075.,4625.),(8625.,4625.),(8625.,4475.),(5075.,4475.),(5075.,4625.)));
#255=IFCINDEXEDPOLYCURVE(#254,$,$);
#256=IFCARBITRARYCLOSEDPROFILEDEF(.AREA.,'INT-6',#255);
#257=IFCCARTESIANPOINT((0.,0.,0.));
#258=IFCDIRECTION((0.,0.,1.));
#259=IFCDIRECTION((1.,0.,0.));
#260=IFCAXIS2PLACEMENT3D(#257,#258,#259);
#261=IFCDIRECTION((0.,0.,1.));
#262=IFCEXTRUDEDAREASOLID(#256,#260,#261,2500.);
#263=IFCSHAPEREPRESENTATION(#11,'Body','SweptSolid',(#262));
#269=IFCPRODUCTDEFINITIONSHAPE($,$,(#263));
#270=IFCCARTESIANPOINT((0.,0.,0.));
#271=IFCDIRECTION((0.,0.,1.));
#272=IFCDIRECTION((1.,0.,0.));
#273=IFCAXIS2PLACEMENT3D(#270,#271,#272);
#274=IFCLOCALPLACEMENT($,#273);
#275=IFCPROPERTYSET('1H6aFuy6D1Sf9_6JXPSOHK',$,'Pset_WallCommon',$,(#277,#278));
#276=IFCRELDEFINESBYPROPERTIES('3zctOCO2zB_8LyCpS79AFz',$,$,$,(#253),#275);
#277=IFCPROPERTYSINGLEVALUE('IsExternal',$,IFCBOOLEAN(.F.),$);
#278=IFCPROPERTYSINGLEVALUE('LoadBearing',$,IFCBOOLEAN(.F.),$);
#279=IFCWALL('3ptC7qfaTFGgyLlJyVW3_n',$,'INT-7',$,$,#300,#295,$,$);
#280=IFCCARTESIANPOINTLIST2D(((9175.,4625.),(13424.999999999998,4625.),(13424.999999999998,4475.),(9175.,4475.),(9175.,4625.)));
#281=IFCINDEXEDPOLYCURVE(#280,$,$);
#282=IFCARBITRARYCLOSEDPROFILEDEF(.AREA.,'INT-7',#281);
#283=IFCCARTESIANPOINT((0.,0.,0.));
#284=IFCDIRECTION((0.,0.,1.));
#285=IFCDIRECTION((1.,0.,0.));
#286=IFCAXIS2PLACEMENT3D(#283,#284,#285);
#287=IFCDIRECTION((0.,0.,1.));
#288=IFCEXTRUDEDAREASOLID(#282,#286,#287,2500.);
#289=IFCSHAPEREPRESENTATION(#11,'Body','SweptSolid',(#288));
#295=IFCPRODUCTDEFINITIONSHAPE($,$,(#289));
#296=IFCCARTESIANPOINT((0.,0.,0.));
#297=IFCDIRECTION((0.,0.,1.));
#298=IFCDIRECTION((1.,0.,0.));
#299=IFCAXIS2PLACEMENT3D(#296,#297,#298);
#300=IFCLOCALPLACEMENT($,#299);
#301=IFCPROPERTYSET('1mfsYm5C10fO_N70qn$c07',$,'Pset_WallCommon',$,(#303,#304));
#302=IFCRELDEFINESBYPROPERTIES('0sym4XbmL7n9NYSgPdFWeL',$,$,$,(#279),#301);
#303=IFCPROPERTYSINGLEVALUE('IsExternal',$,IFCBOOLEAN(.F.),$);
#304=IFCPROPERTYSINGLEVALUE('LoadBearing',$,IFCBOOLEAN(.F.),$);
#305=IFCWALL('0$1RD7T1fD_vAfC3ZxW_6d',$,'INT-8',$,$,#326,#321,$,$);
#306=IFCCARTESIANPOINTLIST2D(((8475.0000000000018,4475.),(8475.0000000000018,6725.),(8625.,6725.),(8625.,4475.),(8475.0000000000018,4475.)));
#307=IFCINDEXEDPOLYCURVE(#306,$,$);
#308=IFCARBITRARYCLOSEDPROFILEDEF(.AREA.,'INT-8',#307);
#309=IFCCARTESIANPOINT((0.,0.,0.));
#310=IFCDIRECTION((0.,0.,1.));
#311=IFCDIRECTION((1.,0.,0.));
#312=IFCAXIS2PLACEMENT3D(#309,#310,#311);
#313=IFCDIRECTION((0.,0.,1.));
#314=IFCEXTRUDEDAREASOLID(#308,#312,#313,2500.);
#315=IFCSHAPEREPRESENTATION(#11,'Body','SweptSolid',(#314));
#321=IFCPRODUCTDEFINITIONSHAPE($,$,(#315));
#322=IFCCARTESIANPOINT((0.,0.,0.));
#323=IFCDIRECTION((0.,0.,1.));
#324=IFCDIRECTION((1.,0.,0.));
#325=IFCAXIS2PLACEMENT3D(#322,#323,#324);
#326=IFCLOCALPLACEMENT($,#325);
#327=IFCPROPERTYSET('1dj$rsW8b21QlMW10SmwEk',$,'Pset_WallCommon',$,(#329,#330));
#328=IFCRELDEFINESBYPROPERTIES('0HDQZozzTBOBgF_0VQJTHu',$,$,$,(#305),#327);
#329=IFCPROPERTYSINGLEVALUE('IsExternal',$,IFCBOOLEAN(.F.),$);
#330=IFCPROPERTYSINGLEVALUE('LoadBearing',$,IFCBOOLEAN(.F.),$);
#331=IFCWALL('2saso9J5P2jfypKD60iZgE',$,'INT-9',$,$,#352,#347,$,$);
#332=IFCCARTESIANPOINTLIST2D(((8475.0000000000018,6575.),(8475.0000000000018,9924.9999999999982),(8625.,9924.9999999999982),(8625.,6575.),(8475.0000000000018,6575.)));
#333=IFCINDEXEDPOLYCURVE(#332,$,$);
#334=IFCARBITRARYCLOSEDPROFILEDEF(.AREA.,'INT-9',#333);
#335=IFCCARTESIANPOINT((0.,0.,0.));
#336=IFCDIRECTION((0.,0.,1.));
#337=IFCDIRECTION((1.,0.,0.));
#338=IFCAXIS2PLACEMENT3D(#335,#336,#337);
#339=IFCDIRECTION((0.,0.,1.));
#340=IFCEXTRUDEDAREASOLID(#334,#338,#339,2500.);
#341=IFCSHAPEREPRESENTATION(#11,'Body','SweptSolid',(#340));
#347=IFCPRODUCTDEFINITIONSHAPE($,$,(#341));
#348=IFCCARTESIANPOINT((0.,0.,0.));
#349=IFCDIRECTION((0.,0.,1.));
#350=IFCDIRECTION((1.,0.,0.));
#351=IFCAXIS2PLACEMENT3D(#348,#349,#350);
#352=IFCLOCALPLACEMENT($,#351);
#353=IFCPROPERTYSET('2RbAVJZgz3eh4b7JD2Wn5y',$,'Pset_WallCommon',$,(#355,#356));
#354=IFCRELDEFINESBYPROPERTIES('3ibkdh_QH6VOZzcHqMv_71',$,$,$,(#331),#353);
#355=IFCPROPERTYSINGLEVALUE('IsExternal',$,IFCBOOLEAN(.F.),$);
#356=IFCPROPERTYSINGLEVALUE('LoadBearing',$,IFCBOOLEAN(.F.),$);
#357=IFCWALL('0qnOqk6ezCAfOdiS4RB_N2',$,'INT-10',$,$,#378,#373,$,$);
#358=IFCCARTESIANPOINTLIST2D(((8475.0000000000018,6725.),(13424.999999999998,6725.),(13424.999999999998,6575.),(8475.0000000000018,6575.),(8475.0000000000018,6725.)));
#359=IFCINDEXEDPOLYCURVE(#358,$,$);
#360=IFCARBITRARYCLOSEDPROFILEDEF(.AREA.,'INT-10',#359);
#361=IFCCARTESIANPOINT((0.,0.,0.));
#362=IFCDIRECTION((0.,0.,1.));
#363=IFCDIRECTION((1.,0.,0.));
#364=IFCAXIS2PLACEMENT3D(#361,#362,#363);
#365=IFCDIRECTION((0.,0.,1.));
#366=IFCEXTRUDEDAREASOLID(#360,#364,#365,2500.);
#367=IFCSHAPEREPRESENTATION(#11,'Body','SweptSolid',(#366));
#373=IFCPRODUCTDEFINITIONSHAPE($,$,(#367));
#374=IFCCARTESIANPOINT((0.,0.,0.));
#375=IFCDIRECTION((0.,0.,1.));
#376=IFCDIRECTION((1.,0.,0.));
#377=IFCAXIS2PLACEMENT3D(#374,#375,#376);
#378=IFCLOCALPLACEMENT($,#377);
#379=IFCPROPERTYSET('1r_ih9MjD77gbDy9nFNHH4',$,'Pset_WallCommon',$,(#381,#382));
#380=IFCRELDEFINESBYPROPERTIES('3ySbBFoWDEDgf7KfkSREYy',$,$,$,(#357),#379);
#381=IFCPROPERTYSINGLEVALUE('IsExternal',$,IFCBOOLEAN(.F.),$);
#382=IFCPROPERTYSINGLEVALUE('LoadBearing',$,IFCBOOLEAN(.F.),$);
#383=IFCSPACE('3XY9OnYCj8uh6WiJD8GUAX',$,'Wohnen',$,$,#405,#399,'Wohnen',$,.INTERNAL.,$);
#384=IFCCARTESIANPOINTLIST2D(((300.,300.),(5050.,300.),(5050.,6700.),(300.,6700.),(300.,300.)));
#385=IFCINDEXEDPOLYCURVE(#384,$,$);
#386=IFCARBITRARYCLOSEDPROFILEDEF(.AREA.,'Wohnen',#385);
#387=IFCCARTESIANPOINT((0.,0.,0.));
#388=IFCDIRECTION((0.,0.,1.));
#389=IFCDIRECTION((1.,0.,0.));
#390=IFCAXIS2PLACEMENT3D(#387,#388,#389);
#391=IFCDIRECTION((0.,0.,1.));
#392=IFCEXTRUDEDAREASOLID(#386,#390,#391,2500.);
#393=IFCSHAPEREPRESENTATION(#11,'Body','SweptSolid',(#392));
#399=IFCPRODUCTDEFINITIONSHAPE($,$,(#393));
#400=IFCRELAGGREGATES('00lh2tXXn2Yfnlwf3dASbq',$,$,$,#16,(#494,#383,#406,#428,#450,#472,#516));
#401=IFCCARTESIANPOINT((0.,0.,0.));
#402=IFCDIRECTION((0.,0.,1.));
#403=IFCDIRECTION((1.,0.,0.));
#404=IFCAXIS2PLACEMENT3D(#401,#402,#403);
#405=IFCLOCALPLACEMENT($,#404);
#406=IFCSPACE('0RcMx609X0aw4Lx58R6yV7',$,'K\X2\00FC\X0\che',$,$,#427,#422,'K\X2\00FC\X0\che',$,.INTERNAL.,$);
#407=IFCCARTESIANPOINTLIST2D(((300.,6900.),(5050.,6900.),(5050.,9699.9999999999982),(300.,9699.9999999999982),(300.,6900.)));
#408=IFCINDEXEDPOLYCURVE(#407,$,$);
#409=IFCARBITRARYCLOSEDPROFILEDEF(.AREA.,'K\X2\00FC\X0\che',#408);
#410=IFCCARTESIANPOINT((0.,0.,0.));
#411=IFCDIRECTION((0.,0.,1.));
#412=IFCDIRECTION((1.,0.,0.));
#413=IFCAXIS2PLACEMENT3D(#410,#411,#412);
#414=IFCDIRECTION((0.,0.,1.));
#415=IFCEXTRUDEDAREASOLID(#409,#413,#414,2500.);
#416=IFCSHAPEREPRESENTATION(#11,'Body','SweptSolid',(#415));
#422=IFCPRODUCTDEFINITIONSHAPE($,$,(#416));
#423=IFCCARTESIANPOINT((0.,0.,0.));
#424=IFCDIRECTION((0.,0.,1.));
#425=IFCDIRECTION((1.,0.,0.));
#426=IFCAXIS2PLACEMENT3D(#423,#424,#425);
#427=IFCLOCALPLACEMENT($,#426);
#428=IFCSPACE('2ww8B3Q9L0KuJyZd5FGqfX',$,'Schlafzimmer 1',$,$,#449,#444,'Schlafzimmer 1',$,.INTERNAL.,$);
#429=IFCCARTESIANPOINTLIST2D(((5200.,300.),(9200.,300.),(9200.,4450.),(5200.,4450.),(5200.,300.)));
#430=IFCINDEXEDPOLYCURVE(#429,$,$);
#431=IFCARBITRARYCLOSEDPROFILEDEF(.AREA.,'Schlafzimmer 1',#430);
#432=IFCCARTESIANPOINT((0.,0.,0.));
#433=IFCDIRECTION((0.,0.,1.));
#434=IFCDIRECTION((1.,0.,0.));
#435=IFCAXIS2PLACEMENT3D(#432,#433,#434);
#436=IFCDIRECTION((0.,0.,1.));
#437=IFCEXTRUDEDAREASOLID(#431,#435,#436,2500.);
#438=IFCSHAPEREPRESENTATION(#11,'Body','SweptSolid',(#437));
#444=IFCPRODUCTDEFINITIONSHAPE($,$,(#438));
#445=IFCCARTESIANPOINT((0.,0.,0.));
#446=IFCDIRECTION((0.,0.,1.));
#447=IFCDIRECTION((1.,0.,0.));
#448=IFCAXIS2PLACEMENT3D(#445,#446,#447);
#449=IFCLOCALPLACEMENT($,#448);
#450=IFCSPACE('0VQar_A21AwwDI3pVTwrrp',$,'Schlafzimmer 2',$,$,#471,#466,'Schlafzimmer 2',$,.INTERNAL.,$);
#451=IFCCARTESIANPOINTLIST2D(((9300.,300.),(13199.999999999998,300.),(13199.999999999998,4450.),(9300.,4450.),(9300.,300.)));
#452=IFCINDEXEDPOLYCURVE(#451,$,$);
#453=IFCARBITRARYCLOSEDPROFILEDEF(.AREA.,'Schlafzimmer 2',#452);
#454=IFCCARTESIANPOINT((0.,0.,0.));
#455=IFCDIRECTION((0.,0.,1.));
#456=IFCDIRECTION((1.,0.,0.));
#457=IFCAXIS2PLACEMENT3D(#454,#455,#456);
#458=IFCDIRECTION((0.,0.,1.));
#459=IFCEXTRUDEDAREASOLID(#453,#457,#458,2500.);
#460=IFCSHAPEREPRESENTATION(#11,'Body','SweptSolid',(#459));
#466=IFCPRODUCTDEFINITIONSHAPE($,$,(#460));
#467=IFCCARTESIANPOINT((0.,0.,0.));
#468=IFCDIRECTION((0.,0.,1.));
#469=IFCDIRECTION((1.,0.,0.));
#470=IFCAXIS2PLACEMENT3D(#467,#468,#469);
#471=IFCLOCALPLACEMENT($,#470);
#472=IFCSPACE('0qI3XThpr7$PD9KJTEBhTR',$,'Schlafzimmer 3',$,$,#493,#488,'Schlafzimmer 3',$,.INTERNAL.,$);
#473=IFCCARTESIANPOINTLIST2D(((5200.,4600.),(8500.,4600.),(8500.,9699.9999999999982),(5200.,9699.9999999999982),(5200.,4600.)));
#474=IFCINDEXEDPOLYCURVE(#473,$,$);
#475=IFCARBITRARYCLOSEDPROFILEDEF(.AREA.,'Schlafzimmer 3',#474);
#476=IFCCARTESIANPOINT((0.,0.,0.));
#477=IFCDIRECTION((0.,0.,1.));
#478=IFCDIRECTION((1.,0.,0.));
#479=IFCAXIS2PLACEMENT3D(#476,#477,#478);
#480=IFCDIRECTION((0.,0.,1.));
#481=IFCEXTRUDEDAREASOLID(#475,#479,#480,2500.);
#482=IFCSHAPEREPRESENTATION(#11,'Body','SweptSolid',(#481));
#488=IFCPRODUCTDEFINITIONSHAPE($,$,(#482));
#489=IFCCARTESIANPOINT((0.,0.,0.));
#490=IFCDIRECTION((0.,0.,1.));
#491=IFCDIRECTION((1.,0.,0.));
#492=IFCAXIS2PLACEMENT3D(#489,#490,#491);
#493=IFCLOCALPLACEMENT($,#492);
#494=IFCSPACE('1ri5sZT2L03B81gTBVdi8Y',$,'Bad',$,$,#515,#510,'Bad',$,.INTERNAL.,$);
#495=IFCCARTESIANPOINTLIST2D(((8600.,4600.),(13199.999999999998,4600.),(13199.999999999998,6599.9999999999991),(8600.,6599.9999999999991),(8600.,4600.)));
#496=IFCINDEXEDPOLYCURVE(#495,$,$);
#497=IFCARBITRARYCLOSEDPROFILEDEF(.AREA.,'Bad',#496);
#498=IFCCARTESIANPOINT((0.,0.,0.));
#499=IFCDIRECTION((0.,0.,1.));
#500=IFCDIRECTION((1.,0.,0.));
#501=IFCAXIS2PLACEMENT3D(#498,#499,#500);
#502=IFCDIRECTION((0.,0.,1.));
#503=IFCEXTRUDEDAREASOLID(#497,#501,#502,2500.);
#504=IFCSHAPEREPRESENTATION(#11,'Body','SweptSolid',(#503));
#510=IFCPRODUCTDEFINITIONSHAPE($,$,(#504));
#511=IFCCARTESIANPOINT((0.,0.,0.));
#512=IFCDIRECTION((0.,0.,1.));
#513=IFCDIRECTION((1.,0.,0.));
#514=IFCAXIS2PLACEMENT3D(#511,#512,#513);
#515=IFCLOCALPLACEMENT($,#514);
#516=IFCSPACE('0rUvcM8Zz47ukAuSeKX04P',$,'B\X2\00FC\X0\ro',$,$,#537,#532,'B\X2\00FC\X0\ro',$,.INTERNAL.,$);
#517=IFCCARTESIANPOINTLIST2D(((8600.,6700.),(13199.999999999998,6700.),(13199.999999999998,9699.9999999999982),(8600.,9699.9999999999982),(8600.,6700.)));
#518=IFCINDEXEDPOLYCURVE(#517,$,$);
#519=IFCARBITRARYCLOSEDPROFILEDEF(.AREA.,'B\X2\00FC\X0\ro',#518);
#520=IFCCARTESIANPOINT((0.,0.,0.));
#521=IFCDIRECTION((0.,0.,1.));
#522=IFCDIRECTION((1.,0.,0.));
#523=IFCAXIS2PLACEMENT3D(#520,#521,#522);
#524=IFCDIRECTION((0.,0.,1.));
#525=IFCEXTRUDEDAREASOLID(#519,#523,#524,2500.);
#526=IFCSHAPEREPRESENTATION(#11,'Body','SweptSolid',(#525));
#532=IFCPRODUCTDEFINITIONSHAPE($,$,(#526));
#533=IFCCARTESIANPOINT((0.,0.,0.));
#534=IFCDIRECTION((0.,0.,1.));
#535=IFCDIRECTION((1.,0.,0.));
#536=IFCAXIS2PLACEMENT3D(#533,#534,#535);
#537=IFCLOCALPLACEMENT($,#536);
#538=IFCOPENINGELEMENT('23Yl9T4DzBy8M9gbOX7Noq',$,'D-01 opening',$,$,#560,#554,$,$);
#539=IFCCARTESIANPOINTLIST2D(((2207.5,6894.9999999999991),(3092.4999999999995,6894.9999999999991),(3092.4999999999995,6705.),(2207.5,6705.),(2207.5,6894.9999999999991)));
#540=IFCINDEXEDPOLYCURVE(#539,$,$);
#541=IFCARBITRARYCLOSEDPROFILEDEF(.AREA.,'D-01 opening',#540);
#542=IFCCARTESIANPOINT((0.,0.,0.));
#543=IFCDIRECTION((0.,0.,1.));
#544=IFCDIRECTION((1.,0.,0.));
#545=IFCAXIS2PLACEMENT3D(#542,#543,#544);
#546=IFCDIRECTION((0.,0.,1.));
#547=IFCEXTRUDEDAREASOLID(#541,#545,#546,2050.);
#548=IFCSHAPEREPRESENTATION(#11,'Body','SweptSolid',(#547));
#554=IFCPRODUCTDEFINITIONSHAPE($,$,(#548));
#555=IFCRELVOIDSELEMENT('1dd4BC2hrAkgSor$9o2ssN',$,$,$,#123,#538);
#556=IFCCARTESIANPOINT((0.,0.,0.));
#557=IFCDIRECTION((0.,0.,1.));
#558=IFCDIRECTION((1.,0.,0.));
#559=IFCAXIS2PLACEMENT3D(#556,#557,#558);
#560=IFCLOCALPLACEMENT(#144,#559);
#561=IFCDOOR('1AGxgsBkH4cBoYlW7KFfhG',$,'D-01',$,$,#583,#577,$,2.0499999999999998,0.88500000000000001,.DOOR.,$,$);
#562=IFCCARTESIANPOINTLIST2D(((2207.5,6837.4999999999991),(3092.4999999999995,6837.4999999999991),(3092.4999999999995,6762.5),(2207.5,6762.5),(2207.5,6837.4999999999991)));
#563=IFCINDEXEDPOLYCURVE(#562,$,$);
#564=IFCARBITRARYCLOSEDPROFILEDEF(.AREA.,'D-01',#563);
#565=IFCCARTESIANPOINT((0.,0.,0.));
#566=IFCDIRECTION((0.,0.,1.));
#567=IFCDIRECTION((1.,0.,0.));
#568=IFCAXIS2PLACEMENT3D(#565,#566,#567);
#569=IFCDIRECTION((0.,0.,1.));
#570=IFCEXTRUDEDAREASOLID(#564,#568,#569,2050.);
#571=IFCSHAPEREPRESENTATION(#11,'Body','SweptSolid',(#570));
#577=IFCPRODUCTDEFINITIONSHAPE($,$,(#571));
#578=IFCRELFILLSELEMENT('0RTIz$anX4_gDbaxeMmDrM',$,$,$,#538,#561);
#579=IFCCARTESIANPOINT((0.,0.,0.));
#580=IFCDIRECTION((0.,0.,1.));
#581=IFCDIRECTION((1.,0.,0.));
#582=IFCAXIS2PLACEMENT3D(#579,#580,#581);
#583=IFCLOCALPLACEMENT(#560,#582);
#584=IFCPROPERTYSET('2f2K5bkE5Ff90tKdcAUtpN',$,'Pset_DoorCommon',$,(#586));
#585=IFCRELDEFINESBYPROPERTIES('3QOLWMH_TFjOIvINZ5iVYd',$,$,$,(#561),#584);
#586=IFCPROPERTYSINGLEVALUE('IsExternal',$,IFCBOOLEAN(.F.),$);
#587=IFCOPENINGELEMENT('3MtaEPKYv4_wPMbcAZrF0I',$,'D-02 opening',$,$,#609,#603,$,$);
#588=IFCCARTESIANPOINTLIST2D(((5055.0000000000009,1907.5000000000002),(5055.0000000000009,2792.5),(5245.,2792.5),(5245.,1907.5000000000002),(5055.0000000000009,1907.5000000000002)));
#589=IFCINDEXEDPOLYCURVE(#588,$,$);
#590=IFCARBITRARYCLOSEDPROFILEDEF(.AREA.,'D-02 opening',#589);
#591=IFCCARTESIANPOINT((0.,0.,0.));
#592=IFCDIRECTION((0.,0.,1.));
#593=IFCDIRECTION((1.,0.,0.));
#594=IFCAXIS2PLACEMENT3D(#591,#592,#593);
#595=IFCDIRECTION((0.,0.,1.));
#596=IFCEXTRUDEDAREASOLID(#590,#594,#595,2050.);
#597=IFCSHAPEREPRESENTATION(#11,'Body','SweptSolid',(#596));
#603=IFCPRODUCTDEFINITIONSHAPE($,$,(#597));
#604=IFCRELVOIDSELEMENT('3DLrNYBbnDTgPhECdmOhbI',$,$,$,#149,#587);
#605=IFCCARTESIANPOINT((0.,0.,0.));
#606=IFCDIRECTION((0.,0.,1.));
#607=IFCDIRECTION((1.,0.,0.));
#608=IFCAXIS2PLACEMENT3D(#605,#606,#607);
#609=IFCLOCALPLACEMENT(#170,#608);
#610=IFCDOOR('2cM8GczQL7DORh$vZkuex7',$,'D-02',$,$,#632,#626,$,2.0499999999999998,0.88500000000000001,.DOOR.,$,$);
#611=IFCCARTESIANPOINTLIST2D(((5112.5000000000009,1907.5000000000002),(5112.5000000000009,2792.5),(5187.5,2792.5),(5187.5,1907.5000000000002),(5112.5000000000009,1907.5000000000002)));
#612=IFCINDEXEDPOLYCURVE(#611,$,$);
#613=IFCARBITRARYCLOSEDPROFILEDEF(.AREA.,'D-02',#612);
#614=IFCCARTESIANPOINT((0.,0.,0.));
#615=IFCDIRECTION((0.,0.,1.));
#616=IFCDIRECTION((1.,0.,0.));
#617=IFCAXIS2PLACEMENT3D(#614,#615,#616);
#618=IFCDIRECTION((0.,0.,1.));
#619=IFCEXTRUDEDAREASOLID(#613,#617,#618,2050.);
#620=IFCSHAPEREPRESENTATION(#11,'Body','SweptSolid',(#619));
#626=IFCPRODUCTDEFINITIONSHAPE($,$,(#620));
#627=IFCRELFILLSELEMENT('1njLF8d7n7UAGBmvBRChti',$,$,$,#587,#610);
#628=IFCCARTESIANPOINT((0.,0.,0.));
#629=IFCDIRECTION((0.,0.,1.));
#630=IFCDIRECTION((1.,0.,0.));
#631=IFCAXIS2PLACEMENT3D(#628,#629,#630);
#632=IFCLOCALPLACEMENT(#609,#631);
#633=IFCPROPERTYSET('3XuEXUCNX88QylRcMTtrAX',$,'Pset_DoorCommon',$,(#635));
#634=IFCRELDEFINESBYPROPERTIES('0JiNGYylr4MvuC_qH8thHM',$,$,$,(#610),#633);
#635=IFCPROPERTYSINGLEVALUE('IsExternal',$,IFCBOOLEAN(.F.),$);
#636=IFCOPENINGELEMENT('2mXb97w15B9uLOZf4SvhVV',$,'D-03 opening',$,$,#658,#652,$,$);
#637=IFCCARTESIANPOINTLIST2D(((9155.,1907.5000000000002),(9155.,2792.5),(9345.,2792.5),(9345.,1907.5000000000002),(9155.,1907.5000000000002)));
#638=IFCINDEXEDPOLYCURVE(#637,$,$);
#639=IFCARBITRARYCLOSEDPROFILEDEF(.AREA.,'D-03 opening',#638);
#640=IFCCARTESIANPOINT((0.,0.,0.));
#641=IFCDIRECTION((0.,0.,1.));
#642=IFCDIRECTION((1.,0.,0.));
#643=IFCAXIS2PLACEMENT3D(#640,#641,#642);
#644=IFCDIRECTION((0.,0.,1.));
#645=IFCEXTRUDEDAREASOLID(#639,#643,#644,2050.);
#646=IFCSHAPEREPRESENTATION(#11,'Body','SweptSolid',(#645));
#652=IFCPRODUCTDEFINITIONSHAPE($,$,(#646));
#653=IFCRELVOIDSELEMENT('2XbcAxPkL6Ju8Gw_N$W0B9',$,$,$,#227,#636);
#654=IFCCARTESIANPOINT((0.,0.,0.));
#655=IFCDIRECTION((0.,0.,1.));
#656=IFCDIRECTION((1.,0.,0.));
#657=IFCAXIS2PLACEMENT3D(#654,#655,#656);
#658=IFCLOCALPLACEMENT(#248,#657);
#659=IFCDOOR('3JeRAHxjPEHhHR7wIaPF7P',$,'D-03',$,$,#681,#675,$,2.0499999999999998,0.88500000000000001,.DOOR.,$,$);
#660=IFCCARTESIANPOINTLIST2D(((9212.5,1907.5000000000002),(9212.5,2792.5),(9287.5,2792.5),(9287.5,1907.5000000000002),(9212.5,1907.5000000000002)));
#661=IFCINDEXEDPOLYCURVE(#660,$,$);
#662=IFCARBITRARYCLOSEDPROFILEDEF(.AREA.,'D-03',#661);
#663=IFCCARTESIANPOINT((0.,0.,0.));
#664=IFCDIRECTION((0.,0.,1.));
#665=IFCDIRECTION((1.,0.,0.));
#666=IFCAXIS2PLACEMENT3D(#663,#664,#665);
#667=IFCDIRECTION((0.,0.,1.));
#668=IFCEXTRUDEDAREASOLID(#662,#666,#667,2050.);
#669=IFCSHAPEREPRESENTATION(#11,'Body','SweptSolid',(#668));
#675=IFCPRODUCTDEFINITIONSHAPE($,$,(#669));
#676=IFCRELFILLSELEMENT('2dMurNPob1L875L6P2NWdw',$,$,$,#636,#659);
#677=IFCCARTESIANPOINT((0.,0.,0.));
#678=IFCDIRECTION((0.,0.,1.));
#679=IFCDIRECTION((1.,0.,0.));
#680=IFCAXIS2PLACEMENT3D(#677,#678,#679);
#681=IFCLOCALPLACEMENT(#658,#680);
#682=IFCPROPERTYSET('0WqoKOwCP9mhdHwmeopTSh',$,'Pset_DoorCommon',$,(#684));
#683=IFCRELDEFINESBYPROPERTIES('0pIwimS$v0bwJOJyNvl$Zp',$,$,$,(#659),#682);
#684=IFCPROPERTYSINGLEVALUE('IsExternal',$,IFCBOOLEAN(.F.),$);
#685=IFCOPENINGELEMENT('2HBbTyryL05x5BlbSBEvAs',$,'D-04 opening',$,$,#707,#701,$,$);
#686=IFCCARTESIANPOINTLIST2D(((5055.0000000000009,5207.5),(5055.0000000000009,6092.5),(5245.,6092.5),(5245.,5207.5),(5055.0000000000009,5207.5)));
#687=IFCINDEXEDPOLYCURVE(#686,$,$);
#688=IFCARBITRARYCLOSEDPROFILEDEF(.AREA.,'D-04 opening',#687);
#689=IFCCARTESIANPOINT((0.,0.,0.));
#690=IFCDIRECTION((0.,0.,1.));
#691=IFCDIRECTION((1.,0.,0.));
#692=IFCAXIS2PLACEMENT3D(#689,#690,#691);
#693=IFCDIRECTION((0.,0.,1.));
#694=IFCEXTRUDEDAREASOLID(#688,#692,#693,2050.);
#695=IFCSHAPEREPRESENTATION(#11,'Body','SweptSolid',(#694));
#701=IFCPRODUCTDEFINITIONSHAPE($,$,(#695));
#702=IFCRELVOIDSELEMENT('1zQWIfCqv6xhfP1hZbPQAh',$,$,$,#175,#685);
#703=IFCCARTESIANPOINT((0.,0.,0.));
#704=IFCDIRECTION((0.,0.,1.));
#705=IFCDIRECTION((1.,0.,0.));
#706=IFCAXIS2PLACEMENT3D(#703,#704,#705);
#707=IFCLOCALPLACEMENT(#196,#706);
#708=IFCDOOR('2qza3o1bH1K9F1kGy$Zkq8',$,'D-04',$,$,#730,#724,$,2.0499999999999998,0.88500000000000001,.DOOR.,$,$);
#709=IFCCARTESIANPOINTLIST2D(((5112.5000000000009,5207.5),(5112.5000000000009,6092.5),(5187.5,6092.5),(5187.5,5207.5),(5112.5000000000009,5207.5)));
#710=IFCINDEXEDPOLYCURVE(#709,$,$);
#711=IFCARBITRARYCLOSEDPROFILEDEF(.AREA.,'D-04',#710);
#712=IFCCARTESIANPOINT((0.,0.,0.));
#713=IFCDIRECTION((0.,0.,1.));
#714=IFCDIRECTION((1.,0.,0.));
#715=IFCAXIS2PLACEMENT3D(#712,#713,#714);
#716=IFCDIRECTION((0.,0.,1.));
#717=IFCEXTRUDEDAREASOLID(#711,#715,#716,2050.);
#718=IFCSHAPEREPRESENTATION(#11,'Body','SweptSolid',(#717));
#724=IFCPRODUCTDEFINITIONSHAPE($,$,(#718));
#725=IFCRELFILLSELEMENT('1CGrCKksLB0QAcsFjUhVUS',$,$,$,#685,#708);
#726=IFCCARTESIANPOINT((0.,0.,0.));
#727=IFCDIRECTION((0.,0.,1.));
#728=IFCDIRECTION((1.,0.,0.));
#729=IFCAXIS2PLACEMENT3D(#726,#727,#728);
#730=IFCLOCALPLACEMENT(#707,#729);
#731=IFCPROPERTYSET('2SPY69ZjrE9QA8PIFD5JlT',$,'Pset_DoorCommon',$,(#733));
#732=IFCRELDEFINESBYPROPERTIES('2rGW5bUKnC_flPWbUJdIwV',$,$,$,(#708),#731);
#733=IFCPROPERTYSINGLEVALUE('IsExternal',$,IFCBOOLEAN(.F.),$);
#734=IFCOPENINGELEMENT('2mahgL_en5w8MYm_ep_wh1',$,'D-05 opening',$,$,#756,#750,$,$);
#735=IFCCARTESIANPOINTLIST2D(((10507.5,6745.),(11392.500000000002,6745.),(11392.500000000002,6555.0000000000009),(10507.5,6555.0000000000009),(10507.5,6745.)));
#736=IFCINDEXEDPOLYCURVE(#735,$,$);
#737=IFCARBITRARYCLOSEDPROFILEDEF(.AREA.,'D-05 opening',#736);
#738=IFCCARTESIANPOINT((0.,0.,0.));
#739=IFCDIRECTION((0.,0.,1.));
#740=IFCDIRECTION((1.,0.,0.));
#741=IFCAXIS2PLACEMENT3D(#738,#739,#740);
#742=IFCDIRECTION((0.,0.,1.));
#743=IFCEXTRUDEDAREASOLID(#737,#741,#742,2050.);
#744=IFCSHAPEREPRESENTATION(#11,'Body','SweptSolid',(#743));
#750=IFCPRODUCTDEFINITIONSHAPE($,$,(#744));
#751=IFCRELVOIDSELEMENT('1KYQAZagHFzhx$ROXfXvy3',$,$,$,#357,#734);
#752=IFCCARTESIANPOINT((0.,0.,0.));
#753=IFCDIRECTION((0.,0.,1.));
#754=IFCDIRECTION((1.,0.,0.));
#755=IFCAXIS2PLACEMENT3D(#752,#753,#754);
#756=IFCLOCALPLACEMENT(#378,#755);
#757=IFCDOOR('1FrHDLLOb3zegswjLi2abY',$,'D-05',$,$,#779,#773,$,2.0499999999999998,0.88500000000000001,.DOOR.,$,$);
#758=IFCCARTESIANPOINTLIST2D(((10507.5,6687.5),(11392.500000000002,6687.5),(11392.500000000002,6612.5000000000009),(10507.5,6612.5000000000009),(10507.5,6687.5)));
#759=IFCINDEXEDPOLYCURVE(#758,$,$);
#760=IFCARBITRARYCLOSEDPROFILEDEF(.AREA.,'D-05',#759);
#761=IFCCARTESIANPOINT((0.,0.,0.));
#762=IFCDIRECTION((0.,0.,1.));
#763=IFCDIRECTION((1.,0.,0.));
#764=IFCAXIS2PLACEMENT3D(#761,#762,#763);
#765=IFCDIRECTION((0.,0.,1.));
#766=IFCEXTRUDEDAREASOLID(#760,#764,#765,2050.);
#767=IFCSHAPEREPRESENTATION(#11,'Body','SweptSolid',(#766));
#773=IFCPRODUCTDEFINITIONSHAPE($,$,(#767));
#774=IFCRELFILLSELEMENT('2j4smpKPX298B1oTPAjhFd',$,$,$,#734,#757);
#775=IFCCARTESIANPOINT((0.,0.,0.));
#776=IFCDIRECTION((0.,0.,1.));
#777=IFCDIRECTION((1.,0.,0.));
#778=IFCAXIS2PLACEMENT3D(#775,#776,#777);
#779=IFCLOCALPLACEMENT(#756,#778);
#780=IFCPROPERTYSET('0fnKM6wnj8bfS6JL$mw$qF',$,'Pset_DoorCommon',$,(#782));
#781=IFCRELDEFINESBYPROPERTIES('1SxJthmTnAfPEQa3CFTmRE',$,$,$,(#757),#780);
#782=IFCPROPERTYSINGLEVALUE('IsExternal',$,IFCBOOLEAN(.F.),$);
#783=IFCOPENINGELEMENT('2HaCLdUOn718lpOFYQvtu9',$,'D-06 opening',$,$,#805,#799,$,$);
#784=IFCCARTESIANPOINTLIST2D(((10507.5,6745.),(11392.500000000002,6745.),(11392.500000000002,6555.0000000000009),(10507.5,6555.0000000000009),(10507.5,6745.)));
#785=IFCINDEXEDPOLYCURVE(#784,$,$);
#786=IFCARBITRARYCLOSEDPROFILEDEF(.AREA.,'D-06 opening',#785);
#787=IFCCARTESIANPOINT((0.,0.,0.));
#788=IFCDIRECTION((0.,0.,1.));
#789=IFCDIRECTION((1.,0.,0.));
#790=IFCAXIS2PLACEMENT3D(#787,#788,#789);
#791=IFCDIRECTION((0.,0.,1.));
#792=IFCEXTRUDEDAREASOLID(#786,#790,#791,2050.);
#793=IFCSHAPEREPRESENTATION(#11,'Body','SweptSolid',(#792));
#799=IFCPRODUCTDEFINITIONSHAPE($,$,(#793));
#800=IFCRELVOIDSELEMENT('132eJ66t1FphYgcrmQgJJ6',$,$,$,#357,#783);
#801=IFCCARTESIANPOINT((0.,0.,0.));
#802=IFCDIRECTION((0.,0.,1.));
#803=IFCDIRECTION((1.,0.,0.));
#804=IFCAXIS2PLACEMENT3D(#801,#802,#803);
#805=IFCLOCALPLACEMENT(#378,#804);
#806=IFCDOOR('06Hz9ndh5C1QnWXEmGgp_r',$,'D-06',$,$,#828,#822,$,2.0499999999999998,0.88500000000000001,.DOOR.,$,$);
#807=IFCCARTESIANPOINTLIST2D(((10507.5,6687.5),(11392.500000000002,6687.5),(11392.500000000002,6612.5000000000009),(10507.5,6612.5000000000009),(10507.5,6687.5)));
#808=IFCINDEXEDPOLYCURVE(#807,$,$);
#809=IFCARBITRARYCLOSEDPROFILEDEF(.AREA.,'D-06',#808);
#810=IFCCARTESIANPOINT((0.,0.,0.));
#811=IFCDIRECTION((0.,0.,1.));
#812=IFCDIRECTION((1.,0.,0.));
#813=IFCAXIS2PLACEMENT3D(#810,#811,#812);
#814=IFCDIRECTION((0.,0.,1.));
#815=IFCEXTRUDEDAREASOLID(#809,#813,#814,2050.);
#816=IFCSHAPEREPRESENTATION(#11,'Body','SweptSolid',(#815));
#822=IFCPRODUCTDEFINITIONSHAPE($,$,(#816));
#823=IFCRELFILLSELEMENT('3ZdJtbTr9CNP$GQ1rb95pk',$,$,$,#783,#806);
#824=IFCCARTESIANPOINT((0.,0.,0.));
#825=IFCDIRECTION((0.,0.,1.));
#826=IFCDIRECTION((1.,0.,0.));
#827=IFCAXIS2PLACEMENT3D(#824,#825,#826);
#828=IFCLOCALPLACEMENT(#805,#827);
#829=IFCPROPERTYSET('1dMmAN2nf5QvcTDXJOT32P',$,'Pset_DoorCommon',$,(#831));
#830=IFCRELDEFINESBYPROPERTIES('0I7lekXMn2UPdSPS3d0OV6',$,$,$,(#806),#829);
#831=IFCPROPERTYSINGLEVALUE('IsExternal',$,IFCBOOLEAN(.F.),$);
#832=IFCOPENINGELEMENT('241QiTvoL5B848ybolnXwK',$,'D-00 opening',$,$,#854,#848,$,$);
#833=IFCCARTESIANPOINTLIST2D(((6245.,319.99999999999994),(7255.,319.99999999999994),(7255.,-19.999999999999989),(6245.,-19.999999999999989),(6245.,319.99999999999994)));
#834=IFCINDEXEDPOLYCURVE(#833,$,$);
#835=IFCARBITRARYCLOSEDPROFILEDEF(.AREA.,'D-00 opening',#834);
#836=IFCCARTESIANPOINT((0.,0.,0.));
#837=IFCDIRECTION((0.,0.,1.));
#838=IFCDIRECTION((1.,0.,0.));
#839=IFCAXIS2PLACEMENT3D(#836,#837,#838);
#840=IFCDIRECTION((0.,0.,1.));
#841=IFCEXTRUDEDAREASOLID(#835,#839,#840,2100.);
#842=IFCSHAPEREPRESENTATION(#11,'Body','SweptSolid',(#841));
#848=IFCPRODUCTDEFINITIONSHAPE($,$,(#842));
#849=IFCRELVOIDSELEMENT('0SDxDQzU14FR6Zp5$gG8pf',$,$,$,#18,#832);
#850=IFCCARTESIANPOINT((0.,0.,0.));
#851=IFCDIRECTION((0.,0.,1.));
#852=IFCDIRECTION((1.,0.,0.));
#853=IFCAXIS2PLACEMENT3D(#850,#851,#852);
#854=IFCLOCALPLACEMENT(#40,#853);
#855=IFCDOOR('3FOc686xv6Qf1z3VFNJ9T4',$,'D-00',$,$,#877,#871,$,2.1000000000000001,1.01,.DOOR.,$,$);
#856=IFCCARTESIANPOINTLIST2D(((6245.,224.99999999999997),(7255.,224.99999999999997),(7255.,75.),(6245.,75.),(6245.,224.99999999999997)));
#857=IFCINDEXEDPOLYCURVE(#856,$,$);
#858=IFCARBITRARYCLOSEDPROFILEDEF(.AREA.,'D-00',#857);
#859=IFCCARTESIANPOINT((0.,0.,0.));
#860=IFCDIRECTION((0.,0.,1.));
#861=IFCDIRECTION((1.,0.,0.));
#862=IFCAXIS2PLACEMENT3D(#859,#860,#861);
#863=IFCDIRECTION((0.,0.,1.));
#864=IFCEXTRUDEDAREASOLID(#858,#862,#863,2100.);
#865=IFCSHAPEREPRESENTATION(#11,'Body','SweptSolid',(#864));
#871=IFCPRODUCTDEFINITIONSHAPE($,$,(#865));
#872=IFCRELFILLSELEMENT('19anrYY8947u1cbjqhhFH1',$,$,$,#832,#855);
#873=IFCCARTESIANPOINT((0.,0.,0.));
#874=IFCDIRECTION((0.,0.,1.));
#875=IFCDIRECTION((1.,0.,0.));
#876=IFCAXIS2PLACEMENT3D(#873,#874,#875);
#877=IFCLOCALPLACEMENT(#854,#876);
#878=IFCDOORTYPE('3_qpxbI3T28vsOP8J9EfkQ',$,'Eingangstuer',$,$,$,$,$,$,.NOTDEFINED.,.NOTDEFINED.,$,$);
#879=IFCRELDEFINESBYTYPE('1LP$$pRlzDXQ0n$IfgkVLD',$,$,$,(#855),#878);
#880=IFCPROPERTYSET('2vlcBmFVz0FhUHP8mc1BlR',$,'Pset_DoorCommon',$,(#882));
#881=IFCRELDEFINESBYPROPERTIES('3AcRiQFQn2ePORAGqX_aKE',$,$,$,(#855),#880);
#882=IFCPROPERTYSINGLEVALUE('IsExternal',$,IFCBOOLEAN(.T.),$);
#883=IFCOPENINGELEMENT('360QPhfH93LPkIIMWdrkmT',$,'F-01 opening',$,$,#905,#899,$,$);
#884=IFCCARTESIANPOINTLIST2D(((319.99999999999994,4924.9999999999991),(319.99999999999994,1974.9999999999991),(-19.999999999999989,1974.9999999999991),(-19.999999999999989,4924.9999999999991),(319.99999999999994,4924.9999999999991)));
#885=IFCINDEXEDPOLYCURVE(#884,$,$);
#886=IFCARBITRARYCLOSEDPROFILEDEF(.AREA.,'F-01 opening',#885);
#887=IFCCARTESIANPOINT((0.,0.,0.));
#888=IFCDIRECTION((0.,0.,1.));
#889=IFCDIRECTION((1.,0.,0.));
#890=IFCAXIS2PLACEMENT3D(#887,#888,#889);
#891=IFCDIRECTION((0.,0.,1.));
#892=IFCEXTRUDEDAREASOLID(#886,#890,#891,1399.9999999999998);
#893=IFCSHAPEREPRESENTATION(#11,'Body','SweptSolid',(#892));
#899=IFCPRODUCTDEFINITIONSHAPE($,$,(#893));
#900=IFCRELVOIDSELEMENT('3PR5on1vTCHvNKX6nrLNwM',$,$,$,#97,#883);
#901=IFCCARTESIANPOINT((0.,0.,900.));
#902=IFCDIRECTION((0.,0.,1.));
#903=IFCDIRECTION((1.,0.,0.));
#904=IFCAXIS2PLACEMENT3D(#901,#902,#903);
#905=IFCLOCALPLACEMENT(#118,#904);
#906=IFCWINDOW('0Riyvcwdn1R9ee80x6qQUQ',$,'F-01',$,$,#928,#922,$,1.3999999999999999,2.9500000000000002,$,$,$);
#907=IFCCARTESIANPOINTLIST2D(((224.99999999999997,4924.9999999999991),(224.99999999999997,1974.9999999999991),(75.,1974.9999999999991),(75.,4924.9999999999991),(224.99999999999997,4924.9999999999991)));
#908=IFCINDEXEDPOLYCURVE(#907,$,$);
#909=IFCARBITRARYCLOSEDPROFILEDEF(.AREA.,'F-01',#908);
#910=IFCCARTESIANPOINT((0.,0.,0.));
#911=IFCDIRECTION((0.,0.,1.));
#912=IFCDIRECTION((1.,0.,0.));
#913=IFCAXIS2PLACEMENT3D(#910,#911,#912);
#914=IFCDIRECTION((0.,0.,1.));
#915=IFCEXTRUDEDAREASOLID(#909,#913,#914,1399.9999999999998);
#916=IFCSHAPEREPRESENTATION(#11,'Body','SweptSolid',(#915));
#922=IFCPRODUCTDEFINITIONSHAPE($,$,(#916));
#923=IFCRELFILLSELEMENT('2wAvuAF9P9tAGHu0rCMMh4',$,$,$,#883,#906);
#924=IFCCARTESIANPOINT((0.,0.,0.));
#925=IFCDIRECTION((0.,0.,1.));
#926=IFCDIRECTION((1.,0.,0.));
#927=IFCAXIS2PLACEMENT3D(#924,#925,#926);
#928=IFCLOCALPLACEMENT(#905,#927);
#929=IFCPROPERTYSET('3vCfo8MD53DBk7BcvH_QYM',$,'Pset_WindowCommon',$,(#931));
#930=IFCRELDEFINESBYPROPERTIES('1Pset3bTnFtxrLlRLibfaX',$,$,$,(#906),#929);
#931=IFCPROPERTYSINGLEVALUE('IsExternal',$,IFCBOOLEAN(.T.),$);
#932=IFCOPENINGELEMENT('1DYfBmqVb2UhpljgxlfjLI',$,'F-02 opening',$,$,#954,#948,$,$);
#933=IFCCARTESIANPOINTLIST2D(((3325.,9680.),(1975.0000000000002,9680.),(1975.0000000000002,10020.),(3325.,10020.),(3325.,9680.)));
#934=IFCINDEXEDPOLYCURVE(#933,$,$);
#935=IFCARBITRARYCLOSEDPROFILEDEF(.AREA.,'F-02 opening',#934);
#936=IFCCARTESIANPOINT((0.,0.,0.));
#937=IFCDIRECTION((0.,0.,1.));
#938=IFCDIRECTION((1.,0.,0.));
#939=IFCAXIS2PLACEMENT3D(#936,#937,#938);
#940=IFCDIRECTION((0.,0.,1.));
#941=IFCEXTRUDEDAREASOLID(#935,#939,#940,1399.9999999999998);
#942=IFCSHAPEREPRESENTATION(#11,'Body','SweptSolid',(#941));
#948=IFCPRODUCTDEFINITIONSHAPE($,$,(#942));
#949=IFCRELVOIDSELEMENT('3PztmrSvj4ABKY9vgkuCjw',$,$,$,#71,#932);
#950=IFCCARTESIANPOINT((0.,0.,900.));
#951=IFCDIRECTION((0.,0.,1.));
#952=IFCDIRECTION((1.,0.,0.));
#953=IFCAXIS2PLACEMENT3D(#950,#951,#952);
#954=IFCLOCALPLACEMENT(#92,#953);
#955=IFCWINDOW('28$6o8ikT8wuMXXtmqZciY',$,'F-02',$,$,#977,#971,$,1.3999999999999999,1.3500000000000001,$,$,$);
#956=IFCCARTESIANPOINTLIST2D(((3325.,9775.),(1975.0000000000002,9775.),(1975.0000000000002,9924.9999999999982),(3325.,9924.9999999999982),(3325.,9775.)));
#957=IFCINDEXEDPOLYCURVE(#956,$,$);
#958=IFCARBITRARYCLOSEDPROFILEDEF(.AREA.,'F-02',#957);
#959=IFCCARTESIANPOINT((0.,0.,0.));
#960=IFCDIRECTION((0.,0.,1.));
#961=IFCDIRECTION((1.,0.,0.));
#962=IFCAXIS2PLACEMENT3D(#959,#960,#961);
#963=IFCDIRECTION((0.,0.,1.));
#964=IFCEXTRUDEDAREASOLID(#958,#962,#963,1399.9999999999998);
#965=IFCSHAPEREPRESENTATION(#11,'Body','SweptSolid',(#964));
#971=IFCPRODUCTDEFINITIONSHAPE($,$,(#965));
#972=IFCRELFILLSELEMENT('0ivEmC7PH8VPuDw1vpGGcq',$,$,$,#932,#955);
#973=IFCCARTESIANPOINT((0.,0.,0.));
#974=IFCDIRECTION((0.,0.,1.));
#975=IFCDIRECTION((1.,0.,0.));
#976=IFCAXIS2PLACEMENT3D(#973,#974,#975);
#977=IFCLOCALPLACEMENT(#954,#976);
#978=IFCPROPERTYSET('2Se23jKCD2DgUbzDBsusld',$,'Pset_WindowCommon',$,(#980));
#979=IFCRELDEFINESBYPROPERTIES('39XJwleM106QIWmbbjVSE2',$,$,$,(#955),#978);
#980=IFCPROPERTYSINGLEVALUE('IsExternal',$,IFCBOOLEAN(.T.),$);
#981=IFCOPENINGELEMENT('1f8sR8qPL5HBQXVsnDTVsy',$,'F-03 opening',$,$,#1003,#997,$,$);
#982=IFCCARTESIANPOINTLIST2D(((6400.,319.99999999999994),(8000.,319.99999999999994),(8000.,-19.999999999999989),(6400.,-19.999999999999989),(6400.,319.99999999999994)));
#983=IFCINDEXEDPOLYCURVE(#982,$,$);
#984=IFCARBITRARYCLOSEDPROFILEDEF(.AREA.,'F-03 opening',#983);
#985=IFCCARTESIANPOINT((0.,0.,0.));
#986=IFCDIRECTION((0.,0.,1.));
#987=IFCDIRECTION((1.,0.,0.));
#988=IFCAXIS2PLACEMENT3D(#985,#986,#987);
#989=IFCDIRECTION((0.,0.,1.));
#990=IFCEXTRUDEDAREASOLID(#984,#988,#989,1399.9999999999998);
#991=IFCSHAPEREPRESENTATION(#11,'Body','SweptSolid',(#990));
#997=IFCPRODUCTDEFINITIONSHAPE($,$,(#991));
#998=IFCRELVOIDSELEMENT('32sKXEEIX8Px3ZZEHbDbYg',$,$,$,#18,#981);
#999=IFCCARTESIANPOINT((0.,0.,900.));
#1000=IFCDIRECTION((0.,0.,1.));
#1001=IFCDIRECTION((1.,0.,0.));
#1002=IFCAXIS2PLACEMENT3D(#999,#1000,#1001);
#1003=IFCLOCALPLACEMENT(#40,#1002);
#1004=IFCWINDOW('0nT3YtsZDF4Ozh025_kITJ',$,'F-03',$,$,#1026,#1020,$,1.3999999999999999,1.6000000000000001,$,$,$);
#1005=IFCCARTESIANPOINTLIST2D(((6400.,224.99999999999997),(8000.,224.99999999999997),(8000.,75.),(6400.,75.),(6400.,224.99999999999997)));
#1006=IFCINDEXEDPOLYCURVE(#1005,$,$);
#1007=IFCARBITRARYCLOSEDPROFILEDEF(.AREA.,'F-03',#1006);
#1008=IFCCARTESIANPOINT((0.,0.,0.));
#1009=IFCDIRECTION((0.,0.,1.));
#1010=IFCDIRECTION((1.,0.,0.));
#1011=IFCAXIS2PLACEMENT3D(#1008,#1009,#1010);
#1012=IFCDIRECTION((0.,0.,1.));
#1013=IFCEXTRUDEDAREASOLID(#1007,#1011,#1012,1399.9999999999998);
#1014=IFCSHAPEREPRESENTATION(#11,'Body','SweptSolid',(#1013));
#1020=IFCPRODUCTDEFINITIONSHAPE($,$,(#1014));
#1021=IFCRELFILLSELEMENT('3issp3gNrDzvPkOhYpfSXC',$,$,$,#981,#1004);
#1022=IFCCARTESIANPOINT((0.,0.,0.));
#1023=IFCDIRECTION((0.,0.,1.));
#1024=IFCDIRECTION((1.,0.,0.));
#1025=IFCAXIS2PLACEMENT3D(#1022,#1023,#1024);
#1026=IFCLOCALPLACEMENT(#1003,#1025);
#1027=IFCPROPERTYSET('0ST5CXfv51ffrKwVwoEHWy',$,'Pset_WindowCommon',$,(#1029));
#1028=IFCRELDEFINESBYPROPERTIES('27nMHdQQ5Bh9SduHMEoIFJ',$,$,$,(#1004),#1027);
#1029=IFCPROPERTYSINGLEVALUE('IsExternal',$,IFCBOOLEAN(.T.),$);
#1030=IFCOPENINGELEMENT('1XQKu3z2v9OAx54ki32GjO',$,'F-04 opening',$,$,#1052,#1046,$,$);
#1031=IFCCARTESIANPOINTLIST2D(((13180.,1550.),(13180.,3150.0000000000005),(13520.,3150.0000000000005),(13520.,1550.),(13180.,1550.)));
#1032=IFCINDEXEDPOLYCURVE(#1031,$,$);
#1033=IFCARBITRARYCLOSEDPROFILEDEF(.AREA.,'F-04 opening',#1032);
#1034=IFCCARTESIANPOINT((0.,0.,0.));
#1035=IFCDIRECTION((0.,0.,1.));
#1036=IFCDIRECTION((1.,0.,0.));
#1037=IFCAXIS2PLACEMENT3D(#1034,#1035,#1036);
#1038=IFCDIRECTION((0.,0.,1.));
#1039=IFCEXTRUDEDAREASOLID(#1033,#1037,#1038,1399.9999999999998);
#1040=IFCSHAPEREPRESENTATION(#11,'Body','SweptSolid',(#1039));
#1046=IFCPRODUCTDEFINITIONSHAPE($,$,(#1040));
#1047=IFCRELVOIDSELEMENT('2gQIyT0Q1ArfmVzt00LI8s',$,$,$,#45,#1030);
#1048=IFCCARTESIANPOINT((0.,0.,900.));
#1049=IFCDIRECTION((0.,0.,1.));
#1050=IFCDIRECTION((1.,0.,0.));
#1051=IFCAXIS2PLACEMENT3D(#1048,#1049,#1050);
#1052=IFCLOCALPLACEMENT(#66,#1051);
#1053=IFCWINDOW('1ActHyd$v0DhoxRXrUmFLn',$,'F-04',$,$,#1075,#1069,$,1.3999999999999999,1.6000000000000001,$,$,$);
#1054=IFCCARTESIANPOINTLIST2D(((13275.,1550.),(13275.,3150.0000000000005),(13424.999999999998,3150.0000000000005),(13424.999999999998,1550.),(13275.,1550.)));
#1055=IFCINDEXEDPOLYCURVE(#1054,$,$);
#1056=IFCARBITRARYCLOSEDPROFILEDEF(.AREA.,'F-04',#1055);
#1057=IFCCARTESIANPOINT((0.,0.,0.));
#1058=IFCDIRECTION((0.,0.,1.));
#1059=IFCDIRECTION((1.,0.,0.));
#1060=IFCAXIS2PLACEMENT3D(#1057,#1058,#1059);
#1061=IFCDIRECTION((0.,0.,1.));
#1062=IFCEXTRUDEDAREASOLID(#1056,#1060,#1061,1399.9999999999998);
#1063=IFCSHAPEREPRESENTATION(#11,'Body','SweptSolid',(#1062));
#1069=IFCPRODUCTDEFINITIONSHAPE($,$,(#1063));
#1070=IFCRELFILLSELEMENT('2JFCOlwof9Wev$_7VcH0b_',$,$,$,#1030,#1053);
#1071=IFCCARTESIANPOINT((0.,0.,0.));
#1072=IFCDIRECTION((0.,0.,1.));
#1073=IFCDIRECTION((1.,0.,0.));
#1074=IFCAXIS2PLACEMENT3D(#1071,#1072,#1073);
#1075=IFCLOCALPLACEMENT(#1052,#1074);
#1076=IFCPROPERTYSET('1wXgCxSZb4bx6Le_ASOHMH',$,'Pset_WindowCommon',$,(#1078));
#1077=IFCRELDEFINESBYPROPERTIES('3HXPrWiK588eiVTwjYFrw9',$,$,$,(#1053),#1076);
#1078=IFCPROPERTYSINGLEVALUE('IsExternal',$,IFCBOOLEAN(.T.),$);
#1079=IFCOPENINGELEMENT('18HABfCj97FvjCUUF6q18U',$,'F-05 opening',$,$,#1101,#1095,$,$);
#1080=IFCCARTESIANPOINTLIST2D(((7649.9999999999991,9680.),(6050.,9680.),(6050.,10020.),(7649.9999999999991,10020.),(7649.9999999999991,9680.)));
#1081=IFCINDEXEDPOLYCURVE(#1080,$,$);
#1082=IFCARBITRARYCLOSEDPROFILEDEF(.AREA.,'F-05 opening',#1081);
#1083=IFCCARTESIANPOINT((0.,0.,0.));
#1084=IFCDIRECTION((0.,0.,1.));
#1085=IFCDIRECTION((1.,0.,0.));
#1086=IFCAXIS2PLACEMENT3D(#1083,#1084,#1085);
#1087=IFCDIRECTION((0.,0.,1.));
#1088=IFCEXTRUDEDAREASOLID(#1082,#1086,#1087,1399.9999999999998);
#1089=IFCSHAPEREPRESENTATION(#11,'Body','SweptSolid',(#1088));
#1095=IFCPRODUCTDEFINITIONSHAPE($,$,(#1089));
#1096=IFCRELVOIDSELEMENT('353w9erMf0MO4dPvhMEWlV',$,$,$,#71,#1079);
#1097=IFCCARTESIANPOINT((0.,0.,900.));
#1098=IFCDIRECTION((0.,0.,1.));
#1099=IFCDIRECTION((1.,0.,0.));
#1100=IFCAXIS2PLACEMENT3D(#1097,#1098,#1099);
#1101=IFCLOCALPLACEMENT(#92,#1100);
#1102=IFCWINDOW('2USvADhYP8yPcaKokW6SXI',$,'F-05',$,$,#1124,#1118,$,1.3999999999999999,1.6000000000000001,$,$,$);
#1103=IFCCARTESIANPOINTLIST2D(((7649.9999999999991,9775.),(6050.,9775.),(6050.,9924.9999999999982),(7649.9999999999991,9924.9999999999982),(7649.9999999999991,9775.)));
#1104=IFCINDEXEDPOLYCURVE(#1103,$,$);
#1105=IFCARBITRARYCLOSEDPROFILEDEF(.AREA.,'F-05',#1104);
#1106=IFCCARTESIANPOINT((0.,0.,0.));
#1107=IFCDIRECTION((0.,0.,1.));
#1108=IFCDIRECTION((1.,0.,0.));
#1109=IFCAXIS2PLACEMENT3D(#1106,#1107,#1108);
#1110=IFCDIRECTION((0.,0.,1.));
#1111=IFCEXTRUDEDAREASOLID(#1105,#1109,#1110,1399.9999999999998);
#1112=IFCSHAPEREPRESENTATION(#11,'Body','SweptSolid',(#1111));
#1118=IFCPRODUCTDEFINITIONSHAPE($,$,(#1112));
#1119=IFCRELFILLSELEMENT('2yv3Dl16L1RRkYMZ63Lo9z',$,$,$,#1079,#1102);
#1120=IFCCARTESIANPOINT((0.,0.,0.));
#1121=IFCDIRECTION((0.,0.,1.));
#1122=IFCDIRECTION((1.,0.,0.));
#1123=IFCAXIS2PLACEMENT3D(#1120,#1121,#1122);
#1124=IFCLOCALPLACEMENT(#1101,#1123);
#1125=IFCPROPERTYSET('29_Ct57uL1WgubmiyHWh9P',$,'Pset_WindowCommon',$,(#1127));
#1126=IFCRELDEFINESBYPROPERTIES('1ccEDaPfX89QJoPFHtWRyl',$,$,$,(#1102),#1125);
#1127=IFCPROPERTYSINGLEVALUE('IsExternal',$,IFCBOOLEAN(.T.),$);
#1128=IFCOPENINGELEMENT('3K8EoyA8z0OgLLz5pB9HNY',$,'F-06 opening',$,$,#1150,#1144,$,$);
#1129=IFCCARTESIANPOINTLIST2D(((11625.,9680.),(10274.999999999998,9680.),(10274.999999999998,10020.),(11625.,10020.),(11625.,9680.)));
#1130=IFCINDEXEDPOLYCURVE(#1129,$,$);
#1131=IFCARBITRARYCLOSEDPROFILEDEF(.AREA.,'F-06 opening',#1130);
#1132=IFCCARTESIANPOINT((0.,0.,0.));
#1133=IFCDIRECTION((0.,0.,1.));
#1134=IFCDIRECTION((1.,0.,0.));
#1135=IFCAXIS2PLACEMENT3D(#1132,#1133,#1134);
#1136=IFCDIRECTION((0.,0.,1.));
#1137=IFCEXTRUDEDAREASOLID(#1131,#1135,#1136,1399.9999999999998);
#1138=IFCSHAPEREPRESENTATION(#11,'Body','SweptSolid',(#1137));
#1144=IFCPRODUCTDEFINITIONSHAPE($,$,(#1138));
#1145=IFCRELVOIDSELEMENT('3HDh5s5LT8fP_101XTbrlj',$,$,$,#71,#1128);
#1146=IFCCARTESIANPOINT((0.,0.,900.));
#1147=IFCDIRECTION((0.,0.,1.));
#1148=IFCDIRECTION((1.,0.,0.));
#1149=IFCAXIS2PLACEMENT3D(#1146,#1147,#1148);
#1150=IFCLOCALPLACEMENT(#92,#1149);
#1151=IFCWINDOW('2rOBKexAH6Ax_X1B52ORCL',$,'F-06',$,$,#1173,#1167,$,1.3999999999999999,1.3500000000000001,$,$,$);
#1152=IFCCARTESIANPOINTLIST2D(((11625.,9775.),(10274.999999999998,9775.),(10274.999999999998,9924.9999999999982),(11625.,9924.9999999999982),(11625.,9775.)));
#1153=IFCINDEXEDPOLYCURVE(#1152,$,$);
#1154=IFCARBITRARYCLOSEDPROFILEDEF(.AREA.,'F-06',#1153);
#1155=IFCCARTESIANPOINT((0.,0.,0.));
#1156=IFCDIRECTION((0.,0.,1.));
#1157=IFCDIRECTION((1.,0.,0.));
#1158=IFCAXIS2PLACEMENT3D(#1155,#1156,#1157);
#1159=IFCDIRECTION((0.,0.,1.));
#1160=IFCEXTRUDEDAREASOLID(#1154,#1158,#1159,1399.9999999999998);
#1161=IFCSHAPEREPRESENTATION(#11,'Body','SweptSolid',(#1160));
#1167=IFCPRODUCTDEFINITIONSHAPE($,$,(#1161));
#1168=IFCRELFILLSELEMENT('3Rf2ZA5AbER8raIWv9W9wY',$,$,$,#1128,#1151);
#1169=IFCCARTESIANPOINT((0.,0.,0.));
#1170=IFCDIRECTION((0.,0.,1.));
#1171=IFCDIRECTION((1.,0.,0.));
#1172=IFCAXIS2PLACEMENT3D(#1169,#1170,#1171);
#1173=IFCLOCALPLACEMENT(#1150,#1172);
#1174=IFCPROPERTYSET('1tEwUyHP93WOvLdkY5olVM',$,'Pset_WindowCommon',$,(#1176));
#1175=IFCRELDEFINESBYPROPERTIES('1AnpbOwG5CihD2Yuh1Ku0W',$,$,$,(#1151),#1174);
#1176=IFCPROPERTYSINGLEVALUE('IsExternal',$,IFCBOOLEAN(.T.),$);
ENDSEC;
END-ISO-10303-21;
