<?xml version="1.0" encoding="utf-8" ?>
<svg baseProfile="full" height="297.0mm" version="1.1" viewBox="0 0 420.0 297.0" width="420.0mm" xmlns="http://www.w3.org/2000/svg" xmlns:ev="http://www.w3.org/2001/xml-events" xmlns:xlink="http://www.w3.org/1999/xlink"><defs /><rect fill="white" height="297.0" width="420.0" x="0" y="0" /><path d="M 147.500,123.000 L 236.500,123.000 L 236.500,154.500 L 147.500,154.500 L 147.500,123.000 Z" fill="#eef3fb" fill-rule="evenodd" stroke="#9fb3d9" stroke-width="0.15" /><path d="M 193.500,75.500 L 231.500,75.500 L 231.500,107.500 L 193.500,107.500 L 193.500,75.500 Z" fill="#eef3fb" fill-rule="evenodd" stroke="#9fb3d9" stroke-width="0.15" /><path d="M 147.500,75.500 L 191.500,75.500 L 191.500,107.500 L 147.500,107.500 L 147.500,75.500 Z" fill="#eef3fb" fill-rule="evenodd" stroke="#9fb3d9" stroke-width="0.15" /><path d="M 232.500,75.500 L 269.000,75.500 L 269.000,107.500 L 232.500,107.500 L 232.500,75.500 Z" fill="#eef3fb" fill-rule="evenodd" stroke="#9fb3d9" stroke-width="0.15" /><path d="M 237.500,123.000 L 275.000,123.000 L 275.000,154.500 L 237.500,154.500 L 237.500,123.000 Z" fill="#eef3fb" fill-rule="evenodd" stroke="#9fb3d9" stroke-width="0.15" /><path d="M 270.500,75.500 L 301.500,75.500 L 301.500,107.500 L 270.500,107.500 L 270.500,75.500 Z" fill="#eef3fb" fill-rule="evenodd" stroke="#9fb3d9" stroke-width="0.15" /><path d="M 276.500,123.000 L 301.500,123.000 L 301.500,154.500 L 276.500,154.500 L 276.500,123.000 Z" fill="#eef3fb" fill-rule="evenodd" stroke="#9fb3d9" stroke-width="0.15" /><path d="M 147.500,109.000 L 301.500,109.000 L 301.500,121.500 L 147.500,121.500 L 147.500,109.000 Z" fill="#eef3fb" fill-rule="evenodd" stroke="#9fb3d9" stroke-width="0.15" /><path d="M 144.500,157.500 L 144.500,154.500 L 177.750,154.500 L 205.250,154.500 L 219.450,154.500 L 229.550,154.500 L 250.500,154.500 L 262.500,154.500 L 304.500,154.500 L 304.500,157.500 L 262.500,157.500 L 250.500,157.500 L 229.550,157.500 L 219.450,157.500 L 205.250,157.500 L 177.750,157.500 L 144.500,157.500 Z" fill="#2b2b2b" fill-rule="evenodd" stroke="none" /><path d="M 301.500,157.500 L 301.500,96.500 L 301.500,86.500 L 301.500,72.500 L 304.500,72.500 L 304.500,86.500 L 304.500,96.500 L 304.500,157.500 L 301.500,157.500 Z" fill="#2b2b2b" fill-rule="evenodd" stroke="none" /><path d="M 176.250,72.500 L 206.500,72.500 L 218.500,72.500 L 245.250,72.500 L 256.750,72.500 L 304.500,72.500 L 304.500,75.500 L 256.750,75.500 L 245.250,75.500 L 218.500,75.500 L 206.500,75.500 L 176.250,75.500 L 161.750,75.500 L 144.500,75.500 L 144.500,72.500 L 161.750,72.500 L 176.250,72.500 Z" fill="#2b2b2b" fill-rule="evenodd" stroke="none" /><path d="M 147.500,157.500 L 144.500,157.500 L 144.500,72.500 L 147.500,72.500 L 147.500,157.500 Z" fill="#2b2b2b" fill-rule="evenodd" stroke="none" /><path d="M 237.750,156.750 L 236.250,156.750 L 236.250,121.250 L 237.750,121.250 L 237.750,156.750 Z" fill="#2b2b2b" fill-rule="evenodd" stroke="none" /><path d="M 145.250,121.250 L 187.075,121.250 L 195.925,121.250 L 237.750,121.250 L 237.750,122.750 L 195.925,122.750 L 187.075,122.750 L 145.250,122.750 L 145.250,121.250 Z" fill="#2b2b2b" fill-rule="evenodd" stroke="none" /><path d="M 193.250,109.250 L 191.750,109.250 L 191.750,73.250 L 193.250,73.250 L 193.250,109.250 Z" fill="#2b2b2b" fill-rule="evenodd" stroke="none" /><path d="M 232.750,109.250 L 231.250,109.250 L 231.250,73.250 L 232.750,73.250 L 232.750,109.250 Z" fill="#2b2b2b" fill-rule="evenodd" stroke="none" /><path d="M 191.750,107.750 L 208.075,107.750 L 216.925,107.750 L 232.750,107.750 L 232.750,109.250 L 216.925,109.250 L 208.075,109.250 L 191.750,109.250 L 191.750,107.750 Z" fill="#2b2b2b" fill-rule="evenodd" stroke="none" /><path d="M 145.250,107.750 L 164.575,107.750 L 173.425,107.750 L 193.250,107.750 L 193.250,109.250 L 173.425,109.250 L 164.575,109.250 L 145.250,109.250 L 145.250,107.750 Z" fill="#2b2b2b" fill-rule="evenodd" stroke="none" /><path d="M 270.750,109.250 L 269.250,109.250 L 269.250,73.250 L 270.750,73.250 L 270.750,109.250 Z" fill="#2b2b2b" fill-rule="evenodd" stroke="none" /><path d="M 231.250,107.750 L 246.575,107.750 L 255.425,107.750 L 270.750,107.750 L 270.750,109.250 L 255.425,109.250 L 246.575,109.250 L 231.250,109.250 L 231.250,107.750 Z" fill="#2b2b2b" fill-rule="evenodd" stroke="none" /><path d="M 276.750,156.750 L 275.250,156.750 L 275.250,121.250 L 276.750,121.250 L 276.750,156.750 Z" fill="#2b2b2b" fill-rule="evenodd" stroke="none" /><path d="M 236.250,121.250 L 252.075,121.250 L 260.925,121.250 L 276.750,121.250 L 276.750,122.750 L 260.925,122.750 L 252.075,122.750 L 236.250,122.750 L 236.250,121.250 Z" fill="#2b2b2b" fill-rule="evenodd" stroke="none" /><path d="M 269.250,107.750 L 282.075,107.750 L 290.925,107.750 L 303.750,107.750 L 303.750,109.250 L 290.925,109.250 L 282.075,109.250 L 269.250,109.250 L 269.250,107.750 Z" fill="#2b2b2b" fill-rule="evenodd" stroke="none" /><path d="M 275.250,121.250 L 285.075,121.250 L 293.925,121.250 L 303.750,121.250 L 303.750,122.750 L 293.925,122.750 L 285.075,122.750 L 275.250,122.750 L 275.250,121.250 Z" fill="#2b2b2b" fill-rule="evenodd" stroke="none" /><path d="M 229.550,156.750 L 219.450,156.750 L 219.450,155.250 L 229.550,155.250 L 229.550,156.750 Z" fill="white" fill-rule="evenodd" stroke="none" /><path d="M 195.925,122.375 L 187.075,122.375 L 187.075,121.625 L 195.925,121.625 L 195.925,122.375 Z" fill="white" fill-rule="evenodd" stroke="none" /><path d="M 216.925,108.875 L 208.075,108.875 L 208.075,108.125 L 216.925,108.125 L 216.925,108.875 Z" fill="white" fill-rule="evenodd" stroke="none" /><path d="M 173.425,108.875 L 164.575,108.875 L 164.575,108.125 L 173.425,108.125 L 173.425,108.875 Z" fill="white" fill-rule="evenodd" stroke="none" /><path d="M 255.425,108.875 L 246.575,108.875 L 246.575,108.125 L 255.425,108.125 L 255.425,108.875 Z" fill="white" fill-rule="evenodd" stroke="none" /><path d="M 260.925,122.375 L 252.075,122.375 L 252.075,121.625 L 260.925,121.625 L 260.925,122.375 Z" fill="white" fill-rule="evenodd" stroke="none" /><path d="M 290.925,108.875 L 282.075,108.875 L 282.075,108.125 L 290.925,108.125 L 290.925,108.875 Z" fill="white" fill-rule="evenodd" stroke="none" /><path d="M 293.925,122.375 L 285.075,122.375 L 285.075,121.625 L 293.925,121.625 L 293.925,122.375 Z" fill="white" fill-rule="evenodd" stroke="none" /><path d="M 205.250,156.750 L 177.750,156.750 L 177.750,155.250 L 205.250,155.250 L 205.250,156.750 Z" fill="white" fill-rule="evenodd" stroke="none" /><path d="M 206.500,73.250 L 218.500,73.250 L 218.500,74.750 L 206.500,74.750 L 206.500,73.250 Z" fill="white" fill-rule="evenodd" stroke="none" /><path d="M 161.750,73.250 L 176.250,73.250 L 176.250,74.750 L 161.750,74.750 L 161.750,73.250 Z" fill="white" fill-rule="evenodd" stroke="none" /><path d="M 245.250,73.250 L 256.750,73.250 L 256.750,74.750 L 245.250,74.750 L 245.250,73.250 Z" fill="white" fill-rule="evenodd" stroke="none" /><path d="M 262.500,156.750 L 250.500,156.750 L 250.500,155.250 L 262.500,155.250 L 262.500,156.750 Z" fill="white" fill-rule="evenodd" stroke="none" /><path d="M 303.750,96.500 L 302.250,96.500 L 302.250,86.500 L 303.750,86.500 L 303.750,96.500 Z" fill="white" fill-rule="evenodd" stroke="none" /><line stroke="#2a7fff" stroke-width="0.35" x1="177.75" x2="205.25" y1="156.375" y2="156.375" /><line stroke="#2a7fff" stroke-width="0.35" x1="177.75" x2="205.25" y1="155.625" y2="155.625" /><text fill="#2a7fff" font-family="Helvetica, Arial, sans-serif" font-size="1.8" text-anchor="middle" x="191.5" y="158.6">W-01</text><line stroke="#2a7fff" stroke-width="0.35" x1="206.5" x2="218.5" y1="74.375" y2="74.375" /><line stroke="#2a7fff" stroke-width="0.35" x1="206.5" x2="218.5" y1="73.625" y2="73.625" /><text fill="#2a7fff" font-family="Helvetica, Arial, sans-serif" font-size="1.8" text-anchor="middle" x="212.5" y="72.39999999999999">W-05</text><line stroke="#2a7fff" stroke-width="0.35" x1="161.75" x2="176.25" y1="74.375" y2="74.375" /><line stroke="#2a7fff" stroke-width="0.35" x1="161.75" x2="176.25" y1="73.625" y2="73.625" /><text fill="#2a7fff" font-family="Helvetica, Arial, sans-serif" font-size="1.8" text-anchor="end" x="167.0" y="74.7">W-04</text><line stroke="#2a7fff" stroke-width="0.35" x1="245.24999999999997" x2="256.75" y1="74.375" y2="74.375" /><line stroke="#2a7fff" stroke-width="0.35" x1="245.24999999999997" x2="256.75" y1="73.625" y2="73.625" /><text fill="#2a7fff" font-family="Helvetica, Arial, sans-serif" font-size="1.8" text-anchor="middle" x="250.99999999999997" y="72.39999999999999">W-06</text><line stroke="#2a7fff" stroke-width="0.35" x1="250.5" x2="262.5" y1="156.375" y2="156.375" /><line stroke="#2a7fff" stroke-width="0.35" x1="250.5" x2="262.5" y1="155.625" y2="155.625" /><text fill="#2a7fff" font-family="Helvetica, Arial, sans-serif" font-size="1.8" text-anchor="middle" x="256.5" y="158.6">W-02</text><line stroke="#2a7fff" stroke-width="0.35" x1="303.375" x2="303.375" y1="96.5" y2="86.5" /><line stroke="#2a7fff" stroke-width="0.35" x1="302.625" x2="302.625" y1="96.5" y2="86.5" /><text fill="#2a7fff" font-family="Helvetica, Arial, sans-serif" font-size="1.8" text-anchor="start" x="305.0" y="92.2">W-03</text><line stroke="#b5651d" stroke-width="0.4" x1="219.45" x2="219.45" y1="156.0" y2="145.9" /><polyline fill="none" points="229.55,156.0 229.46359309987548,154.68168545857748 229.2058508455196,153.38592764446454 228.78118327836398,152.1348973331126 228.19685657822282,150.95 227.4628687369415,149.85150956701193 226.59177848998414,148.85822151001588 225.5984904329881,147.98713126305853 224.5,147.25314342177717 223.3151026668874,146.668816721636 222.06407235553547,146.2441491544804 220.7683145414225,145.9864069001245 219.45,145.9" stroke="#b5651d" stroke-dasharray="0.8,0.5" stroke-width="0.2" /><text fill="#b5651d" font-family="Helvetica, Arial, sans-serif" font-size="1.8" text-anchor="middle" x="219.45" y="145.1">D-01</text><line stroke="#b5651d" stroke-width="0.4" x1="187.075" x2="187.075" y1="122.0" y2="113.15" /><polyline fill="none" points="195.925,122.0 195.84928702315824,120.84484319885254 195.62344356265825,119.70945145084269 195.2513338627249,118.61325162356896 194.73932482349227,117.575 194.09617706157744,116.61246135327282 193.33289501350094,115.74210498649906 192.46253864672718,114.97882293842257 191.5,114.33567517650772 190.46174837643105,113.82366613727513 189.36554854915732,113.45155643734174 188.23015680114747,113.22571297684178 187.075,113.15" stroke="#b5651d" stroke-dasharray="0.8,0.5" stroke-width="0.2" /><text fill="#b5651d" font-family="Helvetica, Arial, sans-serif" font-size="1.8" text-anchor="middle" x="187.075" y="112.35000000000001">D-02</text><line stroke="#b5651d" stroke-width="0.4" x1="208.075" x2="208.075" y1="108.5" y2="99.65" /><polyline fill="none" points="216.925,108.5 216.84928702315824,107.34484319885254 216.62344356265825,106.20945145084269 216.2513338627249,105.11325162356896 215.73932482349227,104.07499999999999 215.09617706157744,103.1124613532728 214.33289501350094,102.24210498649904 213.46253864672718,101.47882293842257 212.5,100.83567517650772 211.46174837643105,100.32366613727511 210.36554854915732,99.95155643734174 209.23015680114747,99.72571297684178 208.075,99.65" stroke="#b5651d" stroke-dasharray="0.8,0.5" stroke-width="0.2" /><text fill="#b5651d" font-family="Helvetica, Arial, sans-serif" font-size="1.8" text-anchor="middle" x="208.075" y="98.85000000000001">D-06</text><line stroke="#b5651d" stroke-width="0.4" x1="164.575" x2="164.575" y1="108.5" y2="99.65" /><polyline fill="none" points="173.425,108.5 173.3492870231582,107.34484319885254 173.12344356265825,106.20945145084269 172.7513338627249,105.11325162356896 172.23932482349227,104.07499999999999 171.59617706157744,103.1124613532728 170.83289501350094,102.24210498649904 169.96253864672718,101.47882293842257 169.0,100.83567517650772 167.96174837643105,100.32366613727511 166.8655485491573,99.95155643734174 165.73015680114744,99.72571297684178 164.575,99.65" stroke="#b5651d" stroke-dasharray="0.8,0.5" stroke-width="0.2" /><text fill="#b5651d" font-family="Helvetica, Arial, sans-serif" font-size="1.8" text-anchor="middle" x="164.575" y="98.85000000000001">D-05</text><line stroke="#b5651d" stroke-width="0.4" x1="246.575" x2="246.575" y1="108.5" y2="99.65" /><polyline fill="none" points="255.425,108.5 255.3492870231582,107.34484319885254 255.12344356265825,106.20945145084269 254.7513338627249,105.11325162356896 254.23932482349227,104.07499999999999 253.59617706157744,103.1124613532728 252.83289501350094,102.24210498649904 251.96253864672718,101.47882293842257 251.0,100.83567517650772 249.96174837643105,100.32366613727511 248.8655485491573,99.95155643734174 247.73015680114744,99.72571297684178 246.575,99.65" stroke="#b5651d" stroke-dasharray="0.8,0.5" stroke-width="0.2" /><text fill="#b5651d" font-family="Helvetica, Arial, sans-serif" font-size="1.8" text-anchor="middle" x="246.575" y="98.85000000000001">D-07</text><line stroke="#b5651d" stroke-width="0.4" x1="252.075" x2="252.075" y1="122.0" y2="113.15" /><polyline fill="none" points="260.92499999999995,122.0 260.8492870231582,120.84484319885254 260.6234435626582,119.70945145084269 260.2513338627249,118.61325162356896 259.73932482349227,117.575 259.0961770615774,116.61246135327282 258.33289501350094,115.74210498649906 257.4625386467271,114.97882293842257 256.5,114.33567517650772 255.46174837643105,113.82366613727513 254.3655485491573,113.45155643734174 253.23015680114744,113.22571297684178 252.075,113.15" stroke="#b5651d" stroke-dasharray="0.8,0.5" stroke-width="0.2" /><text fill="#b5651d" font-family="Helvetica, Arial, sans-serif" font-size="1.8" text-anchor="middle" x="252.075" y="112.35000000000001">D-03</text><line stroke="#b5651d" stroke-width="0.4" x1="282.075" x2="282.075" y1="108.5" y2="99.65" /><polyline fill="none" points="290.925,108.5 290.84928702315824,107.34484319885254 290.6234435626583,106.20945145084269 290.2513338627249,105.11325162356896 289.7393248234923,104.07499999999999 289.09617706157746,103.1124613532728 288.33289501350094,102.24210498649904 287.4625386467272,101.47882293842257 286.5,100.83567517650772 285.46174837643105,100.32366613727511 284.3655485491573,99.95155643734174 283.2301568011475,99.72571297684178 282.075,99.65" stroke="#b5651d" stroke-dasharray="0.8,0.5" stroke-width="0.2" /><text fill="#b5651d" font-family="Helvetica, Arial, sans-serif" font-size="1.8" text-anchor="middle" x="282.075" y="98.85000000000001">D-08</text><line stroke="#b5651d" stroke-width="0.4" x1="285.075" x2="285.075" y1="122.0" y2="113.15" /><polyline fill="none" points="293.92499999999995,122.0 293.84928702315824,120.84484319885254 293.6234435626583,119.70945145084269 293.2513338627249,118.61325162356896 292.73932482349227,117.575 292.09617706157746,116.61246135327282 291.33289501350094,115.74210498649906 290.4625386467271,114.97882293842257 289.5,114.33567517650772 288.46174837643105,113.82366613727513 287.3655485491573,113.45155643734174 286.2301568011475,113.22571297684178 285.075,113.15" stroke="#b5651d" stroke-dasharray="0.8,0.5" stroke-width="0.2" /><text fill="#b5651d" font-family="Helvetica, Arial, sans-serif" font-size="1.8" text-anchor="middle" x="285.075" y="112.35000000000001">D-04</text><text fill="#111111" font-family="Helvetica, Arial, sans-serif" font-size="2.6" font-weight="bold" text-anchor="middle" x="192.0" y="137.75">R-01  Wohnen</text><text fill="#111111" font-family="Helvetica, Arial, sans-serif" font-size="2.2" text-anchor="middle" x="192.0" y="140.95">28.0 m²</text><text fill="#111111" font-family="Helvetica, Arial, sans-serif" font-size="2.6" font-weight="bold" text-anchor="middle" x="212.5" y="90.50000000000001">R-06  Küche</text><text fill="#111111" font-family="Helvetica, Arial, sans-serif" font-size="2.2" text-anchor="middle" x="212.5" y="93.70000000000002">12.2 m²</text><text fill="#111111" font-family="Helvetica, Arial, sans-serif" font-size="2.6" font-weight="bold" text-anchor="middle" x="169.5" y="90.5">R-05  Elternschlafzimmer</text><text fill="#111111" font-family="Helvetica, Arial, sans-serif" font-size="2.2" text-anchor="middle" x="169.5" y="93.7">14.1 m²</text><text fill="#111111" font-family="Helvetica, Arial, sans-serif" font-size="2.6" font-weight="bold" text-anchor="middle" x="250.75" y="90.5">R-07  Kinderzimmer 1</text><text fill="#111111" font-family="Helvetica, Arial, sans-serif" font-size="2.2" text-anchor="middle" x="250.75" y="93.7">11.7 m²</text><text fill="#111111" font-family="Helvetica, Arial, sans-serif" font-size="2.6" font-weight="bold" text-anchor="middle" x="256.25" y="137.75">R-02  Kinderzimmer 2</text><text fill="#111111" font-family="Helvetica, Arial, sans-serif" font-size="2.2" text-anchor="middle" x="256.25" y="140.95">11.8 m²</text><text fill="#111111" font-family="Helvetica, Arial, sans-serif" font-size="2.6" font-weight="bold" text-anchor="middle" x="286.0" y="90.50000000000001">R-08  Büro</text><text fill="#111111" font-family="Helvetica, Arial, sans-serif" font-size="2.2" text-anchor="middle" x="286.0" y="93.70000000000002">9.9 m²</text><text fill="#111111" font-family="Helvetica, Arial, sans-serif" font-size="2.6" font-weight="bold" text-anchor="middle" x="289.0" y="137.75">R-03  Bad</text><text fill="#111111" font-family="Helvetica, Arial, sans-serif" font-size="2.2" text-anchor="middle" x="289.0" y="140.95">7.9 m²</text><text fill="#111111" font-family="Helvetica, Arial, sans-serif" font-size="2.6" font-weight="bold" text-anchor="middle" x="224.5" y="114.25">R-04  Flur</text><text fill="#111111" font-family="Helvetica, Arial, sans-serif" font-size="2.2" text-anchor="middle" x="224.5" y="117.45">19.2 m²</text><line stroke="#555555" stroke-width="0.18" x1="144.5" x2="304.5" y1="169.5" y2="169.5" /><line stroke="#555555" stroke-width="0.25" x1="144.0" x2="145.0" y1="170.0" y2="169.0" /><line stroke="#555555" stroke-width="0.25" x1="161.2" x2="162.2" y1="170.0" y2="169.0" /><line stroke="#555555" stroke-width="0.25" x1="175.7" x2="176.7" y1="170.0" y2="169.0" /><line stroke="#555555" stroke-width="0.25" x1="177.2" x2="178.2" y1="170.0" y2="169.0" /><line stroke="#555555" stroke-width="0.25" x1="204.8" x2="205.8" y1="170.0" y2="169.0" /><line stroke="#555555" stroke-width="0.25" x1="206.0" x2="207.0" y1="170.0" y2="169.0" /><line stroke="#555555" stroke-width="0.25" x1="218.0" x2="219.0" y1="170.0" y2="169.0" /><line stroke="#555555" stroke-width="0.25" x1="219.0" x2="220.0" y1="170.0" y2="169.0" /><line stroke="#555555" stroke-width="0.25" x1="229.1" x2="230.1" y1="170.0" y2="169.0" /><line stroke="#555555" stroke-width="0.25" x1="244.7" x2="245.7" y1="170.0" y2="169.0" /><line stroke="#555555" stroke-width="0.25" x1="250.0" x2="251.0" y1="170.0" y2="169.0" /><line stroke="#555555" stroke-width="0.25" x1="256.2" x2="257.2" y1="170.0" y2="169.0" /><line stroke="#555555" stroke-width="0.25" x1="262.0" x2="263.0" y1="170.0" y2="169.0" /><line stroke="#555555" stroke-width="0.25" x1="304.0" x2="305.0" y1="170.0" y2="169.0" /><text fill="#555555" font-family="Helvetica, Arial, sans-serif" font-size="1.9" text-anchor="middle" x="153.1" y="168.7">1 720</text><text fill="#555555" font-family="Helvetica, Arial, sans-serif" font-size="1.9" text-anchor="middle" x="168.95" y="168.7">1 450</text><text fill="#555555" font-family="Helvetica, Arial, sans-serif" font-size="1.9" text-anchor="middle" x="176.95" y="168.7">150</text><text fill="#555555" font-family="Helvetica, Arial, sans-serif" font-size="1.9" text-anchor="middle" x="191.5" y="168.7">2 760</text><text fill="#555555" font-family="Helvetica, Arial, sans-serif" font-size="1.9" text-anchor="middle" x="205.9" y="168.7">120</text><text fill="#555555" font-family="Helvetica, Arial, sans-serif" font-size="1.9" text-anchor="middle" x="212.5" y="168.7">1 200</text><text fill="#555555" font-family="Helvetica, Arial, sans-serif" font-size="1.9" text-anchor="middle" x="219.0" y="168.7">100</text><text fill="#555555" font-family="Helvetica, Arial, sans-serif" font-size="1.9" text-anchor="middle" x="224.54999999999998" y="168.7">1 010</text><text fill="#555555" font-family="Helvetica, Arial, sans-serif" font-size="1.9" text-anchor="middle" x="237.39999999999998" y="168.7">1 560</text><text fill="#555555" font-family="Helvetica, Arial, sans-serif" font-size="1.9" text-anchor="middle" x="247.85000000000002" y="168.7">530</text><text fill="#555555" font-family="Helvetica, Arial, sans-serif" font-size="1.9" text-anchor="middle" x="253.6" y="168.7">620</text><text fill="#555555" font-family="Helvetica, Arial, sans-serif" font-size="1.9" text-anchor="middle" x="259.6" y="168.7">580</text><text fill="#555555" font-family="Helvetica, Arial, sans-serif" font-size="1.9" text-anchor="middle" x="283.5" y="168.7">4 200</text><line stroke="#555555" stroke-width="0.18" x1="144.5" x2="304.5" y1="181.5" y2="181.5" /><line stroke="#555555" stroke-width="0.25" x1="144.0" x2="145.0" y1="182.0" y2="181.0" /><line stroke="#555555" stroke-width="0.25" x1="304.0" x2="305.0" y1="182.0" y2="181.0" /><text fill="#555555" font-family="Helvetica, Arial, sans-serif" font-size="1.9" text-anchor="middle" x="224.5" y="180.7">16 000</text><line stroke="#555555" stroke-width="0.18" x1="132.5" x2="132.5" y1="157.5" y2="72.5" /><line stroke="#555555" stroke-width="0.25" x1="132.0" x2="133.0" y1="158.0" y2="157.0" /><line stroke="#555555" stroke-width="0.25" x1="132.0" x2="133.0" y1="97.0" y2="96.0" /><line stroke="#555555" stroke-width="0.25" x1="132.0" x2="133.0" y1="87.0" y2="86.0" /><line stroke="#555555" stroke-width="0.25" x1="132.0" x2="133.0" y1="73.0" y2="72.0" /><text fill="#555555" font-family="Helvetica, Arial, sans-serif" font-size="1.9" text-anchor="middle" transform="rotate(-90,131.7,127.0)" x="131.7" y="127.0">6 100</text><text fill="#555555" font-family="Helvetica, Arial, sans-serif" font-size="1.9" text-anchor="middle" transform="rotate(-90,131.7,91.5)" x="131.7" y="91.5">1 000</text><text fill="#555555" font-family="Helvetica, Arial, sans-serif" font-size="1.9" text-anchor="middle" transform="rotate(-90,131.7,79.5)" x="131.7" y="79.5">1 400</text><line stroke="#555555" stroke-width="0.18" x1="120.5" x2="120.5" y1="157.5" y2="72.5" /><line stroke="#555555" stroke-width="0.25" x1="120.0" x2="121.0" y1="158.0" y2="157.0" /><line stroke="#555555" stroke-width="0.25" x1="120.0" x2="121.0" y1="73.0" y2="72.0" /><text fill="#555555" font-family="Helvetica, Arial, sans-serif" font-size="1.9" text-anchor="middle" transform="rotate(-90,119.7,115.0)" x="119.7" y="115.0">8 500</text><polygon fill="#000" points="398.0,16.0 395.0,26.0 398.0,24.0 401.0,26.0" /><text font-family="Helvetica, Arial, sans-serif" font-size="3" font-weight="bold" text-anchor="middle" x="398.0" y="14.5">N</text><rect fill="#000" height="1.2" stroke="#000" stroke-width="0.2" width="10.0" x="15.0" y="243.0" /><text font-family="Helvetica, Arial, sans-serif" font-size="1.8" text-anchor="middle" x="15.0" y="242.2">0</text><rect fill="#fff" height="1.2" stroke="#000" stroke-width="0.2" width="10.0" x="25.0" y="243.0" /><text font-family="Helvetica, Arial, sans-serif" font-size="1.8" text-anchor="middle" x="25.0" y="242.2">1</text><rect fill="#000" height="1.2" stroke="#000" stroke-width="0.2" width="10.0" x="35.0" y="243.0" /><text font-family="Helvetica, Arial, sans-serif" font-size="1.8" text-anchor="middle" x="35.0" y="242.2">2</text><rect fill="#fff" height="1.2" stroke="#000" stroke-width="0.2" width="10.0" x="45.0" y="243.0" /><text font-family="Helvetica, Arial, sans-serif" font-size="1.8" text-anchor="middle" x="45.0" y="242.2">3</text><rect fill="#000" height="1.2" stroke="#000" stroke-width="0.2" width="10.0" x="55.0" y="243.0" /><text font-family="Helvetica, Arial, sans-serif" font-size="1.8" text-anchor="middle" x="55.0" y="242.2">4</text><text font-family="Helvetica, Arial, sans-serif" font-size="1.8" text-anchor="middle" x="65.0" y="242.2">5 m</text><rect fill="white" height="38.0" stroke="#000" stroke-width="0.5" width="150" x="260.0" y="249.0" /><line stroke="#000" stroke-width="0.3" x1="260.0" x2="410.0" y1="261.0" y2="261.0" /><line stroke="#000" stroke-width="0.3" x1="355.0" x2="355.0" y1="261.0" y2="287.0" /><text font-family="Helvetica, Arial, sans-serif" font-size="5" font-weight="bold" x="263.0" y="257.0">Familienhaus</text><text font-family="Helvetica, Arial, sans-serif" font-size="4" x="263.0" y="269.0">FLOOR PLAN — ERDGESCHOSS</text><text fill="#444" font-family="Helvetica, Arial, sans-serif" font-size="2.4" x="263.0" y="276.0">Model: model.ifc</text><text fill="#666" font-family="Helvetica, Arial, sans-serif" font-size="2.2" x="263.0" y="282.0">Generated by Recognition — do not edit by hand; change the generator.</text><text fill="#666" font-family="Helvetica, Arial, sans-serif" font-size="2.2" x="358.0" y="265.0">SHEET</text><text font-family="Helvetica, Arial, sans-serif" font-size="6" font-weight="bold" x="358.0" y="273.0">A-101</text><text font-family="Helvetica, Arial, sans-serif" font-size="2.4" x="358.0" y="279.0">SCALE 1:100  ·  A3</text><text font-family="Helvetica, Arial, sans-serif" font-size="2.4" x="358.0" y="284.0">2026-08-22  ·  REV 0fb84ca</text><rect fill="none" height="277.0" stroke="#000" stroke-width="0.5" width="400.0" x="10.0" y="10.0" /></svg>