<?xml version="1.0" encoding="utf-8" ?>
<svg baseProfile="full" height="297.0mm" version="1.1" viewBox="0 0 420.0 297.0" width="420.0mm" xmlns="http://www.w3.org/2000/svg" xmlns:ev="http://www.w3.org/2001/xml-events" xmlns:xlink="http://www.w3.org/1999/xlink"><defs /><rect fill="white" height="297.0" width="420.0" x="0" y="0" /><path d="M 279.000,123.000 L 279.000,162.000 L 170.000,162.000 L 170.000,123.000 L 279.000,123.000 Z" fill="#eef3fb" fill-rule="evenodd" stroke="#9fb3d9" stroke-width="0.15" /><path d="M 170.000,68.000 L 220.500,68.000 L 220.500,108.000 L 170.000,108.000 L 170.000,68.000 Z" fill="#eef3fb" fill-rule="evenodd" stroke="#9fb3d9" stroke-width="0.15" /><path d="M 257.500,68.000 L 279.000,68.000 L 279.000,108.000 L 257.500,108.000 L 257.500,68.000 Z" fill="#eef3fb" fill-rule="evenodd" stroke="#9fb3d9" stroke-width="0.15" /><path d="M 222.000,68.000 L 256.000,68.000 L 256.000,108.000 L 222.000,108.000 L 222.000,68.000 Z" fill="#eef3fb" fill-rule="evenodd" stroke="#9fb3d9" stroke-width="0.15" /><path d="M 170.000,109.000 L 279.000,109.000 L 279.000,121.000 L 170.000,121.000 L 170.000,109.000 Z" fill="#eef3fb" fill-rule="evenodd" stroke="#9fb3d9" stroke-width="0.15" /><path d="M 176.750,165.000 L 167.000,165.000 L 167.000,162.000 L 176.750,162.000 L 218.250,162.000 L 219.450,162.000 L 229.550,162.000 L 282.000,162.000 L 282.000,165.000 L 229.550,165.000 L 219.450,165.000 L 218.250,165.000 L 176.750,165.000 Z" fill="#2b2b2b" fill-rule="evenodd" stroke="none" /><path d="M 279.000,165.000 L 279.000,65.000 L 282.000,65.000 L 282.000,165.000 L 279.000,165.000 Z" fill="#2b2b2b" fill-rule="evenodd" stroke="none" /><path d="M 167.000,65.000 L 232.750,65.000 L 246.250,65.000 L 282.000,65.000 L 282.000,68.000 L 246.250,68.000 L 232.750,68.000 L 167.000,68.000 L 167.000,65.000 Z" fill="#2b2b2b" fill-rule="evenodd" stroke="none" /><path d="M 170.000,165.000 L 167.000,165.000 L 167.000,65.000 L 170.000,65.000 L 170.000,165.000 Z" fill="#2b2b2b" fill-rule="evenodd" stroke="none" /><path d="M 167.750,121.250 L 220.075,121.250 L 228.925,121.250 L 281.250,121.250 L 281.250,122.750 L 228.925,122.750 L 220.075,122.750 L 167.750,122.750 L 167.750,121.250 Z" fill="#2b2b2b" fill-rule="evenodd" stroke="none" /><path d="M 222.250,109.250 L 220.750,109.250 L 220.750,65.750 L 222.250,65.750 L 222.250,109.250 Z" fill="#2b2b2b" fill-rule="evenodd" stroke="none" /><path d="M 167.750,107.750 L 190.575,107.750 L 199.425,107.750 L 222.250,107.750 L 222.250,109.250 L 199.425,109.250 L 190.575,109.250 L 167.750,109.250 L 167.750,107.750 Z" fill="#2b2b2b" fill-rule="evenodd" stroke="none" /><path d="M 257.750,109.250 L 256.250,109.250 L 256.250,65.750 L 257.750,65.750 L 257.750,109.250 Z" fill="#2b2b2b" fill-rule="evenodd" stroke="none" /><path d="M 256.250,107.750 L 264.075,107.750 L 272.925,107.750 L 281.250,107.750 L 281.250,109.250 L 272.925,109.250 L 264.075,109.250 L 256.250,109.250 L 256.250,107.750 Z" fill="#2b2b2b" fill-rule="evenodd" stroke="none" /><path d="M 220.750,107.750 L 234.575,107.750 L 243.425,107.750 L 257.750,107.750 L 257.750,109.250 L 243.425,109.250 L 234.575,109.250 L 220.750,109.250 L 220.750,107.750 Z" fill="#2b2b2b" fill-rule="evenodd" stroke="none" /><path d="M 229.550,164.250 L 219.450,164.250 L 219.450,162.750 L 229.550,162.750 L 229.550,164.250 Z" fill="white" fill-rule="evenodd" stroke="none" /><path d="M 228.925,122.375 L 220.075,122.375 L 220.075,121.625 L 228.925,121.625 L 228.925,122.375 Z" fill="white" fill-rule="evenodd" stroke="none" /><path d="M 199.425,108.875 L 190.575,108.875 L 190.575,108.125 L 199.425,108.125 L 199.425,108.875 Z" fill="white" fill-rule="evenodd" stroke="none" /><path d="M 272.925,108.875 L 264.075,108.875 L 264.075,108.125 L 272.925,108.125 L 272.925,108.875 Z" fill="white" fill-rule="evenodd" stroke="none" /><path d="M 243.425,108.875 L 234.575,108.875 L 234.575,108.125 L 243.425,108.125 L 243.425,108.875 Z" fill="white" fill-rule="evenodd" stroke="none" /><path d="M 218.250,164.250 L 176.750,164.250 L 176.750,162.750 L 218.250,162.750 L 218.250,164.250 Z" fill="white" fill-rule="evenodd" stroke="none" /><path d="M 232.750,65.750 L 246.250,65.750 L 246.250,67.250 L 232.750,67.250 L 232.750,65.750 Z" fill="white" fill-rule="evenodd" stroke="none" /><line stroke="#2a7fff" stroke-width="0.35" x1="176.75" x2="218.25" y1="163.875" y2="163.875" /><line stroke="#2a7fff" stroke-width="0.35" x1="176.75" x2="218.25" y1="163.125" y2="163.125" /><text fill="#2a7fff" font-family="Helvetica, Arial, sans-serif" font-size="1.8" text-anchor="middle" x="197.5" y="166.1">W-01</text><line stroke="#2a7fff" stroke-width="0.35" x1="232.75" x2="246.25" y1="66.875" y2="66.875" /><line stroke="#2a7fff" stroke-width="0.35" x1="232.75" x2="246.25" y1="66.125" y2="66.125" /><text fill="#2a7fff" font-family="Helvetica, Arial, sans-serif" font-size="1.8" text-anchor="middle" x="239.5" y="64.9">W-02</text><line stroke="#b5651d" stroke-width="0.4" x1="219.45" x2="219.45" y1="163.5" y2="153.4" /><polyline fill="none" points="229.55,163.5 229.46359309987548,162.18168545857748 229.2058508455196,160.88592764446454 228.78118327836398,159.6348973331126 228.19685657822282,158.45 227.46286873694146,157.35150956701193 226.59177848998414,156.35822151001588 225.5984904329881,155.48713126305853 224.5,154.75314342177717 223.3151026668874,154.168816721636 222.06407235553547,153.7441491544804 220.7683145414225,153.4864069001245 219.45,153.4" stroke="#b5651d" stroke-dasharray="0.8,0.5" stroke-width="0.2" /><text fill="#b5651d" font-family="Helvetica, Arial, sans-serif" font-size="1.8" text-anchor="middle" x="219.45" y="152.6">D-01</text><line stroke="#b5651d" stroke-width="0.4" x1="220.075" x2="220.075" y1="122.0" y2="113.15" /><polyline fill="none" points="228.925,122.0 228.84928702315824,120.84484319885254 228.62344356265825,119.70945145084269 228.2513338627249,118.61325162356896 227.73932482349227,117.575 227.09617706157744,116.61246135327282 226.33289501350094,115.74210498649906 225.46253864672718,114.97882293842257 224.5,114.33567517650772 223.46174837643105,113.82366613727513 222.36554854915732,113.45155643734174 221.23015680114747,113.22571297684178 220.075,113.15" stroke="#b5651d" stroke-dasharray="0.8,0.5" stroke-width="0.2" /><text fill="#b5651d" font-family="Helvetica, Arial, sans-serif" font-size="1.8" text-anchor="middle" x="220.075" y="112.35000000000001">D-02</text><line stroke="#b5651d" stroke-width="0.4" x1="190.575" x2="190.575" y1="108.5" y2="99.65" /><polyline fill="none" points="199.425,108.5 199.3492870231582,107.34484319885254 199.12344356265825,106.20945145084269 198.7513338627249,105.11325162356896 198.23932482349227,104.07499999999999 197.59617706157744,103.1124613532728 196.83289501350094,102.24210498649904 195.96253864672718,101.47882293842257 195.0,100.83567517650772 193.96174837643105,100.32366613727511 192.8655485491573,99.95155643734174 191.73015680114744,99.72571297684178 190.575,99.65" stroke="#b5651d" stroke-dasharray="0.8,0.5" stroke-width="0.2" /><text fill="#b5651d" font-family="Helvetica, Arial, sans-serif" font-size="1.8" text-anchor="middle" x="190.575" y="98.85000000000001">D-04</text><line stroke="#b5651d" stroke-width="0.4" x1="264.075" x2="264.075" y1="108.5" y2="99.65" /><polyline fill="none" points="272.925,108.5 272.84928702315824,107.34484319885254 272.6234435626583,106.20945145084269 272.2513338627249,105.11325162356896 271.73932482349227,104.07499999999999 271.09617706157746,103.1124613532728 270.33289501350094,102.24210498649904 269.4625386467272,101.47882293842257 268.5,100.83567517650772 267.46174837643105,100.32366613727511 266.3655485491573,99.95155643734174 265.2301568011475,99.72571297684178 264.075,99.65" stroke="#b5651d" stroke-dasharray="0.8,0.5" stroke-width="0.2" /><text fill="#b5651d" font-family="Helvetica, Arial, sans-serif" font-size="1.8" text-anchor="middle" x="264.075" y="98.85000000000001">D-03</text><line stroke="#b5651d" stroke-width="0.4" x1="234.575" x2="234.575" y1="108.5" y2="99.65" /><polyline fill="none" points="243.425,108.5 243.34928702315824,107.34484319885254 243.12344356265825,106.20945145084269 242.7513338627249,105.11325162356896 242.23932482349227,104.07499999999999 241.59617706157744,103.1124613532728 240.83289501350094,102.24210498649904 239.96253864672718,101.47882293842257 239.0,100.83567517650772 237.96174837643105,100.32366613727511 236.86554854915732,99.95155643734174 235.73015680114747,99.72571297684178 234.575,99.65" stroke="#b5651d" stroke-dasharray="0.8,0.5" stroke-width="0.2" /><text fill="#b5651d" font-family="Helvetica, Arial, sans-serif" font-size="1.8" text-anchor="middle" x="234.575" y="98.85000000000001">D-05</text><text fill="#111111" font-family="Helvetica, Arial, sans-serif" font-size="2.6" font-weight="bold" text-anchor="middle" x="224.5" y="141.5">R-01  Studio</text><text fill="#111111" font-family="Helvetica, Arial, sans-serif" font-size="2.2" text-anchor="middle" x="224.5" y="144.7">42.5 m²</text><text fill="#111111" font-family="Helvetica, Arial, sans-serif" font-size="2.6" font-weight="bold" text-anchor="middle" x="195.25" y="87.00000000000001">R-03  Conference</text><text fill="#111111" font-family="Helvetica, Arial, sans-serif" font-size="2.2" text-anchor="middle" x="195.25" y="90.20000000000002">20.2 m²</text><text fill="#111111" font-family="Helvetica, Arial, sans-serif" font-size="2.6" font-weight="bold" text-anchor="middle" x="268.25" y="87.00000000000001">R-05  Washroom</text><text fill="#111111" font-family="Helvetica, Arial, sans-serif" font-size="2.2" text-anchor="middle" x="268.25" y="90.20000000000002">8.6 m²</text><text fill="#111111" font-family="Helvetica, Arial, sans-serif" font-size="2.6" font-weight="bold" text-anchor="middle" x="239.0" y="87.00000000000003">R-04  Kitchenette</text><text fill="#111111" font-family="Helvetica, Arial, sans-serif" font-size="2.2" text-anchor="middle" x="239.0" y="90.20000000000003">13.6 m²</text><text fill="#111111" font-family="Helvetica, Arial, sans-serif" font-size="2.6" font-weight="bold" text-anchor="middle" x="224.5" y="114.0">R-02  Flur</text><text fill="#111111" font-family="Helvetica, Arial, sans-serif" font-size="2.2" text-anchor="middle" x="224.5" y="117.2">13.1 m²</text><line stroke="#555555" stroke-width="0.18" x1="167.0" x2="282.0" y1="177.0" y2="177.0" /><line stroke="#555555" stroke-width="0.25" x1="166.5" x2="167.5" y1="177.5" y2="176.5" /><line stroke="#555555" stroke-width="0.25" x1="176.2" x2="177.2" y1="177.5" y2="176.5" /><line stroke="#555555" stroke-width="0.25" x1="217.7" x2="218.7" y1="177.5" y2="176.5" /><line stroke="#555555" stroke-width="0.25" x1="218.9" x2="219.9" y1="177.5" y2="176.5" /><line stroke="#555555" stroke-width="0.25" x1="229.1" x2="230.1" y1="177.5" y2="176.5" /><line stroke="#555555" stroke-width="0.25" x1="232.3" x2="233.3" y1="177.5" y2="176.5" /><line stroke="#555555" stroke-width="0.25" x1="245.7" x2="246.7" y1="177.5" y2="176.5" /><line stroke="#555555" stroke-width="0.25" x1="281.5" x2="282.5" y1="177.5" y2="176.5" /><text fill="#555555" font-family="Helvetica, Arial, sans-serif" font-size="1.9" text-anchor="middle" x="171.85" y="176.2">970</text><text fill="#555555" font-family="Helvetica, Arial, sans-serif" font-size="1.9" text-anchor="middle" x="197.45" y="176.2">4 150</text><text fill="#555555" font-family="Helvetica, Arial, sans-serif" font-size="1.9" text-anchor="middle" x="218.8" y="176.2">120</text><text fill="#555555" font-family="Helvetica, Arial, sans-serif" font-size="1.9" text-anchor="middle" x="224.5" y="176.2">1 020</text><text fill="#555555" font-family="Helvetica, Arial, sans-serif" font-size="1.9" text-anchor="middle" x="231.2" y="176.2">320</text><text fill="#555555" font-family="Helvetica, Arial, sans-serif" font-size="1.9" text-anchor="middle" x="239.5" y="176.2">1 340</text><text fill="#555555" font-family="Helvetica, Arial, sans-serif" font-size="1.9" text-anchor="middle" x="264.1" y="176.2">3 580</text><line stroke="#555555" stroke-width="0.18" x1="167.0" x2="282.0" y1="189.0" y2="189.0" /><line stroke="#555555" stroke-width="0.25" x1="166.5" x2="167.5" y1="189.5" y2="188.5" /><line stroke="#555555" stroke-width="0.25" x1="281.5" x2="282.5" y1="189.5" y2="188.5" /><text fill="#555555" font-family="Helvetica, Arial, sans-serif" font-size="1.9" text-anchor="middle" x="224.5" y="188.2">11 500</text><line stroke="#555555" stroke-width="0.18" x1="155.0" x2="155.0" y1="165.0" y2="65.0" /><line stroke="#555555" stroke-width="0.25" x1="154.5" x2="155.5" y1="165.5" y2="164.5" /><line stroke="#555555" stroke-width="0.25" x1="154.5" x2="155.5" y1="65.5" y2="64.5" /><text fill="#555555" font-family="Helvetica, Arial, sans-serif" font-size="1.9" text-anchor="middle" transform="rotate(-90,154.2,115.0)" x="154.2" y="115.0">10 000</text><line stroke="#555555" stroke-width="0.18" x1="143.0" x2="143.0" y1="165.0" y2="65.0" /><line stroke="#555555" stroke-width="0.25" x1="142.5" x2="143.5" y1="165.5" y2="164.5" /><line stroke="#555555" stroke-width="0.25" x1="142.5" x2="143.5" y1="65.5" y2="64.5" /><text fill="#555555" font-family="Helvetica, Arial, sans-serif" font-size="1.9" text-anchor="middle" transform="rotate(-90,142.2,115.0)" x="142.2" y="115.0">10 000</text><polygon fill="#000" points="398.0,16.0 395.0,26.0 398.0,24.0 401.0,26.0" /><text font-family="Helvetica, Arial, sans-serif" font-size="3" font-weight="bold" text-anchor="middle" x="398.0" y="14.5">N</text><rect fill="#000" height="1.2" stroke="#000" stroke-width="0.2" width="10.0" x="15.0" y="243.0" /><text font-family="Helvetica, Arial, sans-serif" font-size="1.8" text-anchor="middle" x="15.0" y="242.2">0</text><rect fill="#fff" height="1.2" stroke="#000" stroke-width="0.2" width="10.0" x="25.0" y="243.0" /><text font-family="Helvetica, Arial, sans-serif" font-size="1.8" text-anchor="middle" x="25.0" y="242.2">1</text><rect fill="#000" height="1.2" stroke="#000" stroke-width="0.2" width="10.0" x="35.0" y="243.0" /><text font-family="Helvetica, Arial, sans-serif" font-size="1.8" text-anchor="middle" x="35.0" y="242.2">2</text><rect fill="#fff" height="1.2" stroke="#000" stroke-width="0.2" width="10.0" x="45.0" y="243.0" /><text font-family="Helvetica, Arial, sans-serif" font-size="1.8" text-anchor="middle" x="45.0" y="242.2">3</text><rect fill="#000" height="1.2" stroke="#000" stroke-width="0.2" width="10.0" x="55.0" y="243.0" /><text font-family="Helvetica, Arial, sans-serif" font-size="1.8" text-anchor="middle" x="55.0" y="242.2">4</text><text font-family="Helvetica, Arial, sans-serif" font-size="1.8" text-anchor="middle" x="65.0" y="242.2">5 m</text><rect fill="white" height="38.0" stroke="#000" stroke-width="0.5" width="150" x="260.0" y="249.0" /><line stroke="#000" stroke-width="0.3" x1="260.0" x2="410.0" y1="261.0" y2="261.0" /><line stroke="#000" stroke-width="0.3" x1="355.0" x2="355.0" y1="261.0" y2="287.0" /><text font-family="Helvetica, Arial, sans-serif" font-size="5" font-weight="bold" x="263.0" y="257.0">Coworking Studio</text><text font-family="Helvetica, Arial, sans-serif" font-size="4" x="263.0" y="269.0">FLOOR PLAN — ERDGESCHOSS</text><text fill="#444" font-family="Helvetica, Arial, sans-serif" font-size="2.4" x="263.0" y="276.0">Model: model.ifc</text><text fill="#666" font-family="Helvetica, Arial, sans-serif" font-size="2.2" x="263.0" y="282.0">Generated by Recognition — do not edit by hand; change the generator.</text><text fill="#666" font-family="Helvetica, Arial, sans-serif" font-size="2.2" x="358.0" y="265.0">SHEET</text><text font-family="Helvetica, Arial, sans-serif" font-size="6" font-weight="bold" x="358.0" y="273.0">A-101</text><text font-family="Helvetica, Arial, sans-serif" font-size="2.4" x="358.0" y="279.0">SCALE 1:100  ·  A3</text><text font-family="Helvetica, Arial, sans-serif" font-size="2.4" x="358.0" y="284.0">2026-08-23  ·  REV dbe5e16</text><rect fill="none" height="277.0" stroke="#000" stroke-width="0.5" width="400.0" x="10.0" y="10.0" /></svg>