ISO-10303-21;
HEADER;
FILE_DESCRIPTION(('ViewDefinition[DesignTransferView]'),'2;1');
FILE_NAME('/dev/null','2026-08-22T22:16:49+00:00',(''),(''),'IfcOpenShell 0.8.5','IfcOpenShell 0.8.5','Nobody');
FILE_SCHEMA(('IFC4'));
ENDSEC;
DATA;
#1=IFCPROJECT('1j1ApwE759IADg1eXcdJ2n',$,'Dreifamilienhaus rev 2',$,$,$,$,(#10),#5);
#2=IFCSIUNIT(*,.LENGTHUNIT.,.MILLI.,.METRE.);
#3=IFCSIUNIT(*,.AREAUNIT.,$,.SQUARE_METRE.);
#4=IFCSIUNIT(*,.VOLUMEUNIT.,$,.CUBIC_METRE.);
#5=IFCUNITASSIGNMENT((#4,#2,#3));
#6=IFCCARTESIANPOINT((0.,0.,0.));
#7=IFCDIRECTION((0.,0.,1.));
#8=IFCDIRECTION((1.,0.,0.));
#9=IFCAXIS2PLACEMENT3D(#6,#7,#8);
#10=IFCGEOMETRICREPRESENTATIONCONTEXT($,'Model',3,1.0000000000000001E-05,#9,$);
#11=IFCGEOMETRICREPRESENTATIONSUBCONTEXT('Body','Model',*,*,*,*,#10,$,.MODEL_VIEW.,$);
#12=IFCSITE('19AK176rX5ofgaI3_GWEUN',$,'Site',$,$,$,$,$,$,$,$,$,$,$);
#13=IFCBUILDING('1OCHuF0R539h4fkS90TY5U',$,'Dreifamilienhaus rev 2',$,$,$,$,$,$,$,$,$);
#14=IFCRELAGGREGATES('0ZHjUQMS9Ahgo_gokrIdZ_',$,$,$,#1,(#12));
#15=IFCRELAGGREGATES('1NDAtlVwL2TuMauYUai4s5',$,$,$,#12,(#13));
#16=IFCBUILDINGSTOREY('01$p8Ib0v5RgCJmGbgl6m5',$,'Erdgeschoss',$,$,$,$,$,$,0.);
#17=IFCRELAGGREGATES('10BpHp5sb7xPMA2WO5bjr7',$,$,$,#13,(#16));
#18=IFCWALL('2yBVNaP8fAW9g6FhTvLG2u',$,'EXT-S',$,$,#40,#34,$,$);
#19=IFCCARTESIANPOINTLIST2D(((0.,300.),(11500.,300.),(11500.,0.),(0.,0.),(0.,300.)));
#20=IFCINDEXEDPOLYCURVE(#19,$,$);
#21=IFCARBITRARYCLOSEDPROFILEDEF(.AREA.,'EXT-S',#20);
#22=IFCCARTESIANPOINT((0.,0.,0.));
#23=IFCDIRECTION((0.,0.,1.));
#24=IFCDIRECTION((1.,0.,0.));
#25=IFCAXIS2PLACEMENT3D(#22,#23,#24);
#26=IFCDIRECTION((0.,0.,1.));
#27=IFCEXTRUDEDAREASOLID(#21,#25,#26,2500.);
#28=IFCSHAPEREPRESENTATION(#11,'Body','SweptSolid',(#27));
#34=IFCPRODUCTDEFINITIONSHAPE($,$,(#28));
#35=IFCRELCONTAINEDINSPATIALSTRUCTURE('00Menhvl9CQfEXpYXnYjq5',$,$,$,(#930,#253,#538,#734,#175,#45,#123,#881,#279,#201,#587,#783,#71,#487,#685,#149,#18,#227,#832,#97,#636,#305),#16);
#36=IFCCARTESIANPOINT((0.,0.,0.));
#37=IFCDIRECTION((0.,0.,1.));
#38=IFCDIRECTION((1.,0.,0.));
#39=IFCAXIS2PLACEMENT3D(#36,#37,#38);
#40=IFCLOCALPLACEMENT($,#39);
#41=IFCPROPERTYSET('3PqR01dMP7Ww0UaLDwiyhY',$,'Pset_WallCommon',$,(#43,#44));
#42=IFCRELDEFINESBYPROPERTIES('0fuELb6eX3XekJVj2bo_Wl',$,$,$,(#18),#41);
#43=IFCPROPERTYSINGLEVALUE('IsExternal',$,IFCBOOLEAN(.T.),$);
#44=IFCPROPERTYSINGLEVALUE('LoadBearing',$,IFCBOOLEAN(.T.),$);
#45=IFCWALL('2cLOjVC9nApfHX58baNJrS',$,'EXT-E',$,$,#66,#61,$,$);
#46=IFCCARTESIANPOINTLIST2D(((11199.999999999998,0.),(11199.999999999998,10000.),(11500.,10000.),(11500.,0.),(11199.999999999998,0.)));
#47=IFCINDEXEDPOLYCURVE(#46,$,$);
#48=IFCARBITRARYCLOSEDPROFILEDEF(.AREA.,'EXT-E',#47);
#49=IFCCARTESIANPOINT((0.,0.,0.));
#50=IFCDIRECTION((0.,0.,1.));
#51=IFCDIRECTION((1.,0.,0.));
#52=IFCAXIS2PLACEMENT3D(#49,#50,#51);
#53=IFCDIRECTION((0.,0.,1.));
#54=IFCEXTRUDEDAREASOLID(#48,#52,#53,2500.);
#55=IFCSHAPEREPRESENTATION(#11,'Body','SweptSolid',(#54));
#61=IFCPRODUCTDEFINITIONSHAPE($,$,(#55));
#62=IFCCARTESIANPOINT((0.,0.,0.));
#63=IFCDIRECTION((0.,0.,1.));
#64=IFCDIRECTION((1.,0.,0.));
#65=IFCAXIS2PLACEMENT3D(#62,#63,#64);
#66=IFCLOCALPLACEMENT($,#65);
#67=IFCPROPERTYSET('3oWT2lIpL0qBgFp_w$U3jp',$,'Pset_WallCommon',$,(#69,#70));
#68=IFCRELDEFINESBYPROPERTIES('2ITGiJG9j43QDuw6au$p5l',$,$,$,(#45),#67);
#69=IFCPROPERTYSINGLEVALUE('IsExternal',$,IFCBOOLEAN(.T.),$);
#70=IFCPROPERTYSINGLEVALUE('LoadBearing',$,IFCBOOLEAN(.T.),$);
#71=IFCWALL('0bArv8fvb3HfhxM0sZbNlF',$,'EXT-N',$,$,#92,#87,$,$);
#72=IFCCARTESIANPOINTLIST2D(((11500.,9699.9999999999982),(0.,9699.9999999999982),(0.,10000.),(11500.,10000.),(11500.,9699.9999999999982)));
#73=IFCINDEXEDPOLYCURVE(#72,$,$);
#74=IFCARBITRARYCLOSEDPROFILEDEF(.AREA.,'EXT-N',#73);
#75=IFCCARTESIANPOINT((0.,0.,0.));
#76=IFCDIRECTION((0.,0.,1.));
#77=IFCDIRECTION((1.,0.,0.));
#78=IFCAXIS2PLACEMENT3D(#75,#76,#77);
#79=IFCDIRECTION((0.,0.,1.));
#80=IFCEXTRUDEDAREASOLID(#74,#78,#79,2500.);
#81=IFCSHAPEREPRESENTATION(#11,'Body','SweptSolid',(#80));
#87=IFCPRODUCTDEFINITIONSHAPE($,$,(#81));
#88=IFCCARTESIANPOINT((0.,0.,0.));
#89=IFCDIRECTION((0.,0.,1.));
#90=IFCDIRECTION((1.,0.,0.));
#91=IFCAXIS2PLACEMENT3D(#88,#89,#90);
#92=IFCLOCALPLACEMENT($,#91);
#93=IFCPROPERTYSET('16kFW8Vbf6JQ2_P_2nIAsG',$,'Pset_WallCommon',$,(#95,#96));
#94=IFCRELDEFINESBYPROPERTIES('0oIil2iI5BHAwwzv_cZpQF',$,$,$,(#71),#93);
#95=IFCPROPERTYSINGLEVALUE('IsExternal',$,IFCBOOLEAN(.T.),$);
#96=IFCPROPERTYSINGLEVALUE('LoadBearing',$,IFCBOOLEAN(.T.),$);
#97=IFCWALL('3T4kLlL6H7qA$wd1AHpWYi',$,'EXT-W',$,$,#118,#113,$,$);
#98=IFCCARTESIANPOINTLIST2D(((300.,10000.),(300.,0.),(0.,0.),(0.,10000.),(300.,10000.)));
#99=IFCINDEXEDPOLYCURVE(#98,$,$);
#100=IFCARBITRARYCLOSEDPROFILEDEF(.AREA.,'EXT-W',#99);
#101=IFCCARTESIANPOINT((0.,0.,0.));
#102=IFCDIRECTION((0.,0.,1.));
#103=IFCDIRECTION((1.,0.,0.));
#104=IFCAXIS2PLACEMENT3D(#101,#102,#103);
#105=IFCDIRECTION((0.,0.,1.));
#106=IFCEXTRUDEDAREASOLID(#100,#104,#105,2500.);
#107=IFCSHAPEREPRESENTATION(#11,'Body','SweptSolid',(#106));
#113=IFCPRODUCTDEFINITIONSHAPE($,$,(#107));
#114=IFCCARTESIANPOINT((0.,0.,0.));
#115=IFCDIRECTION((0.,0.,1.));
#116=IFCDIRECTION((1.,0.,0.));
#117=IFCAXIS2PLACEMENT3D(#114,#115,#116);
#118=IFCLOCALPLACEMENT($,#117);
#119=IFCPROPERTYSET('2RB6O0rwj6GO0P75w9gm4K',$,'Pset_WallCommon',$,(#121,#122));
#120=IFCRELDEFINESBYPROPERTIES('0SP_fdFXX629qiG5dB3_Xa',$,$,$,(#97),#119);
#121=IFCPROPERTYSINGLEVALUE('IsExternal',$,IFCBOOLEAN(.T.),$);
#122=IFCPROPERTYSINGLEVALUE('LoadBearing',$,IFCBOOLEAN(.T.),$);
#123=IFCWALL('1O1LRRd0zFqBlALeqVCnx6',$,'INT-1',$,$,#144,#139,$,$);
#124=IFCCARTESIANPOINTLIST2D(((7724.9999999999991,75.),(7724.9999999999991,4175.),(7875.,4175.),(7875.,75.),(7724.9999999999991,75.)));
#125=IFCINDEXEDPOLYCURVE(#124,$,$);
#126=IFCARBITRARYCLOSEDPROFILEDEF(.AREA.,'INT-1',#125);
#127=IFCCARTESIANPOINT((0.,0.,0.));
#128=IFCDIRECTION((0.,0.,1.));
#129=IFCDIRECTION((1.,0.,0.));
#130=IFCAXIS2PLACEMENT3D(#127,#128,#129);
#131=IFCDIRECTION((0.,0.,1.));
#132=IFCEXTRUDEDAREASOLID(#126,#130,#131,2500.);
#133=IFCSHAPEREPRESENTATION(#11,'Body','SweptSolid',(#132));
#139=IFCPRODUCTDEFINITIONSHAPE($,$,(#133));
#140=IFCCARTESIANPOINT((0.,0.,0.));
#141=IFCDIRECTION((0.,0.,1.));
#142=IFCDIRECTION((1.,0.,0.));
#143=IFCAXIS2PLACEMENT3D(#140,#141,#142);
#144=IFCLOCALPLACEMENT($,#143);
#145=IFCPROPERTYSET('1GtpjNpnj0FeRcU0gY6zXA',$,'Pset_WallCommon',$,(#147,#148));
#146=IFCRELDEFINESBYPROPERTIES('2RF6jpaRX0Mg$zCD8Xw4GP',$,$,$,(#123),#145);
#147=IFCPROPERTYSINGLEVALUE('IsExternal',$,IFCBOOLEAN(.F.),$);
#148=IFCPROPERTYSINGLEVALUE('LoadBearing',$,IFCBOOLEAN(.F.),$);
#149=IFCWALL('3miSYStHH7sR5Zw36Imjv$',$,'INT-2',$,$,#170,#165,$,$);
#150=IFCCARTESIANPOINTLIST2D(((75.,4175.),(7875.,4175.),(7875.,4024.9999999999995),(75.,4024.9999999999995),(75.,4175.)));
#151=IFCINDEXEDPOLYCURVE(#150,$,$);
#152=IFCARBITRARYCLOSEDPROFILEDEF(.AREA.,'INT-2',#151);
#153=IFCCARTESIANPOINT((0.,0.,0.));
#154=IFCDIRECTION((0.,0.,1.));
#155=IFCDIRECTION((1.,0.,0.));
#156=IFCAXIS2PLACEMENT3D(#153,#154,#155);
#157=IFCDIRECTION((0.,0.,1.));
#158=IFCEXTRUDEDAREASOLID(#152,#156,#157,2500.);
#159=IFCSHAPEREPRESENTATION(#11,'Body','SweptSolid',(#158));
#165=IFCPRODUCTDEFINITIONSHAPE($,$,(#159));
#166=IFCCARTESIANPOINT((0.,0.,0.));
#167=IFCDIRECTION((0.,0.,1.));
#168=IFCDIRECTION((1.,0.,0.));
#169=IFCAXIS2PLACEMENT3D(#166,#167,#168);
#170=IFCLOCALPLACEMENT($,#169);
#171=IFCPROPERTYSET('24WZUv7UHBLwiqqBCGnikd',$,'Pset_WallCommon',$,(#173,#174));
#172=IFCRELDEFINESBYPROPERTIES('2UPqqloS1DKPHEdWjwXB3$',$,$,$,(#149),#171);
#173=IFCPROPERTYSINGLEVALUE('IsExternal',$,IFCBOOLEAN(.F.),$);
#174=IFCPROPERTYSINGLEVALUE('LoadBearing',$,IFCBOOLEAN(.F.),$);
#175=IFCWALL('1edxheUjfAtvYQnAfhWxRX',$,'INT-3',$,$,#196,#191,$,$);
#176=IFCCARTESIANPOINTLIST2D(((7724.9999999999991,4175.),(11424.999999999998,4175.),(11424.999999999998,4024.9999999999995),(7724.9999999999991,4024.9999999999995),(7724.9999999999991,4175.)));
#177=IFCINDEXEDPOLYCURVE(#176,$,$);
#178=IFCARBITRARYCLOSEDPROFILEDEF(.AREA.,'INT-3',#177);
#179=IFCCARTESIANPOINT((0.,0.,0.));
#180=IFCDIRECTION((0.,0.,1.));
#181=IFCDIRECTION((1.,0.,0.));
#182=IFCAXIS2PLACEMENT3D(#179,#180,#181);
#183=IFCDIRECTION((0.,0.,1.));
#184=IFCEXTRUDEDAREASOLID(#178,#182,#183,2500.);
#185=IFCSHAPEREPRESENTATION(#11,'Body','SweptSolid',(#184));
#191=IFCPRODUCTDEFINITIONSHAPE($,$,(#185));
#192=IFCCARTESIANPOINT((0.,0.,0.));
#193=IFCDIRECTION((0.,0.,1.));
#194=IFCDIRECTION((1.,0.,0.));
#195=IFCAXIS2PLACEMENT3D(#192,#193,#194);
#196=IFCLOCALPLACEMENT($,#195);
#197=IFCPROPERTYSET('0xP2hHQqX76hfGEYX_lmKh',$,'Pset_WallCommon',$,(#199,#200));
#198=IFCRELDEFINESBYPROPERTIES('19zqyWW357lhB96MVPmpuD',$,$,$,(#175),#197);
#199=IFCPROPERTYSINGLEVALUE('IsExternal',$,IFCBOOLEAN(.F.),$);
#200=IFCPROPERTYSINGLEVALUE('LoadBearing',$,IFCBOOLEAN(.F.),$);
#201=IFCWALL('1rf52o0qD48hnJXO3I_LHz',$,'INT-4',$,$,#222,#217,$,$);
#202=IFCCARTESIANPOINTLIST2D(((4425.,5825.),(4425.,9924.9999999999982),(4575.,9924.9999999999982),(4575.,5825.),(4425.,5825.)));
#203=IFCINDEXEDPOLYCURVE(#202,$,$);
#204=IFCARBITRARYCLOSEDPROFILEDEF(.AREA.,'INT-4',#203);
#205=IFCCARTESIANPOINT((0.,0.,0.));
#206=IFCDIRECTION((0.,0.,1.));
#207=IFCDIRECTION((1.,0.,0.));
#208=IFCAXIS2PLACEMENT3D(#205,#206,#207);
#209=IFCDIRECTION((0.,0.,1.));
#210=IFCEXTRUDEDAREASOLID(#204,#208,#209,2500.);
#211=IFCSHAPEREPRESENTATION(#11,'Body','SweptSolid',(#210));
#217=IFCPRODUCTDEFINITIONSHAPE($,$,(#211));
#218=IFCCARTESIANPOINT((0.,0.,0.));
#219=IFCDIRECTION((0.,0.,1.));
#220=IFCDIRECTION((1.,0.,0.));
#221=IFCAXIS2PLACEMENT3D(#218,#219,#220);
#222=IFCLOCALPLACEMENT($,#221);
#223=IFCPROPERTYSET('1o2uQIrP5Epx$rYLNmXY$b',$,'Pset_WallCommon',$,(#225,#226));
#224=IFCRELDEFINESBYPROPERTIES('0Rz2Jlo4T2zuoLmVlDMM9D',$,$,$,(#201),#223);
#225=IFCPROPERTYSINGLEVALUE('IsExternal',$,IFCBOOLEAN(.F.),$);
#226=IFCPROPERTYSINGLEVALUE('LoadBearing',$,IFCBOOLEAN(.F.),$);
#227=IFCWALL('3bu1LaccH5qRez8hb7LYje',$,'INT-5',$,$,#248,#243,$,$);
#228=IFCCARTESIANPOINTLIST2D(((75.,5975.),(4575.,5975.),(4575.,5825.),(75.,5825.),(75.,5975.)));
#229=IFCINDEXEDPOLYCURVE(#228,$,$);
#230=IFCARBITRARYCLOSEDPROFILEDEF(.AREA.,'INT-5',#229);
#231=IFCCARTESIANPOINT((0.,0.,0.));
#232=IFCDIRECTION((0.,0.,1.));
#233=IFCDIRECTION((1.,0.,0.));
#234=IFCAXIS2PLACEMENT3D(#231,#232,#233);
#235=IFCDIRECTION((0.,0.,1.));
#236=IFCEXTRUDEDAREASOLID(#230,#234,#235,2500.);
#237=IFCSHAPEREPRESENTATION(#11,'Body','SweptSolid',(#236));
#243=IFCPRODUCTDEFINITIONSHAPE($,$,(#237));
#244=IFCCARTESIANPOINT((0.,0.,0.));
#245=IFCDIRECTION((0.,0.,1.));
#246=IFCDIRECTION((1.,0.,0.));
#247=IFCAXIS2PLACEMENT3D(#244,#245,#246);
#248=IFCLOCALPLACEMENT($,#247);
#249=IFCPROPERTYSET('1kbMQ71qHDzetW5GA_luio',$,'Pset_WallCommon',$,(#251,#252));
#250=IFCRELDEFINESBYPROPERTIES('1n6q3d1sHEsPNb0sBEhz7N',$,$,$,(#227),#249);
#251=IFCPROPERTYSINGLEVALUE('IsExternal',$,IFCBOOLEAN(.F.),$);
#252=IFCPROPERTYSINGLEVALUE('LoadBearing',$,IFCBOOLEAN(.F.),$);
#253=IFCWALL('1gwuEUDCDEjREBat0nQc40',$,'INT-6',$,$,#274,#269,$,$);
#254=IFCCARTESIANPOINTLIST2D(((8775.,5825.),(8775.,9924.9999999999982),(8924.9999999999982,9924.9999999999982),(8924.9999999999982,5825.),(8775.,5825.)));
#255=IFCINDEXEDPOLYCURVE(#254,$,$);
#256=IFCARBITRARYCLOSEDPROFILEDEF(.AREA.,'INT-6',#255);
#257=IFCCARTESIANPOINT((0.,0.,0.));
#258=IFCDIRECTION((0.,0.,1.));
#259=IFCDIRECTION((1.,0.,0.));
#260=IFCAXIS2PLACEMENT3D(#257,#258,#259);
#261=IFCDIRECTION((0.,0.,1.));
#262=IFCEXTRUDEDAREASOLID(#256,#260,#261,2500.);
#263=IFCSHAPEREPRESENTATION(#11,'Body','SweptSolid',(#262));
#269=IFCPRODUCTDEFINITIONSHAPE($,$,(#263));
#270=IFCCARTESIANPOINT((0.,0.,0.));
#271=IFCDIRECTION((0.,0.,1.));
#272=IFCDIRECTION((1.,0.,0.));
#273=IFCAXIS2PLACEMENT3D(#270,#271,#272);
#274=IFCLOCALPLACEMENT($,#273);
#275=IFCPROPERTYSET('2eIRwDLGH1uPEDL8qTUJQe',$,'Pset_WallCommon',$,(#277,#278));
#276=IFCRELDEFINESBYPROPERTIES('0pzM1HwcXBrxXwA4GAcYIq',$,$,$,(#253),#275);
#277=IFCPROPERTYSINGLEVALUE('IsExternal',$,IFCBOOLEAN(.F.),$);
#278=IFCPROPERTYSINGLEVALUE('LoadBearing',$,IFCBOOLEAN(.F.),$);
#279=IFCWALL('05x_0DZpP1_R4xdzRbXV6q',$,'INT-7',$,$,#300,#295,$,$);
#280=IFCCARTESIANPOINTLIST2D(((4425.,5975.),(8924.9999999999982,5975.),(8924.9999999999982,5825.),(4425.,5825.),(4425.,5975.)));
#281=IFCINDEXEDPOLYCURVE(#280,$,$);
#282=IFCARBITRARYCLOSEDPROFILEDEF(.AREA.,'INT-7',#281);
#283=IFCCARTESIANPOINT((0.,0.,0.));
#284=IFCDIRECTION((0.,0.,1.));
#285=IFCDIRECTION((1.,0.,0.));
#286=IFCAXIS2PLACEMENT3D(#283,#284,#285);
#287=IFCDIRECTION((0.,0.,1.));
#288=IFCEXTRUDEDAREASOLID(#282,#286,#287,2500.);
#289=IFCSHAPEREPRESENTATION(#11,'Body','SweptSolid',(#288));
#295=IFCPRODUCTDEFINITIONSHAPE($,$,(#289));
#296=IFCCARTESIANPOINT((0.,0.,0.));
#297=IFCDIRECTION((0.,0.,1.));
#298=IFCDIRECTION((1.,0.,0.));
#299=IFCAXIS2PLACEMENT3D(#296,#297,#298);
#300=IFCLOCALPLACEMENT($,#299);
#301=IFCPROPERTYSET('1wg1qbkn9ESgx8sB3QiHsZ',$,'Pset_WallCommon',$,(#303,#304));
#302=IFCRELDEFINESBYPROPERTIES('2cXwZngoL7xwmqC_Z$0ZJm',$,$,$,(#279),#301);
#303=IFCPROPERTYSINGLEVALUE('IsExternal',$,IFCBOOLEAN(.F.),$);
#304=IFCPROPERTYSINGLEVALUE('LoadBearing',$,IFCBOOLEAN(.F.),$);
#305=IFCWALL('2PVaUPCQD8lgOa_iYuAQrR',$,'INT-8',$,$,#326,#321,$,$);
#306=IFCCARTESIANPOINTLIST2D(((8775.,5975.),(11424.999999999998,5975.),(11424.999999999998,5825.),(8775.,5825.),(8775.,5975.)));
#307=IFCINDEXEDPOLYCURVE(#306,$,$);
#308=IFCARBITRARYCLOSEDPROFILEDEF(.AREA.,'INT-8',#307);
#309=IFCCARTESIANPOINT((0.,0.,0.));
#310=IFCDIRECTION((0.,0.,1.));
#311=IFCDIRECTION((1.,0.,0.));
#312=IFCAXIS2PLACEMENT3D(#309,#310,#311);
#313=IFCDIRECTION((0.,0.,1.));
#314=IFCEXTRUDEDAREASOLID(#308,#312,#313,2500.);
#315=IFCSHAPEREPRESENTATION(#11,'Body','SweptSolid',(#314));
#321=IFCPRODUCTDEFINITIONSHAPE($,$,(#315));
#322=IFCCARTESIANPOINT((0.,0.,0.));
#323=IFCDIRECTION((0.,0.,1.));
#324=IFCDIRECTION((1.,0.,0.));
#325=IFCAXIS2PLACEMENT3D(#322,#323,#324);
#326=IFCLOCALPLACEMENT($,#325);
#327=IFCPROPERTYSET('3BFHaajVT7jwZMuH0XL0zz',$,'Pset_WallCommon',$,(#329,#330));
#328=IFCRELDEFINESBYPROPERTIES('00goiSHzT8whC8$yP04OEb',$,$,$,(#305),#327);
#329=IFCPROPERTYSINGLEVALUE('IsExternal',$,IFCBOOLEAN(.F.),$);
#330=IFCPROPERTYSINGLEVALUE('LoadBearing',$,IFCBOOLEAN(.F.),$);
#331=IFCSPACE('1b6EbARYP3dOVx2ujm4ms1',$,'Wohnen',$,$,#353,#347,'Wohnen',$,.INTERNAL.,$);
#332=IFCCARTESIANPOINTLIST2D(((300.,300.),(7700.,300.),(7700.,4000.),(300.,4000.),(300.,300.)));
#333=IFCINDEXEDPOLYCURVE(#332,$,$);
#334=IFCARBITRARYCLOSEDPROFILEDEF(.AREA.,'Wohnen',#333);
#335=IFCCARTESIANPOINT((0.,0.,0.));
#336=IFCDIRECTION((0.,0.,1.));
#337=IFCDIRECTION((1.,0.,0.));
#338=IFCAXIS2PLACEMENT3D(#335,#336,#337);
#339=IFCDIRECTION((0.,0.,1.));
#340=IFCEXTRUDEDAREASOLID(#334,#338,#339,2500.);
#341=IFCSHAPEREPRESENTATION(#11,'Body','SweptSolid',(#340));
#347=IFCPRODUCTDEFINITIONSHAPE($,$,(#341));
#348=IFCRELAGGREGATES('2$EfhIKb1CORa8CCf7LDUS',$,$,$,#16,(#376,#420,#442,#331,#354,#398));
#349=IFCCARTESIANPOINT((0.,0.,0.));
#350=IFCDIRECTION((0.,0.,1.));
#351=IFCDIRECTION((1.,0.,0.));
#352=IFCAXIS2PLACEMENT3D(#349,#350,#351);
#353=IFCLOCALPLACEMENT($,#352);
#354=IFCSPACE('2KgKSlApTA9u32XRpET2US',$,'K\X2\00FC\X0\che',$,$,#375,#370,'K\X2\00FC\X0\che',$,.INTERNAL.,$);
#355=IFCCARTESIANPOINTLIST2D(((7900.,300.),(11199.999999999998,300.),(11199.999999999998,4000.),(7900.,4000.),(7900.,300.)));
#356=IFCINDEXEDPOLYCURVE(#355,$,$);
#357=IFCARBITRARYCLOSEDPROFILEDEF(.AREA.,'K\X2\00FC\X0\che',#356);
#358=IFCCARTESIANPOINT((0.,0.,0.));
#359=IFCDIRECTION((0.,0.,1.));
#360=IFCDIRECTION((1.,0.,0.));
#361=IFCAXIS2PLACEMENT3D(#358,#359,#360);
#362=IFCDIRECTION((0.,0.,1.));
#363=IFCEXTRUDEDAREASOLID(#357,#361,#362,2500.);
#364=IFCSHAPEREPRESENTATION(#11,'Body','SweptSolid',(#363));
#370=IFCPRODUCTDEFINITIONSHAPE($,$,(#364));
#371=IFCCARTESIANPOINT((0.,0.,0.));
#372=IFCDIRECTION((0.,0.,1.));
#373=IFCDIRECTION((1.,0.,0.));
#374=IFCAXIS2PLACEMENT3D(#371,#372,#373);
#375=IFCLOCALPLACEMENT($,#374);
#376=IFCSPACE('2CFJIWJ2P0L9hZHIMPcfkv',$,'Schlafzimmer 1',$,$,#397,#392,'Schlafzimmer 1',$,.INTERNAL.,$);
#377=IFCCARTESIANPOINTLIST2D(((300.,6000.),(4400.,6000.),(4400.,9699.9999999999982),(300.,9699.9999999999982),(300.,6000.)));
#378=IFCINDEXEDPOLYCURVE(#377,$,$);
#379=IFCARBITRARYCLOSEDPROFILEDEF(.AREA.,'Schlafzimmer 1',#378);
#380=IFCCARTESIANPOINT((0.,0.,0.));
#381=IFCDIRECTION((0.,0.,1.));
#382=IFCDIRECTION((1.,0.,0.));
#383=IFCAXIS2PLACEMENT3D(#380,#381,#382);
#384=IFCDIRECTION((0.,0.,1.));
#385=IFCEXTRUDEDAREASOLID(#379,#383,#384,2500.);
#386=IFCSHAPEREPRESENTATION(#11,'Body','SweptSolid',(#385));
#392=IFCPRODUCTDEFINITIONSHAPE($,$,(#386));
#393=IFCCARTESIANPOINT((0.,0.,0.));
#394=IFCDIRECTION((0.,0.,1.));
#395=IFCDIRECTION((1.,0.,0.));
#396=IFCAXIS2PLACEMENT3D(#393,#394,#395);
#397=IFCLOCALPLACEMENT($,#396);
#398=IFCSPACE('1r2ljq5UP2Beg79VrlZg4k',$,'Schlafzimmer 2',$,$,#419,#414,'Schlafzimmer 2',$,.INTERNAL.,$);
#399=IFCCARTESIANPOINTLIST2D(((4600.,6000.),(8750.,6000.),(8750.,9699.9999999999982),(4600.,9699.9999999999982),(4600.,6000.)));
#400=IFCINDEXEDPOLYCURVE(#399,$,$);
#401=IFCARBITRARYCLOSEDPROFILEDEF(.AREA.,'Schlafzimmer 2',#400);
#402=IFCCARTESIANPOINT((0.,0.,0.));
#403=IFCDIRECTION((0.,0.,1.));
#404=IFCDIRECTION((1.,0.,0.));
#405=IFCAXIS2PLACEMENT3D(#402,#403,#404);
#406=IFCDIRECTION((0.,0.,1.));
#407=IFCEXTRUDEDAREASOLID(#401,#405,#406,2500.);
#408=IFCSHAPEREPRESENTATION(#11,'Body','SweptSolid',(#407));
#414=IFCPRODUCTDEFINITIONSHAPE($,$,(#408));
#415=IFCCARTESIANPOINT((0.,0.,0.));
#416=IFCDIRECTION((0.,0.,1.));
#417=IFCDIRECTION((1.,0.,0.));
#418=IFCAXIS2PLACEMENT3D(#415,#416,#417);
#419=IFCLOCALPLACEMENT($,#418);
#420=IFCSPACE('0PVOidYAPCtvaRt6UpZ9xw',$,'Bad',$,$,#441,#436,'Bad',$,.INTERNAL.,$);
#421=IFCCARTESIANPOINTLIST2D(((8900.,6000.),(11199.999999999998,6000.),(11199.999999999998,9699.9999999999982),(8900.,9699.9999999999982),(8900.,6000.)));
#422=IFCINDEXEDPOLYCURVE(#421,$,$);
#423=IFCARBITRARYCLOSEDPROFILEDEF(.AREA.,'Bad',#422);
#424=IFCCARTESIANPOINT((0.,0.,0.));
#425=IFCDIRECTION((0.,0.,1.));
#426=IFCDIRECTION((1.,0.,0.));
#427=IFCAXIS2PLACEMENT3D(#424,#425,#426);
#428=IFCDIRECTION((0.,0.,1.));
#429=IFCEXTRUDEDAREASOLID(#423,#427,#428,2500.);
#430=IFCSHAPEREPRESENTATION(#11,'Body','SweptSolid',(#429));
#436=IFCPRODUCTDEFINITIONSHAPE($,$,(#430));
#437=IFCCARTESIANPOINT((0.,0.,0.));
#438=IFCDIRECTION((0.,0.,1.));
#439=IFCDIRECTION((1.,0.,0.));
#440=IFCAXIS2PLACEMENT3D(#437,#438,#439);
#441=IFCLOCALPLACEMENT($,#440);
#442=IFCSPACE('1pNaNsKP10$8rfXnVHqepC',$,'Flur',$,$,#463,#458,'Flur',$,.INTERNAL.,$);
#443=IFCCARTESIANPOINTLIST2D(((300.,4150.),(11199.999999999998,4150.),(11199.999999999998,5849.9999999999991),(300.,5849.9999999999991),(300.,4150.)));
#444=IFCINDEXEDPOLYCURVE(#443,$,$);
#445=IFCARBITRARYCLOSEDPROFILEDEF(.AREA.,'Flur',#444);
#446=IFCCARTESIANPOINT((0.,0.,0.));
#447=IFCDIRECTION((0.,0.,1.));
#448=IFCDIRECTION((1.,0.,0.));
#449=IFCAXIS2PLACEMENT3D(#446,#447,#448);
#450=IFCDIRECTION((0.,0.,1.));
#451=IFCEXTRUDEDAREASOLID(#445,#449,#450,2500.);
#452=IFCSHAPEREPRESENTATION(#11,'Body','SweptSolid',(#451));
#458=IFCPRODUCTDEFINITIONSHAPE($,$,(#452));
#459=IFCCARTESIANPOINT((0.,0.,0.));
#460=IFCDIRECTION((0.,0.,1.));
#461=IFCDIRECTION((1.,0.,0.));
#462=IFCAXIS2PLACEMENT3D(#459,#460,#461);
#463=IFCLOCALPLACEMENT($,#462);
#464=IFCOPENINGELEMENT('0kv7r36Xj9Aw6ox1G5CA5J',$,'D-00 opening',$,$,#486,#480,$,$);
#465=IFCCARTESIANPOINTLIST2D(((5300.,319.99999999999994),(6200.,319.99999999999994),(6200.,-19.999999999999989),(5300.,-19.999999999999989),(5300.,319.99999999999994)));
#466=IFCINDEXEDPOLYCURVE(#465,$,$);
#467=IFCARBITRARYCLOSEDPROFILEDEF(.AREA.,'D-00 opening',#466);
#468=IFCCARTESIANPOINT((0.,0.,0.));
#469=IFCDIRECTION((0.,0.,1.));
#470=IFCDIRECTION((1.,0.,0.));
#471=IFCAXIS2PLACEMENT3D(#468,#469,#470);
#472=IFCDIRECTION((0.,0.,1.));
#473=IFCEXTRUDEDAREASOLID(#467,#471,#472,2100.);
#474=IFCSHAPEREPRESENTATION(#11,'Body','SweptSolid',(#473));
#480=IFCPRODUCTDEFINITIONSHAPE($,$,(#474));
#481=IFCRELVOIDSELEMENT('1$QhTK04nAZvzBxZMpB_9P',$,$,$,#18,#464);
#482=IFCCARTESIANPOINT((0.,0.,0.));
#483=IFCDIRECTION((0.,0.,1.));
#484=IFCDIRECTION((1.,0.,0.));
#485=IFCAXIS2PLACEMENT3D(#482,#483,#484);
#486=IFCLOCALPLACEMENT(#40,#485);
#487=IFCDOOR('3JiF565TH8vwuUn1SR322z',$,'D-00',$,$,#509,#503,$,2.1000000000000001,0.90000000000000002,.DOOR.,$,$);
#488=IFCCARTESIANPOINTLIST2D(((5300.,224.99999999999997),(6200.,224.99999999999997),(6200.,75.),(5300.,75.),(5300.,224.99999999999997)));
#489=IFCINDEXEDPOLYCURVE(#488,$,$);
#490=IFCARBITRARYCLOSEDPROFILEDEF(.AREA.,'D-00',#489);
#491=IFCCARTESIANPOINT((0.,0.,0.));
#492=IFCDIRECTION((0.,0.,1.));
#493=IFCDIRECTION((1.,0.,0.));
#494=IFCAXIS2PLACEMENT3D(#491,#492,#493);
#495=IFCDIRECTION((0.,0.,1.));
#496=IFCEXTRUDEDAREASOLID(#490,#494,#495,2100.);
#497=IFCSHAPEREPRESENTATION(#11,'Body','SweptSolid',(#496));
#503=IFCPRODUCTDEFINITIONSHAPE($,$,(#497));
#504=IFCRELFILLSELEMENT('00i_GIkInD_gI81Ih_NNoz',$,$,$,#464,#487);
#505=IFCCARTESIANPOINT((0.,0.,0.));
#506=IFCDIRECTION((0.,0.,1.));
#507=IFCDIRECTION((1.,0.,0.));
#508=IFCAXIS2PLACEMENT3D(#505,#506,#507);
#509=IFCLOCALPLACEMENT(#486,#508);
#510=IFCDOORTYPE('3VlaXSrjj0pe2oBFcjQI8I',$,'Eingangstuer',$,$,$,$,$,$,.NOTDEFINED.,.NOTDEFINED.,$,$);
#511=IFCRELDEFINESBYTYPE('1p$PnVxrX47xLQp0INNu2g',$,$,$,(#487),#510);
#512=IFCPROPERTYSET('1a6QnZz1XCqPLQqzkBZyh6',$,'Pset_DoorCommon',$,(#514));
#513=IFCRELDEFINESBYPROPERTIES('3n3AdcpFHDc8Bctgdh_mwC',$,$,$,(#487),#512);
#514=IFCPROPERTYSINGLEVALUE('IsExternal',$,IFCBOOLEAN(.T.),$);
#515=IFCOPENINGELEMENT('3qPmTaSbb8Ex0vjlQbOM6h',$,'D-01 opening',$,$,#537,#531,$,$);
#516=IFCCARTESIANPOINTLIST2D(((3549.9999999999995,4194.9999999999991),(4350.,4194.9999999999991),(4350.,4005.),(3549.9999999999995,4005.),(3549.9999999999995,4194.9999999999991)));
#517=IFCINDEXEDPOLYCURVE(#516,$,$);
#518=IFCARBITRARYCLOSEDPROFILEDEF(.AREA.,'D-01 opening',#517);
#519=IFCCARTESIANPOINT((0.,0.,0.));
#520=IFCDIRECTION((0.,0.,1.));
#521=IFCDIRECTION((1.,0.,0.));
#522=IFCAXIS2PLACEMENT3D(#519,#520,#521);
#523=IFCDIRECTION((0.,0.,1.));
#524=IFCEXTRUDEDAREASOLID(#518,#522,#523,2050.);
#525=IFCSHAPEREPRESENTATION(#11,'Body','SweptSolid',(#524));
#531=IFCPRODUCTDEFINITIONSHAPE($,$,(#525));
#532=IFCRELVOIDSELEMENT('3s5MW54ebBruk6J6XKX6JC',$,$,$,#149,#515);
#533=IFCCARTESIANPOINT((0.,0.,0.));
#534=IFCDIRECTION((0.,0.,1.));
#535=IFCDIRECTION((1.,0.,0.));
#536=IFCAXIS2PLACEMENT3D(#533,#534,#535);
#537=IFCLOCALPLACEMENT(#170,#536);
#538=IFCDOOR('0XUWSCFx1CHuyO01VQKfJ5',$,'D-01',$,$,#560,#554,$,2.0499999999999998,0.80000000000000004,.DOOR.,$,$);
#539=IFCCARTESIANPOINTLIST2D(((3549.9999999999995,4137.4999999999991),(4350.,4137.4999999999991),(4350.,4062.5),(3549.9999999999995,4062.5),(3549.9999999999995,4137.4999999999991)));
#540=IFCINDEXEDPOLYCURVE(#539,$,$);
#541=IFCARBITRARYCLOSEDPROFILEDEF(.AREA.,'D-01',#540);
#542=IFCCARTESIANPOINT((0.,0.,0.));
#543=IFCDIRECTION((0.,0.,1.));
#544=IFCDIRECTION((1.,0.,0.));
#545=IFCAXIS2PLACEMENT3D(#542,#543,#544);
#546=IFCDIRECTION((0.,0.,1.));
#547=IFCEXTRUDEDAREASOLID(#541,#545,#546,2050.);
#548=IFCSHAPEREPRESENTATION(#11,'Body','SweptSolid',(#547));
#554=IFCPRODUCTDEFINITIONSHAPE($,$,(#548));
#555=IFCRELFILLSELEMENT('1JiIn$W5H9L8ltFFn3ZK2Q',$,$,$,#515,#538);
#556=IFCCARTESIANPOINT((0.,0.,0.));
#557=IFCDIRECTION((0.,0.,1.));
#558=IFCDIRECTION((1.,0.,0.));
#559=IFCAXIS2PLACEMENT3D(#556,#557,#558);
#560=IFCLOCALPLACEMENT(#537,#559);
#561=IFCPROPERTYSET('1ZAyKeKL92qedZO3V5pqCX',$,'Pset_DoorCommon',$,(#563));
#562=IFCRELDEFINESBYPROPERTIES('3AKohgWTP0SxpVSMB_60D4',$,$,$,(#538),#561);
#563=IFCPROPERTYSINGLEVALUE('IsExternal',$,IFCBOOLEAN(.F.),$);
#564=IFCOPENINGELEMENT('2YfPgDOh55Fh6Q8sNCj1kk',$,'D-02 opening',$,$,#586,#580,$,$);
#565=IFCCARTESIANPOINTLIST2D(((9150.,4194.9999999999991),(9950.,4194.9999999999991),(9950.,4005.),(9150.,4005.),(9150.,4194.9999999999991)));
#566=IFCINDEXEDPOLYCURVE(#565,$,$);
#567=IFCARBITRARYCLOSEDPROFILEDEF(.AREA.,'D-02 opening',#566);
#568=IFCCARTESIANPOINT((0.,0.,0.));
#569=IFCDIRECTION((0.,0.,1.));
#570=IFCDIRECTION((1.,0.,0.));
#571=IFCAXIS2PLACEMENT3D(#568,#569,#570);
#572=IFCDIRECTION((0.,0.,1.));
#573=IFCEXTRUDEDAREASOLID(#567,#571,#572,2050.);
#574=IFCSHAPEREPRESENTATION(#11,'Body','SweptSolid',(#573));
#580=IFCPRODUCTDEFINITIONSHAPE($,$,(#574));
#581=IFCRELVOIDSELEMENT('3sPwOTTN12jxOkahU6kA9a',$,$,$,#175,#564);
#582=IFCCARTESIANPOINT((0.,0.,0.));
#583=IFCDIRECTION((0.,0.,1.));
#584=IFCDIRECTION((1.,0.,0.));
#585=IFCAXIS2PLACEMENT3D(#582,#583,#584);
#586=IFCLOCALPLACEMENT(#196,#585);
#587=IFCDOOR('33NDyi7nPBnx8FdX$roL6D',$,'D-02',$,$,#609,#603,$,2.0499999999999998,0.80000000000000004,.DOOR.,$,$);
#588=IFCCARTESIANPOINTLIST2D(((9150.,4137.4999999999991),(9950.,4137.4999999999991),(9950.,4062.5),(9150.,4062.5),(9150.,4137.4999999999991)));
#589=IFCINDEXEDPOLYCURVE(#588,$,$);
#590=IFCARBITRARYCLOSEDPROFILEDEF(.AREA.,'D-02',#589);
#591=IFCCARTESIANPOINT((0.,0.,0.));
#592=IFCDIRECTION((0.,0.,1.));
#593=IFCDIRECTION((1.,0.,0.));
#594=IFCAXIS2PLACEMENT3D(#591,#592,#593);
#595=IFCDIRECTION((0.,0.,1.));
#596=IFCEXTRUDEDAREASOLID(#590,#594,#595,2050.);
#597=IFCSHAPEREPRESENTATION(#11,'Body','SweptSolid',(#596));
#603=IFCPRODUCTDEFINITIONSHAPE($,$,(#597));
#604=IFCRELFILLSELEMENT('20FxCDa3jEphxB7HYkeb5q',$,$,$,#564,#587);
#605=IFCCARTESIANPOINT((0.,0.,0.));
#606=IFCDIRECTION((0.,0.,1.));
#607=IFCDIRECTION((1.,0.,0.));
#608=IFCAXIS2PLACEMENT3D(#605,#606,#607);
#609=IFCLOCALPLACEMENT(#586,#608);
#610=IFCPROPERTYSET('0GJEmEDbj8FuBSavsV1prh',$,'Pset_DoorCommon',$,(#612));
#611=IFCRELDEFINESBYPROPERTIES('1Eo$qkOC5AHRFgVmjxIyRi',$,$,$,(#587),#610);
#612=IFCPROPERTYSINGLEVALUE('IsExternal',$,IFCBOOLEAN(.F.),$);
#613=IFCOPENINGELEMENT('3t5wAHArD37v3cL4IfU9FB',$,'D-03 opening',$,$,#635,#629,$,$);
#614=IFCCARTESIANPOINTLIST2D(((1899.9999999999998,5995.),(2699.9999999999995,5995.),(2699.9999999999995,5805.0000000000009),(1899.9999999999998,5805.0000000000009),(1899.9999999999998,5995.)));
#615=IFCINDEXEDPOLYCURVE(#614,$,$);
#616=IFCARBITRARYCLOSEDPROFILEDEF(.AREA.,'D-03 opening',#615);
#617=IFCCARTESIANPOINT((0.,0.,0.));
#618=IFCDIRECTION((0.,0.,1.));
#619=IFCDIRECTION((1.,0.,0.));
#620=IFCAXIS2PLACEMENT3D(#617,#618,#619);
#621=IFCDIRECTION((0.,0.,1.));
#622=IFCEXTRUDEDAREASOLID(#616,#620,#621,2050.);
#623=IFCSHAPEREPRESENTATION(#11,'Body','SweptSolid',(#622));
#629=IFCPRODUCTDEFINITIONSHAPE($,$,(#623));
#630=IFCRELVOIDSELEMENT('06PRy6pwTD5OHxMiBtGvBX',$,$,$,#227,#613);
#631=IFCCARTESIANPOINT((0.,0.,0.));
#632=IFCDIRECTION((0.,0.,1.));
#633=IFCDIRECTION((1.,0.,0.));
#634=IFCAXIS2PLACEMENT3D(#631,#632,#633);
#635=IFCLOCALPLACEMENT(#248,#634);
#636=IFCDOOR('00iClO5aT4Uh7VAudyIt1W',$,'D-03',$,$,#658,#652,$,2.0499999999999998,0.80000000000000004,.DOOR.,$,$);
#637=IFCCARTESIANPOINTLIST2D(((1899.9999999999998,5937.5),(2699.9999999999995,5937.5),(2699.9999999999995,5862.5000000000009),(1899.9999999999998,5862.5000000000009),(1899.9999999999998,5937.5)));
#638=IFCINDEXEDPOLYCURVE(#637,$,$);
#639=IFCARBITRARYCLOSEDPROFILEDEF(.AREA.,'D-03',#638);
#640=IFCCARTESIANPOINT((0.,0.,0.));
#641=IFCDIRECTION((0.,0.,1.));
#642=IFCDIRECTION((1.,0.,0.));
#643=IFCAXIS2PLACEMENT3D(#640,#641,#642);
#644=IFCDIRECTION((0.,0.,1.));
#645=IFCEXTRUDEDAREASOLID(#639,#643,#644,2050.);
#646=IFCSHAPEREPRESENTATION(#11,'Body','SweptSolid',(#645));
#652=IFCPRODUCTDEFINITIONSHAPE($,$,(#646));
#653=IFCRELFILLSELEMENT('0h6vrmqVfEdRMwm7tRNCrm',$,$,$,#613,#636);
#654=IFCCARTESIANPOINT((0.,0.,0.));
#655=IFCDIRECTION((0.,0.,1.));
#656=IFCDIRECTION((1.,0.,0.));
#657=IFCAXIS2PLACEMENT3D(#654,#655,#656);
#658=IFCLOCALPLACEMENT(#635,#657);
#659=IFCPROPERTYSET('25s8GH2RnDX9wwse3cixP$',$,'Pset_DoorCommon',$,(#661));
#660=IFCRELDEFINESBYPROPERTIES('0_BFNOdwr6tejUUf9cNH$2',$,$,$,(#636),#659);
#661=IFCPROPERTYSINGLEVALUE('IsExternal',$,IFCBOOLEAN(.F.),$);
#662=IFCOPENINGELEMENT('1AcnZ9zLL8JwvByqcHgi9i',$,'D-04 opening',$,$,#684,#678,$,$);
#663=IFCCARTESIANPOINTLIST2D(((6250.,5995.),(7050.0000000000009,5995.),(7050.0000000000009,5805.0000000000009),(6250.,5805.0000000000009),(6250.,5995.)));
#664=IFCINDEXEDPOLYCURVE(#663,$,$);
#665=IFCARBITRARYCLOSEDPROFILEDEF(.AREA.,'D-04 opening',#664);
#666=IFCCARTESIANPOINT((0.,0.,0.));
#667=IFCDIRECTION((0.,0.,1.));
#668=IFCDIRECTION((1.,0.,0.));
#669=IFCAXIS2PLACEMENT3D(#666,#667,#668);
#670=IFCDIRECTION((0.,0.,1.));
#671=IFCEXTRUDEDAREASOLID(#665,#669,#670,2050.);
#672=IFCSHAPEREPRESENTATION(#11,'Body','SweptSolid',(#671));
#678=IFCPRODUCTDEFINITIONSHAPE($,$,(#672));
#679=IFCRELVOIDSELEMENT('0CTh0oTbbAueUkvvTFukm9',$,$,$,#279,#662);
#680=IFCCARTESIANPOINT((0.,0.,0.));
#681=IFCDIRECTION((0.,0.,1.));
#682=IFCDIRECTION((1.,0.,0.));
#683=IFCAXIS2PLACEMENT3D(#680,#681,#682);
#684=IFCLOCALPLACEMENT(#300,#683);
#685=IFCDOOR('2QMUB1TB99UQVW5ANiPWdh',$,'D-04',$,$,#707,#701,$,2.0499999999999998,0.80000000000000004,.DOOR.,$,$);
#686=IFCCARTESIANPOINTLIST2D(((6250.,5937.5),(7050.0000000000009,5937.5),(7050.0000000000009,5862.5000000000009),(6250.,5862.5000000000009),(6250.,5937.5)));
#687=IFCINDEXEDPOLYCURVE(#686,$,$);
#688=IFCARBITRARYCLOSEDPROFILEDEF(.AREA.,'D-04',#687);
#689=IFCCARTESIANPOINT((0.,0.,0.));
#690=IFCDIRECTION((0.,0.,1.));
#691=IFCDIRECTION((1.,0.,0.));
#692=IFCAXIS2PLACEMENT3D(#689,#690,#691);
#693=IFCDIRECTION((0.,0.,1.));
#694=IFCEXTRUDEDAREASOLID(#688,#692,#693,2050.);
#695=IFCSHAPEREPRESENTATION(#11,'Body','SweptSolid',(#694));
#701=IFCPRODUCTDEFINITIONSHAPE($,$,(#695));
#702=IFCRELFILLSELEMENT('2YVbhYRqv9uO8N8a2jalVD',$,$,$,#662,#685);
#703=IFCCARTESIANPOINT((0.,0.,0.));
#704=IFCDIRECTION((0.,0.,1.));
#705=IFCDIRECTION((1.,0.,0.));
#706=IFCAXIS2PLACEMENT3D(#703,#704,#705);
#707=IFCLOCALPLACEMENT(#684,#706);
#708=IFCPROPERTYSET('0v92Hl0i13pw7P_w2nFVy4',$,'Pset_DoorCommon',$,(#710));
#709=IFCRELDEFINESBYPROPERTIES('0tH$K8_p99phm0GINzqmyz',$,$,$,(#685),#708);
#710=IFCPROPERTYSINGLEVALUE('IsExternal',$,IFCBOOLEAN(.F.),$);
#711=IFCOPENINGELEMENT('3V0PQfyPTF6A9or67eexFg',$,'D-05 opening',$,$,#733,#727,$,$);
#712=IFCCARTESIANPOINTLIST2D(((9699.9999999999982,5995.),(10500.,5995.),(10500.,5805.0000000000009),(9699.9999999999982,5805.0000000000009),(9699.9999999999982,5995.)));
#713=IFCINDEXEDPOLYCURVE(#712,$,$);
#714=IFCARBITRARYCLOSEDPROFILEDEF(.AREA.,'D-05 opening',#713);
#715=IFCCARTESIANPOINT((0.,0.,0.));
#716=IFCDIRECTION((0.,0.,1.));
#717=IFCDIRECTION((1.,0.,0.));
#718=IFCAXIS2PLACEMENT3D(#715,#716,#717);
#719=IFCDIRECTION((0.,0.,1.));
#720=IFCEXTRUDEDAREASOLID(#714,#718,#719,2050.);
#721=IFCSHAPEREPRESENTATION(#11,'Body','SweptSolid',(#720));
#727=IFCPRODUCTDEFINITIONSHAPE($,$,(#721));
#728=IFCRELVOIDSELEMENT('0YLKXGPkz5XuGreHlpMZNQ',$,$,$,#305,#711);
#729=IFCCARTESIANPOINT((0.,0.,0.));
#730=IFCDIRECTION((0.,0.,1.));
#731=IFCDIRECTION((1.,0.,0.));
#732=IFCAXIS2PLACEMENT3D(#729,#730,#731);
#733=IFCLOCALPLACEMENT(#326,#732);
#734=IFCDOOR('39wA9QyCP7Sudu_a4w4a9c',$,'D-05',$,$,#756,#750,$,2.0499999999999998,0.80000000000000004,.DOOR.,$,$);
#735=IFCCARTESIANPOINTLIST2D(((9699.9999999999982,5937.5),(10500.,5937.5),(10500.,5862.5000000000009),(9699.9999999999982,5862.5000000000009),(9699.9999999999982,5937.5)));
#736=IFCINDEXEDPOLYCURVE(#735,$,$);
#737=IFCARBITRARYCLOSEDPROFILEDEF(.AREA.,'D-05',#736);
#738=IFCCARTESIANPOINT((0.,0.,0.));
#739=IFCDIRECTION((0.,0.,1.));
#740=IFCDIRECTION((1.,0.,0.));
#741=IFCAXIS2PLACEMENT3D(#738,#739,#740);
#742=IFCDIRECTION((0.,0.,1.));
#743=IFCEXTRUDEDAREASOLID(#737,#741,#742,2050.);
#744=IFCSHAPEREPRESENTATION(#11,'Body','SweptSolid',(#743));
#750=IFCPRODUCTDEFINITIONSHAPE($,$,(#744));
#751=IFCRELFILLSELEMENT('0dzd8yC3D1bu7PgqINTcNm',$,$,$,#711,#734);
#752=IFCCARTESIANPOINT((0.,0.,0.));
#753=IFCDIRECTION((0.,0.,1.));
#754=IFCDIRECTION((1.,0.,0.));
#755=IFCAXIS2PLACEMENT3D(#752,#753,#754);
#756=IFCLOCALPLACEMENT(#733,#755);
#757=IFCPROPERTYSET('3FEhZ_IlD7PwY0ZFZZ7o2T',$,'Pset_DoorCommon',$,(#759));
#758=IFCRELDEFINESBYPROPERTIES('1tCOQBSR15LhTP73ERumeM',$,$,$,(#734),#757);
#759=IFCPROPERTYSINGLEVALUE('IsExternal',$,IFCBOOLEAN(.F.),$);
#760=IFCOPENINGELEMENT('1fiOKVJYH7LBz7uq$ep10b',$,'F-01 opening',$,$,#782,#776,$,$);
#761=IFCCARTESIANPOINTLIST2D(((2500.,319.99999999999994),(5200.,319.99999999999994),(5200.,-19.999999999999989),(2500.,-19.999999999999989),(2500.,319.99999999999994)));
#762=IFCINDEXEDPOLYCURVE(#761,$,$);
#763=IFCARBITRARYCLOSEDPROFILEDEF(.AREA.,'F-01 opening',#762);
#764=IFCCARTESIANPOINT((0.,0.,0.));
#765=IFCDIRECTION((0.,0.,1.));
#766=IFCDIRECTION((1.,0.,0.));
#767=IFCAXIS2PLACEMENT3D(#764,#765,#766);
#768=IFCDIRECTION((0.,0.,1.));
#769=IFCEXTRUDEDAREASOLID(#763,#767,#768,1399.9999999999998);
#770=IFCSHAPEREPRESENTATION(#11,'Body','SweptSolid',(#769));
#776=IFCPRODUCTDEFINITIONSHAPE($,$,(#770));
#777=IFCRELVOIDSELEMENT('33W$jlPhDBVwRQf7amX60I',$,$,$,#18,#760);
#778=IFCCARTESIANPOINT((0.,0.,900.));
#779=IFCDIRECTION((0.,0.,1.));
#780=IFCDIRECTION((1.,0.,0.));
#781=IFCAXIS2PLACEMENT3D(#778,#779,#780);
#782=IFCLOCALPLACEMENT(#40,#781);
#783=IFCWINDOW('2lkQB3CWj5ceDyxFdiXmD8',$,'F-01',$,$,#805,#799,$,1.3999999999999999,2.7000000000000002,$,$,$);
#784=IFCCARTESIANPOINTLIST2D(((2500.,224.99999999999997),(5200.,224.99999999999997),(5200.,75.),(2500.,75.),(2500.,224.99999999999997)));
#785=IFCINDEXEDPOLYCURVE(#784,$,$);
#786=IFCARBITRARYCLOSEDPROFILEDEF(.AREA.,'F-01',#785);
#787=IFCCARTESIANPOINT((0.,0.,0.));
#788=IFCDIRECTION((0.,0.,1.));
#789=IFCDIRECTION((1.,0.,0.));
#790=IFCAXIS2PLACEMENT3D(#787,#788,#789);
#791=IFCDIRECTION((0.,0.,1.));
#792=IFCEXTRUDEDAREASOLID(#786,#790,#791,1399.9999999999998);
#793=IFCSHAPEREPRESENTATION(#11,'Body','SweptSolid',(#792));
#799=IFCPRODUCTDEFINITIONSHAPE($,$,(#793));
#800=IFCRELFILLSELEMENT('1BFq61BsL5IuLIZRjHs6cG',$,$,$,#760,#783);
#801=IFCCARTESIANPOINT((0.,0.,0.));
#802=IFCDIRECTION((0.,0.,1.));
#803=IFCDIRECTION((1.,0.,0.));
#804=IFCAXIS2PLACEMENT3D(#801,#802,#803);
#805=IFCLOCALPLACEMENT(#782,#804);
#806=IFCPROPERTYSET('3jUa3ivhH68e14Y6zUO_SV',$,'Pset_WindowCommon',$,(#808));
#807=IFCRELDEFINESBYPROPERTIES('3_dut6MIr5TRgTfwDJi_Pe',$,$,$,(#783),#806);
#808=IFCPROPERTYSINGLEVALUE('IsExternal',$,IFCBOOLEAN(.T.),$);
#809=IFCOPENINGELEMENT('2XLrh$ANv4eQgKNjauZZdp',$,'F-02 opening',$,$,#831,#825,$,$);
#810=IFCCARTESIANPOINTLIST2D(((11180.,1475.),(11180.,2725.),(11520.,2725.),(11520.,1475.),(11180.,1475.)));
#811=IFCINDEXEDPOLYCURVE(#810,$,$);
#812=IFCARBITRARYCLOSEDPROFILEDEF(.AREA.,'F-02 opening',#811);
#813=IFCCARTESIANPOINT((0.,0.,0.));
#814=IFCDIRECTION((0.,0.,1.));
#815=IFCDIRECTION((1.,0.,0.));
#816=IFCAXIS2PLACEMENT3D(#813,#814,#815);
#817=IFCDIRECTION((0.,0.,1.));
#818=IFCEXTRUDEDAREASOLID(#812,#816,#817,1399.9999999999998);
#819=IFCSHAPEREPRESENTATION(#11,'Body','SweptSolid',(#818));
#825=IFCPRODUCTDEFINITIONSHAPE($,$,(#819));
#826=IFCRELVOIDSELEMENT('3MRyQhgSD4ofDCsPRghiYb',$,$,$,#45,#809);
#827=IFCCARTESIANPOINT((0.,0.,900.));
#828=IFCDIRECTION((0.,0.,1.));
#829=IFCDIRECTION((1.,0.,0.));
#830=IFCAXIS2PLACEMENT3D(#827,#828,#829);
#831=IFCLOCALPLACEMENT(#66,#830);
#832=IFCWINDOW('0h2NnlpPHFmBlau1mglqBD',$,'F-02',$,$,#854,#848,$,1.3999999999999999,1.25,$,$,$);
#833=IFCCARTESIANPOINTLIST2D(((11275.,1475.),(11275.,2725.),(11424.999999999998,2725.),(11424.999999999998,1475.),(11275.,1475.)));
#834=IFCINDEXEDPOLYCURVE(#833,$,$);
#835=IFCARBITRARYCLOSEDPROFILEDEF(.AREA.,'F-02',#834);
#836=IFCCARTESIANPOINT((0.,0.,0.));
#837=IFCDIRECTION((0.,0.,1.));
#838=IFCDIRECTION((1.,0.,0.));
#839=IFCAXIS2PLACEMENT3D(#836,#837,#838);
#840=IFCDIRECTION((0.,0.,1.));
#841=IFCEXTRUDEDAREASOLID(#835,#839,#840,1399.9999999999998);
#842=IFCSHAPEREPRESENTATION(#11,'Body','SweptSolid',(#841));
#848=IFCPRODUCTDEFINITIONSHAPE($,$,(#842));
#849=IFCRELFILLSELEMENT('0uUJpiiGn1$u2$I8DnGabS',$,$,$,#809,#832);
#850=IFCCARTESIANPOINT((0.,0.,0.));
#851=IFCDIRECTION((0.,0.,1.));
#852=IFCDIRECTION((1.,0.,0.));
#853=IFCAXIS2PLACEMENT3D(#850,#851,#852);
#854=IFCLOCALPLACEMENT(#831,#853);
#855=IFCPROPERTYSET('1M5U4qA4P0Ixgxbl8XJwyI',$,'Pset_WindowCommon',$,(#857));
#856=IFCRELDEFINESBYPROPERTIES('1VAT6AFIHDBO52Z6rGm9ts',$,$,$,(#832),#855);
#857=IFCPROPERTYSINGLEVALUE('IsExternal',$,IFCBOOLEAN(.T.),$);
#858=IFCOPENINGELEMENT('2sb$aI7JX09QaAL4lB8cEt',$,'F-03 opening',$,$,#880,#874,$,$);
#859=IFCCARTESIANPOINTLIST2D(((3124.9999999999995,9680.),(1574.9999999999998,9680.),(1574.9999999999998,10020.),(3124.9999999999995,10020.),(3124.9999999999995,9680.)));
#860=IFCINDEXEDPOLYCURVE(#859,$,$);
#861=IFCARBITRARYCLOSEDPROFILEDEF(.AREA.,'F-03 opening',#860);
#862=IFCCARTESIANPOINT((0.,0.,0.));
#863=IFCDIRECTION((0.,0.,1.));
#864=IFCDIRECTION((1.,0.,0.));
#865=IFCAXIS2PLACEMENT3D(#862,#863,#864);
#866=IFCDIRECTION((0.,0.,1.));
#867=IFCEXTRUDEDAREASOLID(#861,#865,#866,1399.9999999999998);
#868=IFCSHAPEREPRESENTATION(#11,'Body','SweptSolid',(#867));
#874=IFCPRODUCTDEFINITIONSHAPE($,$,(#868));
#875=IFCRELVOIDSELEMENT('0jDIQeZNDDSRd$So_i1QwW',$,$,$,#71,#858);
#876=IFCCARTESIANPOINT((0.,0.,900.));
#877=IFCDIRECTION((0.,0.,1.));
#878=IFCDIRECTION((1.,0.,0.));
#879=IFCAXIS2PLACEMENT3D(#876,#877,#878);
#880=IFCLOCALPLACEMENT(#92,#879);
#881=IFCWINDOW('02qyW7ooz4n8iiD0vAyhjI',$,'F-03',$,$,#903,#897,$,1.3999999999999999,1.55,$,$,$);
#882=IFCCARTESIANPOINTLIST2D(((3124.9999999999995,9775.),(1574.9999999999998,9775.),(1574.9999999999998,9924.9999999999982),(3124.9999999999995,9924.9999999999982),(3124.9999999999995,9775.)));
#883=IFCINDEXEDPOLYCURVE(#882,$,$);
#884=IFCARBITRARYCLOSEDPROFILEDEF(.AREA.,'F-03',#883);
#885=IFCCARTESIANPOINT((0.,0.,0.));
#886=IFCDIRECTION((0.,0.,1.));
#887=IFCDIRECTION((1.,0.,0.));
#888=IFCAXIS2PLACEMENT3D(#885,#886,#887);
#889=IFCDIRECTION((0.,0.,1.));
#890=IFCEXTRUDEDAREASOLID(#884,#888,#889,1399.9999999999998);
#891=IFCSHAPEREPRESENTATION(#11,'Body','SweptSolid',(#890));
#897=IFCPRODUCTDEFINITIONSHAPE($,$,(#891));
#898=IFCRELFILLSELEMENT('0sUFPrCyrC_en9pETsnMqo',$,$,$,#858,#881);
#899=IFCCARTESIANPOINT((0.,0.,0.));
#900=IFCDIRECTION((0.,0.,1.));
#901=IFCDIRECTION((1.,0.,0.));
#902=IFCAXIS2PLACEMENT3D(#899,#900,#901);
#903=IFCLOCALPLACEMENT(#880,#902);
#904=IFCPROPERTYSET('1LJRBGh1H4IwHI6mHDNdyx',$,'Pset_WindowCommon',$,(#906));
#905=IFCRELDEFINESBYPROPERTIES('10Z5zBsI1CpQ1VFEipv9lQ',$,$,$,(#881),#904);
#906=IFCPROPERTYSINGLEVALUE('IsExternal',$,IFCBOOLEAN(.T.),$);
#907=IFCOPENINGELEMENT('0Rre4h_MvEz9V3lZq9lvSV',$,'F-04 opening',$,$,#929,#923,$,$);
#908=IFCCARTESIANPOINTLIST2D(((7474.9999999999991,9680.),(5924.9999999999991,9680.),(5924.9999999999991,10020.),(7474.9999999999991,10020.),(7474.9999999999991,9680.)));
#909=IFCINDEXEDPOLYCURVE(#908,$,$);
#910=IFCARBITRARYCLOSEDPROFILEDEF(.AREA.,'F-04 opening',#909);
#911=IFCCARTESIANPOINT((0.,0.,0.));
#912=IFCDIRECTION((0.,0.,1.));
#913=IFCDIRECTION((1.,0.,0.));
#914=IFCAXIS2PLACEMENT3D(#911,#912,#913);
#915=IFCDIRECTION((0.,0.,1.));
#916=IFCEXTRUDEDAREASOLID(#910,#914,#915,1399.9999999999998);
#917=IFCSHAPEREPRESENTATION(#11,'Body','SweptSolid',(#916));
#923=IFCPRODUCTDEFINITIONSHAPE($,$,(#917));
#924=IFCRELVOIDSELEMENT('26lPHNlUDFxBmE$0SXmdmB',$,$,$,#71,#907);
#925=IFCCARTESIANPOINT((0.,0.,900.));
#926=IFCDIRECTION((0.,0.,1.));
#927=IFCDIRECTION((1.,0.,0.));
#928=IFCAXIS2PLACEMENT3D(#925,#926,#927);
#929=IFCLOCALPLACEMENT(#92,#928);
#930=IFCWINDOW('20HngeX3n5MP52VydvOKkl',$,'F-04',$,$,#952,#946,$,1.3999999999999999,1.55,$,$,$);
#931=IFCCARTESIANPOINTLIST2D(((7474.9999999999991,9775.),(5924.9999999999991,9775.),(5924.9999999999991,9924.9999999999982),(7474.9999999999991,9924.9999999999982),(7474.9999999999991,9775.)));
#932=IFCINDEXEDPOLYCURVE(#931,$,$);
#933=IFCARBITRARYCLOSEDPROFILEDEF(.AREA.,'F-04',#932);
#934=IFCCARTESIANPOINT((0.,0.,0.));
#935=IFCDIRECTION((0.,0.,1.));
#936=IFCDIRECTION((1.,0.,0.));
#937=IFCAXIS2PLACEMENT3D(#934,#935,#936);
#938=IFCDIRECTION((0.,0.,1.));
#939=IFCEXTRUDEDAREASOLID(#933,#937,#938,1399.9999999999998);
#940=IFCSHAPEREPRESENTATION(#11,'Body','SweptSolid',(#939));
#946=IFCPRODUCTDEFINITIONSHAPE($,$,(#940));
#947=IFCRELFILLSELEMENT('2uaqyzoDz0APKNL2TcrTA6',$,$,$,#907,#930);
#948=IFCCARTESIANPOINT((0.,0.,0.));
#949=IFCDIRECTION((0.,0.,1.));
#950=IFCDIRECTION((1.,0.,0.));
#951=IFCAXIS2PLACEMENT3D(#948,#949,#950);
#952=IFCLOCALPLACEMENT(#929,#951);
#953=IFCPROPERTYSET('1ru71jK7LAauY$iwS_NdLg',$,'Pset_WindowCommon',$,(#955));
#954=IFCRELDEFINESBYPROPERTIES('2hEkEHp1z6SPWgLtqwS5pf',$,$,$,(#930),#953);
#955=IFCPROPERTYSINGLEVALUE('IsExternal',$,IFCBOOLEAN(.T.),$);
#956=IFCPROPERTYSET('33BUZ5h4jC0vb57tHGD2EC',$,'Recognition_Detailing',$,(#958,#959,#960,#961));
#957=IFCRELDEFINESBYPROPERTIES('2Sac5md8D0HAOuk5Zph3TJ',$,$,$,(#331),#956);
#958=IFCPROPERTYSINGLEVALUE('Tag',$,IFCLABEL('R-02'),$);
#959=IFCPROPERTYSINGLEVALUE('ComplianceStatus',$,IFCLABEL('PASS'),$);
#960=IFCPROPERTYSINGLEVALUE('Findings',$,IFCLABEL('-'),$);
#961=IFCPROPERTYSINGLEVALUE('GeneratedBy',$,IFCLABEL('Recognition 0.1.0'),$);
#962=IFCPROPERTYSET('0HPDskz_5AfR5_4o1ciAvv',$,'Recognition_Detailing',$,(#964,#965,#966,#967));
#963=IFCRELDEFINESBYPROPERTIES('1vvAOa8YP66xAsAUR8PPjP',$,$,$,(#354),#962);
#964=IFCPROPERTYSINGLEVALUE('Tag',$,IFCLABEL('R-01'),$);
#965=IFCPROPERTYSINGLEVALUE('ComplianceStatus',$,IFCLABEL('PASS'),$);
#966=IFCPROPERTYSINGLEVALUE('Findings',$,IFCLABEL('-'),$);
#967=IFCPROPERTYSINGLEVALUE('GeneratedBy',$,IFCLABEL('Recognition 0.1.0'),$);
#968=IFCPROPERTYSET('0rKtSZSArA4vsPpQyOxc7e',$,'Recognition_Detailing',$,(#970,#971,#972,#973));
#969=IFCRELDEFINESBYPROPERTIES('0GVQw2sjDEfu9whiwpkEyf',$,$,$,(#376),#968);
#970=IFCPROPERTYSINGLEVALUE('Tag',$,IFCLABEL('R-04'),$);
#971=IFCPROPERTYSINGLEVALUE('ComplianceStatus',$,IFCLABEL('PASS'),$);
#972=IFCPROPERTYSINGLEVALUE('Findings',$,IFCLABEL('-'),$);
#973=IFCPROPERTYSINGLEVALUE('GeneratedBy',$,IFCLABEL('Recognition 0.1.0'),$);
#974=IFCPROPERTYSET('1I4yVX3Z19wuvDbzP8tZZd',$,'Recognition_Detailing',$,(#976,#977,#978,#979));
#975=IFCRELDEFINESBYPROPERTIES('3p8UWBAwv2zxkVtzjFHC3h',$,$,$,(#398),#974);
#976=IFCPROPERTYSINGLEVALUE('Tag',$,IFCLABEL('R-05'),$);
#977=IFCPROPERTYSINGLEVALUE('ComplianceStatus',$,IFCLABEL('PASS'),$);
#978=IFCPROPERTYSINGLEVALUE('Findings',$,IFCLABEL('-'),$);
#979=IFCPROPERTYSINGLEVALUE('GeneratedBy',$,IFCLABEL('Recognition 0.1.0'),$);
#980=IFCPROPERTYSET('38qRGEnhXC5Bdpru_B9KVD',$,'Recognition_Detailing',$,(#982,#983,#984,#985));
#981=IFCRELDEFINESBYPROPERTIES('1udvfgDNv7UuTco1I1fPi6',$,$,$,(#420),#980);
#982=IFCPROPERTYSINGLEVALUE('Tag',$,IFCLABEL('R-06'),$);
#983=IFCPROPERTYSINGLEVALUE('ComplianceStatus',$,IFCLABEL('PASS'),$);
#984=IFCPROPERTYSINGLEVALUE('Findings',$,IFCLABEL('-'),$);
#985=IFCPROPERTYSINGLEVALUE('GeneratedBy',$,IFCLABEL('Recognition 0.1.0'),$);
#986=IFCPROPERTYSET('0B5Jcn8eH9TAdpWoFB4aC5',$,'Recognition_Detailing',$,(#988,#989,#990,#991));
#987=IFCRELDEFINESBYPROPERTIES('3gVJBkgL1F$wsv$q4dxvAX',$,$,$,(#442),#986);
#988=IFCPROPERTYSINGLEVALUE('Tag',$,IFCLABEL('R-03'),$);
#989=IFCPROPERTYSINGLEVALUE('ComplianceStatus',$,IFCLABEL('PASS'),$);
#990=IFCPROPERTYSINGLEVALUE('Findings',$,IFCLABEL('-'),$);
#991=IFCPROPERTYSINGLEVALUE('GeneratedBy',$,IFCLABEL('Recognition 0.1.0'),$);
#992=IFCPROPERTYSET('3I$kLFE2H5p8wlqFbyfOLn',$,'Recognition_Detailing',$,(#994,#995,#996,#997));
#993=IFCRELDEFINESBYPROPERTIES('3Wr$o3R31AlOS1y5Rw6xHI',$,$,$,(#487),#992);
#994=IFCPROPERTYSINGLEVALUE('Tag',$,IFCLABEL('D-01'),$);
#995=IFCPROPERTYSINGLEVALUE('ComplianceStatus',$,IFCLABEL('PASS'),$);
#996=IFCPROPERTYSINGLEVALUE('Findings',$,IFCLABEL('-'),$);
#997=IFCPROPERTYSINGLEVALUE('GeneratedBy',$,IFCLABEL('Recognition 0.1.0'),$);
#998=IFCPROPERTYSET('1dZ8J_I_zFWwPb9utp4fi5',$,'Recognition_Detailing',$,(#1000,#1001,#1002,#1003));
#999=IFCRELDEFINESBYPROPERTIES('093IjyKd9ALg7CJxyKusCy',$,$,$,(#538),#998);
#1000=IFCPROPERTYSINGLEVALUE('Tag',$,IFCLABEL('D-02'),$);
#1001=IFCPROPERTYSINGLEVALUE('ComplianceStatus',$,IFCLABEL('PASS'),$);
#1002=IFCPROPERTYSINGLEVALUE('Findings',$,IFCLABEL('-'),$);
#1003=IFCPROPERTYSINGLEVALUE('GeneratedBy',$,IFCLABEL('Recognition 0.1.0'),$);
#1004=IFCPROPERTYSET('2CGHHdFDX58gaMUyPal49c',$,'Recognition_Detailing',$,(#1006,#1007,#1008,#1009));
#1005=IFCRELDEFINESBYPROPERTIES('1YiJciEzb91v5Da6uNcDKT',$,$,$,(#587),#1004);
#1006=IFCPROPERTYSINGLEVALUE('Tag',$,IFCLABEL('D-03'),$);
#1007=IFCPROPERTYSINGLEVALUE('ComplianceStatus',$,IFCLABEL('PASS'),$);
#1008=IFCPROPERTYSINGLEVALUE('Findings',$,IFCLABEL('-'),$);
#1009=IFCPROPERTYSINGLEVALUE('GeneratedBy',$,IFCLABEL('Recognition 0.1.0'),$);
#1010=IFCPROPERTYSET('0lUek4$2H7BRQV$XgreZCX',$,'Recognition_Detailing',$,(#1012,#1013,#1014,#1015));
#1011=IFCRELDEFINESBYPROPERTIES('212OETepD8XeQF2prb$OD3',$,$,$,(#636),#1010);
#1012=IFCPROPERTYSINGLEVALUE('Tag',$,IFCLABEL('D-04'),$);
#1013=IFCPROPERTYSINGLEVALUE('ComplianceStatus',$,IFCLABEL('PASS'),$);
#1014=IFCPROPERTYSINGLEVALUE('Findings',$,IFCLABEL('-'),$);
#1015=IFCPROPERTYSINGLEVALUE('GeneratedBy',$,IFCLABEL('Recognition 0.1.0'),$);
#1016=IFCPROPERTYSET('2Q94FHARz7pwZRC7b_797i',$,'Recognition_Detailing',$,(#1018,#1019,#1020,#1021));
#1017=IFCRELDEFINESBYPROPERTIES('1iGPRsGiz6LecKNwOjSGgI',$,$,$,(#685),#1016);
#1018=IFCPROPERTYSINGLEVALUE('Tag',$,IFCLABEL('D-05'),$);
#1019=IFCPROPERTYSINGLEVALUE('ComplianceStatus',$,IFCLABEL('PASS'),$);
#1020=IFCPROPERTYSINGLEVALUE('Findings',$,IFCLABEL('-'),$);
#1021=IFCPROPERTYSINGLEVALUE('GeneratedBy',$,IFCLABEL('Recognition 0.1.0'),$);
#1022=IFCPROPERTYSET('1zgVC$JP9EGwqC8bffus$S',$,'Recognition_Detailing',$,(#1024,#1025,#1026,#1027));
#1023=IFCRELDEFINESBYPROPERTIES('0Am1gl4Vf5BQpL9grXJbn4',$,$,$,(#734),#1022);
#1024=IFCPROPERTYSINGLEVALUE('Tag',$,IFCLABEL('D-06'),$);
#1025=IFCPROPERTYSINGLEVALUE('ComplianceStatus',$,IFCLABEL('PASS'),$);
#1026=IFCPROPERTYSINGLEVALUE('Findings',$,IFCLABEL('-'),$);
#1027=IFCPROPERTYSINGLEVALUE('GeneratedBy',$,IFCLABEL('Recognition 0.1.0'),$);
#1028=IFCPROPERTYSET('1_x6qr_jL0yPaMZp0PCSIr',$,'Recognition_Detailing',$,(#1030,#1031,#1032,#1033));
#1029=IFCRELDEFINESBYPROPERTIES('3L4s4UCFn4O8EjYacPyjGH',$,$,$,(#783),#1028);
#1030=IFCPROPERTYSINGLEVALUE('Tag',$,IFCLABEL('W-01'),$);
#1031=IFCPROPERTYSINGLEVALUE('ComplianceStatus',$,IFCLABEL('PASS'),$);
#1032=IFCPROPERTYSINGLEVALUE('Findings',$,IFCLABEL('-'),$);
#1033=IFCPROPERTYSINGLEVALUE('GeneratedBy',$,IFCLABEL('Recognition 0.1.0'),$);
#1034=IFCPROPERTYSET('3GNdEga2j0efTeDD_AH37$',$,'Recognition_Detailing',$,(#1036,#1037,#1038,#1039));
#1035=IFCRELDEFINESBYPROPERTIES('1m5bcn0W5D3hsJCDvXP4lN',$,$,$,(#832),#1034);
#1036=IFCPROPERTYSINGLEVALUE('Tag',$,IFCLABEL('W-02'),$);
#1037=IFCPROPERTYSINGLEVALUE('ComplianceStatus',$,IFCLABEL('PASS'),$);
#1038=IFCPROPERTYSINGLEVALUE('Findings',$,IFCLABEL('-'),$);
#1039=IFCPROPERTYSINGLEVALUE('GeneratedBy',$,IFCLABEL('Recognition 0.1.0'),$);
#1040=IFCPROPERTYSET('2mMUNrRVz0mPdDcTx3CjEg',$,'Recognition_Detailing',$,(#1042,#1043,#1044,#1045));
#1041=IFCRELDEFINESBYPROPERTIES('1XR4j6hx1ESuMjUC9QhCFd',$,$,$,(#881),#1040);
#1042=IFCPROPERTYSINGLEVALUE('Tag',$,IFCLABEL('W-03'),$);
#1043=IFCPROPERTYSINGLEVALUE('ComplianceStatus',$,IFCLABEL('PASS'),$);
#1044=IFCPROPERTYSINGLEVALUE('Findings',$,IFCLABEL('-'),$);
#1045=IFCPROPERTYSINGLEVALUE('GeneratedBy',$,IFCLABEL('Recognition 0.1.0'),$);
#1046=IFCPROPERTYSET('0mDFyLZpLB4BQ2e9iyu_5V',$,'Recognition_Detailing',$,(#1048,#1049,#1050,#1051));
#1047=IFCRELDEFINESBYPROPERTIES('0fAbcADND4bh_yxrQIylwO',$,$,$,(#930),#1046);
#1048=IFCPROPERTYSINGLEVALUE('Tag',$,IFCLABEL('W-04'),$);
#1049=IFCPROPERTYSINGLEVALUE('ComplianceStatus',$,IFCLABEL('PASS'),$);
#1050=IFCPROPERTYSINGLEVALUE('Findings',$,IFCLABEL('-'),$);
#1051=IFCPROPERTYSINGLEVALUE('GeneratedBy',$,IFCLABEL('Recognition 0.1.0'),$);
ENDSEC;
END-ISO-10303-21;
