<?xml version="1.0" encoding="utf-8" ?>
<svg baseProfile="full" height="297.0mm" version="1.1" viewBox="0 0 420.0 297.0" width="420.0mm" xmlns="http://www.w3.org/2000/svg" xmlns:ev="http://www.w3.org/2001/xml-events" xmlns:xlink="http://www.w3.org/1999/xlink"><defs /><rect fill="white" height="297.0" width="420.0" x="0" y="0" /><path d="M 231.500,122.500 L 231.500,169.500 L 160.000,169.500 L 160.000,122.500 L 231.500,122.500 Z" fill="#eef3fb" fill-rule="evenodd" stroke="#9fb3d9" stroke-width="0.15" /><path d="M 196.000,60.500 L 226.000,60.500 L 226.000,107.500 L 196.000,107.500 L 196.000,60.500 Z" fill="#eef3fb" fill-rule="evenodd" stroke="#9fb3d9" stroke-width="0.15" /><path d="M 160.000,60.500 L 194.000,60.500 L 194.000,107.500 L 160.000,107.500 L 160.000,60.500 Z" fill="#eef3fb" fill-rule="evenodd" stroke="#9fb3d9" stroke-width="0.15" /><path d="M 233.000,122.500 L 263.000,122.500 L 263.000,169.500 L 233.000,169.500 L 233.000,122.500 Z" fill="#eef3fb" fill-rule="evenodd" stroke="#9fb3d9" stroke-width="0.15" /><path d="M 228.000,60.500 L 256.000,60.500 L 256.000,107.500 L 228.000,107.500 L 228.000,60.500 Z" fill="#eef3fb" fill-rule="evenodd" stroke="#9fb3d9" stroke-width="0.15" /><path d="M 257.000,80.500 L 289.000,80.500 L 289.000,107.500 L 257.000,107.500 L 257.000,80.500 Z" fill="#eef3fb" fill-rule="evenodd" stroke="#9fb3d9" stroke-width="0.15" /><path d="M 264.500,123.000 L 289.000,123.000 L 289.000,169.500 L 264.500,169.500 L 264.500,123.000 Z" fill="#eef3fb" fill-rule="evenodd" stroke="#9fb3d9" stroke-width="0.15" /><path d="M 257.000,60.500 L 289.000,60.500 L 289.000,79.500 L 257.000,79.500 L 257.000,60.500 Z" fill="#eef3fb" fill-rule="evenodd" stroke="#9fb3d9" stroke-width="0.15" /><path d="M 160.000,109.000 L 289.000,109.000 L 289.000,121.000 L 160.000,121.000 L 160.000,109.000 Z" fill="#eef3fb" fill-rule="evenodd" stroke="#9fb3d9" stroke-width="0.15" /><path d="M 157.000,172.500 L 157.000,169.500 L 179.250,169.500 L 211.750,169.500 L 219.450,169.500 L 229.550,169.500 L 241.000,169.500 L 255.000,169.500 L 292.000,169.500 L 292.000,172.500 L 255.000,172.500 L 241.000,172.500 L 229.550,172.500 L 219.450,172.500 L 211.750,172.500 L 179.250,172.500 L 157.000,172.500 Z" fill="#2b2b2b" fill-rule="evenodd" stroke="none" /><path d="M 292.000,152.250 L 292.000,172.500 L 289.000,172.500 L 289.000,152.250 L 289.000,140.750 L 289.000,57.500 L 292.000,57.500 L 292.000,140.750 L 292.000,152.250 Z" fill="#2b2b2b" fill-rule="evenodd" stroke="none" /><path d="M 235.000,57.500 L 248.000,57.500 L 292.000,57.500 L 292.000,60.500 L 248.000,60.500 L 235.000,60.500 L 218.000,60.500 L 204.000,60.500 L 157.000,60.500 L 157.000,57.500 L 204.000,57.500 L 218.000,57.500 L 235.000,57.500 Z" fill="#2b2b2b" fill-rule="evenodd" stroke="none" /><path d="M 157.000,91.500 L 157.000,75.500 L 157.000,57.500 L 160.000,57.500 L 160.000,75.500 L 160.000,75.500 L 160.000,91.500 L 160.000,172.500 L 157.000,172.500 L 157.000,91.500 Z" fill="#2b2b2b" fill-rule="evenodd" stroke="none" /><path d="M 233.250,171.750 L 231.750,171.750 L 231.750,120.750 L 233.250,120.750 L 233.250,171.750 Z" fill="#2b2b2b" fill-rule="evenodd" stroke="none" /><path d="M 157.750,120.750 L 191.075,120.750 L 199.925,120.750 L 233.250,120.750 L 233.250,122.250 L 199.925,122.250 L 191.075,122.250 L 157.750,122.250 L 157.750,120.750 Z" fill="#2b2b2b" fill-rule="evenodd" stroke="none" /><path d="M 195.750,109.250 L 194.250,109.250 L 194.250,58.250 L 195.750,58.250 L 195.750,109.250 Z" fill="#2b2b2b" fill-rule="evenodd" stroke="none" /><path d="M 227.750,109.250 L 226.250,109.250 L 226.250,58.250 L 227.750,58.250 L 227.750,109.250 Z" fill="#2b2b2b" fill-rule="evenodd" stroke="none" /><path d="M 194.250,107.750 L 206.575,107.750 L 215.425,107.750 L 227.750,107.750 L 227.750,109.250 L 215.425,109.250 L 206.575,109.250 L 194.250,109.250 L 194.250,107.750 Z" fill="#2b2b2b" fill-rule="evenodd" stroke="none" /><path d="M 157.750,107.750 L 172.075,107.750 L 180.925,107.750 L 195.750,107.750 L 195.750,109.250 L 180.925,109.250 L 172.075,109.250 L 157.750,109.250 L 157.750,107.750 Z" fill="#2b2b2b" fill-rule="evenodd" stroke="none" /><path d="M 263.250,142.075 L 263.250,121.250 L 264.750,121.250 L 264.750,142.075 L 264.750,150.925 L 264.750,171.750 L 263.250,171.750 L 263.250,150.925 L 263.250,142.075 Z" fill="#2b2b2b" fill-rule="evenodd" stroke="none" /><path d="M 231.750,120.750 L 243.575,120.750 L 252.425,120.750 L 264.750,120.750 L 264.750,122.250 L 252.425,122.250 L 243.575,122.250 L 231.750,122.250 L 231.750,120.750 Z" fill="#2b2b2b" fill-rule="evenodd" stroke="none" /><path d="M 257.250,109.250 L 255.750,109.250 L 255.750,79.250 L 257.250,79.250 L 257.250,109.250 Z" fill="#2b2b2b" fill-rule="evenodd" stroke="none" /><path d="M 257.250,80.750 L 255.750,80.750 L 255.750,58.250 L 257.250,58.250 L 257.250,80.750 Z" fill="#2b2b2b" fill-rule="evenodd" stroke="none" /><path d="M 226.250,107.750 L 237.075,107.750 L 245.925,107.750 L 257.250,107.750 L 257.250,109.250 L 245.925,109.250 L 237.075,109.250 L 226.250,109.250 L 226.250,107.750 Z" fill="#2b2b2b" fill-rule="evenodd" stroke="none" /><path d="M 255.750,79.250 L 269.075,79.250 L 277.925,79.250 L 279.075,79.250 L 287.925,79.250 L 291.250,79.250 L 291.250,80.750 L 287.925,80.750 L 279.075,80.750 L 277.925,80.750 L 269.075,80.750 L 255.750,80.750 L 255.750,79.250 Z" fill="#2b2b2b" fill-rule="evenodd" stroke="none" /><path d="M 255.750,107.750 L 269.075,107.750 L 277.925,107.750 L 291.250,107.750 L 291.250,109.250 L 277.925,109.250 L 269.075,109.250 L 255.750,109.250 L 255.750,107.750 Z" fill="#2b2b2b" fill-rule="evenodd" stroke="none" /><path d="M 229.550,171.750 L 219.450,171.750 L 219.450,170.250 L 229.550,170.250 L 229.550,171.750 Z" fill="white" fill-rule="evenodd" stroke="none" /><path d="M 199.925,121.875 L 191.075,121.875 L 191.075,121.125 L 199.925,121.125 L 199.925,121.875 Z" fill="white" fill-rule="evenodd" stroke="none" /><path d="M 215.425,108.875 L 206.575,108.875 L 206.575,108.125 L 215.425,108.125 L 215.425,108.875 Z" fill="white" fill-rule="evenodd" stroke="none" /><path d="M 180.925,108.875 L 172.075,108.875 L 172.075,108.125 L 180.925,108.125 L 180.925,108.875 Z" fill="white" fill-rule="evenodd" stroke="none" /><path d="M 252.425,121.875 L 243.575,121.875 L 243.575,121.125 L 252.425,121.125 L 252.425,121.875 Z" fill="white" fill-rule="evenodd" stroke="none" /><path d="M 245.925,108.875 L 237.075,108.875 L 237.075,108.125 L 245.925,108.125 L 245.925,108.875 Z" fill="white" fill-rule="evenodd" stroke="none" /><path d="M 277.925,108.875 L 269.075,108.875 L 269.075,108.125 L 277.925,108.125 L 277.925,108.875 Z" fill="white" fill-rule="evenodd" stroke="none" /><path d="M 264.375,150.925 L 263.625,150.925 L 263.625,142.075 L 264.375,142.075 L 264.375,150.925 Z" fill="white" fill-rule="evenodd" stroke="none" /><path d="M 277.925,80.375 L 269.075,80.375 L 269.075,79.625 L 277.925,79.625 L 277.925,80.375 Z" fill="white" fill-rule="evenodd" stroke="none" /><path d="M 287.925,80.375 L 279.075,80.375 L 279.075,79.625 L 287.925,79.625 L 287.925,80.375 Z" fill="white" fill-rule="evenodd" stroke="none" /><path d="M 211.750,171.750 L 179.250,171.750 L 179.250,170.250 L 211.750,170.250 L 211.750,171.750 Z" fill="white" fill-rule="evenodd" stroke="none" /><path d="M 204.000,58.250 L 218.000,58.250 L 218.000,59.750 L 204.000,59.750 L 204.000,58.250 Z" fill="white" fill-rule="evenodd" stroke="none" /><path d="M 159.250,91.500 L 157.750,91.500 L 157.750,75.500 L 159.250,75.500 L 159.250,91.500 Z" fill="white" fill-rule="evenodd" stroke="none" /><path d="M 255.000,171.750 L 241.000,171.750 L 241.000,170.250 L 255.000,170.250 L 255.000,171.750 Z" fill="white" fill-rule="evenodd" stroke="none" /><path d="M 235.000,58.250 L 248.000,58.250 L 248.000,59.750 L 235.000,59.750 L 235.000,58.250 Z" fill="white" fill-rule="evenodd" stroke="none" /><path d="M 291.250,152.250 L 289.750,152.250 L 289.750,140.750 L 291.250,140.750 L 291.250,152.250 Z" fill="white" fill-rule="evenodd" stroke="none" /><line stroke="#2a7fff" stroke-width="0.35" x1="179.25" x2="211.75" y1="171.375" y2="171.375" /><line stroke="#2a7fff" stroke-width="0.35" x1="179.25" x2="211.75" y1="170.625" y2="170.625" /><text fill="#2a7fff" font-family="Helvetica, Arial, sans-serif" font-size="1.8" text-anchor="middle" x="195.5" y="173.6">W-01</text><line stroke="#2a7fff" stroke-width="0.35" x1="204.0" x2="218.0" y1="59.375" y2="59.375" /><line stroke="#2a7fff" stroke-width="0.35" x1="204.0" x2="218.0" y1="58.625" y2="58.625" /><text fill="#2a7fff" font-family="Helvetica, Arial, sans-serif" font-size="1.8" text-anchor="middle" x="211.0" y="57.4">W-05</text><line stroke="#2a7fff" stroke-width="0.35" x1="158.875" x2="158.875" y1="91.50000000000003" y2="75.50000000000003" /><line stroke="#2a7fff" stroke-width="0.35" x1="158.125" x2="158.125" y1="91.50000000000003" y2="75.50000000000003" /><text fill="#2a7fff" font-family="Helvetica, Arial, sans-serif" font-size="1.8" text-anchor="end" x="156.5" y="84.20000000000003">W-04</text><line stroke="#2a7fff" stroke-width="0.35" x1="241.0" x2="255.0" y1="171.375" y2="171.375" /><line stroke="#2a7fff" stroke-width="0.35" x1="241.0" x2="255.0" y1="170.625" y2="170.625" /><text fill="#2a7fff" font-family="Helvetica, Arial, sans-serif" font-size="1.8" text-anchor="middle" x="248.0" y="173.6">W-02</text><line stroke="#2a7fff" stroke-width="0.35" x1="235.0" x2="248.0" y1="59.375" y2="59.375" /><line stroke="#2a7fff" stroke-width="0.35" x1="235.0" x2="248.0" y1="58.625" y2="58.625" /><text fill="#2a7fff" font-family="Helvetica, Arial, sans-serif" font-size="1.8" text-anchor="middle" x="241.5" y="57.399999999999984">W-06</text><line stroke="#2a7fff" stroke-width="0.35" x1="290.875" x2="290.875" y1="152.25" y2="140.75" /><line stroke="#2a7fff" stroke-width="0.35" x1="290.125" x2="290.125" y1="152.25" y2="140.75" /><text fill="#2a7fff" font-family="Helvetica, Arial, sans-serif" font-size="1.8" text-anchor="start" x="292.5" y="147.2">W-03</text><line stroke="#b5651d" stroke-width="0.4" x1="219.45" x2="219.45" y1="171.0" y2="160.9" /><polyline fill="none" points="229.55,171.0 229.46359309987548,169.68168545857748 229.2058508455196,168.38592764446454 228.78118327836398,167.1348973331126 228.19685657822282,165.95 227.46286873694146,164.85150956701193 226.59177848998414,163.85822151001588 225.59849043298806,162.98713126305853 224.5,162.25314342177717 223.3151026668874,161.668816721636 222.06407235553547,161.2441491544804 220.7683145414225,160.9864069001245 219.45,160.9" stroke="#b5651d" stroke-dasharray="0.8,0.5" stroke-width="0.2" /><text fill="#b5651d" font-family="Helvetica, Arial, sans-serif" font-size="1.8" text-anchor="middle" x="219.45" y="160.1">D-01</text><line stroke="#b5651d" stroke-width="0.4" x1="191.075" x2="191.075" y1="121.5" y2="112.65" /><polyline fill="none" points="199.925,121.5 199.84928702315824,120.34484319885254 199.62344356265825,119.20945145084269 199.2513338627249,118.11325162356896 198.7393248234923,117.075 198.09617706157744,116.11246135327282 197.33289501350094,115.24210498649906 196.46253864672718,114.47882293842257 195.5,113.83567517650772 194.46174837643105,113.32366613727513 193.36554854915732,112.95155643734175 192.23015680114747,112.72571297684178 191.075,112.65" stroke="#b5651d" stroke-dasharray="0.8,0.5" stroke-width="0.2" /><text fill="#b5651d" font-family="Helvetica, Arial, sans-serif" font-size="1.8" text-anchor="middle" x="191.075" y="111.85000000000001">D-03</text><line stroke="#b5651d" stroke-width="0.4" x1="206.575" x2="206.575" y1="108.5" y2="99.65" /><polyline fill="none" points="215.425,108.5 215.34928702315824,107.34484319885254 215.12344356265825,106.20945145084269 214.7513338627249,105.11325162356896 214.23932482349227,104.075 213.59617706157744,103.11246135327282 212.83289501350094,102.24210498649904 211.96253864672718,101.47882293842257 211.0,100.83567517650772 209.96174837643105,100.32366613727511 208.86554854915732,99.95155643734174 207.73015680114747,99.72571297684178 206.575,99.65" stroke="#b5651d" stroke-dasharray="0.8,0.5" stroke-width="0.2" /><text fill="#b5651d" font-family="Helvetica, Arial, sans-serif" font-size="1.8" text-anchor="middle" x="206.575" y="98.85000000000001">D-06</text><line stroke="#b5651d" stroke-width="0.4" x1="172.075" x2="172.075" y1="108.5" y2="99.65" /><polyline fill="none" points="180.925,108.5 180.8492870231582,107.34484319885254 180.62344356265825,106.20945145084269 180.2513338627249,105.11325162356896 179.73932482349227,104.075 179.09617706157744,103.11246135327282 178.33289501350094,102.24210498649904 177.46253864672718,101.47882293842257 176.5,100.83567517650772 175.46174837643105,100.32366613727511 174.3655485491573,99.95155643734174 173.23015680114744,99.72571297684178 172.075,99.65" stroke="#b5651d" stroke-dasharray="0.8,0.5" stroke-width="0.2" /><text fill="#b5651d" font-family="Helvetica, Arial, sans-serif" font-size="1.8" text-anchor="middle" x="172.075" y="98.85000000000001">D-05</text><line stroke="#b5651d" stroke-width="0.4" x1="243.575" x2="243.575" y1="121.5" y2="112.65" /><polyline fill="none" points="252.42499999999998,121.5 252.3492870231582,120.34484319885254 252.12344356265825,119.20945145084269 251.7513338627249,118.11325162356896 251.23932482349227,117.075 250.5961770615774,116.11246135327282 249.83289501350094,115.24210498649906 248.96253864672715,114.47882293842257 248.0,113.83567517650772 246.96174837643105,113.32366613727513 245.8655485491573,112.95155643734175 244.73015680114744,112.72571297684178 243.575,112.65" stroke="#b5651d" stroke-dasharray="0.8,0.5" stroke-width="0.2" /><text fill="#b5651d" font-family="Helvetica, Arial, sans-serif" font-size="1.8" text-anchor="middle" x="243.575" y="111.85000000000001">D-04</text><line stroke="#b5651d" stroke-width="0.4" x1="237.075" x2="237.075" y1="108.5" y2="99.65" /><polyline fill="none" points="245.92499999999998,108.5 245.84928702315818,107.34484319885254 245.62344356265822,106.20945145084269 245.25133386272486,105.11325162356896 244.73932482349227,104.075 244.0961770615774,103.11246135327282 243.33289501350094,102.24210498649904 242.46253864672715,101.47882293842257 241.5,100.83567517650772 240.46174837643105,100.32366613727511 239.3655485491573,99.95155643734174 238.23015680114744,99.72571297684178 237.075,99.65" stroke="#b5651d" stroke-dasharray="0.8,0.5" stroke-width="0.2" /><text fill="#b5651d" font-family="Helvetica, Arial, sans-serif" font-size="1.8" text-anchor="middle" x="237.075" y="98.85000000000001">D-07</text><line stroke="#b5651d" stroke-width="0.4" x1="269.075" x2="269.075" y1="108.5" y2="99.65" /><polyline fill="none" points="277.92499999999995,108.5 277.8492870231582,107.34484319885254 277.6234435626582,106.20945145084269 277.2513338627249,105.11325162356896 276.73932482349227,104.075 276.0961770615774,103.11246135327282 275.33289501350094,102.24210498649904 274.4625386467271,101.47882293842257 273.5,100.83567517650772 272.46174837643105,100.32366613727511 271.36554854915727,99.95155643734174 270.2301568011474,99.72571297684178 269.075,99.65" stroke="#b5651d" stroke-dasharray="0.8,0.5" stroke-width="0.2" /><text fill="#b5651d" font-family="Helvetica, Arial, sans-serif" font-size="1.8" text-anchor="middle" x="269.075" y="98.85000000000001">D-08</text><line stroke="#b5651d" stroke-width="0.4" x1="264.0" x2="255.14999999999998" y1="150.925" y2="150.925" /><polyline fill="none" points="264.0,142.075 262.8448431988526,142.1507129768418 261.7094514508427,142.37655643734175 260.61325162356894,142.7486661372751 259.575,143.26067517650773 258.6124613532728,143.90382293842256 257.74210498649904,144.66710498649906 256.9788229384226,145.53746135327282 256.3356751765077,146.5 255.8236661372751,147.53825162356895 255.45155643734174,148.63445145084268 255.22571297684178,149.76984319885253 255.14999999999998,150.925" stroke="#b5651d" stroke-dasharray="0.8,0.5" stroke-width="0.2" /><text fill="#b5651d" font-family="Helvetica, Arial, sans-serif" font-size="1.8" text-anchor="middle" x="255.14999999999998" y="150.125">D-02</text><line stroke="#b5651d" stroke-width="0.4" x1="269.075" x2="269.075" y1="80.0" y2="71.15" /><polyline fill="none" points="277.92499999999995,80.0 277.8492870231582,78.84484319885254 277.6234435626582,77.70945145084269 277.2513338627249,76.61325162356896 276.73932482349227,75.57499999999999 276.0961770615774,74.61246135327283 275.33289501350094,73.74210498649904 274.4625386467271,72.97882293842257 273.5,72.33567517650772 272.46174837643105,71.82366613727511 271.36554854915727,71.45155643734174 270.2301568011474,71.22571297684178 269.075,71.15" stroke="#b5651d" stroke-dasharray="0.8,0.5" stroke-width="0.2" /><text fill="#b5651d" font-family="Helvetica, Arial, sans-serif" font-size="1.8" text-anchor="middle" x="269.075" y="70.35000000000001">D-10</text><line stroke="#b5651d" stroke-width="0.4" x1="279.075" x2="279.075" y1="80.0" y2="71.15" /><polyline fill="none" points="287.92499999999995,80.0 287.8492870231582,78.84484319885254 287.6234435626582,77.70945145084269 287.2513338627249,76.61325162356896 286.73932482349227,75.57499999999999 286.0961770615774,74.61246135327283 285.3328950135009,73.74210498649904 284.4625386467271,72.97882293842257 283.5,72.33567517650772 282.46174837643105,71.82366613727511 281.36554854915727,71.45155643734174 280.2301568011474,71.22571297684178 279.075,71.15" stroke="#b5651d" stroke-dasharray="0.8,0.5" stroke-width="0.2" /><text fill="#b5651d" font-family="Helvetica, Arial, sans-serif" font-size="1.8" text-anchor="middle" x="279.075" y="70.35000000000001">D-09</text><text fill="#111111" font-family="Helvetica, Arial, sans-serif" font-size="2.6" font-weight="bold" text-anchor="middle" x="195.75" y="145.0">R-01  Wohnen</text><text fill="#111111" font-family="Helvetica, Arial, sans-serif" font-size="2.2" text-anchor="middle" x="195.75" y="148.2">33.6 m²</text><text fill="#111111" font-family="Helvetica, Arial, sans-serif" font-size="2.6" font-weight="bold" text-anchor="middle" x="211.0" y="83.0">R-07  Küche (Essküche)</text><text fill="#111111" font-family="Helvetica, Arial, sans-serif" font-size="2.2" text-anchor="middle" x="211.0" y="86.2">14.1 m²</text><text fill="#111111" font-family="Helvetica, Arial, sans-serif" font-size="2.6" font-weight="bold" text-anchor="middle" x="177.0" y="83.0">R-06  Elternschlafzimmer</text><text fill="#111111" font-family="Helvetica, Arial, sans-serif" font-size="2.2" text-anchor="middle" x="177.0" y="86.2">16.0 m²</text><text fill="#111111" font-family="Helvetica, Arial, sans-serif" font-size="2.6" font-weight="bold" text-anchor="middle" x="247.99999999999997" y="145.0">R-02  Kinderzimmer 1</text><text fill="#111111" font-family="Helvetica, Arial, sans-serif" font-size="2.2" text-anchor="middle" x="247.99999999999997" y="148.2">14.1 m²</text><text fill="#111111" font-family="Helvetica, Arial, sans-serif" font-size="2.6" font-weight="bold" text-anchor="middle" x="242.0" y="83.0">R-08  Kinderzimmer 2</text><text fill="#111111" font-family="Helvetica, Arial, sans-serif" font-size="2.2" text-anchor="middle" x="242.0" y="86.2">13.2 m²</text><text fill="#111111" font-family="Helvetica, Arial, sans-serif" font-size="2.6" font-weight="bold" text-anchor="middle" x="273.0" y="93.0">R-05  Bad</text><text fill="#111111" font-family="Helvetica, Arial, sans-serif" font-size="2.2" text-anchor="middle" x="273.0" y="96.2">8.6 m²</text><text fill="#111111" font-family="Helvetica, Arial, sans-serif" font-size="2.6" font-weight="bold" text-anchor="middle" x="276.75" y="145.25">R-03  Büro</text><text fill="#111111" font-family="Helvetica, Arial, sans-serif" font-size="2.2" text-anchor="middle" x="276.75" y="148.45">11.4 m²</text><text fill="#111111" font-family="Helvetica, Arial, sans-serif" font-size="2.6" font-weight="bold" text-anchor="middle" x="273.0" y="69.0">R-09  Hausarbeitsraum</text><text fill="#111111" font-family="Helvetica, Arial, sans-serif" font-size="2.2" text-anchor="middle" x="273.0" y="72.2">6.1 m²</text><text fill="#111111" font-family="Helvetica, Arial, sans-serif" font-size="2.6" font-weight="bold" text-anchor="middle" x="224.5" y="114.0">R-04  Diele / Flur</text><text fill="#111111" font-family="Helvetica, Arial, sans-serif" font-size="2.2" text-anchor="middle" x="224.5" y="117.2">15.5 m²</text><line stroke="#555555" stroke-width="0.18" x1="157.0" x2="292.0" y1="184.5" y2="184.5" /><line stroke="#555555" stroke-width="0.25" x1="156.5" x2="157.5" y1="185.0" y2="184.0" /><line stroke="#555555" stroke-width="0.25" x1="178.7" x2="179.7" y1="185.0" y2="184.0" /><line stroke="#555555" stroke-width="0.25" x1="203.5" x2="204.5" y1="185.0" y2="184.0" /><line stroke="#555555" stroke-width="0.25" x1="211.3" x2="212.3" y1="185.0" y2="184.0" /><line stroke="#555555" stroke-width="0.25" x1="217.5" x2="218.5" y1="185.0" y2="184.0" /><line stroke="#555555" stroke-width="0.25" x1="218.9" x2="219.9" y1="185.0" y2="184.0" /><line stroke="#555555" stroke-width="0.25" x1="229.1" x2="230.1" y1="185.0" y2="184.0" /><line stroke="#555555" stroke-width="0.25" x1="234.5" x2="235.5" y1="185.0" y2="184.0" /><line stroke="#555555" stroke-width="0.25" x1="240.5" x2="241.5" y1="185.0" y2="184.0" /><line stroke="#555555" stroke-width="0.25" x1="247.5" x2="248.5" y1="185.0" y2="184.0" /><line stroke="#555555" stroke-width="0.25" x1="254.5" x2="255.5" y1="185.0" y2="184.0" /><line stroke="#555555" stroke-width="0.25" x1="291.5" x2="292.5" y1="185.0" y2="184.0" /><text fill="#555555" font-family="Helvetica, Arial, sans-serif" font-size="1.9" text-anchor="middle" x="168.1" y="183.7">2 220</text><text fill="#555555" font-family="Helvetica, Arial, sans-serif" font-size="1.9" text-anchor="middle" x="191.6" y="183.7">2 480</text><text fill="#555555" font-family="Helvetica, Arial, sans-serif" font-size="1.9" text-anchor="middle" x="207.9" y="183.7">780</text><text fill="#555555" font-family="Helvetica, Arial, sans-serif" font-size="1.9" text-anchor="middle" x="214.9" y="183.7">620</text><text fill="#555555" font-family="Helvetica, Arial, sans-serif" font-size="1.9" text-anchor="middle" x="218.7" y="183.7">140</text><text fill="#555555" font-family="Helvetica, Arial, sans-serif" font-size="1.9" text-anchor="middle" x="224.5" y="183.7">1 020</text><text fill="#555555" font-family="Helvetica, Arial, sans-serif" font-size="1.9" text-anchor="middle" x="232.3" y="183.7">540</text><text fill="#555555" font-family="Helvetica, Arial, sans-serif" font-size="1.9" text-anchor="middle" x="238.0" y="183.7">600</text><text fill="#555555" font-family="Helvetica, Arial, sans-serif" font-size="1.9" text-anchor="middle" x="244.5" y="183.7">700</text><text fill="#555555" font-family="Helvetica, Arial, sans-serif" font-size="1.9" text-anchor="middle" x="251.5" y="183.7">700</text><text fill="#555555" font-family="Helvetica, Arial, sans-serif" font-size="1.9" text-anchor="middle" x="273.5" y="183.7">3 700</text><line stroke="#555555" stroke-width="0.18" x1="157.0" x2="292.0" y1="196.5" y2="196.5" /><line stroke="#555555" stroke-width="0.25" x1="156.5" x2="157.5" y1="197.0" y2="196.0" /><line stroke="#555555" stroke-width="0.25" x1="291.5" x2="292.5" y1="197.0" y2="196.0" /><text fill="#555555" font-family="Helvetica, Arial, sans-serif" font-size="1.9" text-anchor="middle" x="224.5" y="195.7">13 500</text><line stroke="#555555" stroke-width="0.18" x1="145.0" x2="145.0" y1="172.5" y2="57.5" /><line stroke="#555555" stroke-width="0.25" x1="144.5" x2="145.5" y1="173.0" y2="172.0" /><line stroke="#555555" stroke-width="0.25" x1="144.5" x2="145.5" y1="152.7" y2="151.7" /><line stroke="#555555" stroke-width="0.25" x1="144.5" x2="145.5" y1="141.2" y2="140.2" /><line stroke="#555555" stroke-width="0.25" x1="144.5" x2="145.5" y1="92.0" y2="91.0" /><line stroke="#555555" stroke-width="0.25" x1="144.5" x2="145.5" y1="76.0" y2="75.0" /><line stroke="#555555" stroke-width="0.25" x1="144.5" x2="145.5" y1="58.0" y2="57.0" /><text fill="#555555" font-family="Helvetica, Arial, sans-serif" font-size="1.9" text-anchor="middle" transform="rotate(-90,144.2,162.35)" x="144.2" y="162.35">2 030</text><text fill="#555555" font-family="Helvetica, Arial, sans-serif" font-size="1.9" text-anchor="middle" transform="rotate(-90,144.2,146.45)" x="144.2" y="146.45">1 150</text><text fill="#555555" font-family="Helvetica, Arial, sans-serif" font-size="1.9" text-anchor="middle" transform="rotate(-90,144.2,116.1)" x="144.2" y="116.1">4 920</text><text fill="#555555" font-family="Helvetica, Arial, sans-serif" font-size="1.9" text-anchor="middle" transform="rotate(-90,144.2,83.50000000000001)" x="144.2" y="83.50000000000001">1 600</text><text fill="#555555" font-family="Helvetica, Arial, sans-serif" font-size="1.9" text-anchor="middle" transform="rotate(-90,144.2,66.5)" x="144.2" y="66.5">1 800</text><line stroke="#555555" stroke-width="0.18" x1="133.0" x2="133.0" y1="172.5" y2="57.5" /><line stroke="#555555" stroke-width="0.25" x1="132.5" x2="133.5" y1="173.0" y2="172.0" /><line stroke="#555555" stroke-width="0.25" x1="132.5" x2="133.5" y1="58.0" y2="57.0" /><text fill="#555555" font-family="Helvetica, Arial, sans-serif" font-size="1.9" text-anchor="middle" transform="rotate(-90,132.2,115.0)" x="132.2" y="115.0">11 500</text><polygon fill="#000" points="398.0,16.0 395.0,26.0 398.0,24.0 401.0,26.0" /><text font-family="Helvetica, Arial, sans-serif" font-size="3" font-weight="bold" text-anchor="middle" x="398.0" y="14.5">N</text><rect fill="#000" height="1.2" stroke="#000" stroke-width="0.2" width="10.0" x="15.0" y="243.0" /><text font-family="Helvetica, Arial, sans-serif" font-size="1.8" text-anchor="middle" x="15.0" y="242.2">0</text><rect fill="#fff" height="1.2" stroke="#000" stroke-width="0.2" width="10.0" x="25.0" y="243.0" /><text font-family="Helvetica, Arial, sans-serif" font-size="1.8" text-anchor="middle" x="25.0" y="242.2">1</text><rect fill="#000" height="1.2" stroke="#000" stroke-width="0.2" width="10.0" x="35.0" y="243.0" /><text font-family="Helvetica, Arial, sans-serif" font-size="1.8" text-anchor="middle" x="35.0" y="242.2">2</text><rect fill="#fff" height="1.2" stroke="#000" stroke-width="0.2" width="10.0" x="45.0" y="243.0" /><text font-family="Helvetica, Arial, sans-serif" font-size="1.8" text-anchor="middle" x="45.0" y="242.2">3</text><rect fill="#000" height="1.2" stroke="#000" stroke-width="0.2" width="10.0" x="55.0" y="243.0" /><text font-family="Helvetica, Arial, sans-serif" font-size="1.8" text-anchor="middle" x="55.0" y="242.2">4</text><text font-family="Helvetica, Arial, sans-serif" font-size="1.8" text-anchor="middle" x="65.0" y="242.2">5 m</text><rect fill="white" height="38.0" stroke="#000" stroke-width="0.5" width="150" x="260.0" y="249.0" /><line stroke="#000" stroke-width="0.3" x1="260.0" x2="410.0" y1="261.0" y2="261.0" /><line stroke="#000" stroke-width="0.3" x1="355.0" x2="355.0" y1="261.0" y2="287.0" /><text font-family="Helvetica, Arial, sans-serif" font-size="5" font-weight="bold" x="263.0" y="257.0">Familienhaus</text><text font-family="Helvetica, Arial, sans-serif" font-size="4" x="263.0" y="269.0">FLOOR PLAN — ERDGESCHOSS</text><text fill="#444" font-family="Helvetica, Arial, sans-serif" font-size="2.4" x="263.0" y="276.0">Model: model.ifc</text><text fill="#666" font-family="Helvetica, Arial, sans-serif" font-size="2.2" x="263.0" y="282.0">Generated by Recognition — do not edit by hand; change the generator.</text><text fill="#666" font-family="Helvetica, Arial, sans-serif" font-size="2.2" x="358.0" y="265.0">SHEET</text><text font-family="Helvetica, Arial, sans-serif" font-size="6" font-weight="bold" x="358.0" y="273.0">A-101</text><text font-family="Helvetica, Arial, sans-serif" font-size="2.4" x="358.0" y="279.0">SCALE 1:100  ·  A3</text><text font-family="Helvetica, Arial, sans-serif" font-size="2.4" x="358.0" y="284.0">2026-08-22  ·  REV 0fb84ca</text><rect fill="none" height="277.0" stroke="#000" stroke-width="0.5" width="400.0" x="10.0" y="10.0" /></svg>