<?xml version="1.0" encoding="utf-8" ?>
<svg baseProfile="full" height="297.0mm" version="1.1" viewBox="0 0 420.0 297.0" width="420.0mm" xmlns="http://www.w3.org/2000/svg" xmlns:ev="http://www.w3.org/2001/xml-events" xmlns:xlink="http://www.w3.org/1999/xlink"><defs /><rect fill="white" height="297.0" width="420.0" x="0" y="0" /><path d="M 162.500,96.000 L 214.500,96.000 L 214.500,169.500 L 162.500,169.500 L 162.500,96.000 Z" fill="#eef3fb" fill-rule="evenodd" stroke="#9fb3d9" stroke-width="0.15" /><path d="M 162.500,60.500 L 214.500,60.500 L 214.500,94.500 L 162.500,94.500 L 162.500,60.500 Z" fill="#eef3fb" fill-rule="evenodd" stroke="#9fb3d9" stroke-width="0.15" /><path d="M 216.000,126.000 L 244.500,126.000 L 244.500,169.500 L 216.000,169.500 L 216.000,126.000 Z" fill="#eef3fb" fill-rule="evenodd" stroke="#9fb3d9" stroke-width="0.15" /><path d="M 245.500,126.000 L 286.500,126.000 L 286.500,169.500 L 245.500,169.500 L 245.500,126.000 Z" fill="#eef3fb" fill-rule="evenodd" stroke="#9fb3d9" stroke-width="0.15" /><path d="M 216.000,92.500 L 259.500,92.500 L 259.500,124.500 L 216.000,124.500 L 216.000,92.500 Z" fill="#eef3fb" fill-rule="evenodd" stroke="#9fb3d9" stroke-width="0.15" /><path d="M 216.000,60.500 L 259.500,60.500 L 259.500,91.500 L 216.000,91.500 L 216.000,60.500 Z" fill="#eef3fb" fill-rule="evenodd" stroke="#9fb3d9" stroke-width="0.15" /><path d="M 260.500,86.500 L 286.500,86.500 L 286.500,124.500 L 260.500,124.500 L 260.500,86.500 Z" fill="#eef3fb" fill-rule="evenodd" stroke="#9fb3d9" stroke-width="0.15" /><path d="M 260.500,60.500 L 286.500,60.500 L 286.500,85.000 L 260.500,85.000 L 260.500,60.500 Z" fill="#eef3fb" fill-rule="evenodd" stroke="#9fb3d9" stroke-width="0.15" /><path d="M 159.500,169.500 L 219.450,169.500 L 229.550,169.500 L 230.750,169.500 L 242.250,169.500 L 289.500,169.500 L 289.500,172.500 L 242.250,172.500 L 230.750,172.500 L 229.550,172.500 L 219.450,172.500 L 159.500,172.500 L 159.500,169.500 Z" fill="#2b2b2b" fill-rule="evenodd" stroke="none" /><path d="M 289.500,156.750 L 289.500,172.500 L 286.500,172.500 L 286.500,156.750 L 286.500,139.250 L 286.500,57.500 L 289.500,57.500 L 289.500,139.250 L 289.500,156.750 Z" fill="#2b2b2b" fill-rule="evenodd" stroke="none" /><path d="M 231.500,57.500 L 244.500,57.500 L 289.500,57.500 L 289.500,60.500 L 244.500,60.500 L 231.500,60.500 L 197.250,60.500 L 179.750,60.500 L 159.500,60.500 L 159.500,57.500 L 179.750,57.500 L 197.250,57.500 L 231.500,57.500 Z" fill="#2b2b2b" fill-rule="evenodd" stroke="none" /><path d="M 162.500,114.500 L 162.500,151.500 L 162.500,172.500 L 159.500,172.500 L 159.500,151.500 L 159.500,114.500 L 159.500,57.500 L 162.500,57.500 L 162.500,114.500 L 162.500,114.500 Z" fill="#2b2b2b" fill-rule="evenodd" stroke="none" /><path d="M 216.250,95.750 L 160.250,95.750 L 160.250,94.250 L 216.250,94.250 L 216.250,95.750 Z" fill="#2b2b2b" fill-rule="evenodd" stroke="none" /><path d="M 216.250,171.750 L 214.750,171.750 L 214.750,124.250 L 216.250,124.250 L 216.250,171.750 Z" fill="#2b2b2b" fill-rule="evenodd" stroke="none" /><path d="M 214.750,105.575 L 214.750,94.250 L 216.250,94.250 L 216.250,105.575 L 216.250,114.425 L 216.250,125.750 L 214.750,125.750 L 214.750,114.425 L 214.750,105.575 Z" fill="#2b2b2b" fill-rule="evenodd" stroke="none" /><path d="M 216.250,92.750 L 214.750,92.750 L 214.750,58.250 L 216.250,58.250 L 216.250,92.750 Z" fill="#2b2b2b" fill-rule="evenodd" stroke="none" /><path d="M 244.250,143.575 L 244.250,124.250 L 245.750,124.250 L 245.750,143.575 L 245.750,152.425 L 245.750,171.750 L 244.250,171.750 L 244.250,152.425 L 244.250,143.575 Z" fill="#2b2b2b" fill-rule="evenodd" stroke="none" /><path d="M 245.750,125.750 L 214.750,125.750 L 214.750,124.250 L 245.750,124.250 L 245.750,125.750 Z" fill="#2b2b2b" fill-rule="evenodd" stroke="none" /><path d="M 260.750,125.750 L 244.250,125.750 L 244.250,124.250 L 260.750,124.250 L 260.750,125.750 Z" fill="#2b2b2b" fill-rule="evenodd" stroke="none" /><path d="M 288.750,125.750 L 259.250,125.750 L 259.250,124.250 L 288.750,124.250 L 288.750,125.750 Z" fill="#2b2b2b" fill-rule="evenodd" stroke="none" /><path d="M 214.750,91.250 L 233.575,91.250 L 242.425,91.250 L 260.750,91.250 L 260.750,92.750 L 242.425,92.750 L 233.575,92.750 L 214.750,92.750 L 214.750,91.250 Z" fill="#2b2b2b" fill-rule="evenodd" stroke="none" /><path d="M 259.250,104.075 L 259.250,91.250 L 260.750,91.250 L 260.750,104.075 L 260.750,112.925 L 260.750,125.750 L 259.250,125.750 L 259.250,112.925 L 259.250,104.075 Z" fill="#2b2b2b" fill-rule="evenodd" stroke="none" /><path d="M 260.750,86.250 L 259.250,86.250 L 259.250,58.250 L 260.750,58.250 L 260.750,86.250 Z" fill="#2b2b2b" fill-rule="evenodd" stroke="none" /><path d="M 259.250,84.750 L 269.575,84.750 L 278.425,84.750 L 288.750,84.750 L 288.750,86.250 L 278.425,86.250 L 269.575,86.250 L 259.250,86.250 L 259.250,84.750 Z" fill="#2b2b2b" fill-rule="evenodd" stroke="none" /><path d="M 229.550,171.750 L 219.450,171.750 L 219.450,170.250 L 229.550,170.250 L 229.550,171.750 Z" fill="white" fill-rule="evenodd" stroke="none" /><path d="M 245.375,152.425 L 244.625,152.425 L 244.625,143.575 L 245.375,143.575 L 245.375,152.425 Z" fill="white" fill-rule="evenodd" stroke="none" /><path d="M 215.875,114.425 L 215.125,114.425 L 215.125,105.575 L 215.875,105.575 L 215.875,114.425 Z" fill="white" fill-rule="evenodd" stroke="none" /><path d="M 242.425,92.375 L 233.575,92.375 L 233.575,91.625 L 242.425,91.625 L 242.425,92.375 Z" fill="white" fill-rule="evenodd" stroke="none" /><path d="M 260.375,112.925 L 259.625,112.925 L 259.625,104.075 L 260.375,104.075 L 260.375,112.925 Z" fill="white" fill-rule="evenodd" stroke="none" /><path d="M 278.425,85.875 L 269.575,85.875 L 269.575,85.125 L 278.425,85.125 L 278.425,85.875 Z" fill="white" fill-rule="evenodd" stroke="none" /><path d="M 161.750,151.500 L 160.250,151.500 L 160.250,114.500 L 161.750,114.500 L 161.750,151.500 Z" fill="white" fill-rule="evenodd" stroke="none" /><path d="M 179.750,58.250 L 197.250,58.250 L 197.250,59.750 L 179.750,59.750 L 179.750,58.250 Z" fill="white" fill-rule="evenodd" stroke="none" /><path d="M 242.250,171.750 L 230.750,171.750 L 230.750,170.250 L 242.250,170.250 L 242.250,171.750 Z" fill="white" fill-rule="evenodd" stroke="none" /><path d="M 288.750,156.750 L 287.250,156.750 L 287.250,139.250 L 288.750,139.250 L 288.750,156.750 Z" fill="white" fill-rule="evenodd" stroke="none" /><path d="M 231.500,58.250 L 244.500,58.250 L 244.500,59.750 L 231.500,59.750 L 231.500,58.250 Z" fill="white" fill-rule="evenodd" stroke="none" /><line stroke="#2a7fff" stroke-width="0.35" x1="161.375" x2="161.375" y1="151.5" y2="114.50000000000001" /><line stroke="#2a7fff" stroke-width="0.35" x1="160.625" x2="160.625" y1="151.5" y2="114.50000000000001" /><text fill="#2a7fff" font-family="Helvetica, Arial, sans-serif" font-size="1.8" text-anchor="end" x="159.0" y="133.7">W-03</text><line stroke="#2a7fff" stroke-width="0.35" x1="179.75" x2="197.25" y1="59.375" y2="59.375" /><line stroke="#2a7fff" stroke-width="0.35" x1="179.75" x2="197.25" y1="58.625" y2="58.625" /><text fill="#2a7fff" font-family="Helvetica, Arial, sans-serif" font-size="1.8" text-anchor="middle" x="188.5" y="57.399999999999984">W-04</text><line stroke="#2a7fff" stroke-width="0.35" x1="230.75" x2="242.25" y1="171.375" y2="171.375" /><line stroke="#2a7fff" stroke-width="0.35" x1="230.75" x2="242.25" y1="170.625" y2="170.625" /><text fill="#2a7fff" font-family="Helvetica, Arial, sans-serif" font-size="1.8" text-anchor="middle" x="236.5" y="173.6">W-01</text><line stroke="#2a7fff" stroke-width="0.35" x1="287.625" x2="287.625" y1="139.25" y2="156.75" /><line stroke="#2a7fff" stroke-width="0.35" x1="288.375" x2="288.375" y1="139.25" y2="156.75" /><text fill="#2a7fff" font-family="Helvetica, Arial, sans-serif" font-size="1.8" text-anchor="start" x="290.0" y="148.7">W-02</text><line stroke="#2a7fff" stroke-width="0.35" x1="231.5" x2="244.5" y1="59.375" y2="59.375" /><line stroke="#2a7fff" stroke-width="0.35" x1="231.5" x2="244.5" y1="58.625" y2="58.625" /><text fill="#2a7fff" font-family="Helvetica, Arial, sans-serif" font-size="1.8" text-anchor="middle" x="238.0" y="57.399999999999984">W-05</text><line stroke="#b5651d" stroke-width="0.4" x1="219.45" x2="219.45" y1="171.0" y2="160.9" /><polyline fill="none" points="229.55,171.0 229.46359309987548,169.68168545857748 229.2058508455196,168.38592764446454 228.78118327836398,167.1348973331126 228.19685657822282,165.95 227.46286873694146,164.85150956701193 226.59177848998414,163.85822151001588 225.59849043298806,162.98713126305853 224.5,162.25314342177717 223.3151026668874,161.668816721636 222.06407235553547,161.2441491544804 220.7683145414225,160.9864069001245 219.45,160.9" stroke="#b5651d" stroke-dasharray="0.8,0.5" stroke-width="0.2" /><text fill="#b5651d" font-family="Helvetica, Arial, sans-serif" font-size="1.8" text-anchor="middle" x="219.45" y="160.1">D-01</text><line stroke="#b5651d" stroke-width="0.4" x1="245.0" x2="236.15" y1="152.425" y2="152.425" /><polyline fill="none" points="245.0,143.575 243.84484319885257,143.6507129768418 242.7094514508427,143.87655643734175 241.61325162356897,144.2486661372751 240.57500000000002,144.76067517650773 239.61246135327283,145.40382293842256 238.74210498649904,146.16710498649906 237.97882293842258,147.03746135327282 237.33567517650772,148.0 236.82366613727513,149.03825162356895 236.45155643734176,150.13445145084268 236.22571297684178,151.26984319885256 236.15,152.425" stroke="#b5651d" stroke-dasharray="0.8,0.5" stroke-width="0.2" /><text fill="#b5651d" font-family="Helvetica, Arial, sans-serif" font-size="1.8" text-anchor="middle" x="236.15" y="151.625">D-02</text><line stroke="#b5651d" stroke-width="0.4" x1="215.5" x2="206.65" y1="114.425" y2="114.425" /><polyline fill="none" points="215.5,105.575 214.34484319885254,105.65071297684177 213.2094514508427,105.87655643734175 212.11325162356894,106.24866613727511 211.075,106.76067517650772 210.1124613532728,107.40382293842256 209.24210498649904,108.16710498649906 208.47882293842258,109.03746135327282 207.83567517650772,110.0 207.3236661372751,111.03825162356895 206.95155643734174,112.13445145084269 206.72571297684178,113.26984319885256 206.65,114.425" stroke="#b5651d" stroke-dasharray="0.8,0.5" stroke-width="0.2" /><text fill="#b5651d" font-family="Helvetica, Arial, sans-serif" font-size="1.8" text-anchor="middle" x="206.65" y="113.625">D-03</text><line stroke="#b5651d" stroke-width="0.4" x1="233.575" x2="233.575" y1="92.0" y2="83.14999999999999" /><polyline fill="none" points="242.425,92.0 242.34928702315824,90.84484319885254 242.12344356265825,89.70945145084269 241.7513338627249,88.61325162356894 241.23932482349227,87.57499999999999 240.5961770615774,86.61246135327282 239.83289501350094,85.74210498649904 238.96253864672718,84.97882293842255 238.0,84.33567517650772 236.96174837643105,83.82366613727511 235.86554854915732,83.45155643734174 234.73015680114747,83.22571297684178 233.575,83.14999999999999" stroke="#b5651d" stroke-dasharray="0.8,0.5" stroke-width="0.2" /><text fill="#b5651d" font-family="Helvetica, Arial, sans-serif" font-size="1.8" text-anchor="middle" x="233.575" y="82.35">D-05</text><line stroke="#b5651d" stroke-width="0.4" x1="260.0" x2="251.15" y1="112.925" y2="112.925" /><polyline fill="none" points="260.0,104.075 258.8448431988526,104.15071297684177 257.7094514508427,104.37655643734173 256.613251623569,104.74866613727511 255.57500000000002,105.26067517650772 254.61246135327283,105.90382293842256 253.74210498649904,106.66710498649904 252.97882293842258,107.53746135327282 252.33567517650772,108.5 251.82366613727513,109.53825162356895 251.45155643734176,110.63445145084269 251.2257129768418,111.76984319885254 251.15,112.925" stroke="#b5651d" stroke-dasharray="0.8,0.5" stroke-width="0.2" /><text fill="#b5651d" font-family="Helvetica, Arial, sans-serif" font-size="1.8" text-anchor="middle" x="251.15" y="112.125">D-04</text><line stroke="#b5651d" stroke-width="0.4" x1="269.575" x2="269.575" y1="85.5" y2="76.65" /><polyline fill="none" points="278.425,85.5 278.34928702315824,84.34484319885256 278.1234435626583,83.20945145084269 277.7513338627249,82.11325162356897 277.2393248234923,81.075 276.59617706157746,80.11246135327283 275.83289501350094,79.24210498649906 274.9625386467272,78.47882293842258 274.0,77.83567517650773 272.96174837643105,77.32366613727513 271.8655485491573,76.95155643734175 270.7301568011475,76.72571297684179 269.575,76.65" stroke="#b5651d" stroke-dasharray="0.8,0.5" stroke-width="0.2" /><text fill="#b5651d" font-family="Helvetica, Arial, sans-serif" font-size="1.8" text-anchor="middle" x="269.575" y="75.85000000000001">D-06</text><text fill="#111111" font-family="Helvetica, Arial, sans-serif" font-size="2.6" font-weight="bold" text-anchor="middle" x="188.5" y="131.75">R-03  Wohnen (offener Wohnbereich)</text><text fill="#111111" font-family="Helvetica, Arial, sans-serif" font-size="2.2" text-anchor="middle" x="188.5" y="134.95">38.2 m²</text><text fill="#111111" font-family="Helvetica, Arial, sans-serif" font-size="2.6" font-weight="bold" text-anchor="middle" x="188.5" y="76.5">R-06  Wohnkueche</text><text fill="#111111" font-family="Helvetica, Arial, sans-serif" font-size="2.2" text-anchor="middle" x="188.5" y="79.7">17.7 m²</text><text fill="#111111" font-family="Helvetica, Arial, sans-serif" font-size="2.6" font-weight="bold" text-anchor="middle" x="230.25" y="146.75">R-01  Arbeitsnische</text><text fill="#111111" font-family="Helvetica, Arial, sans-serif" font-size="2.2" text-anchor="middle" x="230.25" y="149.95">12.4 m²</text><text fill="#111111" font-family="Helvetica, Arial, sans-serif" font-size="2.6" font-weight="bold" text-anchor="middle" x="266.0" y="146.75">R-02  Elternschlafzimmer</text><text fill="#111111" font-family="Helvetica, Arial, sans-serif" font-size="2.2" text-anchor="middle" x="266.0" y="149.95">17.8 m²</text><text fill="#111111" font-family="Helvetica, Arial, sans-serif" font-size="2.6" font-weight="bold" text-anchor="middle" x="237.75" y="107.5">R-04  Kinderzimmer 1</text><text fill="#111111" font-family="Helvetica, Arial, sans-serif" font-size="2.2" text-anchor="middle" x="237.75" y="110.7">13.9 m²</text><text fill="#111111" font-family="Helvetica, Arial, sans-serif" font-size="2.6" font-weight="bold" text-anchor="middle" x="237.75" y="75.00000000000001">R-07  Kinderzimmer 2</text><text fill="#111111" font-family="Helvetica, Arial, sans-serif" font-size="2.2" text-anchor="middle" x="237.75" y="78.20000000000002">13.5 m²</text><text fill="#111111" font-family="Helvetica, Arial, sans-serif" font-size="2.6" font-weight="bold" text-anchor="middle" x="273.5" y="104.5">R-05  Bad</text><text fill="#111111" font-family="Helvetica, Arial, sans-serif" font-size="2.2" text-anchor="middle" x="273.5" y="107.7">9.9 m²</text><text fill="#111111" font-family="Helvetica, Arial, sans-serif" font-size="2.6" font-weight="bold" text-anchor="middle" x="273.5" y="71.75">R-08  Hauswirtschaftsraum</text><text fill="#111111" font-family="Helvetica, Arial, sans-serif" font-size="2.2" text-anchor="middle" x="273.5" y="74.95">6.4 m²</text><line stroke="#555555" stroke-width="0.18" x1="159.5" x2="289.5" y1="184.5" y2="184.5" /><line stroke="#555555" stroke-width="0.25" x1="159.0" x2="160.0" y1="185.0" y2="184.0" /><line stroke="#555555" stroke-width="0.25" x1="179.3" x2="180.3" y1="185.0" y2="184.0" /><line stroke="#555555" stroke-width="0.25" x1="196.8" x2="197.8" y1="185.0" y2="184.0" /><line stroke="#555555" stroke-width="0.25" x1="219.0" x2="220.0" y1="185.0" y2="184.0" /><line stroke="#555555" stroke-width="0.25" x1="229.0" x2="230.0" y1="185.0" y2="184.0" /><line stroke="#555555" stroke-width="0.25" x1="230.2" x2="231.2" y1="185.0" y2="184.0" /><line stroke="#555555" stroke-width="0.25" x1="231.0" x2="232.0" y1="185.0" y2="184.0" /><line stroke="#555555" stroke-width="0.25" x1="241.8" x2="242.8" y1="185.0" y2="184.0" /><line stroke="#555555" stroke-width="0.25" x1="244.0" x2="245.0" y1="185.0" y2="184.0" /><line stroke="#555555" stroke-width="0.25" x1="289.0" x2="290.0" y1="185.0" y2="184.0" /><text fill="#555555" font-family="Helvetica, Arial, sans-serif" font-size="1.9" text-anchor="middle" x="169.65" y="183.7">2 030</text><text fill="#555555" font-family="Helvetica, Arial, sans-serif" font-size="1.9" text-anchor="middle" x="188.55" y="183.7">1 750</text><text fill="#555555" font-family="Helvetica, Arial, sans-serif" font-size="1.9" text-anchor="middle" x="208.4" y="183.7">2 220</text><text fill="#555555" font-family="Helvetica, Arial, sans-serif" font-size="1.9" text-anchor="middle" x="224.5" y="183.7">1 000</text><text fill="#555555" font-family="Helvetica, Arial, sans-serif" font-size="1.9" text-anchor="middle" x="230.10000000000002" y="183.7">120</text><text fill="#555555" font-family="Helvetica, Arial, sans-serif" font-size="1.9" text-anchor="middle" x="231.1" y="183.7">80</text><text fill="#555555" font-family="Helvetica, Arial, sans-serif" font-size="1.9" text-anchor="middle" x="236.9" y="183.7">1 080</text><text fill="#555555" font-family="Helvetica, Arial, sans-serif" font-size="1.9" text-anchor="middle" x="243.4" y="183.7">220</text><text fill="#555555" font-family="Helvetica, Arial, sans-serif" font-size="1.9" text-anchor="middle" x="267.0" y="183.7">4 500</text><line stroke="#555555" stroke-width="0.18" x1="159.5" x2="289.5" y1="196.5" y2="196.5" /><line stroke="#555555" stroke-width="0.25" x1="159.0" x2="160.0" y1="197.0" y2="196.0" /><line stroke="#555555" stroke-width="0.25" x1="289.0" x2="290.0" y1="197.0" y2="196.0" /><text fill="#555555" font-family="Helvetica, Arial, sans-serif" font-size="1.9" text-anchor="middle" x="224.5" y="195.7">13 000</text><line stroke="#555555" stroke-width="0.18" x1="147.5" x2="147.5" y1="172.5" y2="57.5" /><line stroke="#555555" stroke-width="0.25" x1="147.0" x2="148.0" y1="173.0" y2="172.0" /><line stroke="#555555" stroke-width="0.25" x1="147.0" x2="148.0" y1="157.3" y2="156.3" /><line stroke="#555555" stroke-width="0.25" x1="147.0" x2="148.0" y1="152.0" y2="151.0" /><line stroke="#555555" stroke-width="0.25" x1="147.0" x2="148.0" y1="139.8" y2="138.8" /><line stroke="#555555" stroke-width="0.25" x1="147.0" x2="148.0" y1="115.0" y2="114.0" /><line stroke="#555555" stroke-width="0.25" x1="147.0" x2="148.0" y1="58.0" y2="57.0" /><text fill="#555555" font-family="Helvetica, Arial, sans-serif" font-size="1.9" text-anchor="middle" transform="rotate(-90,146.7,164.65)" x="146.7" y="164.65">1 570</text><text fill="#555555" font-family="Helvetica, Arial, sans-serif" font-size="1.9" text-anchor="middle" transform="rotate(-90,146.7,154.15)" x="146.7" y="154.15">530</text><text fill="#555555" font-family="Helvetica, Arial, sans-serif" font-size="1.9" text-anchor="middle" transform="rotate(-90,146.7,145.4)" x="146.7" y="145.4">1 220</text><text fill="#555555" font-family="Helvetica, Arial, sans-serif" font-size="1.9" text-anchor="middle" transform="rotate(-90,146.7,126.9)" x="146.7" y="126.9">2 480</text><text fill="#555555" font-family="Helvetica, Arial, sans-serif" font-size="1.9" text-anchor="middle" transform="rotate(-90,146.7,86.0)" x="146.7" y="86.0">5 700</text><line stroke="#555555" stroke-width="0.18" x1="135.5" x2="135.5" y1="172.5" y2="57.5" /><line stroke="#555555" stroke-width="0.25" x1="135.0" x2="136.0" y1="173.0" y2="172.0" /><line stroke="#555555" stroke-width="0.25" x1="135.0" x2="136.0" y1="58.0" y2="57.0" /><text fill="#555555" font-family="Helvetica, Arial, sans-serif" font-size="1.9" text-anchor="middle" transform="rotate(-90,134.7,115.0)" x="134.7" y="115.0">11 500</text><polygon fill="#000" points="398.0,16.0 395.0,26.0 398.0,24.0 401.0,26.0" /><text font-family="Helvetica, Arial, sans-serif" font-size="3" font-weight="bold" text-anchor="middle" x="398.0" y="14.5">N</text><rect fill="#000" height="1.2" stroke="#000" stroke-width="0.2" width="10.0" x="15.0" y="243.0" /><text font-family="Helvetica, Arial, sans-serif" font-size="1.8" text-anchor="middle" x="15.0" y="242.2">0</text><rect fill="#fff" height="1.2" stroke="#000" stroke-width="0.2" width="10.0" x="25.0" y="243.0" /><text font-family="Helvetica, Arial, sans-serif" font-size="1.8" text-anchor="middle" x="25.0" y="242.2">1</text><rect fill="#000" height="1.2" stroke="#000" stroke-width="0.2" width="10.0" x="35.0" y="243.0" /><text font-family="Helvetica, Arial, sans-serif" font-size="1.8" text-anchor="middle" x="35.0" y="242.2">2</text><rect fill="#fff" height="1.2" stroke="#000" stroke-width="0.2" width="10.0" x="45.0" y="243.0" /><text font-family="Helvetica, Arial, sans-serif" font-size="1.8" text-anchor="middle" x="45.0" y="242.2">3</text><rect fill="#000" height="1.2" stroke="#000" stroke-width="0.2" width="10.0" x="55.0" y="243.0" /><text font-family="Helvetica, Arial, sans-serif" font-size="1.8" text-anchor="middle" x="55.0" y="242.2">4</text><text font-family="Helvetica, Arial, sans-serif" font-size="1.8" text-anchor="middle" x="65.0" y="242.2">5 m</text><rect fill="white" height="38.0" stroke="#000" stroke-width="0.5" width="150" x="260.0" y="249.0" /><line stroke="#000" stroke-width="0.3" x1="260.0" x2="410.0" y1="261.0" y2="261.0" /><line stroke="#000" stroke-width="0.3" x1="355.0" x2="355.0" y1="261.0" y2="287.0" /><text font-family="Helvetica, Arial, sans-serif" font-size="5" font-weight="bold" x="263.0" y="257.0">Familienhaus</text><text font-family="Helvetica, Arial, sans-serif" font-size="4" x="263.0" y="269.0">FLOOR PLAN — ERDGESCHOSS</text><text fill="#444" font-family="Helvetica, Arial, sans-serif" font-size="2.4" x="263.0" y="276.0">Model: model.ifc</text><text fill="#666" font-family="Helvetica, Arial, sans-serif" font-size="2.2" x="263.0" y="282.0">Generated by Recognition — do not edit by hand; change the generator.</text><text fill="#666" font-family="Helvetica, Arial, sans-serif" font-size="2.2" x="358.0" y="265.0">SHEET</text><text font-family="Helvetica, Arial, sans-serif" font-size="6" font-weight="bold" x="358.0" y="273.0">A-101</text><text font-family="Helvetica, Arial, sans-serif" font-size="2.4" x="358.0" y="279.0">SCALE 1:100  ·  A3</text><text font-family="Helvetica, Arial, sans-serif" font-size="2.4" x="358.0" y="284.0">2026-08-22  ·  REV 0fb84ca</text><rect fill="none" height="277.0" stroke="#000" stroke-width="0.5" width="400.0" x="10.0" y="10.0" /></svg>